<svg width="1836" height="1584" xmlns="http://www.w3.org/2000/svg" xmlns:xlink="http://www.w3.org/1999/xlink" overflow="hidden"><defs><clipPath id="clip0"><rect x="1416" y="121" width="1836" height="1584"/></clipPath></defs><g clip-path="url(#clip0)" transform="translate(-1416 -121)"><text font-family="SimSun,SimSun_MSFontService,sans-serif" font-weight="400" font-size="83" transform="matrix(1 0 0 1 1577.42 622)">居住</text><path d="M2183 892C2183 799.216 2274.56 724 2387.5 724 2500.44 724 2592 799.216 2592 892 2592 984.784 2500.44 1060 2387.5 1060 2274.56 1060 2183 984.784 2183 892Z" stroke="#C00000" stroke-width="13.75" stroke-miterlimit="8" fill="#FFF2CC" fill-rule="evenodd"/><rect x="2236.5" y="686.5" width="307" height="86.9999" stroke="#000000" stroke-width="6.875" stroke-miterlimit="8" fill="#FFFFFF"/><text font-family="SimSun,SimSun_MSFontService,sans-serif" font-weight="400" font-size="73" transform="matrix(1 0 0 1 2315.92 757)">用户<tspan font-size="83" x="-25.8833" y="133">姓名</tspan><tspan font-family="Times New Roman,Times New Roman_MSFontService,sans-serif" font-size="83" x="139.117" y="133">:</tspan><tspan font-family="Times New Roman,Times New Roman_MSFontService,sans-serif" font-size="83" x="-5.2583" y="231">Jack</tspan></text><path d="M1533.5 892.5C1533.5 799.716 1625.28 724.5 1738.5 724.5 1851.72 724.5 1943.5 799.716 1943.5 892.5 1943.5 985.284 1851.72 1060.5 1738.5 1060.5 1625.28 1060.5 1533.5 985.284 1533.5 892.5Z" stroke="#000000" stroke-width="6.875" stroke-miterlimit="8" fill="#FFF2CC" fill-rule="evenodd"/><rect x="1586.5" y="686.5" width="307" height="86.9999" stroke="#000000" stroke-width="6.875" stroke-miterlimit="8" fill="#FFFFFF"/><text font-family="SimSun,SimSun_MSFontService,sans-serif" font-weight="400" font-size="73" transform="matrix(1 0 0 1 1666.19 757)">用户<tspan font-size="83" x="-25.8833" y="133">姓名</tspan><tspan font-family="Times New Roman,Times New Roman_MSFontService,sans-serif" font-size="83" x="139.117" y="133">:</tspan><tspan font-family="Times New Roman,Times New Roman_MSFontService,sans-serif" font-size="83" x="-0.675049" y="231">Bob</tspan></text><path d="M2521.5 355C2521.5 261.94 2613.06 186.5 2726 186.5 2838.94 186.5 2930.5 261.94 2930.5 355 2930.5 448.06 2838.94 523.5 2726 523.5 2613.06 523.5 2521.5 448.06 2521.5 355Z" stroke="#000000" stroke-width="6.875" stroke-miterlimit="8" fill="#FFF2CC" fill-rule="evenodd"/><rect x="2573.5" y="148.5" width="308" height="87" stroke="#000000" stroke-width="6.875" stroke-miterlimit="8" fill="#FFFFFF"/><text font-family="SimSun,SimSun_MSFontService,sans-serif" font-weight="400" font-size="73" transform="matrix(1 0 0 1 2653.78 220)">城市<tspan font-size="83" x="-31.7239" y="132">名称</tspan><tspan font-family="Times New Roman,Times New Roman_MSFontService,sans-serif" font-size="83" x="133.276" y="132">:</tspan><tspan font-size="83" x="-20.2654" y="231">上海</tspan></text><path d="M2833 893C2833 800.216 2924.56 725 3037.5 725 3150.44 725 3242 800.216 3242 893 3242 985.784 3150.44 1061 3037.5 1061 2924.56 1061 2833 985.784 2833 893Z" stroke="#C00000" stroke-width="13.75" stroke-miterlimit="8" fill="#FFF2CC" fill-rule="evenodd"/><rect x="2885.5" y="686.5" width="308" height="88" stroke="#000000" stroke-width="6.875" stroke-miterlimit="8" fill="#FFFFFF"/><text font-family="SimSun,SimSun_MSFontService,sans-serif" font-weight="400" font-size="73" transform="matrix(1 0 0 1 2965.65 758)">用户<tspan font-size="83" x="-25.8833" y="133">姓名</tspan><tspan font-family="Times New Roman,Times New Roman_MSFontService,sans-serif" font-size="83" x="139.117" y="133">:</tspan><tspan font-family="Times New Roman,Times New Roman_MSFontService,sans-serif" font-size="83" x="3.90845" y="231">Leo</tspan></text><path d="M1598.5 1510.5C1598.5 1417.72 1690.06 1342.5 1803 1342.5 1915.94 1342.5 2007.5 1417.72 2007.5 1510.5 2007.5 1603.28 1915.94 1678.5 1803 1678.5 1690.06 1678.5 1598.5 1603.28 1598.5 1510.5Z" stroke="#000000" stroke-width="6.875" stroke-miterlimit="8" fill="#FFF2CC" fill-rule="evenodd"/><rect x="1651.5" y="1304.5" width="307" height="87" stroke="#000000" stroke-width="6.875" stroke-miterlimit="8" fill="#FFFFFF"/><text font-family="SimSun,SimSun_MSFontService,sans-serif" font-weight="400" font-size="73" transform="matrix(1 0 0 1 1731.09 1375)">话题<tspan font-size="83" x="-25.8833" y="133">名称</tspan><tspan font-family="Times New Roman,Times New Roman_MSFontService,sans-serif" font-size="83" x="139.117" y="133">:</tspan><tspan font-size="83" x="-14.4251" y="232">旅游</tspan></text><path d="M2510 1529.5C2510 1436.44 2601.56 1361 2714.5 1361 2827.44 1361 2919 1436.44 2919 1529.5 2919 1622.56 2827.44 1698 2714.5 1698 2601.56 1698 2510 1622.56 2510 1529.5Z" stroke="#C00000" stroke-width="13.75" stroke-miterlimit="8" fill="#FFF2CC" fill-rule="evenodd"/><rect x="2562.5" y="1323.5" width="307" height="88" stroke="#000000" stroke-width="6.875" stroke-miterlimit="8" fill="#FFFFFF"/><text font-family="SimSun,SimSun_MSFontService,sans-serif" font-weight="400" font-size="73" transform="matrix(1 0 0 1 2642.36 1395)">话题<tspan font-size="83" x="-25.8833" y="132">名称</tspan><tspan font-family="Times New Roman,Times New Roman_MSFontService,sans-serif" font-size="83" x="139.117" y="132">:</tspan><tspan font-size="83" x="-14.4251" y="231">体育</tspan></text><path d="M1622.5 355C1622.5 261.94 1714.06 186.5 1827 186.5 1939.94 186.5 2031.5 261.94 2031.5 355 2031.5 448.06 1939.94 523.5 1827 523.5 1714.06 523.5 1622.5 448.06 1622.5 355Z" stroke="#000000" stroke-width="6.875" stroke-miterlimit="8" fill="#FFF2CC" fill-rule="evenodd"/><rect x="1674.5" y="148.5" width="308" height="87" stroke="#000000" stroke-width="6.875" stroke-miterlimit="8" fill="#FFFFFF"/><text font-family="SimSun,SimSun_MSFontService,sans-serif" font-weight="400" font-size="73" transform="matrix(1 0 0 1 1754.76 220)">城市<tspan font-size="83" x="-31.7239" y="132">名称</tspan><tspan font-family="Times New Roman,Times New Roman_MSFontService,sans-serif" font-size="83" x="133.276" y="132">:</tspan><tspan font-size="83" x="-20.2655" y="231">北京</tspan></text><path d="M2684.87 1306.51 2383.7 1065.37 2392.3 1054.63 2693.46 1295.78ZM2696.69 1280.75 2716 1322.63 2670.91 1312.95Z" fill="#C00000"/><path d="M27.3288 21.9555 189.489 215.813 178.943 224.635 16.7822 30.7777ZM10.6466 44.8732 0 0 42.2865 18.4066Z" transform="matrix(-1 0 0 1 2573.22 465)"/><path d="M34.375-6.87495 240.638-6.87464 240.638 6.87536 34.375 6.87505ZM41.25 20.6251 0 0 41.25-20.6249Z" transform="matrix(-1 0 0 1 2183.64 892)"/><path d="M31.0022 16.3635 326.075 256.47 317.397 267.135 22.3238 27.0288ZM18.9779 42.0332 0 0 45.0133 10.0376Z" fill="#C00000" transform="matrix(1 0 0 -1 2716 1322.8)"/><path d="M2896.73 495.677 3044.18 681.822 3033.4 690.359 2885.95 504.215ZM2879.45 518.141 2870 473 2911.78 492.529Z"/><path d="M1788.77 1271.89 1731.37 1061.81 1744.63 1058.19 1802.04 1268.27ZM1813.49 1258.01 1804.46 1303.24 1773.7 1268.88Z"/><path d="M22.2532 27.0869 93.0782 159.759 80.9484 166.234 10.1234 33.5622ZM1.23128 46.1025 0 0 37.6207 26.6764Z" transform="matrix(-1 0 0 1 1827.01 523)"/><text font-family="SimSun,SimSun_MSFontService,sans-serif" font-weight="400" font-size="83" transform="matrix(1 0 0 1 2282.11 581)">居住<tspan font-size="83" x="718.835" y="2">居住</tspan><tspan font-size="83" x="-307.665" y="270">认识</tspan><tspan font-size="83" x="-801.984" y="633">感兴趣</tspan><tspan font-size="83" x="-31.4739" y="663">感兴趣</tspan><tspan font-size="83" x="658.35" y="668">感兴趣</tspan></text></g></svg>