<svg width="1161" height="395" xmlns="http://www.w3.org/2000/svg" xmlns:xlink="http://www.w3.org/1999/xlink" overflow="hidden"><defs><clipPath id="clip0"><rect x="52" y="111" width="1161" height="395"/></clipPath><clipPath id="clip1"><rect x="355" y="232" width="108" height="116"/></clipPath><clipPath id="clip2"><rect x="355" y="232" width="108" height="116"/></clipPath><clipPath id="clip3"><rect x="355" y="232" width="108" height="116"/></clipPath><clipPath id="clip4"><rect x="95" y="362" width="115" height="121"/></clipPath><clipPath id="clip5"><rect x="95" y="362" width="115" height="121"/></clipPath><clipPath id="clip6"><rect x="95" y="362" width="115" height="121"/></clipPath><clipPath id="clip7"><rect x="53" y="124" width="117" height="115"/></clipPath><clipPath id="clip8"><rect x="53" y="124" width="117" height="115"/></clipPath><clipPath id="clip9"><rect x="53" y="124" width="117" height="115"/></clipPath></defs><g clip-path="url(#clip0)" transform="translate(-52 -111)"><path d="M640 298 787 298 787 291 801 305 787 319 787 312 640 312Z" fill="#595959" fill-rule="evenodd"/><text font-family="SimSun,SimSun_MSFontService,sans-serif" font-weight="400" font-size="37" transform="translate(679.04 285)">建模</text><g clip-path="url(#clip1)"><g clip-path="url(#clip2)"><g clip-path="url(#clip3)"><path d="M72 33.75C72 43.6911 63.9411 51.75 54 51.75 44.0589 51.75 36 43.6911 36 33.75 36 23.8089 44.0589 15.75 54 15.75 63.9411 15.75 72 23.8089 72 33.75Z" transform="matrix(1 0 0 1.07407 355 232)"/><path d="M90 92.25 90 74.25C90 71.55 88.65 68.85 86.4 67.05 81.45 63 75.15 60.3 68.85 58.5 64.35 57.15 59.4 56.25 54 56.25 49.05 56.25 44.1 57.15 39.15 58.5 32.85 60.3 26.55 63.45 21.6 67.05 19.35 68.85 18 71.55 18 74.25L18 92.25 90 92.25Z" transform="matrix(1 0 0 1.07407 355 232)"/></g></g></g><g clip-path="url(#clip4)"><g clip-path="url(#clip5)"><g clip-path="url(#clip6)"><path d="M95.8333 79.0625C95.7708 76.0612 94.3635 73.2467 92 71.3958 86.7292 67.0833 80.0208 64.2083 73.3125 62.2917 68.1874 60.7228 62.8597 59.9156 57.5 59.8958 52.1461 59.9882 46.8285 60.7939 41.6875 62.2917 34.9879 64.2467 28.6689 67.3252 23 71.3958 20.6365 73.2467 19.2292 76.0612 19.1667 79.0625L19.1667 98.2292 95.8333 98.2292Z" transform="matrix(1 0 0 1.05217 95 362)"/><path d="M53.9062 30.8464C57.0208 29.0135 64.6875 23.0958 64.6875 23.0958L64.6875 23.0958C65.8973 23.2007 67.0483 23.6635 67.9937 24.4255 70.2943 26.0409 72.2425 28.1073 73.7198 30.499 75.0495 32.4875 76.1875 34.0927 76.5349 34.5719L76.5349 34.5719 76.6667 34.7396 76.6667 34.7396C77.2656 33.5417 77.2417 30.1995 76.8224 27.1568 76.2354 22.9641 75.7562 21.7182 73.0729 19.4661 71.3631 17.9166 69.0813 17.156 66.7839 17.3698 63.6666 14.9508 59.9115 13.4938 55.9786 13.1771 49.9891 12.9615 43.4484 16.088 40.6693 19.7536 36.4646 25.2641 36.9318 28.8578 36.9318 30.1396 36.9318 31.4214 35.4583 33.6495 36.4885 33.6495 37.1594 33.6495 37.8182 33.6495 38.4891 33.6495L38.4891 33.6495C42.2865 33.5417 50.037 33.1224 53.9062 30.8464Z" transform="matrix(1 0 0 1.05217 95 362)"/><path d="M74.774 36.1411C74.7141 36.0573 73.3964 34.2245 71.7911 31.8406 70.4728 29.6785 68.7235 27.8108 66.6521 26.3542 66.2489 26.0606 65.8102 25.8191 65.3464 25.6354 63.2141 27.2526 57.7276 31.3734 55.1161 32.8948 50.9714 35.2906 43.4125 35.9255 38.3453 36.0333 38.4766 46.618 47.1635 55.0921 57.7482 54.9608 67.2022 54.8436 75.1584 47.8499 76.487 38.4891Z" transform="matrix(1 0 0 1.05217 95 362)"/></g></g></g><g clip-path="url(#clip7)"><g clip-path="url(#clip8)"><g clip-path="url(#clip9)"><path d="M95.8333 79.0625C95.7708 76.0612 94.3635 73.2467 92 71.3958 86.7292 67.0833 80.0208 64.2083 73.3125 62.2917 68.1874 60.7228 62.8597 59.9156 57.5 59.8958 52.1461 59.9882 46.8285 60.7939 41.6875 62.2917 34.9879 64.2467 28.6689 67.3252 23 71.3958 20.6365 73.2467 19.2292 76.0612 19.1667 79.0625L19.1667 98.2292 95.8333 98.2292Z" transform="matrix(1.01739 0 0 1 53 124)"/><path d="M77.9964 49.8333C76.8943 45.5208 81.1109 34.7396 81.1469 27.1448 81.1469 21.0714 79.4219 18.3521 76.1635 16.5073 74.2828 15.4411 69.9464 16.4234 69.9464 16.4234 69.9464 16.4234 67.7062 12.1828 60.2073 9.84688 54.0453 8.16923 47.4692 9.00955 41.9271 12.1828 37.2911 15.1776 35.051 18.4719 34.9432 29.8042 34.8474 40.1901 36.2729 49.4141 35.6141 53.7625 35.3103 56.1695 34.3947 58.4585 32.9547 60.4109 32.9547 60.4109 40.1422 61.3333 44.1552 59.213 46.1747 57.8581 48.0888 56.3524 49.8812 54.7089 43.7333 51.8415 39.2515 46.2989 37.7344 39.687 37.5786 39.112 36.5365 35.3505 38.2016 33.2422 39.112 32.0443 41.1964 31.7089 44.6703 31.0979 48.8288 30.5501 52.8872 29.4085 56.7214 27.7078 61.0315 25.5404 65.0287 22.8003 68.6047 19.562 69.0761 19.0978 69.8345 19.1035 70.2988 19.5749 70.4752 19.7541 70.5908 19.9842 70.6292 20.2328 70.9144 22.2034 71.5992 24.0948 72.6417 25.7911 73.1299 26.4167 73.7313 26.945 74.4146 27.3484 75.2111 27.8257 75.8971 28.4667 76.4271 29.2292 77.2921 30.9174 77.7824 32.7725 77.8646 34.6677 77.7862 43.4094 72.5924 51.2938 64.5917 54.8167 66.101 56.1464 68.0776 57.7875 70.2578 59.3688 73.8516 61.9682 82.5365 58.3745 82.5365 58.3745 82.5365 58.3745 79.7333 56.6974 77.9964 49.8333Z" transform="matrix(1.01739 0 0 1 53 124)"/><path d="M75.4688 34.7396C75.4048 33.2917 75.0546 31.8707 74.4385 30.5589 74.0877 30.0632 73.629 29.6536 73.0969 29.3609 72.1807 28.8091 71.3696 28.0994 70.701 27.2646 69.7372 25.8769 69.0423 24.3206 68.6526 22.6766 65.3081 25.4846 61.6502 27.8964 57.7516 29.8641 53.7046 31.6643 49.4204 32.8745 45.0297 33.4578 43.0052 33.8172 40.4776 34.2604 40.0464 34.7156 39.3276 35.65 39.699 38.0339 40.0464 39.0401 42.0948 47.6771 49.426 53.9062 57.5 53.9062 67.0833 53.9062 75.4688 44.9458 75.4688 34.7396Z" transform="matrix(1.01739 0 0 1 53 124)"/></g></g></g><rect x="172" y="113" width="127" height="135" stroke="#000000" stroke-width="2" stroke-miterlimit="8" fill="#D6DCE5"/><text font-family="SimSun,SimSun_MSFontService,sans-serif" font-weight="400" font-size="21" transform="translate(203.543 142)">开发者</text><text font-family="Times New Roman,Times New Roman_MSFontService,sans-serif" font-weight="400" font-size="24" transform="translate(181.71 178)">ID 0115</text><text font-family="SimSun,SimSun_MSFontService,sans-serif" font-weight="400" font-size="24" transform="translate(181.71 207)">姓名</text><text font-family="Times New Roman,Times New Roman_MSFontService,sans-serif" font-weight="400" font-size="24" transform="translate(234.383 207)">Alice</text><text font-family="SimSun,SimSun_MSFontService,sans-serif" font-weight="400" font-size="24" transform="translate(181.71 236)">技术</text><text font-family="Times New Roman,Times New Roman_MSFontService,sans-serif" font-weight="400" font-size="24" transform="translate(235.71 236)">C++</text><rect x="212" y="363" width="127" height="136" stroke="#000000" stroke-width="2" stroke-miterlimit="8" fill="#D6DCE5"/><text font-family="SimSun,SimSun_MSFontService,sans-serif" font-weight="400" font-size="21" transform="translate(242.971 392)">开发者</text><text font-family="Times New Roman,Times New Roman_MSFontService,sans-serif" font-weight="400" font-size="24" transform="translate(221.138 428)">ID 0121</text><text font-family="SimSun,SimSun_MSFontService,sans-serif" font-weight="400" font-size="24" transform="translate(221.138 457)">姓名</text><text font-family="Times New Roman,Times New Roman_MSFontService,sans-serif" font-weight="400" font-size="24" transform="translate(275.138 457)">Bob</text><text font-family="SimSun,SimSun_MSFontService,sans-serif" font-weight="400" font-size="24" transform="translate(221.138 486)">技术</text><text font-family="Times New Roman,Times New Roman_MSFontService,sans-serif" font-weight="400" font-size="24" transform="translate(275.138 486)">Java</text><rect x="460" y="227" width="127" height="135" stroke="#000000" stroke-width="2" stroke-miterlimit="8" fill="#D6DCE5"/><text font-family="SimSun,SimSun_MSFontService,sans-serif" font-weight="400" font-size="21" transform="translate(491.913 256)">管理者</text><text font-family="Times New Roman,Times New Roman_MSFontService,sans-serif" font-weight="400" font-size="24" transform="translate(470.079 292)">ID 0007</text><text font-family="SimSun,SimSun_MSFontService,sans-serif" font-weight="400" font-size="24" transform="translate(470.079 321)">姓名</text><text font-family="Times New Roman,Times New Roman_MSFontService,sans-serif" font-weight="400" font-size="24" transform="translate(524.079 321)">Jack</text><text font-family="SimSun,SimSun_MSFontService,sans-serif" font-weight="400" font-size="24" transform="translate(470.079 350)">职级</text><text font-family="Times New Roman,Times New Roman_MSFontService,sans-serif" font-weight="400" font-size="24" transform="translate(524.079 350)">G3</text><path d="M1.28228-1.53485 4.35198 1.02971 1.78742 4.09941-1.28228 1.53485ZM7.42167 3.59427 10.4914 6.15882 7.92681 9.22852 4.85712 6.66396ZM13.5611 8.72338 16.6308 11.2879 14.0662 14.3576 10.9965 11.7931ZM19.7005 13.8525 22.7702 16.4171 20.2056 19.4868 17.1359 16.9222ZM25.8399 18.9816 28.9096 21.5462 26.345 24.6159 23.2753 22.0513ZM31.9793 24.1107 35.049 26.6753 32.4844 29.745 29.4147 27.1804ZM38.1186 29.2398 41.1883 31.8044 38.6238 34.8741 35.5541 32.3095ZM44.258 34.369 45.3088 35.2468 42.7443 38.3165 41.6935 37.4387ZM46.3385 30.8949 51.7008 43.1931 38.6449 40.1039Z" transform="matrix(-1 0 0 1 359.701 314)"/><path d="M358.55 264.391 355.364 261.973 357.782 258.787 360.968 261.205ZM352.178 259.555 348.991 257.137 351.409 253.951 354.596 256.369ZM345.805 254.719 342.619 252.301 345.037 249.114 348.223 251.532ZM339.432 249.883 336.246 247.464 338.664 244.278 341.85 246.696ZM333.06 245.046 329.873 242.628 332.291 239.442 335.478 241.86ZM326.687 240.21 323.501 237.792 325.919 234.606 329.105 237.024ZM320.314 235.374 317.128 232.956 319.546 229.769 322.732 232.188ZM313.942 230.538 312.757 229.638 315.175 226.452 316.36 227.351ZM311.932 234.034 306 222 319.186 224.475Z"/><text font-family="SimSun,SimSun_MSFontService,sans-serif" font-weight="400" font-size="24" transform="matrix(0.785985 0.618246 -0.618246 0.785985 324.65 220)">监管</text><text font-family="SimSun,SimSun_MSFontService,sans-serif" font-weight="400" font-size="24" transform="matrix(0.759419 -0.650602 0.650602 0.759419 311.136 340)">监管</text><path d="M116.066 247.851 117.334 251.644 113.54 252.912 112.273 249.118ZM118.602 255.438 119.87 259.232 116.076 260.5 114.808 256.706ZM121.138 263.026 122.405 266.819 118.612 268.087 117.344 264.293ZM123.673 270.613 124.941 274.407 121.147 275.675 119.879 271.881ZM126.209 278.201 127.477 281.995 123.683 283.262 122.415 279.469ZM128.744 285.788 130.012 289.582 126.218 290.85 124.951 287.056ZM131.28 293.376 132.548 297.17 128.754 298.437 127.486 294.644ZM133.816 300.963 135.083 304.757 131.29 306.025 130.022 302.231ZM136.351 308.551 137.619 312.345 133.825 313.612 132.558 309.819ZM138.887 316.138 140.155 319.932 136.361 321.2 135.093 317.406ZM141.423 323.726 142.69 327.52 138.897 328.788 137.629 324.994ZM143.958 331.313 145.226 335.107 141.432 336.375 140.164 332.581ZM146.494 338.901 147.762 342.695 143.968 343.963 142.7 340.169ZM149.029 346.489 150.297 350.282 146.503 351.55 145.236 347.756ZM109.113 252.283 111 239 120.494 248.48ZM154.217 349.391 152.33 362.674 142.835 353.195Z"/><text font-family="SimSun,SimSun_MSFontService,sans-serif" font-weight="400" font-size="24" transform="matrix(0.319972 0.947427 -0.947427 0.319972 133.985 273)">合作</text><path d="M832 409C832 381.938 866.25 360 908.5 360 950.75 360 985 381.938 985 409 985 436.062 950.75 458 908.5 458 866.25 458 832 436.062 832 409Z" stroke="#000000" stroke-width="2" stroke-miterlimit="8" fill="#E2F0D9" fill-rule="evenodd"/><text font-family="Times New Roman,Times New Roman_MSFontService,sans-serif" font-weight="400" font-size="21" transform="translate(864.372 392)">ID 0121</text><text font-family="SimSun,SimSun_MSFontService,sans-serif" font-weight="400" font-size="21" transform="translate(864.372 417)">姓名</text><text font-family="Times New Roman,Times New Roman_MSFontService,sans-serif" font-weight="400" font-size="21" transform="translate(912.372 417)">Bob</text><text font-family="SimSun,SimSun_MSFontService,sans-serif" font-weight="400" font-size="21" transform="translate(864.372 443)">技术</text><text font-family="Times New Roman,Times New Roman_MSFontService,sans-serif" font-weight="400" font-size="21" transform="translate(912.372 443)">Java</text><path d="M1058 331C1058 301.729 1092.25 278 1134.5 278 1176.75 278 1211 301.729 1211 331 1211 360.271 1176.75 384 1134.5 384 1092.25 384 1058 360.271 1058 331Z" stroke="#000000" stroke-width="2" stroke-miterlimit="8" fill="#E2F0D9" fill-rule="evenodd"/><text font-family="Times New Roman,Times New Roman_MSFontService,sans-serif" font-weight="400" font-size="21" transform="translate(1090.21 314)">ID 0007</text><text font-family="SimSun,SimSun_MSFontService,sans-serif" font-weight="400" font-size="21" transform="translate(1090.21 339)">姓名</text><text font-family="Times New Roman,Times New Roman_MSFontService,sans-serif" font-weight="400" font-size="21" transform="translate(1138.21 339)">Jack</text><text font-family="SimSun,SimSun_MSFontService,sans-serif" font-weight="400" font-size="21" transform="translate(1090.21 365)">职级</text><text font-family="Times New Roman,Times New Roman_MSFontService,sans-serif" font-weight="400" font-size="21" transform="translate(1138.21 365)">G3</text><rect x="1092" y="266" width="86" height="25" stroke="#000000" stroke-width="2" stroke-miterlimit="8" fill="#FFFFFF"/><text font-family="SimSun,SimSun_MSFontService,sans-serif" font-weight="400" font-size="21" transform="translate(1103.21 287)">管理者</text><path d="M835 217C835 189.938 871.713 168 917 168 962.287 168 999 189.938 999 217 999 244.062 962.287 266 917 266 871.713 266 835 244.062 835 217Z" stroke="#000000" stroke-width="2" stroke-miterlimit="8" fill="#E2F0D9" fill-rule="evenodd"/><text font-family="Times New Roman,Times New Roman_MSFontService,sans-serif" font-weight="400" font-size="21" transform="translate(868.386 200)">ID 0115</text><text font-family="SimSun,SimSun_MSFontService,sans-serif" font-weight="400" font-size="21" transform="translate(868.386 225)">姓名</text><text font-family="Times New Roman,Times New Roman_MSFontService,sans-serif" font-weight="400" font-size="21" transform="translate(915.206 225)">Alice</text><text font-family="SimSun,SimSun_MSFontService,sans-serif" font-weight="400" font-size="21" transform="translate(868.386 251)">技术</text><text font-family="Times New Roman,Times New Roman_MSFontService,sans-serif" font-weight="400" font-size="21" transform="translate(916.386 251)">C++</text><rect x="873" y="153" width="89" height="25" stroke="#000000" stroke-width="2" stroke-miterlimit="8" fill="#FFFFFF"/><text font-family="SimSun,SimSun_MSFontService,sans-serif" font-weight="400" font-size="21" transform="translate(885.64 174)">开发者</text><path d="M1.46222-1.36452 67.3428 69.2333 64.4183 71.9623-1.46222 1.36452ZM68.9027 65.042 72.7031 77.9089 60.1293 73.2291Z" transform="matrix(-1 0 0 1 1057.7 331)"/><path d="M1056.57 332.792 980.844 260.357 983.609 257.467 1059.34 329.901ZM979.525 264.63 975 252 987.819 255.959Z"/><text font-family="SimSun,SimSun_MSFontService,sans-serif" font-weight="400" font-size="27" transform="matrix(0.738788 0.673938 -0.673938 0.738788 1007.54 266)">监管</text><text font-family="SimSun,SimSun_MSFontService,sans-serif" font-weight="400" font-size="27" transform="matrix(0.693341 -0.72061 0.72061 0.693341 1028.2 410)">监管</text><rect x="865" y="346" width="89" height="25" stroke="#000000" stroke-width="2" stroke-miterlimit="8" fill="#FFFFFF"/><text font-family="SimSun,SimSun_MSFontService,sans-serif" font-weight="400" font-size="21" transform="translate(877.721 367)">开发者</text><path d="M2.90064 9.77677 8.3692 69.6928 4.38576 70.0564-1.0828 10.1403ZM-4.88445 12.4957 0 0 7.06588 11.405ZM12.1709 67.3375 7.2864 79.8332 0.220529 68.4282Z" transform="matrix(-1 0 0 1 917.286 266)"/><text font-family="SimSun,SimSun_MSFontService,sans-serif" font-weight="400" font-size="24" transform="matrix(0.0850286 -0.996379 0.996379 0.0850286 896.737 329)">合作</text></g></svg>