<svg width="3041" height="2698" xmlns="http://www.w3.org/2000/svg" xmlns:xlink="http://www.w3.org/1999/xlink" overflow="hidden"><defs><clipPath id="clip0"><rect x="464" y="-156" width="3041" height="2698"/></clipPath></defs><g clip-path="url(#clip0)" transform="translate(-464 156)"><path d="M1886.5 93.9998C1886.5-30.5404 1996.19-131.5 2131.5-131.5 2266.81-131.5 2376.5-30.5404 2376.5 93.9998 2376.5 218.54 2266.81 319.5 2131.5 319.5 1996.19 319.5 1886.5 218.54 1886.5 93.9998Z" stroke="#000000" stroke-width="6.875" stroke-miterlimit="8" fill="#E2F0D9" fill-rule="evenodd"/><rect x="1986.5" y="-145.5" width="293" height="120" stroke="#000000" stroke-width="6.875" stroke-miterlimit="8" fill="#FFFFFF"/><text font-family="SimSun,SimSun_MSFontService,sans-serif" font-weight="400" font-size="73" transform="matrix(1 0 0 1 2022.86 -58)">时间线<tspan font-size="73" x="1.55237" y="135">内容：</tspan><tspan font-size="73" x="-71.7809" y="223">开源软件的</tspan><tspan font-size="73" x="-35.1143" y="311">更迭</tspan><tspan font-size="73" x="111.552" y="311">日志</tspan></text><path d="M1442.5 528.5C1442.5 404.236 1552.19 303.5 1687.5 303.5 1822.81 303.5 1932.5 404.236 1932.5 528.5 1932.5 652.764 1822.81 753.5 1687.5 753.5 1552.19 753.5 1442.5 652.764 1442.5 528.5Z" stroke="#000000" stroke-width="6.875" stroke-miterlimit="8" fill="#E2F0D9" fill-rule="evenodd"/><rect x="1610.5" y="242.5" width="155" height="121" stroke="#000000" stroke-width="6.875" stroke-miterlimit="8" fill="#FFFFFF"/><text font-family="SimSun,SimSun_MSFontService,sans-serif" font-weight="400" font-size="73" transform="matrix(1 0 0 1 1650.83 331)">年<tspan font-size="92" x="-12.1968" y="180">年</tspan><tspan font-family="Times New Roman,Times New Roman_MSFontService,sans-serif" font-size="92" x="-58.03" y="289">2023</tspan></text><path d="M2339.5 528.5C2339.5 404.236 2449.19 303.5 2584.5 303.5 2719.81 303.5 2829.5 404.236 2829.5 528.5 2829.5 652.764 2719.81 753.5 2584.5 753.5 2449.19 753.5 2339.5 652.764 2339.5 528.5Z" stroke="#000000" stroke-width="6.875" stroke-miterlimit="8" fill="#E2F0D9" fill-rule="evenodd"/><rect x="2507.5" y="242.5" width="155" height="121" stroke="#000000" stroke-width="6.875" stroke-miterlimit="8" fill="#FFFFFF"/><text font-family="SimSun,SimSun_MSFontService,sans-serif" font-weight="400" font-size="73" transform="matrix(1 0 0 1 2547.87 331)">年<tspan font-size="92" x="-12.1965" y="180">年</tspan><tspan font-family="Times New Roman,Times New Roman_MSFontService,sans-serif" font-size="92" x="-58.03" y="289">2024</tspan></text><path d="M1008.5 1059C1008.5 934.46 1118.19 833.5 1253.5 833.5 1388.81 833.5 1498.5 934.46 1498.5 1059 1498.5 1183.54 1388.81 1284.5 1253.5 1284.5 1118.19 1284.5 1008.5 1183.54 1008.5 1059Z" stroke="#000000" stroke-width="6.875" stroke-miterlimit="8" fill="#E2F0D9" fill-rule="evenodd"/><rect x="1176.5" y="773.5" width="155" height="120" stroke="#000000" stroke-width="6.875" stroke-miterlimit="8" fill="#FFFFFF"/><text font-family="SimSun,SimSun_MSFontService,sans-serif" font-weight="400" font-size="73" transform="matrix(1 0 0 1 1216.94 861)">月<tspan font-size="92" x="-12.1967" y="180">月</tspan><tspan font-family="Times New Roman,Times New Roman_MSFontService,sans-serif" font-size="92" x="10.72" y="289">2</tspan></text><path d="M1596.5 1059C1596.5 934.46 1706.41 833.5 1842 833.5 1977.59 833.5 2087.5 934.46 2087.5 1059 2087.5 1183.54 1977.59 1284.5 1842 1284.5 1706.41 1284.5 1596.5 1183.54 1596.5 1059Z" stroke="#000000" stroke-width="6.875" stroke-miterlimit="8" fill="#E2F0D9" fill-rule="evenodd"/><rect x="1764.5" y="773.5" width="156" height="120" stroke="#000000" stroke-width="6.875" stroke-miterlimit="8" fill="#FFFFFF"/><text font-family="SimSun,SimSun_MSFontService,sans-serif" font-weight="400" font-size="73" transform="matrix(1 0 0 1 1805.23 861)">月<tspan font-size="92" x="-12.1968" y="180">月</tspan><tspan font-family="Times New Roman,Times New Roman_MSFontService,sans-serif" font-size="92" x="10.72" y="289">7</tspan></text><path d="M2163.5 1059C2163.5 934.46 2273.41 833.5 2409 833.5 2544.59 833.5 2654.5 934.46 2654.5 1059 2654.5 1183.54 2544.59 1284.5 2409 1284.5 2273.41 1284.5 2163.5 1183.54 2163.5 1059Z" stroke="#000000" stroke-width="6.875" stroke-miterlimit="8" fill="#E2F0D9" fill-rule="evenodd"/><rect x="2331.5" y="773.5" width="156" height="120" stroke="#000000" stroke-width="6.875" stroke-miterlimit="8" fill="#FFFFFF"/><text font-family="SimSun,SimSun_MSFontService,sans-serif" font-weight="400" font-size="73" transform="matrix(1 0 0 1 2372.17 861)">月<tspan font-size="92" x="-12.1968" y="180">月</tspan><tspan font-family="Times New Roman,Times New Roman_MSFontService,sans-serif" font-size="92" x="10.72" y="289">2</tspan></text><path d="M2730.5 1059C2730.5 934.46 2840.19 833.5 2975.5 833.5 3110.81 833.5 3220.5 934.46 3220.5 1059 3220.5 1183.54 3110.81 1284.5 2975.5 1284.5 2840.19 1284.5 2730.5 1183.54 2730.5 1059Z" stroke="#000000" stroke-width="6.875" stroke-miterlimit="8" fill="#E2F0D9" fill-rule="evenodd"/><rect x="2898.5" y="773.5" width="156" height="120" stroke="#000000" stroke-width="6.875" stroke-miterlimit="8" fill="#FFFFFF"/><text font-family="SimSun,SimSun_MSFontService,sans-serif" font-weight="400" font-size="73" transform="matrix(1 0 0 1 2939.07 861)">月<tspan font-size="92" x="-12.1968" y="180">月</tspan><tspan font-family="Times New Roman,Times New Roman_MSFontService,sans-serif" font-size="92" x="10.72" y="289">3</tspan></text><path d="M485.5 1635C485.5 1510.46 595.414 1409.5 731 1409.5 866.586 1409.5 976.5 1510.46 976.5 1635 976.5 1759.54 866.586 1860.5 731 1860.5 595.414 1860.5 485.5 1759.54 485.5 1635Z" stroke="#000000" stroke-width="6.875" stroke-miterlimit="8" fill="#E2F0D9" fill-rule="evenodd"/><rect x="654.5" y="1381.5" width="155" height="120" stroke="#000000" stroke-width="6.875" stroke-miterlimit="8" fill="#FFFFFF"/><text font-family="SimSun,SimSun_MSFontService,sans-serif" font-weight="400" font-size="73" transform="matrix(1 0 0 1 694.665 1469)">日<tspan font-size="92" x="-12.1967" y="148">日</tspan><tspan font-family="Times New Roman,Times New Roman_MSFontService,sans-serif" font-size="92" x="-12.1967" y="257">14</tspan></text><path d="M1074.5 1635C1074.5 1510.46 1184.19 1409.5 1319.5 1409.5 1454.81 1409.5 1564.5 1510.46 1564.5 1635 1564.5 1759.54 1454.81 1860.5 1319.5 1860.5 1184.19 1860.5 1074.5 1759.54 1074.5 1635Z" stroke="#000000" stroke-width="6.875" stroke-miterlimit="8" fill="#E2F0D9" fill-rule="evenodd"/><rect x="1242.5" y="1393.5" width="155" height="121" stroke="#000000" stroke-width="6.875" stroke-miterlimit="8" fill="#FFFFFF"/><text font-family="SimSun,SimSun_MSFontService,sans-serif" font-weight="400" font-size="73" transform="matrix(1 0 0 1 1282.96 1482)">日<tspan font-size="92" x="-12.1968" y="135">日</tspan><tspan font-family="Times New Roman,Times New Roman_MSFontService,sans-serif" font-size="92" x="-12.1968" y="244">19</tspan></text><path d="M1650.5 1635C1650.5 1510.46 1760.19 1409.5 1895.5 1409.5 2030.81 1409.5 2140.5 1510.46 2140.5 1635 2140.5 1759.54 2030.81 1860.5 1895.5 1860.5 1760.19 1860.5 1650.5 1759.54 1650.5 1635Z" stroke="#000000" stroke-width="6.875" stroke-miterlimit="8" fill="#E2F0D9" fill-rule="evenodd"/><rect x="1818.5" y="1397.5" width="156" height="120" stroke="#000000" stroke-width="6.875" stroke-miterlimit="8" fill="#FFFFFF"/><text font-family="SimSun,SimSun_MSFontService,sans-serif" font-weight="400" font-size="73" transform="matrix(1 0 0 1 1859.03 1485)">日<tspan font-size="92" x="-12.1968" y="132">日</tspan><tspan font-family="Times New Roman,Times New Roman_MSFontService,sans-serif" font-size="92" x="10.72" y="241">4</tspan></text><path d="M2205.5 1635C2205.5 1510.46 2315.19 1409.5 2450.5 1409.5 2585.81 1409.5 2695.5 1510.46 2695.5 1635 2695.5 1759.54 2585.81 1860.5 2450.5 1860.5 2315.19 1860.5 2205.5 1759.54 2205.5 1635Z" stroke="#000000" stroke-width="6.875" stroke-miterlimit="8" fill="#E2F0D9" fill-rule="evenodd"/><rect x="2373.5" y="1393.5" width="155" height="121" stroke="#000000" stroke-width="6.875" stroke-miterlimit="8" fill="#FFFFFF"/><text font-family="SimSun,SimSun_MSFontService,sans-serif" font-weight="400" font-size="73" transform="matrix(1 0 0 1 2413.96 1482)">日<tspan font-size="92" x="-12.1968" y="135">日</tspan><tspan font-family="Times New Roman,Times New Roman_MSFontService,sans-serif" font-size="92" x="-12.1968" y="244">19</tspan></text><path d="M2791.5 1635C2791.5 1510.46 2901.41 1409.5 3037 1409.5 3172.59 1409.5 3282.5 1510.46 3282.5 1635 3282.5 1759.54 3172.59 1860.5 3037 1860.5 2901.41 1860.5 2791.5 1759.54 2791.5 1635Z" stroke="#000000" stroke-width="6.875" stroke-miterlimit="8" fill="#E2F0D9" fill-rule="evenodd"/><rect x="2959.5" y="1397.5" width="156" height="120" stroke="#000000" stroke-width="6.875" stroke-miterlimit="8" fill="#FFFFFF"/><text font-family="SimSun,SimSun_MSFontService,sans-serif" font-weight="400" font-size="73" transform="matrix(1 0 0 1 3000.61 1485)">日<tspan font-size="92" x="-12.1968" y="132">日</tspan><tspan font-family="Times New Roman,Times New Roman_MSFontService,sans-serif" font-size="92" x="-12.1968" y="241">15</tspan></text><path d="M486.5 2313C486.5 2188.46 596.19 2087.5 731.5 2087.5 866.81 2087.5 976.5 2188.46 976.5 2313 976.5 2437.54 866.81 2538.5 731.5 2538.5 596.19 2538.5 486.5 2437.54 486.5 2313Z" stroke="#000000" stroke-width="6.875" stroke-miterlimit="8" fill="#E2F0D9" fill-rule="evenodd"/><rect x="617.5" y="2027.5" width="217" height="120" stroke="#000000" stroke-width="6.875" stroke-miterlimit="8" fill="#FFFFFF"/><text font-family="SimSun,SimSun_MSFontService,sans-serif" font-weight="400" font-size="73" transform="matrix(1 0 0 1 652.218 2115)">更新</text><path d="M1074.5 2313C1074.5 2188.46 1184.41 2087.5 1320 2087.5 1455.59 2087.5 1565.5 2188.46 1565.5 2313 1565.5 2437.54 1455.59 2538.5 1320 2538.5 1184.41 2538.5 1074.5 2437.54 1074.5 2313Z" stroke="#000000" stroke-width="6.875" stroke-miterlimit="8" fill="#E2F0D9" fill-rule="evenodd"/><path d="M1650.5 2313C1650.5 2188.46 1760.41 2087.5 1896 2087.5 2031.59 2087.5 2141.5 2188.46 2141.5 2313 2141.5 2437.54 2031.59 2538.5 1896 2538.5 1760.41 2538.5 1650.5 2437.54 1650.5 2313Z" stroke="#000000" stroke-width="6.875" stroke-miterlimit="8" fill="#E2F0D9" fill-rule="evenodd"/><path d="M2205.5 2313C2205.5 2188.46 2315.41 2087.5 2451 2087.5 2586.59 2087.5 2696.5 2188.46 2696.5 2313 2696.5 2437.54 2586.59 2538.5 2451 2538.5 2315.41 2538.5 2205.5 2437.54 2205.5 2313Z" stroke="#000000" stroke-width="6.875" stroke-miterlimit="8" fill="#E2F0D9" fill-rule="evenodd"/><path d="M2792.5 2313C2792.5 2188.46 2902.19 2087.5 3037.5 2087.5 3172.81 2087.5 3282.5 2188.46 3282.5 2313 3282.5 2437.54 3172.81 2538.5 3037.5 2538.5 2902.19 2538.5 2792.5 2437.54 2792.5 2313Z" stroke="#000000" stroke-width="6.875" stroke-miterlimit="8" fill="#E2F0D9" fill-rule="evenodd"/><text font-family="Times New Roman,Times New Roman_MSFontService,sans-serif" font-weight="400" font-size="83" transform="matrix(1 0 0 1 2915.35 2248)">IVFPQ<tspan font-family="SimSun,SimSun_MSFontService,sans-serif" font-size="83" x="-45.8335" y="100">相似搜索</tspan><tspan font-family="SimSun,SimSun_MSFontService,sans-serif" font-size="83" x="-45.8335" y="199">查询功能</tspan></text><rect x="1211.5" y="2027.5" width="216" height="120" stroke="#000000" stroke-width="6.875" stroke-miterlimit="8" fill="#FFFFFF"/><text font-family="SimSun,SimSun_MSFontService,sans-serif" font-weight="400" font-size="73" transform="matrix(1 0 0 1 1245.71 2115)">更新</text><rect x="1789.5" y="2027.5" width="217" height="120" stroke="#000000" stroke-width="6.875" stroke-miterlimit="8" fill="#FFFFFF"/><text font-family="SimSun,SimSun_MSFontService,sans-serif" font-weight="400" font-size="73" transform="matrix(1 0 0 1 1823.93 2115)">更新</text><rect x="2340.5" y="2027.5" width="216" height="120" stroke="#000000" stroke-width="6.875" stroke-miterlimit="8" fill="#FFFFFF"/><text font-family="SimSun,SimSun_MSFontService,sans-serif" font-weight="400" font-size="73" transform="matrix(1 0 0 1 2374.65 2115)">更新</text><rect x="2926.5" y="2026.5" width="216" height="120" stroke="#000000" stroke-width="6.875" stroke-miterlimit="8" fill="#FFFFFF"/><text font-family="SimSun,SimSun_MSFontService,sans-serif" font-weight="400" font-size="73" transform="matrix(1 0 0 1 2960.75 2114)">更新<tspan font-family="Times New Roman,Times New Roman_MSFontService,sans-serif" font-size="83" x="-676.74" y="134">IVFFALT</tspan><tspan font-size="83" x="-672.156" y="234">相似搜索</tspan><tspan font-size="83" x="-672.156" y="333">查询功能</tspan><tspan font-size="83" x="-1191.54" y="172">更新了</tspan><tspan font-size="83" x="-1232.79" y="271">技术文档</tspan><tspan font-size="83" x="-1845.95" y="153">修复了影响</tspan><tspan font-size="83" x="-1845.95" y="252">用户登录的</tspan><tspan font-size="83" x="-1804.7" y="347">关键错误</tspan><tspan font-size="83" x="-2441.45" y="186">创建了向量</tspan><tspan font-family="Times New Roman,Times New Roman_MSFontService,sans-serif" font-size="83" x="-2411.66" y="281">PQ</tspan><tspan font-size="83" x="-2306.25" y="281">的模块</tspan></text><path d="M5.26417-4.422 80.1371 84.7106 69.6088 93.5546-5.26417 4.422ZM86.2435 70.6024 96.983 115.453 54.6584 97.1344Z" transform="matrix(-1 0 0 1 1956.98 253)"/><path d="M2309.06 248.343 2392.07 338.508 2381.95 347.821 2298.94 257.657ZM2397.53 324.137 2410.3 368.453 2367.18 352.076Z"/><path d="M5.15019-4.55424 130.558 137.264 120.258 146.372-5.15019 4.55424ZM136.304 123.005 148.179 167.569 105.403 150.331Z" transform="matrix(-1 0 0 1 1513.18 687)"/><path d="M1693.59 751.031 1718.48 834.314 1705.31 838.251 1680.41 754.969ZM1729.69 823.789 1721.74 869.218 1690.16 835.602Z"/><path d="M6.61302-1.87977 31.8447 86.8848 18.6186 90.6444-6.61302 1.87977ZM43.1909 76.5122 34.6305 121.83 3.5128 87.7909Z" transform="matrix(-1 0 0 1 2583.63 753)"/><path d="M2763.12 683.865 2837.59 829.178 2825.35 835.449 2750.88 690.136ZM2846.69 816.788 2847.15 862.905 2809.98 835.602Z"/><path d="M5.67938-3.87431 161.7 224.838 150.342 232.587-5.67938 3.87431ZM169.185 211.41 175.393 257.109 135.109 234.656Z" transform="matrix(-1 0 0 1 1079.39 1218)"/><path d="M1258.88 1280.43 1307.64 1360.78 1295.88 1367.92 1247.12 1287.57ZM1315.83 1347.77 1319.59 1393.74 1280.56 1369.17Z"/><path d="M1847.19 1281.02 1886.66 1362.99 1874.27 1368.95 1834.81 1286.98ZM1896.06 1350.83 1895.38 1396.94 1858.9 1368.72Z"/><path d="M2414.41 1281.52 2444.41 1359.19 2431.58 1364.15 2401.59 1286.48ZM2454.76 1347.83 2450.37 1393.74 2416.27 1362.69Z"/><path d="M2981.02 1280.69 3026.57 1363.51 3014.52 1370.13 2968.98 1287.31ZM3035.31 1350.86 3037.11 1396.94 2999.16 1370.73Z"/><path d="M6.87167-0.214055 11.0055 132.49-2.73787 132.919-6.87167 0.214055ZM24.5347 125.191 5.20407 167.063-16.6953 126.475Z" transform="matrix(-1 0 0 1 731.204 1860)"/><path d="M1325.88 1860 1325.88 1992.69 1312.13 1992.69 1312.12 1860ZM1339.63 1985.82 1319 2027.07 1298.38 1985.82Z"/><path d="M1904.87 1858 1904.88 1990.69 1891.13 1990.69 1891.12 1858ZM1918.63 1983.82 1898 2025.07 1877.38 1983.82Z"/><path d="M2451.88 1858 2451.88 1990.69 2438.13 1990.69 2438.12 1858ZM2465.63 1983.82 2445 2025.07 2424.38 1983.82Z"/><path d="M3043.88 1858 3043.88 1990.69 3030.13 1990.69 3030.12 1858ZM3057.63 1983.82 3037 2025.07 3016.38 1983.82Z"/><text font-family="SimSun,SimSun_MSFontService,sans-serif" font-weight="400" font-size="83" transform="matrix(1 0 0 1 3099.13 1965)">更新时间</text></g></svg>