<svg width="388" height="317" xmlns="http://www.w3.org/2000/svg" xmlns:xlink="http://www.w3.org/1999/xlink" overflow="hidden"><defs><clipPath id="clip0"><rect x="84" y="18" width="388" height="317"/></clipPath></defs><g clip-path="url(#clip0)" transform="translate(-84 -18)"><path d="M86 283C86 255.938 121.37 234 165 234 208.63 234 244 255.938 244 283 244 310.062 208.63 332 165 332 121.37 332 86 310.062 86 283Z" stroke="#000000" stroke-width="2" stroke-miterlimit="8" fill="#FFF2CC" fill-rule="evenodd"/><text font-family="Times New Roman,Times New Roman_MSFontService,sans-serif" font-weight="400" font-size="21" transform="translate(118.579 265)">BID 089</text><text font-family="SimSun,SimSun_MSFontService,sans-serif" font-weight="400" font-size="21" transform="translate(118.579 290)">主题</text><text font-family="SimSun,SimSun_MSFontService,sans-serif" font-weight="400" font-size="21" transform="translate(166.579 290)">旅游</text><text font-family="SimSun,SimSun_MSFontService,sans-serif" font-weight="400" font-size="21" transform="translate(118.579 316)">日期</text><text font-family="Times New Roman,Times New Roman_MSFontService,sans-serif" font-weight="400" font-size="21" transform="translate(166.579 316)">5.4</text><path d="M314 205C314 175.729 349.146 152 392.5 152 435.854 152 471 175.729 471 205 471 234.271 435.854 258 392.5 258 349.146 258 314 234.271 314 205Z" stroke="#000000" stroke-width="2" stroke-miterlimit="8" fill="#FFF2CC" fill-rule="evenodd"/><text font-family="SimSun,SimSun_MSFontService,sans-serif" font-weight="400" font-size="21" transform="translate(346.87 200)">内容</text><text font-family="Times New Roman,Times New Roman_MSFontService,sans-serif" font-weight="400" font-size="21" transform="translate(394.87 200)">…</text><text font-family="SimSun,SimSun_MSFontService,sans-serif" font-weight="400" font-size="21" transform="translate(346.87 225)">日期</text><text font-family="Times New Roman,Times New Roman_MSFontService,sans-serif" font-weight="400" font-size="21" transform="translate(394.87 225)">5.8</text><rect x="350" y="140" width="86" height="25" stroke="#000000" stroke-width="2" stroke-miterlimit="8" fill="#FFFFFF"/><text font-family="SimSun,SimSun_MSFontService,sans-serif" font-weight="400" font-size="21" transform="translate(371.378 160)">评论</text><path d="M91 91C91 63.938 127.937 42 173.5 42 219.063 42 256 63.938 256 91 256 118.062 219.063 140 173.5 140 127.937 140 91 118.062 91 91Z" stroke="#000000" stroke-width="2" stroke-miterlimit="8" fill="#FFF2CC" fill-rule="evenodd"/><text font-family="Times New Roman,Times New Roman_MSFontService,sans-serif" font-weight="400" font-size="21" transform="translate(124.61 86)">ID</text><text font-family="Times New Roman,Times New Roman_MSFontService,sans-serif" font-weight="400" font-size="21" transform="translate(157.777 86)">0008</text><text font-family="SimSun,SimSun_MSFontService,sans-serif" font-weight="400" font-size="21" transform="translate(124.61 111)">姓名</text><text font-family="Times New Roman,Times New Roman_MSFontService,sans-serif" font-weight="400" font-size="21" transform="translate(172.61 111)">Eric</text><rect x="129" y="27" width="90" height="25" stroke="#000000" stroke-width="2" stroke-miterlimit="8" fill="#FFFFFF"/><text font-family="SimSun,SimSun_MSFontService,sans-serif" font-weight="400" font-size="21" transform="translate(152.53 48)">用户</text><path d="M1.48029-1.3449 65.5388 69.1626 62.5782 71.8523-1.48029 1.3449ZM67.1545 64.9925 70.783 77.9089 58.2727 73.0618Z" transform="matrix(-1 0 0 1 314.783 205)"/><path d="M232.382 124.555 308.112 196.989 305.347 199.88 229.618 127.445ZM309.431 192.716 313.956 205.346 301.137 201.388Z"/><text font-family="SimSun,SimSun_MSFontService,sans-serif" font-weight="400" font-size="27" transform="matrix(0.738788 0.673938 -0.673938 0.738788 259.328 137)">撰写</text><text font-family="SimSun,SimSun_MSFontService,sans-serif" font-weight="400" font-size="27" transform="matrix(0.693341 -0.72061 0.72061 0.693341 287.62 282)">归属</text><rect x="121" y="220" width="90" height="25" stroke="#000000" stroke-width="2" stroke-miterlimit="8" fill="#FFFFFF"/><text font-family="SimSun,SimSun_MSFontService,sans-serif" font-weight="400" font-size="21" transform="translate(144.612 241)">博客</text><text font-family="SimSun,SimSun_MSFontService,sans-serif" font-weight="400" font-size="24" transform="matrix(0.0850286 -0.996379 0.996379 0.0850286 152.961 203)">点赞</text><path d="M1.99172-0.181785 8.3692 69.6928 4.38576 70.0564-1.99172 0.181785ZM12.1709 67.3375 7.2864 79.8332 0.220529 68.4282Z" transform="matrix(-1 0 0 1 173.286 140)"/></g></svg>