<svg width="3082" height="2117" xmlns="http://www.w3.org/2000/svg" xmlns:xlink="http://www.w3.org/1999/xlink" overflow="hidden"><defs><clipPath id="clip0"><rect x="1934" y="0" width="3082" height="2117"/></clipPath><clipPath id="clip1"><rect x="2391" y="1030" width="331" height="331"/></clipPath><clipPath id="clip2"><rect x="2391" y="1030" width="331" height="331"/></clipPath><clipPath id="clip3"><rect x="2391" y="1030" width="331" height="331"/></clipPath><clipPath id="clip4"><rect x="2722" y="709" width="276" height="276"/></clipPath><clipPath id="clip5"><rect x="2722" y="709" width="276" height="276"/></clipPath><clipPath id="clip6"><rect x="2722" y="709" width="276" height="276"/></clipPath><clipPath id="clip7"><rect x="2577" y="743" width="203" height="206"/></clipPath><clipPath id="clip8"><rect x="2577" y="743" width="203" height="206"/></clipPath><clipPath id="clip9"><rect x="2577" y="743" width="203" height="206"/></clipPath><clipPath id="clip10"><rect x="2605" y="532" width="347" height="345"/></clipPath><clipPath id="clip11"><rect x="2605" y="532" width="347" height="345"/></clipPath><clipPath id="clip12"><rect x="2605" y="532" width="347" height="345"/></clipPath><clipPath id="clip13"><rect x="2653" y="1032" width="331" height="331"/></clipPath><clipPath id="clip14"><rect x="2653" y="1032" width="331" height="331"/></clipPath><clipPath id="clip15"><rect x="2653" y="1032" width="331" height="331"/></clipPath><clipPath id="clip16"><rect x="4603" y="578" width="347" height="346"/></clipPath><clipPath id="clip17"><rect x="4603" y="578" width="347" height="346"/></clipPath><clipPath id="clip18"><rect x="4603" y="578" width="347" height="346"/></clipPath><clipPath id="clip19"><rect x="3974" y="787" width="292" height="277"/></clipPath><clipPath id="clip20"><rect x="3974" y="787" width="292" height="277"/></clipPath><clipPath id="clip21"><rect x="3974" y="787" width="292" height="277"/></clipPath><clipPath id="clip22"><rect x="4224" y="829" width="346" height="340"/></clipPath><clipPath id="clip23"><rect x="4224" y="829" width="346" height="340"/></clipPath><clipPath id="clip24"><rect x="4224" y="829" width="346" height="340"/></clipPath><clipPath id="clip25"><rect x="3982" y="926" width="409" height="401"/></clipPath><clipPath id="clip26"><rect x="3982" y="926" width="409" height="401"/></clipPath><clipPath id="clip27"><rect x="3982" y="926" width="409" height="401"/></clipPath><clipPath id="clip28"><rect x="1983" y="1860" width="545" height="69"/></clipPath><clipPath id="clip29"><rect x="1983" y="1860" width="545" height="69"/></clipPath><clipPath id="clip30"><rect x="1925" y="1729" width="1425" height="648"/></clipPath><clipPath id="clip31"><rect x="1925" y="1729" width="1425" height="648"/></clipPath><clipPath id="clip32"><rect x="1983" y="1970" width="1262" height="69"/></clipPath><clipPath id="clip33"><rect x="1983" y="1970" width="1262" height="69"/></clipPath><clipPath id="clip34"><rect x="1925" y="1512" width="1408" height="641"/></clipPath><clipPath id="clip35"><rect x="1925" y="1512" width="1408" height="641"/></clipPath><clipPath id="clip36"><rect x="4474" y="1793" width="284" height="282"/></clipPath><clipPath id="clip37"><rect x="4474" y="1793" width="284" height="282"/></clipPath><clipPath id="clip38"><rect x="4474" y="1793" width="284" height="282"/></clipPath><linearGradient x1="3057" y1="902.5" x2="3175" y2="902.5" gradientUnits="userSpaceOnUse" spreadMethod="reflect" id="fill39"><stop offset="0" stop-color="#FFFFFF" stop-opacity="0.901961"/><stop offset="0.74" stop-color="#F4B183" stop-opacity="0.901961"/><stop offset="0.83" stop-color="#F4B183" stop-opacity="0.901961"/><stop offset="1" stop-color="#F4B183" stop-opacity="0.901961"/></linearGradient><linearGradient x1="3895" y1="905.5" x2="3767" y2="905.5" gradientUnits="userSpaceOnUse" spreadMethod="reflect" id="fill40"><stop offset="0" stop-color="#FFFFFF" stop-opacity="0.901961"/><stop offset="0.74" stop-color="#B4C7E7"/><stop offset="0.83" stop-color="#B4C7E7"/><stop offset="1" stop-color="#9DC3E6"/></linearGradient></defs><g clip-path="url(#clip0)" transform="translate(-1934 0)"><path d="M1934 37.4871C1934 16.7835 1950.78-1.21744e-14 1971.49-1.21744e-14L3426.51 0C3447.22-6.08718e-15 3464 16.7835 3464 37.4871L3464 242.513C3464 263.217 3447.22 280 3426.51 280L1971.49 280C1950.78 280 1934 263.217 1934 242.513Z" fill="#5AA6D8" fill-rule="evenodd"/><text fill="#FFFFFF" font-family="Times New Roman,Times New Roman_MSFontService,sans-serif" font-weight="400" font-size="110" transform="matrix(1 0 0 1 2610.3 180)">API</text><path d="M3483 28.3077C3483 12.6738 3495.67 0 3511.31 0L4984.69 0C5000.33-6.08718e-15 5013 12.6738 5013 28.3077L5013 251.692C5013 267.326 5000.33 280 4984.69 280L3511.31 280C3495.67 280 3483 267.326 3483 251.692Z" fill="#5AA6D8" fill-rule="evenodd"/><text fill="#FFFFFF" font-family="Times New Roman,Times New Roman_MSFontService,sans-serif" font-weight="400" font-size="110" transform="matrix(1 0 0 1 3811.42 182)">Cypher<tspan font-family="SimSun,SimSun_MSFontService,sans-serif" font-size="110" x="323.698" y="0">图查询语言</tspan></text><path d="M1934 361.168C1934 348.925 1943.92 339 1956.17 339L3034.83 339C3047.08 339 3057 348.925 3057 361.168L3057 1444.83C3057 1457.08 3047.08 1467 3034.83 1467L1956.17 1467C1943.92 1467 1934 1457.08 1934 1444.83Z" fill="#F4B183" fill-rule="evenodd"/><text font-family="SimSun,SimSun_MSFontService,sans-serif" font-weight="400" font-size="110" transform="matrix(1 0 0 1 2330.62 490)">图事务</text><path d="M1983 569.176C1983 561.899 1988.9 556 1996.18 556L2993.82 556C3001.1 556 3007 561.899 3007 569.176L3007 954.824C3007 962.101 3001.1 968 2993.82 968L1996.18 968C1988.9 968 1983 962.101 1983 954.824Z" fill="#F8CBAD" fill-rule="evenodd"/><text font-family="SimSun,SimSun_MSFontService,sans-serif" font-weight="400" font-size="110" transform="matrix(1 0 0 1 2039.35 681)">事务管理器</text><path d="M1983 1006.14C1983 998.885 1988.88 993 1996.14 993L2993.86 993C3001.12 993 3007 998.885 3007 1006.14L3007 1390.86C3007 1398.12 3001.12 1404 2993.86 1404L1996.14 1404C1988.88 1404 1983 1398.12 1983 1390.86Z" fill="#FFF2CC" fill-rule="evenodd"/><text font-family="SimSun,SimSun_MSFontService,sans-serif" font-weight="400" font-size="110" transform="matrix(1 0 0 1 2032.25 1117)">日志</text><g clip-path="url(#clip1)"><g clip-path="url(#clip2)"><g clip-path="url(#clip3)"><path d="M2470.06 1079.12 2641.94 1079.12 2641.94 1312.87 2470.06 1312.87 2470.06 1079.12ZM2449.44 1333.5 2662.56 1333.5 2662.56 1058.5 2449.44 1058.5 2449.44 1333.5Z" fill="#BF9000"/><path d="M2494.13 1099.75 2521.63 1099.75 2521.63 1127.25 2494.13 1127.25Z" fill="#BF9000"/><path d="M2549.13 1106.62 2617.88 1106.62 2617.88 1120.37 2549.13 1120.37Z" fill="#BF9000"/><path d="M2494.13 1154.75 2521.63 1154.75 2521.63 1182.25 2494.13 1182.25Z" fill="#BF9000"/><path d="M2549.13 1161.62 2617.88 1161.62 2617.88 1175.37 2549.13 1175.37Z" fill="#BF9000"/><path d="M2494.13 1209.75 2521.63 1209.75 2521.63 1237.25 2494.13 1237.25Z" fill="#BF9000"/><path d="M2549.13 1216.62 2617.88 1216.62 2617.88 1230.37 2549.13 1230.37Z" fill="#BF9000"/><path d="M2494.13 1264.75 2521.63 1264.75 2521.63 1292.25 2494.13 1292.25Z" fill="#BF9000"/><path d="M2549.13 1271.62 2617.88 1271.62 2617.88 1285.37 2549.13 1285.37Z" fill="#BF9000"/></g></g></g><g clip-path="url(#clip4)"><g clip-path="url(#clip5)"><g clip-path="url(#clip6)"><path d="M2859.5 881.875C2840.59 881.875 2825.13 866.406 2825.13 847.5 2825.13 828.594 2840.59 813.125 2859.5 813.125 2878.41 813.125 2893.88 828.594 2893.88 847.5 2893.88 866.406 2878.41 881.875 2859.5 881.875ZM2936.84 826.015C2935.13 819.713 2932.55 813.698 2929.4 808.255L2936.56 786.771 2920.23 770.443 2898.75 777.604C2893.02 774.453 2887 771.875 2880.7 770.156L2870.96 750.104 2848.04 750.104 2838.02 770.156C2831.71 771.875 2825.7 774.453 2820.26 777.604L2798.77 770.443 2782.44 786.771 2789.6 808.255C2786.45 813.984 2783.88 820 2782.16 826.302L2762.1 836.042 2762.1 858.958 2782.16 868.984C2783.88 875.286 2786.45 881.302 2789.6 886.745L2782.44 908.229 2798.77 924.557 2820.26 917.396C2825.98 920.547 2832 923.125 2838.3 924.844L2848.33 944.896 2871.25 944.896 2881.27 924.844C2887.57 923.125 2893.59 920.547 2899.03 917.396L2920.52 924.557 2936.84 908.229 2929.68 886.745C2932.83 881.015 2935.41 875 2937.13 868.698L2957.18 858.672 2957.18 835.755 2936.84 826.015Z" stroke="#000000" stroke-width="2.86475" fill="#C55A11"/></g></g></g><g clip-path="url(#clip7)"><g clip-path="url(#clip8)"><g clip-path="url(#clip9)"><path d="M101.5 126.875C87.5437 126.875 76.1249 115.456 76.1249 101.5 76.1249 87.5437 87.5437 76.1249 101.5 76.1249 115.456 76.1249 126.875 87.5437 126.875 101.5 126.875 115.456 115.456 126.875 101.5 126.875ZM158.594 85.6405C157.325 80.9885 155.422 76.5478 153.096 72.5301L158.382 56.6708 146.329 44.6177 130.47 49.9041C126.241 47.5781 121.8 45.675 117.148 44.4062L109.958 29.6041 93.0416 29.6041 85.6405 44.4062C80.9885 45.675 76.5478 47.5781 72.5301 49.9041L56.6708 44.6177 44.6177 56.6708 49.9041 72.5301C47.5781 76.7593 45.675 81.1999 44.4062 85.852L29.6041 93.0416 29.6041 109.958 44.4062 117.359C45.675 122.011 47.5781 126.452 49.9041 130.47L44.6177 146.329 56.6708 158.382 72.5301 153.096C76.7593 155.422 81.1999 157.325 85.852 158.594L93.253 173.396 110.17 173.396 117.571 158.594C122.223 157.325 126.663 155.422 130.681 153.096L146.54 158.382 158.594 146.329 153.307 130.47C155.633 126.241 157.536 121.8 158.805 117.148L173.607 109.747 173.607 92.8301 158.594 85.6405Z" stroke="#000000" stroke-width="2.11462" fill="#C55A11" transform="matrix(1 0 0 1.00493 2577 744)"/></g></g></g><g clip-path="url(#clip10)"><g clip-path="url(#clip11)"><g clip-path="url(#clip12)"><path d="M172.5 215.625C148.781 215.625 129.375 196.219 129.375 172.5 129.375 148.781 148.781 129.375 172.5 129.375 196.219 129.375 215.625 148.781 215.625 172.5 215.625 196.219 196.219 215.625 172.5 215.625ZM269.531 145.547C267.375 137.641 264.14 130.094 260.187 123.266L269.172 96.3124 248.687 75.8281 221.734 84.8124C214.547 80.8593 207 77.6249 199.094 75.4687L186.875 50.3125 158.125 50.3125 145.547 75.4687C137.641 77.6249 130.094 80.8593 123.266 84.8124L96.3124 75.8281 75.8281 96.3124 84.8124 123.266C80.8593 130.453 77.6249 138 75.4687 145.906L50.3125 158.125 50.3125 186.875 75.4687 199.453C77.6249 207.359 80.8593 214.906 84.8124 221.734L75.8281 248.687 96.3124 269.172 123.266 260.187C130.453 264.14 138 267.375 145.906 269.531L158.484 294.687 187.234 294.687 199.812 269.531C207.719 267.375 215.265 264.14 222.094 260.187L249.047 269.172 269.531 248.687 260.547 221.734C264.5 214.547 267.734 207 269.89 199.094L295.047 186.516 295.047 157.766 269.531 145.547Z" stroke="#000000" stroke-width="3.59378" fill="#C55A11" transform="matrix(1 0 0 1 2606 532)"/></g></g></g><g clip-path="url(#clip13)"><g clip-path="url(#clip14)"><g clip-path="url(#clip15)"><path d="M2732.06 1081.12 2903.94 1081.12 2903.94 1314.88 2732.06 1314.88 2732.06 1081.12ZM2711.44 1335.5 2924.56 1335.5 2924.56 1060.5 2711.44 1060.5 2711.44 1335.5Z" fill="#BF9000"/><path d="M2756.12 1101.75 2783.62 1101.75 2783.62 1129.25 2756.12 1129.25Z" fill="#BF9000"/><path d="M2811.12 1108.62 2879.88 1108.62 2879.88 1122.38 2811.12 1122.38Z" fill="#BF9000"/><path d="M2756.12 1156.75 2783.62 1156.75 2783.62 1184.25 2756.12 1184.25Z" fill="#BF9000"/><path d="M2811.12 1163.62 2879.88 1163.62 2879.88 1177.38 2811.12 1177.38Z" fill="#BF9000"/><path d="M2756.12 1211.75 2783.62 1211.75 2783.62 1239.25 2756.12 1239.25Z" fill="#BF9000"/><path d="M2811.12 1218.62 2879.88 1218.62 2879.88 1232.38 2811.12 1232.38Z" fill="#BF9000"/><path d="M2756.12 1266.75 2783.62 1266.75 2783.62 1294.25 2756.12 1294.25Z" fill="#BF9000"/><path d="M2811.12 1273.62 2879.88 1273.62 2879.88 1287.38 2811.12 1287.38Z" fill="#BF9000"/></g></g></g><path d="M3893 373.914C3893 354.079 3909.08 338 3928.91 338L4980.09 338C4999.92 338 5016 354.079 5016 373.914L5016 1430.09C5016 1449.92 4999.92 1466 4980.09 1466L3928.91 1466C3909.08 1466 3893 1449.92 3893 1430.09Z" fill="#BCDBF0" fill-rule="evenodd"/><text font-family="SimSun,SimSun_MSFontService,sans-serif" font-weight="400" font-size="110" transform="matrix(1 0 0 1 4289.37 493)">图分析</text><path d="M3941 587.118C3941 572.141 3953.14 560 3968.12 560L4937.88 560C4952.86 560 4965 572.141 4965 587.118L4965 1380.88C4965 1395.86 4952.86 1408 4937.88 1408L3968.12 1408C3953.14 1408 3941 1395.86 3941 1380.88Z" fill="#9DC3E6" fill-rule="evenodd"/><text font-family="SimSun,SimSun_MSFontService,sans-serif" font-weight="400" font-size="110" transform="matrix(1 0 0 1 4006.58 685)">图算法</text><g clip-path="url(#clip16)"><g clip-path="url(#clip17)"><g clip-path="url(#clip18)"><path d="M287.5 71.875C287.512 57.9816 276.258 46.7094 262.365 46.6979 248.471 46.6864 237.199 57.9399 237.188 71.8333 237.18 80.3477 241.481 88.2881 248.616 92.9344L230 147.344 230 147.344C224.862 147.338 219.846 148.906 215.625 151.836L178.106 123.697C182.918 110.663 176.252 96.1968 163.218 91.3855 150.184 86.5745 135.718 93.2399 130.907 106.274 126.892 117.151 130.831 129.362 140.444 135.844L116.473 212.031 115 212.031C101.107 211.998 89.8172 223.234 89.7841 237.128 89.7511 251.021 100.987 262.311 114.88 262.344 128.774 262.377 140.063 251.141 140.096 237.247 140.115 229.287 136.366 221.788 129.986 217.027L154.172 140.156 154.531 140.156C159.917 140.146 165.157 138.408 169.481 135.197L206.677 163.048C205.48 166.056 204.858 169.262 204.844 172.5 204.838 186.394 216.097 197.661 229.99 197.666 243.884 197.671 255.151 186.413 255.156 172.52 255.16 164.04 250.89 156.128 243.8 151.477L262.344 97.0313C276.237 97.0313 287.5 85.7685 287.5 71.875Z" fill="#002060" transform="matrix(1.0029 0 0 1 4604 579)"/><path d="M71.875 46.7188 50.3125 46.7188 50.3125 298.281 298.281 298.281 298.281 276.719 71.875 276.719 71.875 46.7188Z" fill="#002060" transform="matrix(1.0029 0 0 1 4604 579)"/></g></g></g><g clip-path="url(#clip19)"><g clip-path="url(#clip20)"><g clip-path="url(#clip21)"><path d="M244.375 107.525C239.488 95.7375 225.975 90.275 214.188 95.1625 204.413 99.1875 198.663 109.538 200.1 119.6L163.013 135.125C158.988 128.225 151.8 123.05 143.75 121.613L143.75 81.65C153.525 79.0625 161 70.15 161 59.5125 161 46.8625 150.65 36.5125 138 36.5125L138 36.5125C125.35 36.5125 115 46.8625 115 59.5125 115 70.15 122.475 79.0625 132.25 81.65L132.25 121.325C123.913 122.763 117.013 127.938 112.988 134.838L75.9 119.313C77.3375 109.25 71.875 98.9 61.8125 94.875 50.025 89.9875 36.5125 95.45 31.625 107.238 26.7375 119.025 32.2 132.538 43.9875 137.425 53.7625 141.45 64.975 138.288 71.0125 129.95L108.963 145.475C108.675 146.625 108.675 148.063 108.675 149.213 108.675 155.538 110.688 161.575 114.425 166.463L84.525 196.65C75.6125 191.475 64.1125 192.625 56.6375 200.1 47.725 209.013 47.725 223.675 56.6375 232.588 65.55 241.5 80.2125 241.5 89.125 232.588 96.6 225.113 97.75 213.613 92.575 204.7L123.05 174.225C127.363 176.813 132.25 178.25 137.425 178.25 137.713 178.25 137.713 178.25 138 178.25 138.288 178.25 138.288 178.25 138.575 178.25 143.75 178.25 148.638 176.813 152.95 174.225L183.425 204.7C178.25 213.613 179.4 225.113 186.875 232.875 195.788 241.788 210.45 241.788 219.363 232.875 228.275 223.963 228.275 209.3 219.363 200.388 211.888 192.913 200.388 191.763 191.475 196.938L161.575 166.75C165.313 161.863 167.325 156.113 167.325 149.5 167.325 148.35 167.325 146.913 167.038 145.763L204.988 130.238C211.025 138.288 222.238 141.738 232.013 137.713 243.513 132.538 249.263 119.313 244.375 107.525Z" stroke="#000000" stroke-width="2.875" fill="#2F5597" transform="matrix(1.05797 0 0 1 3974 788)"/></g></g></g><g clip-path="url(#clip22)"><g clip-path="url(#clip23)"><g clip-path="url(#clip24)"><path d="M300.156 132.069C294.153 117.591 277.556 110.881 263.078 116.884 251.072 121.828 244.009 134.541 245.775 146.9L200.222 165.969C195.278 157.494 186.45 151.137 176.562 149.372L176.562 100.287C188.569 97.1094 197.75 86.1625 197.75 73.0969 197.75 57.5594 185.037 44.8469 169.5 44.8469L169.5 44.8469C153.962 44.8469 141.25 57.5594 141.25 73.0969 141.25 86.1625 150.431 97.1094 162.437 100.287L162.437 149.019C152.197 150.784 143.722 157.141 138.778 165.616L93.225 146.547C94.9906 134.187 88.2812 121.475 75.9219 116.531 61.4437 110.528 44.8469 117.237 38.8437 131.716 32.8406 146.194 39.55 162.791 54.0281 168.794 66.0344 173.737 79.8062 169.853 87.2219 159.612L133.834 178.681C133.481 180.094 133.481 181.859 133.481 183.272 133.481 191.041 135.953 198.456 140.544 204.459L103.819 241.537C92.8719 235.181 78.7469 236.594 69.5656 245.775 58.6187 256.722 58.6187 274.731 69.5656 285.678 80.5125 296.625 98.5219 296.625 109.469 285.678 118.65 276.497 120.062 262.372 113.706 251.425L151.137 213.994C156.434 217.172 162.437 218.937 168.794 218.937 169.147 218.937 169.147 218.937 169.5 218.937 169.853 218.937 169.853 218.937 170.206 218.937 176.562 218.937 182.566 217.172 187.862 213.994L225.294 251.425C218.937 262.372 220.35 276.497 229.531 286.031 240.478 296.978 258.487 296.978 269.434 286.031 280.381 275.084 280.381 257.075 269.434 246.128 260.253 236.947 246.128 235.534 235.181 241.891L198.456 204.812C203.047 198.809 205.519 191.747 205.519 183.625 205.519 182.212 205.519 180.447 205.166 179.034L251.778 159.966C259.194 169.853 272.966 174.091 284.972 169.147 299.097 162.791 306.159 146.547 300.156 132.069Z" stroke="#000000" stroke-width="3.53125" fill="#FFFFFF" transform="matrix(1.0177 0 0 1 4224 829)"/></g></g></g><g clip-path="url(#clip25)"><g clip-path="url(#clip26)"><g clip-path="url(#clip27)"><path d="M355.052 156.223C347.951 139.097 328.319 131.16 311.193 138.261 296.99 144.109 288.636 159.147 290.725 173.767L236.84 196.323C230.993 186.298 220.55 178.779 208.854 176.691L208.854 118.629C223.056 114.87 233.917 101.921 233.917 86.4656 233.917 68.0864 218.879 53.0489 200.5 53.0489L200.5 53.0489C182.121 53.0489 167.083 68.0864 167.083 86.4656 167.083 101.921 177.944 114.87 192.146 118.629L192.146 176.273C180.032 178.361 170.007 185.88 164.159 195.905L110.275 173.349C112.363 158.729 104.427 143.692 89.8072 137.844 72.6812 130.743 53.0489 138.679 45.9479 155.805 38.8469 172.931 46.7833 192.563 63.9093 199.664 78.1114 205.512 94.402 200.918 103.174 188.804L158.311 211.36C157.894 213.031 157.894 215.12 157.894 216.791 157.894 225.98 160.818 234.752 166.248 241.853L122.806 285.712C109.857 278.194 93.1489 279.864 82.2885 290.725 69.3395 303.674 69.3395 324.977 82.2885 337.926 95.2374 350.875 116.541 350.875 129.49 337.926 140.35 327.065 142.021 310.357 134.502 297.408L178.779 253.131C185.045 256.891 192.146 258.979 199.664 258.979 200.082 258.979 200.082 258.979 200.5 258.979 200.918 258.979 200.918 258.979 201.335 258.979 208.854 258.979 215.955 256.891 222.221 253.131L266.498 297.408C258.979 310.357 260.65 327.065 271.51 338.344 284.459 351.293 305.762 351.293 318.711 338.344 331.66 325.395 331.66 304.092 318.711 291.143 307.851 280.282 291.143 278.611 278.194 286.13L234.752 242.271C240.182 235.17 243.106 226.816 243.106 217.208 243.106 215.537 243.106 213.449 242.688 211.778L297.826 189.222C306.598 200.918 322.888 205.93 337.09 200.082 353.799 192.563 362.153 173.349 355.052 156.223Z" stroke="#000000" stroke-width="4.17708" fill="#2982BA" transform="matrix(1.01746 0 0 1 3982 926)"/></g></g></g><path d="M4124 1033C4124 961.755 4183.55 904 4257 904 4330.45 904 4390 961.755 4390 1033 4390 1104.24 4330.45 1162 4257 1162 4183.55 1162 4124 1104.24 4124 1033Z" stroke="#C00000" stroke-width="10.3125" stroke-miterlimit="8" stroke-dasharray="10.3125 10.3125" fill="none" fill-rule="evenodd"/><path d="M3176.5 781.333C3176.5 748.288 3307.46 721.5 3469 721.5 3630.54 721.5 3761.5 748.288 3761.5 781.333L3761.5 1020.67C3761.5 1053.71 3630.54 1080.5 3469 1080.5 3307.46 1080.5 3176.5 1053.71 3176.5 1020.67Z" fill="#5392CD" fill-rule="evenodd"/><path d="M3761.5 781.333C3761.5 814.378 3630.54 841.167 3469 841.167 3307.46 841.167 3176.5 814.378 3176.5 781.333" stroke="#FFFFFF" stroke-width="4.58333" stroke-miterlimit="8" fill="none" fill-rule="evenodd"/><path d="M3176.5 781.333C3176.5 748.288 3307.46 721.5 3469 721.5 3630.54 721.5 3761.5 748.288 3761.5 781.333L3761.5 1020.67C3761.5 1053.71 3630.54 1080.5 3469 1080.5 3307.46 1080.5 3176.5 1053.71 3176.5 1020.67Z" stroke="#FFFFFF" stroke-width="4.58333" stroke-miterlimit="8" fill="none" fill-rule="evenodd"/><path d="M3176.5 775C3176.5 731.646 3307.46 696.5 3469 696.5 3630.54 696.5 3761.5 731.646 3761.5 775 3761.5 818.354 3630.54 853.5 3469 853.5 3307.46 853.5 3176.5 818.354 3176.5 775Z" stroke="#FFFFFF" stroke-width="4.58333" stroke-miterlimit="8" fill="#89BDE6" fill-rule="evenodd"/><text fill="#FFFFFF" font-family="Cascadia Code,Cascadia Code_MSFontService,sans-serif" font-weight="400" font-size="128" transform="matrix(1 0 0 1 3281.09 1003)">neo4j</text><path d="M1935 1559.3C1935 1540.91 1949.91 1526 1968.3 1526L4979.7 1526C4998.09 1526 5013 1540.91 5013 1559.3L5013 2083.7C5013 2102.09 4998.09 2117 4979.7 2117L1968.3 2117C1949.91 2117 1935 2102.09 1935 2083.7Z" fill="#C5E0B4" fill-rule="evenodd"/><text font-family="SimSun,SimSun_MSFontService,sans-serif" font-weight="400" font-size="110" transform="matrix(1 0 0 1 3198.25 1644)">图数据存储</text><path d="M1964 1703.29C1964 1692.64 1972.64 1684 1983.29 1684L3257.71 1684C3268.36 1684 3277 1692.64 3277 1703.29L3277 2061.71C3277 2072.36 3268.36 2081 3257.71 2081L1983.29 2081C1972.64 2081 1964 2072.36 1964 2061.71Z" fill="#74C69B" fill-rule="evenodd"/><path d="M3315 1702.29C3315 1691.64 3323.64 1683 3334.29 1683L4208.71 1683C4219.36 1683 4228 1691.64 4228 1702.29L4228 2060.71C4228 2071.36 4219.36 2080 4208.71 2080L3334.29 2080C3323.64 2080 3315 2071.36 3315 2060.71Z" fill="#83BC5C" fill-rule="evenodd"/><path d="M4266 1702.29C4266 1691.64 4274.64 1683 4285.29 1683L4945.71 1683C4956.36 1683 4965 1691.64 4965 1702.29L4965 2060.71C4965 2071.36 4956.36 2080 4945.71 2080L4285.29 2080C4274.64 2080 4266 2071.36 4266 2060.71Z" fill="#84B230" fill-rule="evenodd"/><text fill="#FFFFFF" font-family="SimSun,SimSun_MSFontService,sans-serif" font-weight="400" font-size="92" transform="matrix(1 0 0 1 2426.75 1774)">记录文件<tspan font-size="92" x="1164.62" y="4">页面缓存</tspan><tspan font-size="92" x="2052.97" y="-3">元数据</tspan></text><g clip-path="url(#clip28)"><g clip-path="url(#clip29)"><g clip-path="url(#clip30)"><g clip-path="url(#clip31)"><path d="M163.046 211.072 693.772 211.072 693.772 273.367 163.046 273.367Z" stroke="#000000" stroke-width="2.39262" stroke-miterlimit="8" fill="#FFFFFF" transform="matrix(1.00956 0 0 1 1824.78 1650.55)"/><path d="M218.381 211.072 218.381 273.512" stroke="#000000" stroke-width="2.39262" stroke-miterlimit="8" fill="none" fill-rule="evenodd" transform="matrix(1.00956 0 0 1 1824.78 1650.55)"/><path d="M444.244 211.072 444.244 273.512" stroke="#000000" stroke-width="2.39262" stroke-miterlimit="8" fill="none" fill-rule="evenodd" transform="matrix(1.00956 0 0 1 1824.78 1650.55)"/><path d="M218.555 279.806C218.555 283.65 218.295 286.766 217.974 286.766L163.452 286.766C163.132 286.766 162.872 283.65 162.872 279.806" stroke="#4472C4" stroke-width="3.58892" stroke-miterlimit="8" fill="none" fill-rule="evenodd" transform="matrix(1.00956 0 0 1 1824.78 1650.55)"/><path d="M0.398768-2.4309e-06 0.398845 12.6277-0.398692 12.6277-0.398768 2.4309e-06ZM4.7853 11.0326 0.000125597 20.6031-4.78516 11.0327Z" fill="#4472C4" transform="matrix(-1.00956 0 0 1 2017.31 1937.31)"/><path d="M222.731 206.374C222.731 202.722 222.978 199.762 223.282 199.762L437.255 199.762C437.558 199.762 437.805 202.722 437.805 206.374" stroke="#4472C4" stroke-width="3.58892" stroke-miterlimit="8" fill="none" fill-rule="evenodd" transform="matrix(1.00956 0 0 1 1824.78 1650.55)"/><path d="M0.398768-2.4309e-06 0.398845 12.6277-0.398692 12.6277-0.398768 2.4309e-06ZM4.7853 11.0326 0.000125597 20.6031-4.78516 11.0327Z" fill="#4472C4" transform="matrix(1.00956 -1.22465e-16 -1.23636e-16 -1 2158.2 1850.38)"/><path d="M452.422 206.374C452.422 202.53 452.683 199.414 453.003 199.414L688.144 199.414C688.464 199.414 688.725 202.53 688.725 206.374" stroke="#4472C4" stroke-width="3.58892" stroke-miterlimit="8" fill="none" fill-rule="evenodd" transform="matrix(1.00956 0 0 1 1824.78 1650.55)"/><path d="M0.398768-4.8618e-06 0.398925 12.6277-0.398615 12.6278-0.398768 4.8618e-06ZM4.78537 11.0326 0.000251193 20.6031-4.78509 11.0327Z" fill="#4472C4" transform="matrix(1.00956 -1.22465e-16 -1.23636e-16 -1 2400.63 1850.03)"/><text font-family="SimSun,SimSun_MSFontService,sans-serif" font-weight="400" font-size="83" transform="matrix(0.351344 0 0 0.348017 1944.49 1993)">是否在使用<tspan font-size="83" x="1007.7" y="-488.482">第一个属性的</tspan><tspan font-family="Times New Roman,Times New Roman_MSFontService,sans-serif" font-size="83" x="1502.7" y="-488.482">ID</tspan><tspan font-size="83" x="404.329" y="-491.355">第一个</tspan>联系</text><path d="M163.916 211.594 216.815 211.594 216.815 272.149 163.916 272.149Z" fill="#BFBFBF" transform="matrix(1.00956 0 0 1 1824.78 1650.55)"/><path d="M219.251 211.594 442.677 211.594 442.677 272.149 219.251 272.149Z" fill="#C5E0B4" transform="matrix(1.00956 0 0 1 1824.78 1650.55)"/><path d="M445.114 211.594 692.554 211.594 692.554 271.801 445.114 271.801Z" fill="#C5E0B4" transform="matrix(1.00956 0 0 1 1824.78 1650.55)"/><text font-family="SimSun,SimSun_MSFontService,sans-serif" font-weight="700" font-size="83" transform="matrix(0.351344 0 0 0.348017 1967.96 1767)">节点（<tspan font-family="Times New Roman,Times New Roman_MSFontService,sans-serif" font-size="83" x="249.219" y="0">9</tspan><tspan font-size="83" x="291.219" y="0">字节</tspan><tspan font-size="83" x="459.219" y="0">）</tspan></text><path d="M443.374 544.646 700.558 544.646 700.558 605.201 443.374 605.201Z" fill="#BDD7EE" transform="matrix(1.00956 0 0 1 1824.78 1650.55)"/><path d="M677.937 544.994 908.324 544.994 908.324 605.201 677.937 605.201Z" fill="#BDD7EE" transform="matrix(1.00956 0 0 1 1824.78 1650.55)"/><path d="M163.046 544.124 1420.43 544.124 1420.43 606.419 163.046 606.419Z" stroke="#000000" stroke-width="2.39262" stroke-miterlimit="8" fill="none" transform="matrix(1.00956 0 0 1 1824.78 1650.55)"/><path d="M218.729 544.124 218.729 606.566" stroke="#000000" stroke-width="2.39262" stroke-miterlimit="8" fill="none" fill-rule="evenodd" transform="matrix(1.00956 0 0 1 1824.78 1650.55)"/><path d="M677.067 544.82 677.067 607.262" stroke="#000000" stroke-width="2.39262" stroke-miterlimit="8" fill="none" fill-rule="evenodd" transform="matrix(1.00956 0 0 1 1824.78 1650.55)"/><path d="M218.555 612.858C218.555 616.703 218.295 619.818 217.974 619.818L163.452 619.818C163.132 619.818 162.872 616.703 162.872 612.858" stroke="#4472C4" stroke-width="3.58892" stroke-miterlimit="8" fill="none" fill-rule="evenodd" transform="matrix(1.00956 0 0 1 1824.78 1650.55)"/><path d="M0.398768-2.4309e-06 0.398845 12.6277-0.398692 12.6277-0.398768 2.4309e-06ZM4.7853 11.0326 0.000125597 20.6031-4.78516 11.0327Z" fill="#4472C4" transform="matrix(-1.00956 0 0 1 2017.31 2270.36)"/><path d="M223.427 539.426C223.427 535.776 223.674 532.814 223.978 532.814L438.299 532.814C438.602 532.814 438.849 535.776 438.849 539.426" stroke="#4472C4" stroke-width="3.58892" stroke-miterlimit="8" fill="none" fill-rule="evenodd" transform="matrix(1.00956 0 0 1 1824.78 1650.55)"/><path d="M0.398768-2.4309e-06 0.398845 12.6277-0.398692 12.6277-0.398768 2.4309e-06ZM4.7853 11.0326 0.000125597 20.6031-4.78516 11.0327Z" fill="#4472C4" transform="matrix(1.00956 -1.22465e-16 -1.23636e-16 -1 2159.26 2183.43)"/><path d="M448.594 539.792C448.594 535.939 448.855 532.814 449.175 532.814L672.483 532.814C672.804 532.814 673.065 535.939 673.065 539.792" stroke="#4472C4" stroke-width="3.58892" stroke-miterlimit="8" fill="none" fill-rule="evenodd" transform="matrix(1.00956 0 0 1 1824.78 1650.55)"/><path d="M0.398768-2.4309e-06 0.398845 12.6277-0.398692 12.6277-0.398768 2.4309e-06ZM4.7853 11.0326 0.000125597 20.6031-4.78516 11.0327Z" fill="#4472C4" transform="matrix(1.00956 -1.22465e-16 -1.23636e-16 -1 2391.14 2183.43)"/><text font-family="SimSun,SimSun_MSFontService,sans-serif" font-weight="400" font-size="83" transform="matrix(0.351344 0 0 0.348017 1944.49 2326)">是否在使用<tspan font-size="83" x="1067.91" y="-488.482">结束节点</tspan><tspan font-family="Times New Roman,Times New Roman_MSFontService,sans-serif" font-size="83" x="1397.91" y="-488.482">ID</tspan><tspan font-size="83" x="408.445" y="-491.355">起始节点</tspan><tspan font-family="Times New Roman,Times New Roman_MSFontService,sans-serif" font-size="83" x="738.445" y="-491.355">ID</tspan></text><path d="M163.916 544.646 216.815 544.646 216.815 605.201 163.916 605.201Z" fill="#BFBFBF" transform="matrix(1.00956 0 0 1 1824.78 1650.55)"/><path d="M219.251 544.646 442.677 544.646 442.677 605.201 219.251 605.201Z" fill="#BDD7EE" transform="matrix(1.00956 0 0 1 1824.78 1650.55)"/><text font-family="SimSun,SimSun_MSFontService,sans-serif" font-weight="700" font-size="83" transform="matrix(0.351344 0 0 0.348017 1979.11 2101)">联系（<tspan font-family="Times New Roman,Times New Roman_MSFontService,sans-serif" font-size="83" x="249.219" y="0">3</tspan><tspan font-family="Times New Roman,Times New Roman_MSFontService,sans-serif" font-size="83" x="290.469" y="0">3</tspan><tspan font-size="83" x="332.469" y="0">字节</tspan><tspan font-size="83" x="500.469" y="0">）</tspan></text><path d="M444.244 544.82 444.244 607.262" stroke="#000000" stroke-width="2.39262" stroke-miterlimit="8" fill="none" fill-rule="evenodd" transform="matrix(1.00956 0 0 1 1824.78 1650.55)"/><path d="M908.498 542.732 908.498 605.174" stroke="#000000" stroke-width="2.39262" stroke-miterlimit="8" fill="none" fill-rule="evenodd" transform="matrix(1.00956 0 0 1 1824.78 1650.55)"/><path d="M680.721 539.774C680.721 536.123 680.968 533.162 681.271 533.162L904.642 533.162C904.945 533.162 905.192 536.123 905.192 539.774" stroke="#4472C4" stroke-width="3.58892" stroke-miterlimit="8" fill="none" fill-rule="evenodd" transform="matrix(1.00956 0 0 1 1824.78 1650.55)"/><path d="M0.398768-2.4309e-06 0.398845 12.6277-0.398692 12.6277-0.398768 2.4309e-06ZM4.7853 11.0326 0.000125597 20.6031-4.78516 11.0327Z" fill="#4472C4" transform="matrix(1.00956 -1.22465e-16 -1.23636e-16 -1 2625.14 2183.78)"/><text font-family="SimSun,SimSun_MSFontService,sans-serif" font-weight="400" font-size="83" transform="matrix(0.351344 0 0 0.348017 2554.83 2122)">起始<tspan font-size="83" x="165" y="0">节点</tspan><tspan font-size="83" x="330" y="0">的</tspan><tspan font-size="83" x="41.25" y="100.57">前驱联系</tspan></text><path d="M1364.4 543.428 1364.4 605.87" stroke="#000000" stroke-width="2.39262" stroke-miterlimit="8" fill="none" fill-rule="evenodd" transform="matrix(1.00956 0 0 1 1824.78 1650.55)"/><text font-family="Times New Roman,Times New Roman_MSFontService,sans-serif" font-weight="400" font-size="83" transform="matrix(0.351344 0 0 0.348017 2944.79 2239)">……<tspan font-family="SimSun,SimSun_MSFontService,sans-serif" font-size="83" x="523.327" y="235.621">是否位于联系链</tspan><tspan font-family="SimSun,SimSun_MSFontService,sans-serif" font-size="83" x="688.327" y="330.444">最前端</tspan></text><path d="M1419.91 613.902C1419.91 617.747 1419.65 620.862 1419.33 620.862L1364.81 620.862C1364.49 620.862 1364.23 617.747 1364.23 613.902" stroke="#4472C4" stroke-width="3.58892" stroke-miterlimit="8" fill="none" fill-rule="evenodd" transform="matrix(1.00956 0 0 1 1824.78 1650.55)"/><path d="M0.398768-2.4309e-06 0.398845 12.6277-0.398692 12.6277-0.398768 2.4309e-06ZM4.7853 11.0326 0.000125597 20.6031-4.78516 11.0327Z" fill="#4472C4" transform="matrix(-1.00956 0 0 1 3230.15 2271.41)"/></g></g></g></g><g clip-path="url(#clip32)"><g clip-path="url(#clip33)"><g clip-path="url(#clip34)"><g clip-path="url(#clip35)"><path d="M161.159 208.629 685.742 208.629 685.742 270.204 161.159 270.204Z" stroke="#000000" stroke-width="2.36493" stroke-miterlimit="8" fill="#FFFFFF" transform="matrix(1.00903 0 0 1 1826.37 1434.84)"/><path d="M215.853 208.629 215.853 270.347" stroke="#000000" stroke-width="2.36493" stroke-miterlimit="8" fill="none" fill-rule="evenodd" transform="matrix(1.00903 0 0 1 1826.37 1434.84)"/><path d="M439.102 208.629 439.102 270.347" stroke="#000000" stroke-width="2.36493" stroke-miterlimit="8" fill="none" fill-rule="evenodd" transform="matrix(1.00903 0 0 1 1826.37 1434.84)"/><path d="M216.025 276.567C216.025 280.367 215.769 283.447 215.452 283.447L161.56 283.447C161.244 283.447 160.987 280.367 160.987 276.567" stroke="#4472C4" stroke-width="3.54739" stroke-miterlimit="8" fill="none" fill-rule="evenodd" transform="matrix(1.00903 0 0 1 1826.37 1434.84)"/><path d="M0.394153-2.40276e-06 0.394229 12.4816-0.394077 12.4816-0.394153 2.40276e-06ZM4.72992 10.9049 0.000124143 20.3647-4.72978 10.905Z" fill="#4472C4" transform="matrix(-1.00903 0 0 1 2016.58 1718.29)"/><path d="M220.153 203.986C220.153 200.376 220.397 197.45 220.698 197.45L432.195 197.45C432.494 197.45 432.738 200.376 432.738 203.986" stroke="#4472C4" stroke-width="3.54739" stroke-miterlimit="8" fill="none" fill-rule="evenodd" transform="matrix(1.00903 0 0 1 1826.37 1434.84)"/><path d="M0.394153-2.40276e-06 0.394229 12.4816-0.394077 12.4816-0.394153 2.40276e-06ZM4.72992 10.9049 0.000124143 20.3647-4.72978 10.905Z" fill="#4472C4" transform="matrix(1.00903 -1.22465e-16 -1.2357e-16 -1 2155.76 1632.36)"/><path d="M447.186 203.986C447.186 200.186 447.444 197.106 447.76 197.106L680.18 197.106C680.497 197.106 680.755 200.186 680.755 203.986" stroke="#4472C4" stroke-width="3.54739" stroke-miterlimit="8" fill="none" fill-rule="evenodd" transform="matrix(1.00903 0 0 1 1826.37 1434.84)"/><path d="M0.394153-4.80553e-06 0.394308 12.4816-0.394002 12.4816-0.394153 4.80553e-06ZM4.72999 10.9049 0.000248286 20.3647-4.72971 10.905Z" fill="#4472C4" transform="matrix(1.00903 -1.22465e-16 -1.2357e-16 -1 2395.25 1632.02)"/><text font-family="SimSun,SimSun_MSFontService,sans-serif" font-weight="400" font-size="83" transform="matrix(0.347094 0 0 0.343989 1944.63 1773)">是否在使用<tspan font-size="83" x="1007.7" y="-488.387">第一个属性的</tspan><tspan font-family="Times New Roman,Times New Roman_MSFontService,sans-serif" font-size="83" x="1502.7" y="-488.387">ID</tspan><tspan font-size="83" x="404.329" y="-491.294">第一个</tspan><tspan font-size="83" x="653.329" y="-491.294">联系</tspan></text><path d="M162.019 209.145 214.305 209.145 214.305 269 162.019 269Z" fill="#BFBFBF" transform="matrix(1.00903 0 0 1 1826.37 1434.84)"/><path d="M216.713 209.145 437.554 209.145 437.554 269 216.713 269Z" fill="#C5E0B4" transform="matrix(1.00903 0 0 1 1826.37 1434.84)"/><path d="M439.962 209.145 684.539 209.145 684.539 268.656 439.962 268.656Z" fill="#C5E0B4" transform="matrix(1.00903 0 0 1 1826.37 1434.84)"/><text font-family="SimSun,SimSun_MSFontService,sans-serif" font-weight="700" font-size="83" transform="matrix(0.347094 0 0 0.343989 1967.82 1550)">节点<tspan font-size="83" x="168" y="0">（</tspan><tspan font-family="Times New Roman,Times New Roman_MSFontService,sans-serif" font-size="83" x="249.219" y="0">9</tspan><tspan font-size="83" x="291.219" y="0">字节</tspan><tspan font-size="83" x="459.219" y="0">）</tspan></text><path d="M438.242 538.343 692.45 538.343 692.45 598.197 438.242 598.197Z" fill="#BDD7EE" transform="matrix(1.00903 0 0 1 1826.37 1434.84)"/><path d="M670.091 538.687 897.812 538.687 897.812 598.197 670.091 598.197Z" fill="#BDD7EE" transform="matrix(1.00903 0 0 1 1826.37 1434.84)"/><path d="M161.159 537.827 1403.99 537.827 1403.99 599.401 161.159 599.401Z" stroke="#000000" stroke-width="2.36493" stroke-miterlimit="8" fill="none" transform="matrix(1.00903 0 0 1 1826.37 1434.84)"/><path d="M216.197 537.827 216.197 599.546" stroke="#000000" stroke-width="2.36493" stroke-miterlimit="8" fill="none" fill-rule="evenodd" transform="matrix(1.00903 0 0 1 1826.37 1434.84)"/><path d="M669.231 538.515 669.231 600.234" stroke="#000000" stroke-width="2.36493" stroke-miterlimit="8" fill="none" fill-rule="evenodd" transform="matrix(1.00903 0 0 1 1826.37 1434.84)"/><path d="M216.025 605.765C216.025 609.566 215.769 612.645 215.452 612.645L161.56 612.645C161.244 612.645 160.987 609.566 160.987 605.765" stroke="#4472C4" stroke-width="3.54739" stroke-miterlimit="8" fill="none" fill-rule="evenodd" transform="matrix(1.00903 0 0 1 1826.37 1434.84)"/><path d="M0.394153-2.40276e-06 0.394229 12.4816-0.394077 12.4816-0.394153 2.40276e-06ZM4.72992 10.9049 0.000124143 20.3647-4.72978 10.905Z" fill="#4472C4" transform="matrix(-1.00903 0 0 1 2016.58 2047.49)"/><path d="M220.841 533.183C220.841 529.575 221.085 526.648 221.386 526.648L433.227 526.648C433.526 526.648 433.77 529.575 433.77 533.183" stroke="#4472C4" stroke-width="3.54739" stroke-miterlimit="8" fill="none" fill-rule="evenodd" transform="matrix(1.00903 0 0 1 1826.37 1434.84)"/><path d="M0.394153-2.40276e-06 0.394229 12.4816-0.394077 12.4816-0.394153 2.40276e-06ZM4.72992 10.9049 0.000124143 20.3647-4.72978 10.905Z" fill="#4472C4" transform="matrix(1.00903 -1.22465e-16 -1.2357e-16 -1 2156.8 1961.56)"/><path d="M443.402 533.544C443.402 529.737 443.66 526.648 443.977 526.648L664.701 526.648C665.017 526.648 665.275 529.737 665.275 533.544" stroke="#4472C4" stroke-width="3.54739" stroke-miterlimit="8" fill="none" fill-rule="evenodd" transform="matrix(1.00903 0 0 1 1826.37 1434.84)"/><path d="M0.394153-2.40276e-06 0.394229 12.4816-0.394077 12.4816-0.394153 2.40276e-06ZM4.72992 10.9049 0.000124143 20.3647-4.72978 10.905Z" fill="#4472C4" transform="matrix(1.00903 -1.22465e-16 -1.2357e-16 -1 2385.88 1961.56)"/><text font-family="SimSun,SimSun_MSFontService,sans-serif" font-weight="400" font-size="83" transform="matrix(0.347094 0 0 0.343989 1944.63 2103)">是否在使用<tspan font-size="83" x="1067.91" y="-491.294">结束节点</tspan><tspan font-family="Times New Roman,Times New Roman_MSFontService,sans-serif" font-size="83" x="1397.91" y="-491.294">ID</tspan><tspan font-size="83" x="408.445" y="-491.294">起始节点</tspan><tspan font-family="Times New Roman,Times New Roman_MSFontService,sans-serif" font-size="83" x="738.445" y="-491.294">ID</tspan></text><path d="M162.019 538.343 214.305 538.343 214.305 598.197 162.019 598.197Z" fill="#BFBFBF" transform="matrix(1.00903 0 0 1 1826.37 1434.84)"/><path d="M216.713 538.343 437.554 538.343 437.554 598.197 216.713 598.197Z" fill="#BDD7EE" transform="matrix(1.00903 0 0 1 1826.37 1434.84)"/><text font-family="SimSun,SimSun_MSFontService,sans-serif" font-weight="700" font-size="83" transform="matrix(0.347094 0 0 0.343989 1978.84 1880)">联系<tspan font-size="83" x="168" y="0">（</tspan><tspan font-family="Times New Roman,Times New Roman_MSFontService,sans-serif" font-size="83" x="249.219" y="0">3</tspan><tspan font-family="Times New Roman,Times New Roman_MSFontService,sans-serif" font-size="83" x="290.469" y="0">3</tspan><tspan font-size="83" x="332.469" y="0">字节</tspan><tspan font-size="83" x="500.469" y="0">）</tspan></text><path d="M439.102 538.515 439.102 600.234" stroke="#000000" stroke-width="2.36493" stroke-miterlimit="8" fill="none" fill-rule="evenodd" transform="matrix(1.00903 0 0 1 1826.37 1434.84)"/><path d="M897.984 536.451 897.984 598.17" stroke="#000000" stroke-width="2.36493" stroke-miterlimit="8" fill="none" fill-rule="evenodd" transform="matrix(1.00903 0 0 1 1826.37 1434.84)"/><path d="M672.843 533.527C672.843 529.919 673.087 526.992 673.386 526.992L894.172 526.992C894.472 526.992 894.716 529.919 894.716 533.527" stroke="#4472C4" stroke-width="3.54739" stroke-miterlimit="8" fill="none" fill-rule="evenodd" transform="matrix(1.00903 0 0 1 1826.37 1434.84)"/><path d="M0.394153-2.40276e-06 0.394229 12.4816-0.394077 12.4816-0.394153 2.40276e-06ZM4.72992 10.9049 0.000124143 20.3647-4.72978 10.905Z" fill="#4472C4" transform="matrix(1.00903 -1.22465e-16 -1.2357e-16 -1 2617.05 1961.91)"/><text font-family="SimSun,SimSun_MSFontService,sans-serif" font-weight="400" font-size="83" transform="matrix(0.347094 0 0 0.343989 2547.59 1901)">起始<tspan font-size="83" x="165" y="0">节点</tspan><tspan font-size="83" x="330" y="0">的</tspan><tspan font-size="83" x="41.25" y="98.8403">前驱联系</tspan></text><path d="M1348.61 537.139 1348.61 598.858" stroke="#000000" stroke-width="2.36493" stroke-miterlimit="8" fill="none" fill-rule="evenodd" transform="matrix(1.00903 0 0 1 1826.37 1434.84)"/><text font-family="Times New Roman,Times New Roman_MSFontService,sans-serif" font-weight="400" font-size="83" transform="matrix(0.347094 0 0 0.343989 2932.83 2017)">……<tspan font-family="SimSun,SimSun_MSFontService,sans-serif" font-size="83" x="523.327" y="235.472">是否位于联系链</tspan><tspan font-family="SimSun,SimSun_MSFontService,sans-serif" font-size="83" x="688.327" y="328.499">最前端</tspan></text><path d="M1403.48 606.797C1403.48 610.598 1403.22 613.677 1402.9 613.677L1349.01 613.677C1348.7 613.677 1348.44 610.598 1348.44 606.797" stroke="#4472C4" stroke-width="3.54739" stroke-miterlimit="8" fill="none" fill-rule="evenodd" transform="matrix(1.00903 0 0 1 1826.37 1434.84)"/><path d="M0.394153-2.40276e-06 0.394229 12.4816-0.394077 12.4816-0.394153 2.40276e-06ZM4.72992 10.9049 0.000124143 20.3647-4.72978 10.905Z" fill="#4472C4" transform="matrix(-1.00903 0 0 1 3214.74 2048.52)"/></g></g></g></g><path d="M2885.5 1781.17C2885.5 1765.89 2915.27 1753.5 2952 1753.5 2988.73 1753.5 3018.5 1765.89 3018.5 1781.17L3018.5 1891.83C3018.5 1907.11 2988.73 1919.5 2952 1919.5 2915.27 1919.5 2885.5 1907.11 2885.5 1891.83Z" fill="#03D7BE" fill-rule="evenodd"/><path d="M3018.5 1781.17C3018.5 1796.45 2988.73 1808.83 2952 1808.83 2915.27 1808.83 2885.5 1796.45 2885.5 1781.17" stroke="#FFFFFF" stroke-width="4.58333" stroke-miterlimit="8" fill="none" fill-rule="evenodd"/><path d="M2885.5 1781.17C2885.5 1765.89 2915.27 1753.5 2952 1753.5 2988.73 1753.5 3018.5 1765.89 3018.5 1781.17L3018.5 1891.83C3018.5 1907.11 2988.73 1919.5 2952 1919.5 2915.27 1919.5 2885.5 1907.11 2885.5 1891.83Z" stroke="#FFFFFF" stroke-width="4.58333" stroke-miterlimit="8" fill="none" fill-rule="evenodd"/><path d="M3033.5 1780.17C3033.5 1764.89 3063.5 1752.5 3100.5 1752.5 3137.5 1752.5 3167.5 1764.89 3167.5 1780.17L3167.5 1890.83C3167.5 1906.11 3137.5 1918.5 3100.5 1918.5 3063.5 1918.5 3033.5 1906.11 3033.5 1890.83Z" fill="#03D7BE" fill-rule="evenodd"/><path d="M3167.5 1780.17C3167.5 1795.45 3137.5 1807.83 3100.5 1807.83 3063.5 1807.83 3033.5 1795.45 3033.5 1780.17" stroke="#FFFFFF" stroke-width="4.58333" stroke-miterlimit="8" fill="none" fill-rule="evenodd"/><path d="M3033.5 1780.17C3033.5 1764.89 3063.5 1752.5 3100.5 1752.5 3137.5 1752.5 3167.5 1764.89 3167.5 1780.17L3167.5 1890.83C3167.5 1906.11 3137.5 1918.5 3100.5 1918.5 3063.5 1918.5 3033.5 1906.11 3033.5 1890.83Z" stroke="#FFFFFF" stroke-width="4.58333" stroke-miterlimit="8" fill="none" fill-rule="evenodd"/><path d="M3755.5 1846.31C3755.5 1839.23 3761.23 1833.5 3768.31 1833.5L4114.69 1833.5C4121.77 1833.5 4127.5 1839.23 4127.5 1846.31L4127.5 2034.69C4127.5 2041.77 4121.77 2047.5 4114.69 2047.5L3768.31 2047.5C3761.23 2047.5 3755.5 2041.77 3755.5 2034.69Z" stroke="#41719C" stroke-width="4.58333" stroke-miterlimit="8" fill="#D6DCE5" fill-rule="evenodd"/><path d="M3877.5 1867.5 3886.07 1909.37" stroke="#00B0F0" stroke-width="6.875" stroke-miterlimit="8" fill="#FFFFFF" fill-rule="evenodd"/><path d="M3880.5 1860.5 3910.34 1870.57" stroke="#00B0F0" stroke-width="6.875" stroke-miterlimit="8" fill="#FFFFFF" fill-rule="evenodd"/><path d="M3809.5 1854.5C3809.5 1848.98 3813.75 1844.5 3819 1844.5 3824.25 1844.5 3828.5 1848.98 3828.5 1854.5 3828.5 1860.02 3824.25 1864.5 3819 1864.5 3813.75 1864.5 3809.5 1860.02 3809.5 1854.5Z" stroke="#00B0F0" stroke-width="6.875" stroke-miterlimit="8" fill="#FFFFFF" fill-rule="evenodd"/><path d="M3821.5 1864.5 3828.26 1878.65" stroke="#00B0F0" stroke-width="6.875" stroke-miterlimit="8" fill="#FFFFFF" fill-rule="evenodd"/><path d="M3826.5 1859.5 3879.26 1911.78" stroke="#00B0F0" stroke-width="6.875" stroke-miterlimit="8" fill="#FFFFFF" fill-rule="evenodd"/><path d="M3821.5 1888C3821.5 1882.2 3825.53 1877.5 3830.5 1877.5 3835.47 1877.5 3839.5 1882.2 3839.5 1888 3839.5 1893.8 3835.47 1898.5 3830.5 1898.5 3825.53 1898.5 3821.5 1893.8 3821.5 1888Z" stroke="#00B0F0" stroke-width="6.875" stroke-miterlimit="8" fill="#FFFFFF" fill-rule="evenodd"/><path d="M3909.5 1874.5C3909.5 1868.98 3913.75 1864.5 3919 1864.5 3924.25 1864.5 3928.5 1868.98 3928.5 1874.5 3928.5 1880.02 3924.25 1884.5 3919 1884.5 3913.75 1884.5 3909.5 1880.02 3909.5 1874.5Z" stroke="#00B0F0" stroke-width="6.875" stroke-miterlimit="8" fill="#FFFFFF" fill-rule="evenodd"/><path d="M0 0 70.5891 14.1145" stroke="#00B0F0" stroke-width="6.875" stroke-miterlimit="8" fill="#FFFFFF" fill-rule="evenodd" transform="matrix(1 0 0 -1 3839.5 1888.61)"/><path d="M0 0 25.0799 11.2501" stroke="#00B0F0" stroke-width="6.875" stroke-miterlimit="8" fill="#FFFFFF" fill-rule="evenodd" transform="matrix(-1 0 0 1 3876.58 1919.5)"/><path d="M3793.5 1897.5 3835.94 1923.64" stroke="#00B0F0" stroke-width="6.875" stroke-miterlimit="8" fill="#FFFFFF" fill-rule="evenodd"/><path d="M0 0 20.9949 51.7761" stroke="#00B0F0" stroke-width="6.875" stroke-miterlimit="8" fill="#FFFFFF" fill-rule="evenodd" transform="matrix(-1 0 0 1 3867.49 1869.5)"/><path d="M3777.5 1890.5C3777.5 1884.98 3781.75 1880.5 3787 1880.5 3792.25 1880.5 3796.5 1884.98 3796.5 1890.5 3796.5 1896.02 3792.25 1900.5 3787 1900.5 3781.75 1900.5 3777.5 1896.02 3777.5 1890.5Z" stroke="#00B0F0" stroke-width="6.875" stroke-miterlimit="8" fill="#FFFFFF" fill-rule="evenodd"/><path d="M3876.5 1919.5C3876.5 1913.98 3880.75 1909.5 3886 1909.5 3891.25 1909.5 3895.5 1913.98 3895.5 1919.5 3895.5 1925.02 3891.25 1929.5 3886 1929.5 3880.75 1929.5 3876.5 1925.02 3876.5 1919.5Z" stroke="#00B0F0" stroke-width="6.875" stroke-miterlimit="8" fill="#FFFFFF" fill-rule="evenodd"/><path d="M3833.5 1930.5C3833.5 1924.98 3837.53 1920.5 3842.5 1920.5 3847.47 1920.5 3851.5 1924.98 3851.5 1930.5 3851.5 1936.02 3847.47 1940.5 3842.5 1940.5 3837.53 1940.5 3833.5 1936.02 3833.5 1930.5Z" stroke="#00B0F0" stroke-width="6.875" stroke-miterlimit="8" fill="#FFFFFF" fill-rule="evenodd"/><path d="M3861.5 1860.5C3861.5 1854.98 3865.75 1850.5 3871 1850.5 3876.25 1850.5 3880.5 1854.98 3880.5 1860.5 3880.5 1866.02 3876.25 1870.5 3871 1870.5 3865.75 1870.5 3861.5 1866.02 3861.5 1860.5Z" stroke="#00B0F0" stroke-width="6.875" stroke-miterlimit="8" fill="#FFFFFF" fill-rule="evenodd"/><path d="M4058.5 1866.5 4067.07 1908.37" stroke="#00B0F0" stroke-width="6.875" stroke-miterlimit="8" fill="#FFFFFF" fill-rule="evenodd"/><path d="M4061.5 1858.5 4091.34 1868.57" stroke="#00B0F0" stroke-width="6.875" stroke-miterlimit="8" fill="#FFFFFF" fill-rule="evenodd"/><path d="M3990.5 1853.5C3990.5 1847.98 3994.75 1843.5 4000 1843.5 4005.25 1843.5 4009.5 1847.98 4009.5 1853.5 4009.5 1859.02 4005.25 1863.5 4000 1863.5 3994.75 1863.5 3990.5 1859.02 3990.5 1853.5Z" stroke="#00B0F0" stroke-width="6.875" stroke-miterlimit="8" fill="#FFFFFF" fill-rule="evenodd"/><path d="M4002.5 1862.5 4009.26 1876.65" stroke="#00B0F0" stroke-width="6.875" stroke-miterlimit="8" fill="#FFFFFF" fill-rule="evenodd"/><path d="M4007.5 1858.5 4060.26 1910.78" stroke="#00B0F0" stroke-width="6.875" stroke-miterlimit="8" fill="#FFFFFF" fill-rule="evenodd"/><path d="M4002.5 1886.5C4002.5 1880.98 4006.75 1876.5 4012 1876.5 4017.25 1876.5 4021.5 1880.98 4021.5 1886.5 4021.5 1892.02 4017.25 1896.5 4012 1896.5 4006.75 1896.5 4002.5 1892.02 4002.5 1886.5Z" stroke="#00B0F0" stroke-width="6.875" stroke-miterlimit="8" fill="#FFFFFF" fill-rule="evenodd"/><path d="M4090.5 1872.5C4090.5 1866.98 4094.75 1862.5 4100 1862.5 4105.25 1862.5 4109.5 1866.98 4109.5 1872.5 4109.5 1878.02 4105.25 1882.5 4100 1882.5 4094.75 1882.5 4090.5 1878.02 4090.5 1872.5Z" stroke="#00B0F0" stroke-width="6.875" stroke-miterlimit="8" fill="#FFFFFF" fill-rule="evenodd"/><path d="M0 0 70.5891 14.1145" stroke="#00B0F0" stroke-width="6.875" stroke-miterlimit="8" fill="#FFFFFF" fill-rule="evenodd" transform="matrix(1 0 0 -1 4020.5 1886.61)"/><path d="M0 0 25.0799 11.2501" stroke="#00B0F0" stroke-width="6.875" stroke-miterlimit="8" fill="#FFFFFF" fill-rule="evenodd" transform="matrix(-1 0 0 1 4057.58 1917.5)"/><path d="M3974.5 1895.5 4016.94 1921.64" stroke="#00B0F0" stroke-width="6.875" stroke-miterlimit="8" fill="#FFFFFF" fill-rule="evenodd"/><path d="M0 0 20.9949 51.7761" stroke="#00B0F0" stroke-width="6.875" stroke-miterlimit="8" fill="#FFFFFF" fill-rule="evenodd" transform="matrix(-1 0 0 1 4048.49 1868.5)"/><path d="M3958.5 1888.5C3958.5 1882.98 3962.75 1878.5 3968 1878.5 3973.25 1878.5 3977.5 1882.98 3977.5 1888.5 3977.5 1894.02 3973.25 1898.5 3968 1898.5 3962.75 1898.5 3958.5 1894.02 3958.5 1888.5Z" stroke="#00B0F0" stroke-width="6.875" stroke-miterlimit="8" fill="#FFFFFF" fill-rule="evenodd"/><path d="M4057.5 1918C4057.5 1912.2 4061.75 1907.5 4067 1907.5 4072.25 1907.5 4076.5 1912.2 4076.5 1918 4076.5 1923.8 4072.25 1928.5 4067 1928.5 4061.75 1928.5 4057.5 1923.8 4057.5 1918Z" stroke="#00B0F0" stroke-width="6.875" stroke-miterlimit="8" fill="#FFFFFF" fill-rule="evenodd"/><path d="M4014.5 1929.5C4014.5 1923.98 4018.53 1919.5 4023.5 1919.5 4028.47 1919.5 4032.5 1923.98 4032.5 1929.5 4032.5 1935.02 4028.47 1939.5 4023.5 1939.5 4018.53 1939.5 4014.5 1935.02 4014.5 1929.5Z" stroke="#00B0F0" stroke-width="6.875" stroke-miterlimit="8" fill="#FFFFFF" fill-rule="evenodd"/><path d="M4042.5 1858.5C4042.5 1852.98 4046.75 1848.5 4052 1848.5 4057.25 1848.5 4061.5 1852.98 4061.5 1858.5 4061.5 1864.02 4057.25 1868.5 4052 1868.5 4046.75 1868.5 4042.5 1864.02 4042.5 1858.5Z" stroke="#00B0F0" stroke-width="6.875" stroke-miterlimit="8" fill="#FFFFFF" fill-rule="evenodd"/><path d="M3972.5 1955.5 3981.07 1997.37" stroke="#C00000" stroke-width="6.875" stroke-miterlimit="8" fill="#FFFFFF" fill-rule="evenodd"/><path d="M3975.5 1948.5 4005.34 1958.57" stroke="#C00000" stroke-width="6.875" stroke-miterlimit="8" fill="#FFFFFF" fill-rule="evenodd"/><path d="M3905.5 1942.5C3905.5 1936.98 3909.53 1932.5 3914.5 1932.5 3919.47 1932.5 3923.5 1936.98 3923.5 1942.5 3923.5 1948.02 3919.47 1952.5 3914.5 1952.5 3909.53 1952.5 3905.5 1948.02 3905.5 1942.5Z" stroke="#C00000" stroke-width="6.875" stroke-miterlimit="8" fill="#FFFFFF" fill-rule="evenodd"/><path d="M3916.5 1951.5 3923.26 1965.65" stroke="#C00000" stroke-width="6.875" stroke-miterlimit="8" fill="#FFFFFF" fill-rule="evenodd"/><path d="M3921.5 1947.5 3974.26 1999.78" stroke="#C00000" stroke-width="6.875" stroke-miterlimit="8" fill="#FFFFFF" fill-rule="evenodd"/><path d="M3916.5 1975.5C3916.5 1969.98 3920.75 1965.5 3926 1965.5 3931.25 1965.5 3935.5 1969.98 3935.5 1975.5 3935.5 1981.02 3931.25 1985.5 3926 1985.5 3920.75 1985.5 3916.5 1981.02 3916.5 1975.5Z" stroke="#C00000" stroke-width="6.875" stroke-miterlimit="8" fill="#FFFFFF" fill-rule="evenodd"/><path d="M4004.5 1961.5C4004.5 1955.98 4008.75 1951.5 4014 1951.5 4019.25 1951.5 4023.5 1955.98 4023.5 1961.5 4023.5 1967.02 4019.25 1971.5 4014 1971.5 4008.75 1971.5 4004.5 1967.02 4004.5 1961.5Z" stroke="#C00000" stroke-width="6.875" stroke-miterlimit="8" fill="#FFFFFF" fill-rule="evenodd"/><path d="M0 0 70.5891 14.1145" stroke="#C00000" stroke-width="6.875" stroke-miterlimit="8" fill="#FFFFFF" fill-rule="evenodd" transform="matrix(1 0 0 -1 3934.5 1975.61)"/><path d="M0 0 25.0799 11.2501" stroke="#C00000" stroke-width="6.875" stroke-miterlimit="8" fill="#FFFFFF" fill-rule="evenodd" transform="matrix(-1 0 0 1 3971.58 2007.5)"/><path d="M3888.5 1985.5 3930.94 2011.64" stroke="#C00000" stroke-width="6.875" stroke-miterlimit="8" fill="#FFFFFF" fill-rule="evenodd"/><path d="M0 0 20.9949 51.7761" stroke="#C00000" stroke-width="6.875" stroke-miterlimit="8" fill="#FFFFFF" fill-rule="evenodd" transform="matrix(-1 0 0 1 3962.49 1957.5)"/><path d="M3872.5 1978C3872.5 1972.2 3876.75 1967.5 3882 1967.5 3887.25 1967.5 3891.5 1972.2 3891.5 1978 3891.5 1983.8 3887.25 1988.5 3882 1988.5 3876.75 1988.5 3872.5 1983.8 3872.5 1978Z" stroke="#C00000" stroke-width="6.875" stroke-miterlimit="8" fill="#FFFFFF" fill-rule="evenodd"/><path d="M3971.5 2007.5C3971.5 2001.98 3975.75 1997.5 3981 1997.5 3986.25 1997.5 3990.5 2001.98 3990.5 2007.5 3990.5 2013.02 3986.25 2017.5 3981 2017.5 3975.75 2017.5 3971.5 2013.02 3971.5 2007.5Z" stroke="#C00000" stroke-width="6.875" stroke-miterlimit="8" fill="#FFFFFF" fill-rule="evenodd"/><path d="M3928.5 2018.5C3928.5 2012.98 3932.53 2008.5 3937.5 2008.5 3942.47 2008.5 3946.5 2012.98 3946.5 2018.5 3946.5 2024.02 3942.47 2028.5 3937.5 2028.5 3932.53 2028.5 3928.5 2024.02 3928.5 2018.5Z" stroke="#C00000" stroke-width="6.875" stroke-miterlimit="8" fill="#FFFFFF" fill-rule="evenodd"/><path d="M3956.5 1948C3956.5 1942.2 3960.75 1937.5 3966 1937.5 3971.25 1937.5 3975.5 1942.2 3975.5 1948 3975.5 1953.8 3971.25 1958.5 3966 1958.5 3960.75 1958.5 3956.5 1953.8 3956.5 1948Z" stroke="#C00000" stroke-width="6.875" stroke-miterlimit="8" fill="#FFFFFF" fill-rule="evenodd"/><path d="M3410.5 1871.83C3410.5 1852.87 3452.36 1837.5 3504 1837.5 3555.64 1837.5 3597.5 1852.87 3597.5 1871.83L3597.5 2009.17C3597.5 2028.13 3555.64 2043.5 3504 2043.5 3452.36 2043.5 3410.5 2028.13 3410.5 2009.17Z" fill="#03D7BE" fill-rule="evenodd"/><path d="M3597.5 1871.83C3597.5 1890.8 3555.64 1906.17 3504 1906.17 3452.36 1906.17 3410.5 1890.8 3410.5 1871.83" stroke="#FFFFFF" stroke-width="4.58333" stroke-miterlimit="8" fill="none" fill-rule="evenodd"/><path d="M3410.5 1871.83C3410.5 1852.87 3452.36 1837.5 3504 1837.5 3555.64 1837.5 3597.5 1852.87 3597.5 1871.83L3597.5 2009.17C3597.5 2028.13 3555.64 2043.5 3504 2043.5 3452.36 2043.5 3410.5 2028.13 3410.5 2009.17Z" stroke="#FFFFFF" stroke-width="4.58333" stroke-miterlimit="8" fill="none" fill-rule="evenodd"/><path d="M3622.78 1934.86 3729.32 1934.91 3729.32 1945.22 3622.78 1945.17ZM3627.93 1955.48 3597 1940 3627.94 1924.55ZM3724.17 1924.59 3755.1 1940.08 3724.16 1955.53Z" fill="#FFFFFF"/><g clip-path="url(#clip36)"><g clip-path="url(#clip37)"><g clip-path="url(#clip38)"><path d="M41.125 223.25 240.875 223.25 240.875 240.875 41.125 240.875Z" fill="#FFFFFF" transform="matrix(1 0 0 1 4475 1793)"/><path d="M41.125 41.125 64.625 41.125 64.625 211.5 41.125 211.5Z" fill="#FFFFFF" transform="matrix(1 0 0 1 4475 1793)"/><path d="M188 188 240.875 188 240.875 211.5 188 211.5Z" fill="#FFFFFF" transform="matrix(1 0 0 1 4475 1793)"/><path d="M188 88.125 240.875 88.125 240.875 176.25 188 176.25Z" fill="#FFFFFF" transform="matrix(1 0 0 1 4475 1793)"/><path d="M188 52.875 240.875 52.875 240.875 76.375 188 76.375Z" fill="#FFFFFF" transform="matrix(1 0 0 1 4475 1793)"/><path d="M152.75 105.75C149.519 105.75 146.875 103.106 146.875 99.875 146.875 96.6437 149.519 94 152.75 94 155.981 94 158.625 96.6437 158.625 99.875 158.625 103.106 155.981 105.75 152.75 105.75ZM152.75 199.75C149.519 199.75 146.875 197.106 146.875 193.875 146.875 190.644 149.519 188 152.75 188 155.981 188 158.625 190.644 158.625 193.875 158.625 197.106 155.981 199.75 152.75 199.75ZM176.25 82.25 129.25 82.25 129.25 211.5 176.25 211.5 176.25 82.25Z" fill="#FFFFFF" transform="matrix(1 0 0 1 4475 1793)"/><path d="M105.75 88.125 88.125 88.125 88.125 70.5 105.75 70.5 105.75 88.125ZM117.5 58.75 76.375 58.75 76.375 211.5 117.5 211.5 117.5 58.75Z" fill="#FFFFFF" transform="matrix(1 0 0 1 4475 1793)"/></g></g></g><path d="M3057 358 3175 777.963 3175 1027.04 3057 1447Z" fill="url(#fill39)" fill-rule="evenodd"/><path d="M3895 1450 3767 1030.02 3767 780.978 3895 361Z" fill="url(#fill40)" fill-rule="evenodd"/></g></svg>