<svg width="2548" height="1613" xmlns="http://www.w3.org/2000/svg" xmlns:xlink="http://www.w3.org/1999/xlink" overflow="hidden"><defs><clipPath id="clip0"><rect x="448" y="446" width="2548" height="1613"/></clipPath></defs><g clip-path="url(#clip0)" transform="translate(-448 -446)"><path d="M450.606 1115.51 783.525 1115.51 783.525 1225.51 450.606 1225.51Z" fill="#FFFFFF" fill-rule="evenodd"/><path d="M783.525 1115.51 1062.26 1115.51 1062.26 1225.51 783.525 1225.51Z" fill="#FFFFFF" fill-rule="evenodd"/><path d="M450.606 1225.51 783.525 1225.51 783.525 1335.51 450.606 1335.51Z" fill="#FFFFFF" fill-rule="evenodd"/><path d="M783.525 1225.51 1062.26 1225.51 1062.26 1335.51 783.525 1335.51Z" fill="#FFFFFF" fill-rule="evenodd"/><path d="M450.606 1335.51 783.525 1335.51 783.525 1445.51 450.606 1445.51Z" fill="#E2F0D9" fill-rule="evenodd"/><path d="M783.525 1335.51 1062.26 1335.51 1062.26 1445.51 783.525 1445.51Z" fill="#E2F0D9" fill-rule="evenodd"/><path d="M450.606 1445.51 783.525 1445.51 783.525 1555.51 450.606 1555.51Z" fill="#FFFFFF" fill-rule="evenodd"/><path d="M783.525 1445.51 1062.26 1445.51 1062.26 1555.51 783.525 1555.51Z" fill="#FFFFFF" fill-rule="evenodd"/><path d="M450.606 1555.51 783.525 1555.51 783.525 1665.51 450.606 1665.51Z" fill="#FFFFFF" fill-rule="evenodd"/><path d="M783.525 1555.51 1062.26 1555.51 1062.26 1665.51 783.525 1665.51Z" fill="#FFFFFF" fill-rule="evenodd"/><path d="M783.525 1113.22 783.525 1667.81" stroke="#000000" stroke-width="4.58333" stroke-linejoin="round" stroke-miterlimit="10" fill="none" fill-rule="evenodd"/><path d="M448.315 1225.51 1064.55 1225.51" stroke="#000000" stroke-width="4.58333" stroke-linejoin="round" stroke-miterlimit="10" fill="none" fill-rule="evenodd"/><path d="M448.315 1335.51 1064.55 1335.51" stroke="#000000" stroke-width="4.58333" stroke-linejoin="round" stroke-miterlimit="10" fill="none" fill-rule="evenodd"/><path d="M448.315 1445.51 1064.55 1445.51" stroke="#000000" stroke-width="4.58333" stroke-linejoin="round" stroke-miterlimit="10" fill="none" fill-rule="evenodd"/><path d="M448.315 1555.51 1064.55 1555.51" stroke="#000000" stroke-width="4.58333" stroke-linejoin="round" stroke-miterlimit="10" fill="none" fill-rule="evenodd"/><path d="M450.606 1113.22 450.606 1667.81" stroke="#000000" stroke-width="4.58333" stroke-linejoin="round" stroke-miterlimit="10" fill="none" fill-rule="evenodd"/><path d="M1062.26 1113.22 1062.26 1667.81" stroke="#000000" stroke-width="4.58333" stroke-linejoin="round" stroke-miterlimit="10" fill="none" fill-rule="evenodd"/><path d="M448.315 1115.51 1064.55 1115.51" stroke="#000000" stroke-width="4.58333" stroke-linejoin="round" stroke-miterlimit="10" fill="none" fill-rule="evenodd"/><path d="M448.315 1665.51 1064.55 1665.51" stroke="#000000" stroke-width="4.58333" stroke-linejoin="round" stroke-miterlimit="10" fill="none" fill-rule="evenodd"/><text font-family="Times New Roman,Times New Roman_MSFontService,sans-serif" font-weight="400" font-size="64" transform="matrix(1 0 0 1 560.06 1194)">v_id<tspan font-style="italic" font-size="64" x="270.021" y="0">pointer</tspan><tspan font-size="64" x="8.88031" y="110">001</tspan><tspan font-style="italic" font-size="64" x="330.75" y="110">p</tspan><tspan font-style="italic" font-size="64" x="362.833" y="110">1</tspan><tspan font-size="64" x="8.88031" y="220">002</tspan><tspan font-style="italic" font-size="64" x="330.75" y="220">p2</tspan><tspan font-size="64" x="8.88031" y="330">00</tspan><tspan font-size="64" x="73.047" y="330">3</tspan><tspan font-style="italic" font-size="64" x="330.75" y="330">p3</tspan><tspan font-size="64" x="24.922" y="440">…</tspan><tspan font-size="64" x="330.75" y="440">…</tspan></text><path d="M2547.91 1888.9 2282.77 1840.76 2285.23 1827.24 2550.37 1875.37ZM2546.06 1860.61 2582.96 1888.28 2538.69 1901.2Z"/><path d="M1775.99 1320.81 2612.38 1724.24 2606.4 1736.62 1770.01 1333.19ZM2612.16 1708.86 2640.35 1745.36 2594.24 1746.02Z"/><path d="M1847 1267.12 2312.09 1267.13 2312.09 1280.88 1847 1280.87ZM2305.21 1253.38 2346.46 1274 2305.21 1294.63Z"/><path d="M1885.5 1773.5C1885.5 1673.54 1977.51 1592.5 2091 1592.5 2204.49 1592.5 2296.5 1673.54 2296.5 1773.5 2296.5 1873.46 2204.49 1954.5 2091 1954.5 1977.51 1954.5 1885.5 1873.46 1885.5 1773.5Z" stroke="#000000" stroke-width="6.875" stroke-miterlimit="8" fill="#E2F0D9" fill-rule="evenodd"/><path d="M2347.5 1274.5C2347.5 1174.54 2439.51 1093.5 2553 1093.5 2666.49 1093.5 2758.5 1174.54 2758.5 1274.5 2758.5 1374.46 2666.49 1455.5 2553 1455.5 2439.51 1455.5 2347.5 1374.46 2347.5 1274.5Z" stroke="#000000" stroke-width="6.875" stroke-miterlimit="8" fill="#E2F0D9" fill-rule="evenodd"/><path d="M2580.5 1874.5C2580.5 1774.54 2672.73 1693.5 2786.5 1693.5 2900.27 1693.5 2992.5 1774.54 2992.5 1874.5 2992.5 1974.46 2900.27 2055.5 2786.5 2055.5 2672.73 2055.5 2580.5 1974.46 2580.5 1874.5Z" stroke="#000000" stroke-width="6.875" stroke-miterlimit="8" fill="#E2F0D9" fill-rule="evenodd"/><path d="M1436.5 1274.5C1436.5 1174.54 1528.51 1093.5 1642 1093.5 1755.49 1093.5 1847.5 1174.54 1847.5 1274.5 1847.5 1374.46 1755.49 1455.5 1642 1455.5 1528.51 1455.5 1436.5 1374.46 1436.5 1274.5Z" stroke="#000000" stroke-width="6.875" stroke-miterlimit="8" fill="#E2F0D9" fill-rule="evenodd"/><path d="M0.0613741-3.43695 6.93528-3.3142 6.81253 3.5597-0.0613741 3.43695ZM13.8092-3.19146 17.6295-3.12324 20.8146-2.93992 20.4195 3.92372 17.3025 3.74432 17.4386 3.74945 13.6864 3.68245ZM27.6782-2.54489 34.5419-2.14986 34.1468 4.71378 27.2832 4.31875ZM41.5055-1.53219 48.3519-0.905239 47.7249 5.94111 40.8785 5.31416ZM55.3076-0.16111 62.1275 0.707346 61.2591 7.52727 54.4391 6.65882ZM68.9474 1.5758 69.1249 1.59839 75.8604 2.72099 74.7302 9.50245 68.0599 8.39073 68.1908 8.40996 68.079 8.39573ZM82.6419 3.85123 85.3672 4.30544 89.5042 5.12615 88.1664 11.8697 84.0811 11.0593 84.1849 11.0782 81.5116 10.6327ZM96.2478 6.46394 100.929 7.39263 103.116 7.92528 101.489 14.605 99.3739 14.0898 99.5186 14.1218 94.91 13.2075ZM109.795 9.55238 115.697 10.9899 116.606 11.2528 114.698 17.8575 113.858 17.6149 113.999 17.6523 108.168 16.2321ZM123.211 13.1615 129.466 14.9691 129.957 15.1352 127.754 21.6476 127.336 21.5062 127.483 21.5524 121.302 19.7662ZM136.47 17.3384 142.195 19.2753 143.148 19.6597 140.576 26.0356 139.714 25.688 139.898 25.7562 134.266 23.8509ZM149.524 22.2312 153.672 23.9041 156 24.97 153.138 31.221 150.882 30.188 151.027 30.2505 146.952 28.6071ZM162.31 28.0207 163.934 28.8428 168.522 31.4279 168.636 31.5011 164.928 37.2903 164.896 37.2696 165.063 37.3699 160.625 34.8699 160.759 34.9416 159.204 34.1538ZM174.5 35.379 176.463 36.7661 179.861 39.5644 180.301 39.9946 175.496 44.9115 175.16 44.5835 175.377 44.7785 172.19 42.1535 172.391 42.307 170.532 40.993ZM185.2 45.2227 185.362 45.4107 187.43 48.4768 188.965 51.6926 189.197 52.4597 182.616 54.4492 182.46 53.9323 182.648 54.4181 181.335 51.6681 181.588 52.1095 179.775 49.422 180.02 49.7423 179.989 49.7072ZM190.403 59.9023 190.486 60.8138 190.353 60.1302 191.165 62.8177 190.977 62.3319 192.29 65.0819 192.037 64.6402 192.096 64.7272 186.396 68.5718 186.195 68.2733 184.66 65.0574 183.671 61.7847 183.556 60.5247ZM195.826 69.5842 198.436 72.076 198.248 71.909 200.769 73.9853 196.399 79.2923 193.78 77.136 191.079 74.5572ZM206.054 77.7038 208.729 79.418 208.562 79.3176 211.783 81.1324 208.409 87.1222 205.103 85.2596 202.345 83.4928ZM217.633 84.1596 222.743 86.4995 222.598 86.437 223.761 86.9061 221.19 93.2821 219.953 92.7834 214.771 90.4106ZM230.137 89.4776 233.911 90.9995 233.727 90.9313 236.385 91.8306 234.182 98.343 231.43 97.4122 227.566 95.8536ZM242.897 94.0338 246.289 95.1813 246.142 95.1351 249.307 96.0497 247.398 102.654 244.159 101.718 240.694 100.546ZM255.911 97.9584 259.767 99.0726 259.626 99.0352 262.406 99.7124 260.779 106.392 257.928 105.698 254.003 104.563ZM269.086 101.34 274.251 102.598 274.106 102.566 275.636 102.869 274.298 109.613 272.696 109.295 267.459 108.019ZM282.379 104.207 289.123 105.545 287.785 112.288 281.041 110.95ZM295.798 106.669 302.58 107.799 301.449 114.581 294.668 113.45ZM309.252 108.764 316.072 109.632 315.203 116.452 308.383 115.584ZM322.774 110.46 329.62 111.087 328.993 117.933 322.147 117.306ZM336.466 111.714 339.063 111.952 338.914 111.941 343.177 112.146 342.848 119.013 338.511 118.805 335.84 118.56ZM350.044 112.474 350.885 112.515 350.556 119.382 349.715 119.341ZM346.583 102.057 373.625 116.687 345.696 129.543Z" fill="#7F7F7F" transform="matrix(1 0 0 -1 1062.5 1391.13)"/><path d="M1916.17 1625.09 1738.02 1437.74 1747.98 1428.26 1926.13 1615.61ZM1931.36 1601.15 1944.84 1645.26 1901.47 1629.58Z"/><path d="M1270.93 599.395 1681.41 599.395 1681.41 709.395 1270.93 709.395Z" fill="#FFFFFF" fill-rule="evenodd"/><path d="M1681.41 599.395 2025.08 599.395 2025.08 709.395 1681.41 709.395Z" fill="#FFFFFF" fill-rule="evenodd"/><path d="M1270.93 709.395 1681.41 709.395 1681.41 819.395 1270.93 819.395Z" fill="#FFFFFF" fill-rule="evenodd"/><path d="M1681.41 709.395 2025.08 709.395 2025.08 819.395 1681.41 819.395Z" fill="#FFFFFF" fill-rule="evenodd"/><path d="M1270.93 819.395 1681.41 819.395 1681.41 929.395 1270.93 929.395Z" fill="#E2F0D9" fill-rule="evenodd"/><path d="M1681.41 819.395 2025.08 819.395 2025.08 929.395 1681.41 929.395Z" fill="#E2F0D9" fill-rule="evenodd"/><path d="M1270.93 929.395 1681.41 929.395 1681.41 1039.39 1270.93 1039.39Z" fill="#FFFFFF" fill-rule="evenodd"/><path d="M1681.41 929.395 2025.08 929.395 2025.08 1039.39 1681.41 1039.39Z" fill="#FFFFFF" fill-rule="evenodd"/><path d="M1681.41 597.103 1681.41 1041.69" stroke="#000000" stroke-width="4.58333" stroke-linejoin="round" stroke-miterlimit="10" fill="none" fill-rule="evenodd"/><path d="M1268.64 709.395 2027.37 709.395" stroke="#000000" stroke-width="4.58333" stroke-linejoin="round" stroke-miterlimit="10" fill="none" fill-rule="evenodd"/><path d="M1268.64 819.395 2027.37 819.395" stroke="#000000" stroke-width="4.58333" stroke-linejoin="round" stroke-miterlimit="10" fill="none" fill-rule="evenodd"/><path d="M1268.64 929.395 2027.37 929.395" stroke="#000000" stroke-width="4.58333" stroke-linejoin="round" stroke-miterlimit="10" fill="none" fill-rule="evenodd"/><path d="M1270.93 597.103 1270.93 1041.69" stroke="#000000" stroke-width="4.58333" stroke-linejoin="round" stroke-miterlimit="10" fill="none" fill-rule="evenodd"/><path d="M2025.08 597.103 2025.08 1041.69" stroke="#000000" stroke-width="4.58333" stroke-linejoin="round" stroke-miterlimit="10" fill="none" fill-rule="evenodd"/><path d="M1268.64 599.395 2027.37 599.395" stroke="#000000" stroke-width="4.58333" stroke-linejoin="round" stroke-miterlimit="10" fill="none" fill-rule="evenodd"/><path d="M1268.64 1039.39 2027.37 1039.39" stroke="#000000" stroke-width="4.58333" stroke-linejoin="round" stroke-miterlimit="10" fill="none" fill-rule="evenodd"/><text font-family="Times New Roman,Times New Roman_MSFontService,sans-serif" font-weight="400" font-size="64" transform="matrix(1 0 0 1 1403.12 678)">nb_id<tspan font-style="italic" font-size="64" x="357.307" y="0">pointer</tspan><tspan font-size="64" x="24.922" y="110">001</tspan><tspan font-style="italic" font-size="64" x="396.552" y="110">ptr1</tspan><tspan font-size="64" x="24.922" y="220">003</tspan><tspan font-style="italic" font-size="64" x="396.552" y="220">ptr2</tspan><tspan font-size="64" x="24.922" y="330">00</tspan><tspan font-size="64" x="89.0886" y="330">4</tspan><tspan font-style="italic" font-size="64" x="396.552" y="330">ptr3</tspan><tspan font-size="83" x="-124.659" y="-122">v_id</tspan><tspan font-size="83" x="22.0081" y="-122">=002</tspan><tspan font-family="SimSun,SimSun_MSFontService,sans-serif" font-size="83" x="192.164" y="-122">的邻居索引</tspan></text><path d="M1959.56 752.063 1966.44 752.187 1966.31 759.061 1959.44 758.937ZM1973.31 752.31 1980.18 752.434 1980.06 759.308 1973.19 759.184ZM1987.06 752.557 1987.43 752.564 1994.04 752.906 1993.68 759.772 1987.13 759.433 1987.25 759.437 1986.93 759.431ZM2000.91 753.262 2007.77 753.618 2007.42 760.484 2000.55 760.128ZM2014.64 753.973 2015.3 754.008 2021.6 754.55 2021.02 761.4 2014.77 760.862 2014.88 760.87 2014.28 760.839ZM2028.45 755.139 2035.3 755.728 2034.72 762.577 2027.87 761.988ZM2042.15 756.317 2043.04 756.393 2049.1 757.122 2048.28 763.948 2042.28 763.225 2042.39 763.237 2041.56 763.166ZM2055.92 757.945 2062.75 758.767 2061.93 765.593 2055.1 764.77ZM2069.58 759.589 2070.65 759.718 2076.48 760.601 2075.45 767.399 2069.67 766.524 2069.78 766.538 2068.75 766.415ZM2083.28 761.63 2090.08 762.659 2089.05 769.457 2082.25 768.428ZM2096.87 763.688 2098 763.859 2103.75 764.909 2102.51 771.672 2096.82 770.631 2096.92 770.649 2095.84 770.486ZM2110.51 766.146 2117.27 767.383 2116.03 774.146 2109.27 772.909ZM2124.03 768.619 2125.11 768.817 2130.87 770.071 2129.41 776.788 2123.71 775.546 2123.82 775.569 2122.8 775.382ZM2137.59 771.534 2144.31 772.997 2142.84 779.715 2136.13 778.252ZM2151.02 774.46 2151.91 774.652 2157.8 776.122 2156.14 782.793 2150.29 781.335 2150.39 781.359 2149.56 781.178ZM2164.47 777.786 2171.14 779.45 2169.48 786.12 2162.81 784.457ZM2177.81 781.114 2178.32 781.24 2184.54 783.001 2182.66 789.616 2176.5 787.87 2176.61 787.898 2176.15 787.784ZM2191.15 784.875 2197.77 786.749 2195.89 793.364 2189.28 791.49ZM2204.48 788.657 2211.03 790.725 2208.97 797.281 2202.41 795.214ZM2217.59 792.792 2224.15 794.859 2222.08 801.416 2215.52 799.349ZM2230.79 796.993 2237.28 799.265 2235.01 805.753 2228.52 803.482ZM2243.77 801.537 2250.26 803.808 2247.99 810.297 2241.5 808.025ZM2256.82 806.18 2263.24 808.645 2260.78 815.063 2254.36 812.598ZM2269.66 811.11 2276.08 813.574 2273.61 819.992 2267.19 817.528ZM2282.56 816.207 2288.88 818.893 2286.2 825.221 2279.87 822.536ZM2295.21 821.579 2301.54 824.265 2298.86 830.593 2292.53 827.907ZM2307.9 827.158 2314.14 830.04 2311.26 836.281 2305.01 833.399ZM2320.38 832.922 2325.62 835.34 2326.7 835.886 2323.62 842.031 2322.58 841.51 2322.68 841.558 2317.5 839.164ZM2332.85 838.967 2339 842.049 2335.91 848.194 2329.77 845.113ZM2345.14 845.13 2347.78 846.454 2351.33 848.389 2348.04 854.424 2344.54 852.518 2344.65 852.573 2342.06 851.276ZM2357.36 851.681 2363.4 854.973 2360.11 861.009 2354.07 857.716ZM2369.54 858.342 2375.45 861.863 2371.93 867.768 2366.02 864.246ZM2381.35 865.384 2387.26 868.905 2383.74 874.81 2377.83 871.289ZM2393.19 872.608 2398.97 876.331 2395.25 882.11 2389.47 878.387ZM2404.75 880.054 2409.36 883.023 2410.61 883.904 2406.66 889.529 2405.46 888.688 2405.58 888.765 2401.03 885.834ZM2416.24 887.856 2421.86 891.809 2417.91 897.434 2412.28 893.481ZM2427.49 895.762 2427.97 896.104 2433.07 900.017 2428.88 905.47 2423.84 901.602 2423.96 901.688 2423.53 901.387ZM2438.52 904.204 2443.97 908.391 2439.79 913.844 2434.33 909.657ZM2449.41 912.853 2454.66 917.286 2450.23 922.541 2444.98 918.108ZM2459.92 921.718 2462.09 923.549 2465.17 926.4 2460.5 931.444 2457.48 928.647 2457.6 928.753 2455.49 926.974ZM2470.21 931.072 2475.26 935.743 2470.58 940.787 2465.54 936.115ZM2480.28 940.684 2485.08 945.609 2480.16 950.406 2475.36 945.481ZM2489.88 950.534 2491.66 952.359 2494.62 955.774 2489.43 960.282 2486.53 956.942 2486.66 957.086 2484.95 955.331ZM2499.13 960.964 2503.64 966.154 2498.45 970.663 2493.94 965.473ZM2508.02 971.721 2512.2 977.177 2506.75 981.359 2502.56 975.904ZM2516.49 982.823 2520.32 988.532 2514.61 992.362 2510.78 986.652ZM2524.15 994.241 2526.55 997.819 2527.95 1000.28 2521.96 1003.67 2520.63 1001.32 2520.77 1001.54 2518.44 998.071ZM2531.33 1006.27 2534.71 1012.25 2528.72 1015.64 2525.34 1009.65ZM2537.92 1018.53 2539.3 1021.28 2540.9 1024.9 2534.62 1027.68 2533.05 1024.14 2533.11 1024.29 2531.77 1021.6ZM2543.65 1031.36 2545.92 1037.13 2546.18 1037.92 2539.68 1040.14 2539.43 1039.42 2539.49 1039.57 2537.25 1033.87ZM2548.4 1044.42 2548.66 1045.16 2550.38 1051.19 2543.77 1053.08 2542.07 1047.13 2542.12 1047.3 2541.9 1046.64ZM2552.13 1057.97 2552.94 1061.29 2553.46 1065.07 2546.65 1066 2546.16 1062.4 2546.22 1062.76 2545.45 1059.61ZM2564.03 1064.89 2552.94 1093.56 2536.65 1067.49Z" fill="#0070C0"/><path d="M1959.56 875.063 1966.43 875.174 1966.32 882.048 1959.44 881.937ZM1973.3 875.285 1978.98 875.376 1980.28 875.435 1979.97 882.303 1978.72 882.247 1978.82 882.25 1973.19 882.159ZM1987.14 875.745 1994.01 876.055 1993.7 882.923 1986.83 882.613ZM2000.98 876.444 2007.83 876.954 2007.32 883.81 2000.47 883.3ZM2014.69 877.464 2017.87 877.701 2021.64 878.104 2020.91 884.94 2017.2 884.543 2017.31 884.553 2014.18 884.32ZM2028.48 878.834 2035.32 879.564 2034.59 886.4 2027.75 885.67ZM2042.22 880.43 2049.04 881.334 2048.13 888.149 2041.32 887.245ZM2055.85 882.238 2056.69 882.349 2062.74 883.332 2061.64 890.118 2055.64 889.143 2055.74 889.158 2054.95 889.054ZM2069.53 884.433 2076.04 885.49 2076.41 885.562 2075.11 892.313 2074.79 892.251 2074.89 892.268 2068.43 891.22ZM2083.16 886.859 2089.91 888.157 2088.62 894.908 2081.86 893.611ZM2096.76 889.516 2103.47 891.012 2101.97 897.722 2095.26 896.226ZM2110.18 892.508 2114.48 893.467 2116.96 894.084 2115.29 900.755 2112.86 900.148 2112.94 900.168 2108.68 899.218ZM2123.63 895.747 2130.3 897.409 2128.64 904.08 2121.96 902.418ZM2137.03 899.183 2143.66 901.019 2141.82 907.645 2135.2 905.808ZM2150.28 902.856 2152.65 903.512 2156.96 904.825 2154.96 911.402 2150.69 910.101 2150.77 910.125 2148.45 909.481ZM2163.54 906.829 2170.11 908.832 2168.11 915.409 2161.53 913.405ZM2176.73 910.977 2183.26 913.132 2181.1 919.661 2174.57 917.506ZM2189.79 915.286 2190.44 915.501 2196.35 917.644 2194.01 924.108 2188.14 921.982 2188.24 922.014 2187.63 921.815ZM2202.81 919.986 2209.15 922.282 2209.35 922.36 2206.86 928.769 2206.69 928.704 2206.77 928.732 2200.47 926.45ZM2215.76 924.85 2222.16 927.34 2219.68 933.748 2213.27 931.258ZM2228.65 929.885 2234.99 932.539 2232.33 938.881 2225.99 936.228ZM2241.33 935.192 2246.18 937.219 2247.73 937.911 2244.93 944.192 2243.41 943.515 2243.49 943.546 2238.68 941.535ZM2254.01 940.707 2260.29 943.503 2257.49 949.784 2251.21 946.988ZM2266.62 946.384 2272.83 949.329 2269.89 955.541 2263.68 952.596ZM2279.05 952.274 2282.64 953.975 2285.3 955.323 2282.2 961.459 2279.57 960.131 2279.65 960.169 2276.1 958.486ZM2291.44 958.423 2297.58 961.524 2294.48 967.66 2288.34 964.56ZM2303.74 964.721 2309.81 967.949 2306.59 974.019 2300.52 970.791ZM2315.88 971.176 2318.46 972.545 2321.98 974.517 2318.62 980.515 2315.13 978.562 2315.2 978.598 2312.66 977.246ZM2327.98 977.878 2333.97 981.238 2330.61 987.236 2324.62 983.875ZM2339.99 984.722 2345.91 988.215 2342.42 994.137 2336.5 990.643ZM2351.83 991.708 2353.59 992.747 2357.76 995.34 2354.13 1001.18 2350 998.607 2350.07 998.648 2348.34 997.63ZM2363.6 998.971 2369.44 1002.6 2365.81 1008.44 2359.97 1004.81ZM2375.28 1006.37 2381.04 1010.13 2377.28 1015.89 2371.52 1012.13ZM2386.79 1013.89 2387.84 1014.58 2392.54 1017.77 2388.68 1023.46 2384 1020.28 2384.06 1020.32 2383.03 1019.65ZM2398.23 1021.64 2403.91 1025.51 2400.04 1031.19 2394.36 1027.33ZM2409.58 1029.61 2415.12 1033.67 2411.07 1039.22 2405.52 1035.16ZM2420.67 1037.73 2426.22 1041.78 2422.16 1047.33 2416.61 1043.28ZM2431.77 1045.84 2437.32 1049.9 2433.26 1055.45 2427.71 1051.39ZM2442.82 1054.27 2448.19 1058.57 2443.89 1063.94 2438.52 1059.64ZM2453.56 1062.86 2458.92 1067.15 2454.63 1072.52 2449.26 1068.23ZM2464.29 1071.45 2469.58 1075.67 2469.77 1075.84 2465.26 1081.03 2465.12 1080.91 2465.23 1081 2460 1076.82ZM2474.96 1080.34 2480.15 1084.85 2475.64 1090.04 2470.45 1085.53ZM2485.34 1089.36 2490.53 1093.86 2486.02 1099.06 2480.83 1094.55ZM2495.72 1098.37 2500.49 1102.51 2501 1102.99 2496.29 1107.99 2495.83 1107.56 2495.93 1107.66 2491.22 1103.56ZM2506 1107.71 2511.01 1112.43 2506.29 1117.43 2501.29 1112.71ZM2516.01 1117.14 2521.01 1121.86 2516.29 1126.86 2511.29 1122.15ZM2526.01 1126.58 2530.29 1130.61 2531.08 1131.43 2526.16 1136.23 2525.41 1135.46 2525.52 1135.56 2521.29 1131.58ZM2535.88 1136.36 2540.67 1141.29 2535.74 1146.08 2530.95 1141.15ZM2545.46 1146.22 2550.25 1151.15 2545.33 1155.94 2540.53 1151.01ZM2555.05 1156.08 2558.83 1159.97 2559.89 1161.16 2554.77 1165.74 2553.75 1164.6 2553.85 1164.71 2550.12 1160.87ZM2564.47 1166.28 2569.06 1171.4 2563.94 1175.99 2559.35 1170.86ZM2573.64 1176.53 2578.23 1181.65 2573.1 1186.23 2568.52 1181.11ZM2582.81 1186.77 2586.05 1190.39 2587.42 1192.06 2582.12 1196.43 2580.78 1194.81 2580.88 1194.92 2577.69 1191.36ZM2591.79 1197.37 2596.16 1202.68 2590.85 1207.05 2586.48 1201.74ZM2600.53 1207.99 2604.9 1213.3 2599.59 1217.67 2595.22 1212.36ZM2609.26 1218.61 2611.94 1221.86 2613.63 1224.06 2608.19 1228.25 2606.53 1226.1 2606.6 1226.18 2603.95 1222.97ZM2617.83 1229.5 2622.02 1234.95 2616.58 1239.14 2612.38 1233.7ZM2626.21 1240.51 2630.27 1246.06 2624.72 1250.12 2620.66 1244.57ZM2634.33 1251.6 2636.35 1254.37 2638.38 1257.24 2632.76 1261.2 2630.75 1258.35 2630.79 1258.41 2628.78 1255.66ZM2642.34 1262.86 2646.29 1268.48 2640.67 1272.44 2636.72 1266.82ZM2650.23 1274.21 2654.06 1279.92 2648.35 1283.75 2644.52 1278.05ZM2657.89 1285.63 2659.31 1287.74 2661.68 1291.46 2655.89 1295.16 2653.54 1291.47 2653.58 1291.54 2652.19 1289.46ZM2665.38 1297.25 2669.08 1303.05 2663.29 1306.75 2659.59 1300.95ZM2672.73 1308.96 2676.31 1314.83 2670.44 1318.4 2666.86 1312.53ZM2679.89 1320.7 2680.64 1321.93 2683.4 1326.7 2677.45 1330.14 2674.71 1325.41 2674.75 1325.48 2674.02 1324.27ZM2686.84 1332.66 2690.28 1338.61 2684.32 1342.05 2680.88 1336.09ZM2693.63 1344.7 2696.93 1350.74 2690.89 1354.03 2687.6 1348ZM2700.22 1356.77 2700.28 1356.88 2703.43 1362.92 2697.34 1366.1 2694.2 1360.09 2694.23 1360.15 2694.19 1360.07ZM2706.61 1369.02 2709.51 1374.58 2709.81 1375.21 2703.64 1378.22 2703.35 1377.63 2703.39 1377.71 2700.51 1372.2ZM2712.83 1381.39 2715.84 1387.57 2709.66 1390.58 2706.65 1384.4ZM2718.86 1393.84 2721.72 1400.08 2715.47 1402.95 2712.61 1396.7ZM2724.59 1406.33 2726.52 1410.55 2727.43 1412.69 2721.11 1415.39 2720.21 1413.29 2720.25 1413.37 2718.34 1409.2ZM2730.14 1419.01 2732.84 1425.33 2726.52 1428.03 2723.82 1421.71ZM2735.51 1431.75 2738.07 1438.13 2731.69 1440.69 2729.13 1434.31ZM2740.64 1444.51 2741.64 1447.01 2743.13 1451.01 2736.68 1453.4 2735.21 1449.45 2735.25 1449.53 2734.26 1447.07ZM2745.52 1457.46 2747.91 1463.91 2741.46 1466.3 2739.07 1459.85ZM2750.21 1470.47 2752.45 1476.97 2745.95 1479.21 2743.71 1472.71ZM2754.69 1483.47 2754.89 1484.05 2756.79 1490.12 2750.23 1492.17 2748.34 1486.15 2748.38 1486.25 2748.19 1485.71ZM2758.84 1496.68 2760.73 1502.7 2760.91 1503.33 2754.3 1505.21 2754.13 1504.63 2754.16 1504.71 2752.28 1498.73ZM2762.8 1509.94 2764.68 1516.55 2758.07 1518.44 2756.18 1511.82ZM2766.54 1523.26 2768.25 1529.92 2761.59 1531.63 2759.88 1524.97ZM2769.96 1536.58 2770.9 1540.26 2771.6 1543.36 2764.9 1544.87 2764.21 1541.82 2764.23 1541.92 2763.3 1538.29ZM2773.11 1550.07 2774.62 1556.78 2767.92 1558.29 2766.41 1551.58ZM2776.04 1563.59 2777.38 1570.33 2770.64 1571.67 2769.3 1564.93ZM2778.72 1577.08 2778.94 1578.19 2779.91 1583.95 2773.13 1585.09 2772.17 1579.38 2772.19 1579.48 2771.98 1578.42ZM2781.05 1590.73 2782.15 1597.23 2782.2 1597.61 2775.39 1598.55 2775.34 1598.22 2775.36 1598.32 2774.27 1591.87ZM2783.14 1604.42 2784.08 1611.23 2777.27 1612.17 2776.33 1605.36ZM2784.98 1618.15 2785.73 1624.98 2778.89 1625.73 2778.15 1618.89ZM2786.47 1631.82 2786.86 1635.43 2787.12 1638.76 2780.27 1639.3 2780.01 1636.02 2780.02 1636.12 2779.63 1632.56ZM2787.66 1645.62 2788.2 1652.47 2781.35 1653.01 2780.81 1646.16ZM2788.56 1659.47 2788.84 1666.34 2781.97 1666.61 2781.69 1659.74ZM2799.17 1665.1 2786.12 1692.94 2771.68 1665.8Z" fill="#0070C0"/><path d="M0.0830072-3.4365 6.956-3.27048 6.78999 3.60251-0.0830072 3.4365ZM13.829-3.10447 20.702-2.93845 20.536 3.93454 13.663 3.76853ZM27.7224-2.69461 34.5815-2.22733 34.1142 4.63177 27.2551 4.16449ZM41.4406-1.76004 48.2997-1.29275 47.8324 5.56635 40.9733 5.09906ZM55.3067-0.651057 62.1359 0.141463 61.3433 6.97063 54.5142 6.17811ZM68.965 0.933984 75.7942 1.7265 75.0017 8.55567 68.1725 7.76315ZM82.7319 2.75434 89.5233 3.82304 88.4546 10.6145 81.6632 9.54577ZM96.3147 4.89175 102.107 5.80323 103.243 6.03217 101.884 12.7716 100.821 12.5572 100.966 12.5832 95.2461 11.6832ZM109.982 7.39064 116.722 8.74912 115.363 15.4886 108.624 14.1301ZM123.461 10.1076 126.134 10.6464 130.315 11.6974 128.639 18.3649 124.537 17.3338 124.696 17.3697 122.103 16.847ZM136.983 13.3734 143.65 15.0494 141.974 21.7169 135.307 20.0409ZM150.446 16.8172 157.035 18.7788 155.074 25.368 148.485 23.4065ZM163.625 20.7403 170.214 22.7018 168.252 29.2911 161.663 27.3295ZM176.856 24.9267 181.338 26.4479 183.437 27.2266 181.045 33.6722 178.992 32.9103 179.083 32.9426 174.646 31.437ZM189.882 29.6184 191.372 30.1713 196.368 32.2091 193.772 38.5749 188.827 36.5579 188.929 36.5978 187.49 36.0639ZM202.788 34.8765 209.094 37.6162 206.354 43.9217 200.049 41.1821ZM215.425 40.5995 218.851 42.238 221.687 43.7215 218.501 49.8134 215.719 48.3585 215.829 48.4136 212.459 46.8017ZM227.872 46.9927 233.847 50.3932 230.446 56.3683 224.471 52.9678ZM239.822 54.0856 242.084 55.5069 245.667 57.9977 241.742 63.6426 238.225 61.1974 238.359 61.2856 236.164 59.9069ZM251.361 62.1777 254.939 64.9733 256.838 66.6293 252.32 71.8108 250.491 70.2157 250.634 70.3338 247.128 67.5953ZM262.102 71.4685 265.368 74.822 266.943 76.7119 261.661 81.1132 260.172 79.3256 260.35 79.5235 257.177 76.2655ZM271.33 82.3532 273.246 85.0706 275.116 88.5866 269.045 91.8139 267.277 88.4887 267.503 88.8559 265.712 86.3151ZM278.004 95.2238 278.223 95.7714 279.532 101.283 279.658 102.951 272.802 103.466 272.697 102.07 272.781 102.607 271.593 97.6068 271.746 98.0891 271.621 97.7771ZM280.172 109.807 280.303 111.555 280.219 111.018 281.403 116.001 274.714 117.59 273.468 112.342 273.316 110.321ZM283.789 121.499 285.723 125.136 285.497 124.769 287.085 127.021 281.466 130.983 279.754 128.554 277.719 124.726ZM291.112 132.24 292.828 134.299 292.65 134.102 295.577 137.106 290.652 141.903 287.632 138.803 285.831 136.642ZM300.414 141.582 302.509 143.409 302.366 143.291 305.593 145.812 301.36 151.23 298.061 148.652 295.895 146.763ZM310.968 149.781 314.775 152.428 314.641 152.339 316.536 153.53 312.879 159.351 310.916 158.118 307.043 155.425ZM322.246 157.082 328.222 160.482 324.821 166.457 318.846 163.057ZM334.186 163.648 337.281 165.267 337.171 165.211 340.222 166.671 337.256 172.873 334.149 171.387 331 169.74ZM346.322 169.562 352.627 172.302 349.887 178.608 343.582 175.868ZM358.898 174.904 364.228 177.064 364.14 177.03 365.192 177.423 362.787 183.863 361.69 183.454 356.316 181.276ZM371.633 179.828 374.015 180.717 373.917 180.682 378.02 182.075 375.81 188.585 371.659 187.176 369.228 186.268ZM384.409 184.233 390.999 186.195 389.037 192.784 382.448 190.823ZM397.588 188.156 404.177 190.118 402.216 196.707 395.626 194.746ZM410.684 191.822 417.351 193.498 415.675 200.166 409.008 198.49ZM424.019 195.174 428.463 196.291 428.304 196.255 430.551 196.708 429.193 203.448 426.866 202.979 422.343 201.842ZM437.291 198.067 444.03 199.425 442.672 206.165 435.932 204.806ZM450.77 200.784 452.179 201.068 452.034 201.042 457.405 201.887 456.337 208.678 450.893 207.822 449.411 207.523ZM464.197 202.956 470.988 204.024 469.92 210.816 463.128 209.747ZM477.648 205.029 484.477 205.821 483.685 212.65 476.855 211.858ZM491.306 206.614 498.135 207.406 497.343 214.235 490.514 213.443ZM504.794 208.012 511.656 208.435 511.234 215.297 504.372 214.875ZM518.518 208.857 525.38 209.279 524.958 216.141 518.096 215.719ZM525.877 199.145 553 213.625 525.142 226.635Z" fill="#0070C0" transform="matrix(1.83697e-16 1 1 -1.83697e-16 1877.5 1039.5)"/></g></svg>