<svg width="1312" height="470" xmlns="http://www.w3.org/2000/svg" xmlns:xlink="http://www.w3.org/1999/xlink" overflow="hidden"><defs><clipPath id="clip0"><rect x="-15" y="145" width="1312" height="470"/></clipPath><clipPath id="clip1"><rect x="1142" y="402" width="103" height="103"/></clipPath><clipPath id="clip2"><rect x="1142" y="402" width="103" height="103"/></clipPath><clipPath id="clip3"><rect x="1142" y="402" width="103" height="103"/></clipPath><clipPath id="clip4"><rect x="1145" y="309" width="96" height="96"/></clipPath><clipPath id="clip5"><rect x="1145" y="309" width="96" height="96"/></clipPath><clipPath id="clip6"><rect x="1145" y="309" width="96" height="96"/></clipPath></defs><g clip-path="url(#clip0)" transform="translate(15 -145)"><path d="M239.5 164.554C239.5 158.449 244.449 153.5 250.554 153.5L1054.45 153.5C1060.55 153.5 1065.5 158.449 1065.5 164.554L1065.5 602.446C1065.5 608.551 1060.55 613.5 1054.45 613.5L250.554 613.5C244.449 613.5 239.5 608.551 239.5 602.446Z" stroke="#92CEF3" stroke-width="1.33333" stroke-miterlimit="8" fill="#C5DFF9" fill-rule="evenodd"/><text font-family="Times New Roman,Times New Roman_MSFontService,sans-serif" font-weight="400" font-size="43" transform="translate(537.68 199)">GeoCompute</text><path d="M219.792 405 203.396 405 203.396 401 207.396 405 195 405 195 397 211.396 397 211.396 401 207.396 397 219.792 397ZM215.792 389 239.792 401 215.792 413ZM199 413 175 401 199 389Z" fill="#4472C4"/><path d="M42.5001 323.667C42.5001 312.529 63.3188 303.5 89.0001 303.5 114.681 303.5 135.5 312.529 135.5 323.667L135.5 404.333C135.5 415.471 114.681 424.5 89.0001 424.5 63.3188 424.5 42.5001 415.471 42.5001 404.333Z" fill="#92CEF3" fill-rule="evenodd"/><path d="M135.5 323.667C135.5 334.804 114.681 343.833 89.0001 343.833 63.3188 343.833 42.5001 334.804 42.5001 323.667" stroke="#FFFFFF" stroke-width="1.33333" stroke-miterlimit="8" fill="none" fill-rule="evenodd"/><path d="M42.5001 323.667C42.5001 312.529 63.3188 303.5 89.0001 303.5 114.681 303.5 135.5 312.529 135.5 323.667L135.5 404.333C135.5 415.471 114.681 424.5 89.0001 424.5 63.3188 424.5 42.5001 415.471 42.5001 404.333Z" stroke="#FFFFFF" stroke-width="1.33333" stroke-miterlimit="8" fill="none" fill-rule="evenodd"/><text font-family="SimSun,SimSun_MSFontService,sans-serif" font-weight="400" font-size="37" transform="translate(32.8882 272)">数据源</text><path d="M-7.50005 379.833C-7.50005 368.604 13.3187 359.5 39 359.5 64.6813 359.5 85.5 368.604 85.5 379.833L85.5 461.167C85.5 472.397 64.6813 481.5 39 481.5 13.3187 481.5-7.50005 472.397-7.50005 461.167Z" fill="#92CEF3" fill-rule="evenodd"/><path d="M85.5 379.833C85.5 391.063 64.6813 400.167 39 400.167 13.3187 400.167-7.50005 391.063-7.50005 379.833" stroke="#FFFFFF" stroke-width="1.33333" stroke-miterlimit="8" fill="none" fill-rule="evenodd"/><path d="M-7.50005 379.833C-7.50005 368.604 13.3187 359.5 39 359.5 64.6813 359.5 85.5 368.604 85.5 379.833L85.5 461.167C85.5 472.397 64.6813 481.5 39 481.5 13.3187 481.5-7.50005 472.397-7.50005 461.167Z" stroke="#FFFFFF" stroke-width="1.33333" stroke-miterlimit="8" fill="none" fill-rule="evenodd"/><path d="M73.5001 408.667C73.5001 397.529 94.3188 388.5 120 388.5 145.681 388.5 166.5 397.529 166.5 408.667L166.5 489.333C166.5 500.471 145.681 509.5 120 509.5 94.3188 509.5 73.5001 500.471 73.5001 489.333Z" fill="#92CEF3" fill-rule="evenodd"/><path d="M166.5 408.667C166.5 419.804 145.681 428.833 120 428.833 94.3188 428.833 73.5001 419.804 73.5001 408.667" stroke="#FFFFFF" stroke-width="1.33333" stroke-miterlimit="8" fill="none" fill-rule="evenodd"/><path d="M73.5001 408.667C73.5001 397.529 94.3188 388.5 120 388.5 145.681 388.5 166.5 397.529 166.5 408.667L166.5 489.333C166.5 500.471 145.681 509.5 120 509.5 94.3188 509.5 73.5001 500.471 73.5001 489.333Z" stroke="#FFFFFF" stroke-width="1.33333" stroke-miterlimit="8" fill="none" fill-rule="evenodd"/><path d="M20-4 34.2362-4 34.2362 0.000104987 30.2362-3.99989 60.4724-3.99989 60.4724 4.0001 26.2362 4.0001 26.2362 0 30.2362 4 20 4ZM24 12 0 0 24-12Z" fill="#4472C4" transform="matrix(-1 1.22465e-16 1.22465e-16 1 1126.47 401)"/><text font-family="SimSun,SimSun_MSFontService,sans-serif" font-weight="400" font-size="37" transform="translate(1156.07 284)">应用</text><rect x="273" y="223" width="757" height="69" stroke="#0070C0" stroke-width="2" stroke-miterlimit="8" stroke-dasharray="2 2" fill="none"/><rect x="273" y="299" width="757" height="69" stroke="#0070C0" stroke-width="2" stroke-miterlimit="8" stroke-dasharray="2 2" fill="none"/><rect x="273" y="374" width="757" height="69" stroke="#0070C0" stroke-width="2" stroke-miterlimit="8" stroke-dasharray="2 2" fill="none"/><rect x="273" y="450" width="757" height="69" stroke="#0070C0" stroke-width="2" stroke-miterlimit="8" stroke-dasharray="2 2" fill="none"/><rect x="273" y="526" width="757" height="69" stroke="#0070C0" stroke-width="2" stroke-miterlimit="8" stroke-dasharray="2 2" fill="none"/><text font-family="SimSun,SimSun_MSFontService,sans-serif" font-weight="400" font-size="32" transform="translate(286.506 270)">支持语言</text><text font-family="SimSun,SimSun_MSFontService,sans-serif" font-weight="400" font-size="32" transform="translate(287.525 344)">接口</text><text font-family="SimSun,SimSun_MSFontService,sans-serif" font-weight="400" font-size="32" transform="translate(287.525 421)">算法</text><text font-family="SimSun,SimSun_MSFontService,sans-serif" font-weight="400" font-size="32" transform="translate(286.848 496)">引擎</text><text font-family="SimSun,SimSun_MSFontService,sans-serif" font-weight="400" font-size="32" transform="translate(286.959 571)">存储</text><path d="M437 233.25C437 232.559 437.559 232 438.25 232L687.75 232C688.441 232 689 232.559 689 233.25L689 282.75C689 283.441 688.441 284 687.75 284L438.25 284C437.559 284 437 283.441 437 282.75Z" fill="#0093FF" fill-rule="evenodd"/><text fill="#FFFFFF" font-family="Times New Roman,Times New Roman_MSFontService,sans-serif" font-weight="400" font-size="27" transform="translate(539.078 268)">C++</text><path d="M731 233.25C731 232.559 731.559 232 732.25 232L980.75 232C981.441 232 982 232.559 982 233.25L982 282.75C982 283.441 981.441 284 980.75 284L732.25 284C731.559 284 731 283.441 731 282.75Z" fill="#0093FF" fill-rule="evenodd"/><text fill="#FFFFFF" font-family="Times New Roman,Times New Roman_MSFontService,sans-serif" font-weight="400" font-size="27" transform="translate(818.427 268)">Python</text><path d="M376 307.274C376 306.57 376.57 306 377.274 306L580.726 306C581.43 306 582 306.57 582 307.274L582 357.726C582 358.43 581.43 359 580.726 359L377.274 359C376.57 359 376 358.43 376 357.726Z" fill="#0093FF" fill-rule="evenodd"/><text fill="#FFFFFF" font-family="SimSun,SimSun_MSFontService,sans-serif" font-weight="400" font-size="27" transform="translate(425.701 343)">独立程序</text><path d="M590 307.274C590 306.57 590.57 306 591.274 306L795.726 306C796.43 306 797 306.57 797 307.274L797 357.726C797 358.43 796.43 359 795.726 359L591.274 359C590.57 359 590 358.43 590 357.726Z" fill="#0093FF" fill-rule="evenodd"/><text fill="#FFFFFF" font-family="SimSun,SimSun_MSFontService,sans-serif" font-weight="400" font-size="27" transform="translate(653.851 343)">库函数</text><path d="M806 307.274C806 306.57 806.57 306 807.274 306L1011.73 306C1012.43 306 1013 306.57 1013 307.274L1013 357.726C1013 358.43 1012.43 359 1011.73 359L807.274 359C806.57 359 806 358.43 806 357.726Z" fill="#0093FF" fill-rule="evenodd"/><text fill="#FFFFFF" font-family="Times New Roman,Times New Roman_MSFontService,sans-serif" font-weight="400" font-size="27" transform="translate(879.062 343)">SO</text><text fill="#FFFFFF" font-family="SimSun,SimSun_MSFontService,sans-serif" font-weight="400" font-size="27" transform="translate(913.229 343)">包</text><path d="M367 384.274C367 383.57 367.57 383 368.274 383L484.726 383C485.43 383 486 383.57 486 384.274L486 434.726C486 435.43 485.43 436 484.726 436L368.274 436C367.57 436 367 435.43 367 434.726Z" fill="#0093FF" fill-rule="evenodd"/><text fill="#FFFFFF" font-family="SimSun,SimSun_MSFontService,sans-serif" font-weight="400" font-size="24" transform="translate(378.578 418)">社区发现</text><path d="M881 384.274C881 383.57 881.57 383 882.274 383L1021.73 383C1022.43 383 1023 383.57 1023 384.274L1023 434.726C1023 435.43 1022.43 436 1021.73 436L882.274 436C881.57 436 881 435.43 881 434.726Z" fill="#0093FF" fill-rule="evenodd"/><text fill="#FFFFFF" font-family="SimSun,SimSun_MSFontService,sans-serif" font-weight="400" font-size="24" transform="translate(891.649 418)">相关性分析</text><path d="M494 384.274C494 383.57 494.57 383 495.274 383L591.726 383C592.43 383 593 383.57 593 384.274L593 434.726C593 435.43 592.43 436 591.726 436L495.274 436C494.57 436 494 435.43 494 434.726Z" fill="#0093FF" fill-rule="evenodd"/><text fill="#FFFFFF" font-family="SimSun,SimSun_MSFontService,sans-serif" font-weight="400" font-size="24" transform="translate(507.505 418)">图结构</text><path d="M728 384.274C728 383.57 728.57 383 729.274 383L868.726 383C869.43 383 870 383.57 870 384.274L870 434.726C870 435.43 869.43 436 868.726 436L729.274 436C728.57 436 728 435.43 728 434.726Z" fill="#0093FF" fill-rule="evenodd"/><text fill="#FFFFFF" font-family="SimSun,SimSun_MSFontService,sans-serif" font-weight="400" font-size="24" transform="translate(739.395 418)">重要性分析</text><path d="M601 384.274C601 383.57 601.57 383 602.274 383L717.726 383C718.43 383 719 383.57 719 384.274L719 434.726C719 435.43 718.43 436 717.726 436L602.274 436C601.57 436 601 435.43 601 434.726Z" fill="#0093FF" fill-rule="evenodd"/><text fill="#FFFFFF" font-family="SimSun,SimSun_MSFontService,sans-serif" font-weight="400" font-size="24" transform="translate(612.105 418)">路径查询</text><path d="M377 460.25C377 459.559 377.559 459 378.25 459L532.75 459C533.441 459 534 459.559 534 460.25L534 509.75C534 510.441 533.441 511 532.75 511L378.25 511C377.559 511 377 510.441 377 509.75Z" fill="#0093FF" fill-rule="evenodd"/><text fill="#FFFFFF" font-family="SimSun,SimSun_MSFontService,sans-serif" font-weight="400" font-size="27" transform="translate(402.303 495)">块式划分</text><path d="M544 460.25C544 459.559 544.559 459 545.25 459L795.75 459C796.441 459 797 459.559 797 460.25L797 509.75C797 510.441 796.441 511 795.75 511L545.25 511C544.559 511 544 510.441 544 509.75Z" fill="#0093FF" fill-rule="evenodd"/><text fill="#FFFFFF" font-family="SimSun,SimSun_MSFontService,sans-serif" font-weight="400" font-size="27" transform="translate(577.219 495)">双模式计算引擎</text><path d="M807 460.274C807 459.57 807.57 459 808.274 459L1012.73 459C1013.43 459 1014 459.57 1014 460.274L1014 510.726C1014 511.43 1013.43 512 1012.73 512L808.274 512C807.57 512 807 511.43 807 510.726Z" fill="#0093FF" fill-rule="evenodd"/><text fill="#FFFFFF" font-family="SimSun,SimSun_MSFontService,sans-serif" font-weight="400" font-size="27" transform="translate(857.351 495)">任务调度</text><path d="M429 537.25C429 536.559 429.559 536 430.25 536L678.75 536C679.441 536 680 536.559 680 537.25L680 586.75C680 587.441 679.441 588 678.75 588L430.25 588C429.559 588 429 587.441 429 586.75Z" fill="#0093FF" fill-rule="evenodd"/><text fill="#FFFFFF" font-family="SimSun,SimSun_MSFontService,sans-serif" font-weight="400" font-size="27" transform="translate(500.99 572)">快照缓存</text><path d="M722 537.25C722 536.559 722.559 536 723.25 536L971.75 536C972.441 536 973 536.559 973 537.25L973 586.75C973 587.441 972.441 588 971.75 588L723.25 588C722.559 588 722 587.441 722 586.75Z" fill="#0093FF" fill-rule="evenodd"/><text fill="#FFFFFF" font-family="Times New Roman,Times New Roman_MSFontService,sans-serif" font-weight="400" font-size="27" transform="translate(793.339 572)">CSR/CSC</text><g clip-path="url(#clip1)"><g clip-path="url(#clip2)"><g clip-path="url(#clip3)"><path d="M1202.08 464.229 1150.58 464.229 1150.58 429.896 1202.08 429.896 1202.08 464.229ZM1204.23 423.458 1148.44 423.458C1146.08 423.458 1144.15 425.39 1144.15 427.75L1144.15 466.375C1144.15 468.735 1146.08 470.667 1148.44 470.667L1169.9 470.667 1169.9 477.104 1160.24 477.104 1160.24 483.542 1192.43 483.542 1192.43 477.104 1182.77 477.104 1182.77 470.667 1204.23 470.667C1206.59 470.667 1208.52 468.735 1208.52 466.375L1208.52 427.75C1208.52 425.39 1206.59 423.458 1204.23 423.458Z" fill="#2F5597"/><path d="M1238.56 434.188 1217.1 434.188 1217.1 427.75 1238.56 427.75 1238.56 434.188ZM1238.56 444.917 1217.1 444.917 1217.1 438.479 1238.56 438.479 1238.56 444.917ZM1227.83 477.104C1226.01 477.104 1224.61 475.709 1224.61 473.885 1224.61 472.061 1226.01 470.667 1227.83 470.667 1229.66 470.667 1231.05 472.061 1231.05 473.885 1231.05 475.709 1229.66 477.104 1227.83 477.104ZM1238.56 423.458 1217.1 423.458C1214.74 423.458 1212.81 425.39 1212.81 427.75L1212.81 479.25C1212.81 481.61 1214.74 483.542 1217.1 483.542L1238.56 483.542C1240.92 483.542 1242.85 481.61 1242.85 479.25L1242.85 427.75C1242.85 425.39 1240.92 423.458 1238.56 423.458Z" fill="#2F5597"/></g></g></g><g clip-path="url(#clip4)"><g clip-path="url(#clip5)"><g clip-path="url(#clip6)"><path d="M1211 389 1175 389 1175 325 1211 325 1211 389ZM1189 317 1197 317C1198.1 317 1199 317.9 1199 319 1199 320.1 1198.1 321 1197 321L1189 321C1187.9 321 1187 320.1 1187 319 1187 317.9 1187.9 317 1189 317ZM1215 313 1171 313C1169.9 313 1169 313.9 1169 315L1169 399C1169 400.1 1169.9 401 1171 401L1215 401C1216.1 401 1217 400.1 1217 399L1217 315C1217 313.9 1216.1 313 1215 313Z" fill="#0070C0"/></g></g></g></g></svg>