<svg width="665" height="394" xmlns="http://www.w3.org/2000/svg" xmlns:xlink="http://www.w3.org/1999/xlink" overflow="hidden"><defs><clipPath id="clip0"><rect x="166" y="116" width="665" height="394"/></clipPath></defs><g clip-path="url(#clip0)" transform="translate(-166 -116)"><path d="M196 194.5C196 165.505 234.28 142 281.5 142 328.72 142 367 165.505 367 194.5 367 223.495 328.72 247 281.5 247 234.28 247 196 223.495 196 194.5Z" stroke="#000000" stroke-width="2" stroke-miterlimit="8" fill="#E2F0D9" fill-rule="evenodd"/><text font-family="SimSun,SimSun_MSFontService,sans-serif" font-weight="400" font-size="21" transform="translate(230.845 190)">姓名</text><text font-family="Times New Roman,Times New Roman_MSFontService,sans-serif" font-weight="400" font-size="21" transform="translate(282.998 190)">A</text><text font-family="Times New Roman,Times New Roman_MSFontService,sans-serif" font-weight="400" font-size="21" transform="translate(230.845 215)">ISBN 0123</text><rect x="228" y="138" width="107" height="26" stroke="#000000" stroke-width="2" stroke-miterlimit="8" fill="#FFFFFF"/><text font-family="SimSun,SimSun_MSFontService,sans-serif" font-weight="400" font-size="21" transform="translate(238.881 159)">读者记录</text><path d="M364 339C364 311.938 406.309 290 458.5 290 510.691 290 553 311.938 553 339 553 366.062 510.691 388 458.5 388 406.309 388 364 366.062 364 339Z" stroke="#000000" stroke-width="2" stroke-miterlimit="8" fill="#E2F0D9" fill-rule="evenodd"/><text font-family="SimSun,SimSun_MSFontService,sans-serif" font-weight="400" font-size="21" transform="translate(401.217 321)">书名</text><text font-family="Times New Roman,Times New Roman_MSFontService,sans-serif" font-weight="400" font-size="21" transform="translate(454.551 321)">OS</text><text font-family="Times New Roman,Times New Roman_MSFontService,sans-serif" font-weight="400" font-size="21" transform="translate(401.217 346)">ISBN 0123</text><text font-family="SimSun,SimSun_MSFontService,sans-serif" font-weight="400" font-size="21" transform="translate(401.217 372)">出版社号</text><text font-family="Times New Roman,Times New Roman_MSFontService,sans-serif" font-weight="400" font-size="21" transform="translate(491.884 372)">03</text><rect x="427" y="276" width="63" height="25" stroke="#000000" stroke-width="2" stroke-miterlimit="8" fill="#FFFFFF"/><text font-family="SimSun,SimSun_MSFontService,sans-serif" font-weight="400" font-size="21" transform="translate(437.123 297)">书籍</text><path d="M640 354.5C640 325.505 682.309 302 734.5 302 786.691 302 829 325.505 829 354.5 829 383.495 786.691 407 734.5 407 682.309 407 640 383.495 640 354.5Z" stroke="#000000" stroke-width="2" stroke-miterlimit="8" fill="#E2F0D9" fill-rule="evenodd"/><text font-family="SimSun,SimSun_MSFontService,sans-serif" font-weight="400" font-size="21" transform="translate(677.237 337)">出版社号</text><text font-family="Times New Roman,Times New Roman_MSFontService,sans-serif" font-weight="400" font-size="21" transform="translate(767.904 337)">03</text><text font-family="SimSun,SimSun_MSFontService,sans-serif" font-weight="400" font-size="21" transform="translate(677.237 362)">社名</text><text font-family="Times New Roman,Times New Roman_MSFontService,sans-serif" font-weight="400" font-size="21" transform="translate(725.237 362)">ECNU</text><text font-family="SimSun,SimSun_MSFontService,sans-serif" font-weight="400" font-size="21" transform="translate(677.237 388)">城市</text><text font-family="Times New Roman,Times New Roman_MSFontService,sans-serif" font-weight="400" font-size="21" transform="translate(725.237 388)">SH</text><rect x="691" y="290" width="87" height="24" stroke="#000000" stroke-width="2" stroke-miterlimit="8" fill="#FFFFFF"/><text font-family="SimSun,SimSun_MSFontService,sans-serif" font-weight="400" font-size="21" transform="translate(702.476 310)">出版社</text><path d="M167 456C167 426.729 205.28 403 252.5 403 299.72 403 338 426.729 338 456 338 485.271 299.72 509 252.5 509 205.28 509 167 485.271 167 456Z" stroke="#000000" stroke-width="2" stroke-miterlimit="8" fill="#E2F0D9" fill-rule="evenodd"/><text font-family="SimSun,SimSun_MSFontService,sans-serif" font-weight="400" font-size="21" transform="translate(201.844 451)">姓名</text><text font-family="Times New Roman,Times New Roman_MSFontService,sans-serif" font-weight="400" font-size="21" transform="translate(255.177 451)">C</text><text font-family="Times New Roman,Times New Roman_MSFontService,sans-serif" font-weight="400" font-size="21" transform="translate(201.844 476)">ISBN 0123</text><rect x="199" y="399" width="107" height="27" stroke="#000000" stroke-width="2" stroke-miterlimit="8" fill="#FFFFFF"/><text font-family="SimSun,SimSun_MSFontService,sans-serif" font-weight="400" font-size="21" transform="translate(209.88 421)">读者记录</text><path d="M494 188C494 160.938 536.309 139 588.5 139 640.691 139 683 160.938 683 188 683 215.062 640.691 237 588.5 237 536.309 237 494 215.062 494 188Z" stroke="#000000" stroke-width="2" stroke-miterlimit="8" fill="#E2F0D9" fill-rule="evenodd"/><text font-family="SimSun,SimSun_MSFontService,sans-serif" font-weight="400" font-size="21" transform="translate(530.956 171)">书名</text><text font-family="Times New Roman,Times New Roman_MSFontService,sans-serif" font-weight="400" font-size="21" transform="translate(584.289 171)">DBMS</text><text font-family="Times New Roman,Times New Roman_MSFontService,sans-serif" font-weight="400" font-size="21" transform="translate(530.956 196)">ISBN 0113</text><text font-family="SimSun,SimSun_MSFontService,sans-serif" font-weight="400" font-size="21" transform="translate(530.956 222)">出版社号</text><text font-family="Times New Roman,Times New Roman_MSFontService,sans-serif" font-weight="400" font-size="21" transform="translate(621.622 222)">03</text><rect x="557" y="125" width="62" height="25" stroke="#000000" stroke-width="2" stroke-miterlimit="8" fill="#FFFFFF"/><text font-family="SimSun,SimSun_MSFontService,sans-serif" font-weight="400" font-size="21" transform="translate(566.861 146)">书籍</text><path d="M639.614 356.757 562.482 342.754 563.196 338.818 640.329 352.822ZM563.735 347.047 553 339 565.879 335.24Z"/><path d="M666.02 318.881 593.602 245.522 596.449 242.711 668.867 316.071ZM592.16 249.755 588 237 600.7 241.325Z"/><path d="M343.648 230.867 387.748 295.007 384.452 297.273 340.352 233.133ZM389.911 291.092 391.766 304.38 380.023 297.891Z"/><path d="M0.995823-1.73446 71.0906 38.5098 69.0989 41.9788-0.995823 1.73446ZM71.3478 34.0451 78.767 45.2234 65.3728 44.4518Z" transform="matrix(1 0 0 -1 313 418.223)"/><text font-family="SimSun,SimSun_MSFontService,sans-serif" font-weight="400" font-size="27" transform="matrix(0.567012 0.82371 -0.82371 0.567012 358.324 238)">借阅</text><text font-family="SimSun,SimSun_MSFontService,sans-serif" font-weight="400" font-size="27" transform="matrix(0.868312 -0.496019 0.496019 0.868312 339.561 436)">归还</text><text font-family="SimSun,SimSun_MSFontService,sans-serif" font-weight="400" font-size="27" transform="matrix(0.700349 0.7138 -0.7138 0.700349 622.056 257)">出版</text><text font-family="SimSun,SimSun_MSFontService,sans-serif" font-weight="400" font-size="27" transform="matrix(0.984377 0.176073 -0.176073 0.984377 568.394 371)">出版</text></g></svg>