<svg width="3931" height="1010" xmlns="http://www.w3.org/2000/svg" xmlns:xlink="http://www.w3.org/1999/xlink" overflow="hidden"><defs><clipPath id="clip0"><rect x="168" y="184" width="3931" height="1010"/></clipPath><clipPath id="clip1"><rect x="3053" y="895" width="300" height="299"/></clipPath><clipPath id="clip2"><rect x="3053" y="895" width="300" height="299"/></clipPath><clipPath id="clip3"><rect x="3053" y="895" width="300" height="299"/></clipPath></defs><g clip-path="url(#clip0)" transform="translate(-168 -184)"><text font-family="SimSun,SimSun_MSFontService,sans-serif" font-weight="700" font-size="83" transform="matrix(1 0 0 1 217.958 294)">属性记录<tspan font-weight="400" font-size="83" x="3335.02" y="473">下一属性</tspan><tspan font-family="Times New Roman,Times New Roman_MSFontService,sans-serif" font-weight="400" font-size="83" x="3665.02" y="473">ID</tspan></text><path d="M3839 597C3839 607.493 3838.29 616 3837.42 616L3680.58 616C3679.71 616 3679 607.493 3679 597" stroke="#4472C4" stroke-width="10.3125" stroke-miterlimit="8" fill="none" fill-rule="evenodd"/><path d="M1.14583-6.985e-06 1.14605 36.2848-1.14561 36.2848-1.14583 6.985e-06ZM13.7502 31.7014 0.000360892 59.2015-13.7498 31.7016Z" fill="#4472C4" transform="matrix(-1 0 0 1 3759 616)"/><rect x="3674" y="391" width="162" height="173" fill="#F4B183"/><rect x="229" y="391" width="3445" height="173" fill="#FFF2CC"/><rect x="226.5" y="388.5" width="3613" height="179" stroke="#000000" stroke-width="6.875" stroke-miterlimit="8" fill="none"/><path d="M1967.5 391.5 1967.5 570.917" stroke="#000000" stroke-width="6.875" stroke-miterlimit="8" fill="none" fill-rule="evenodd"/><path d="M2842.5 385.5 2842.5 564.917" stroke="#000000" stroke-width="6.875" stroke-miterlimit="8" fill="none" fill-rule="evenodd"/><path d="M1062.5 391.5 1062.5 570.917" stroke="#000000" stroke-width="6.875" stroke-miterlimit="8" fill="none" fill-rule="evenodd"/><path d="M3678.5 387.5 3678.5 566.917" stroke="#000000" stroke-width="6.875" stroke-miterlimit="8" fill="none" fill-rule="evenodd"/><text font-family="SimSun,SimSun_MSFontService,sans-serif" font-weight="400" font-size="83" transform="matrix(1 0 0 1 495.249 511)">属性块<tspan font-family="Times New Roman,Times New Roman_MSFontService,sans-serif" font-size="83" x="247.5" y="0">1</tspan><tspan font-size="83" x="861.04" y="0">属性块</tspan><tspan font-family="Times New Roman,Times New Roman_MSFontService,sans-serif" font-size="83" x="1108.54" y="0">2</tspan><tspan font-size="83" x="1757.54" y="0">属性块</tspan><tspan font-family="Times New Roman,Times New Roman_MSFontService,sans-serif" font-size="83" x="2005.04" y="0">3</tspan><tspan font-size="83" x="2626.83" y="0">属性块</tspan><tspan font-family="Times New Roman,Times New Roman_MSFontService,sans-serif" font-size="83" x="2874.33" y="0">4</tspan></text><rect x="643" y="797" width="1803" height="152" fill="#FFF2CC"/><rect x="640.5" y="795.5" width="1806" height="157" stroke="#000000" stroke-width="6.875" stroke-miterlimit="8" fill="none"/><path d="M1333.5 797.5 1333.5 955.245" stroke="#000000" stroke-width="6.875" stroke-miterlimit="8" fill="none" fill-rule="evenodd"/><text font-family="SimSun,SimSun_MSFontService,sans-serif" font-weight="400" font-size="83" transform="matrix(1 0 0 1 816.322 914)">属性类型<tspan font-size="83" x="830.913" y="1">存储</tspan>记录指针</text><path d="M0 0 422.416 227.197" stroke="#7F7F7F" stroke-width="10.3125" stroke-miterlimit="8" stroke-dasharray="10.3125 10.3125" fill="none" fill-rule="evenodd" transform="matrix(-1 0 0 1 1062.42 564)"/><path d="M1967 564 2446.45 791.664" stroke="#7F7F7F" stroke-width="10.3125" stroke-miterlimit="8" stroke-dasharray="10.3125 10.3125" fill="none" fill-rule="evenodd"/><path d="M1.51244-4.92944 8.13108-2.89873 12.3467 0.981542 5.36267 8.56911 2.00799 5.48128 3.98756 6.61694-1.51244 4.92944ZM19.3758 10.0884 20.9341 12.4528 24.4762 19.822 15.1817 24.2895 11.7902 17.2338 12.1322 17.8376 10.7653 15.7635ZM28.6623 29.7421 32.133 39.0243 32.3412 39.7003 22.4855 42.7356 22.3222 42.2051 22.4203 42.4934 19.003 33.3539ZM35.3765 49.556 37.5206 56.5182 38.3483 59.6438 28.3794 62.2836 27.578 59.2574 27.6346 59.4551 25.5208 52.5913ZM40.988 69.6127 42.8823 76.7665 43.5695 79.7801 33.5151 82.0727 32.8478 79.1463 32.8905 79.3199 31.0191 72.2525ZM45.8621 89.8345 48.1051 99.671 48.176 100.026 38.0638 102.048 38.0064 101.761 38.0353 101.896 35.8077 92.1272ZM50.1985 110.138 52.2209 120.25 42.1087 122.273 40.0862 112.16ZM54.1696 130.465 56.0204 140.611 45.8753 142.461 44.0245 132.316ZM57.8712 150.756 58.2694 152.939 59.5764 161.032 49.3958 162.676 48.0972 154.635 48.115 154.738 47.7261 152.606ZM61.2205 171.213 62.8646 181.393 52.684 183.037 51.0399 172.857ZM64.3987 191.666 65.8957 201.869 55.6925 203.366 54.1954 193.163ZM67.3927 212.073 67.9181 215.654 68.8266 222.34 58.608 223.729 57.7032 217.069 57.7109 217.123 57.1895 213.57ZM70.215 232.559 71.6034 242.777 61.3848 244.166 59.9964 233.947ZM72.9642 253.066 74.2218 263.302 63.9863 264.559 62.7287 254.324ZM75.4795 273.537 76.7371 283.773 66.5015 285.03 65.2439 274.795ZM77.9352 294.063 79.0996 304.309 68.853 305.473 67.6886 295.227ZM80.2639 314.556 81.4283 324.802 71.1818 325.967 70.0174 315.72ZM82.5051 335.108 83.5706 345.366 73.3133 346.431 72.2478 336.174ZM84.6361 355.623 85.6931 365.798 85.7046 365.917 75.4398 366.909 75.4301 366.808 75.4338 366.845 74.3788 356.688ZM86.696 376.182 87.6874 386.447 77.4226 387.438 76.4312 377.173ZM88.6788 396.712 89.6702 406.976 79.4054 407.968 78.414 397.703ZM90.5794 417.296 91.4759 427.57 81.2025 428.466 80.3059 418.193ZM92.3725 437.843 93.269 448.117 82.9956 449.013 82.099 438.74ZM94.1306 458.422 94.9705 468.7 84.6923 469.54 83.8524 459.262ZM95.8104 478.978 96.6503 489.256 86.3721 490.096 85.5322 479.818ZM97.4717 499.577 98.2309 509.861 87.9464 510.62 87.1871 500.336ZM98.9902 520.146 99.7494 530.43 89.4649 531.189 88.7057 520.905ZM100.509 540.715 100.706 543.386 101.225 551.033 90.9362 551.731 90.4181 544.099 90.4202 544.13 90.2242 541.474ZM101.923 561.322 102.622 571.61 92.3331 572.309 91.6347 562.02ZM103.32 581.899 103.958 591.293 104.015 592.223 93.7218 592.853 93.6659 591.94 93.6681 591.974 93.0316 582.598ZM104.645 602.516 105.275 612.809 94.9821 613.439 94.352 603.146ZM105.906 623.102 106.536 633.396 96.2426 634.026 95.6124 623.733ZM107.146 643.723 107.711 654.02 97.4144 654.585 96.8494 644.288ZM108.276 664.317 108.841 674.614 98.5442 675.179 97.9793 664.882ZM109.406 684.911 109.712 690.48 109.95 695.233 99.6507 695.75 99.4127 691.008 99.414 691.032 99.1091 685.476ZM110.467 705.532 110.984 715.832 100.684 716.349 100.168 706.049ZM111.501 726.132 112.018 736.431 101.718 736.948 101.201 726.648ZM112.487 746.782 112.906 757.086 102.602 757.505 102.183 747.201ZM113.324 767.39 113.743 777.694 103.439 778.113 103.02 767.809ZM114.162 787.998 114.58 798.302 104.276 798.721 103.858 788.417ZM114.999 808.606 115.417 818.91 105.113 819.329 104.695 809.025ZM115.836 829.214 116.254 839.518 105.95 839.937 105.532 829.633ZM116.636 849.879 116.942 860.187 106.634 860.494 106.328 850.186ZM117.249 870.495 117.555 880.803 107.248 881.11 106.941 870.802ZM117.862 891.111 118.169 901.419 107.861 901.726 107.554 891.418ZM118.475 911.727 118.782 922.035 108.474 922.342 108.167 912.034ZM119.088 932.343 119.395 942.651 109.087 942.958 108.78 932.649ZM119.701 952.959 119.717 953.503 119.892 963.331 109.581 963.515 109.407 953.717 109.409 953.778 109.393 953.265ZM120.076 973.642 120.259 983.953 109.948 984.136 109.765 973.825ZM120.443 994.264 120.626 1004.57 110.315 1004.76 110.132 994.447ZM120.81 1014.89 120.993 1025.2 110.682 1025.38 110.499 1015.07ZM121.177 1035.51 121.36 1045.82 111.049 1046 110.866 1035.69ZM121.544 1056.13 121.656 1062.44 121.681 1066.5 111.369 1066.56 111.344 1062.53 111.345 1062.59 111.233 1056.31ZM121.746 1076.81 121.811 1087.12 111.498 1087.19 111.434 1076.88ZM121.875 1097.44 121.94 1107.75 111.628 1107.81 111.563 1097.5ZM122.004 1118.06 122.069 1128.37 111.757 1128.44 111.692 1118.13ZM122.134 1138.69 122.198 1149 111.886 1149.06 111.821 1138.75ZM122.263 1159.31 122.28 1162.01 111.967 1162.07 111.951 1159.38ZM139.446 1133.56 117.188 1172.27 94.4457 1133.84C92.9955 1131.39 93.8065 1128.23 96.2573 1126.78 98.708 1125.33 101.87 1126.14 103.321 1128.59L121.561 1159.41 112.653 1159.47 130.506 1128.42C131.926 1125.95 135.078 1125.1 137.546 1126.52 140.015 1127.94 140.866 1131.09 139.446 1133.56Z" fill="#C00000" transform="matrix(1.83697e-16 1 1 -1.83697e-16 1895 935)"/><g clip-path="url(#clip1)"><g clip-path="url(#clip2)"><g clip-path="url(#clip3)"><path d="M71.6353 255.396 71.6353 43.6041 149.5 43.6041 149.5 109.01 227.364 109.01 227.364 255.396 71.6353 255.396ZM168.187 51.3906 207.12 90.3228 168.187 90.3228 168.187 51.3906ZM168.187 24.9166 52.9479 24.9166 52.9479 274.083 246.052 274.083 246.052 93.4374 168.187 24.9166Z" fill="#7F7F7F" transform="matrix(1 0 0 1 3054 895)"/><path d="M90.3228 140.156 208.677 140.156 208.677 152.614 90.3228 152.614Z" fill="#7F7F7F" transform="matrix(1 0 0 1 3054 895)"/><path d="M90.3228 115.239 130.812 115.239 130.812 127.698 90.3228 127.698Z" fill="#7F7F7F" transform="matrix(1 0 0 1 3054 895)"/><path d="M90.3228 165.073 208.677 165.073 208.677 177.531 90.3228 177.531Z" fill="#7F7F7F" transform="matrix(1 0 0 1 3054 895)"/><path d="M90.3228 189.989 208.677 189.989 208.677 202.448 90.3228 202.448Z" fill="#7F7F7F" transform="matrix(1 0 0 1 3054 895)"/><path d="M90.3228 214.906 208.677 214.906 208.677 227.364 90.3228 227.364Z" fill="#7F7F7F" transform="matrix(1 0 0 1 3054 895)"/></g></g></g></g></svg>