<svg width="3542" height="675" xmlns="http://www.w3.org/2000/svg" xmlns:xlink="http://www.w3.org/1999/xlink" overflow="hidden"><defs><clipPath id="clip0"><rect x="119" y="953" width="3542" height="675"/></clipPath></defs><g clip-path="url(#clip0)" transform="translate(-119 -953)"><rect x="131.5" y="1292.5" width="429" height="134" stroke="#000000" stroke-width="3.4375" stroke-linejoin="round" stroke-miterlimit="10" stroke-dasharray="13.75 10.3125" fill="#D9D9D9"/><text font-family="SimSun,SimSun_MSFontService,sans-serif" font-weight="400" font-size="83" transform="matrix(1 0 0 1 169.469 1390)">边<tspan font-family="Times New Roman,Times New Roman_MSFontService,sans-serif" font-size="83" x="82.5" y="0">/</tspan><tspan font-size="83" x="105.417" y="0">顶点</tspan><tspan font-size="83" x="270.417" y="0">号</tspan></text><path d="M560 1352.12 690.625 1352.13 690.625 1365.88 560 1365.87ZM683.75 1338.38 725 1359 683.75 1379.63Z"/><rect x="725.5" y="1092.5" width="654" height="534" stroke="#000000" stroke-width="3.4375" stroke-linejoin="round" stroke-miterlimit="10" stroke-dasharray="13.75 10.3125" fill="#F2F2F2"/><path d="M1161.5 1318.33C1161.5 1310.14 1168.14 1303.5 1176.33 1303.5L1283.67 1303.5C1291.86 1303.5 1298.5 1310.14 1298.5 1318.33L1298.5 1377.67C1298.5 1385.86 1291.86 1392.5 1283.67 1392.5L1176.33 1392.5C1168.14 1392.5 1161.5 1385.86 1161.5 1377.67Z" stroke="#2F528F" stroke-width="4.58333" stroke-miterlimit="8" fill="#BDD7EE" fill-rule="evenodd"/><path d="M855.5 1316.33C855.5 1308.14 862.141 1301.5 870.334 1301.5L977.666 1301.5C985.859 1301.5 992.5 1308.14 992.5 1316.33L992.5 1375.67C992.5 1383.86 985.859 1390.5 977.666 1390.5L870.334 1390.5C862.141 1390.5 855.5 1383.86 855.5 1375.67Z" stroke="#2F528F" stroke-width="4.58333" stroke-miterlimit="8" fill="#BDD7EE" fill-rule="evenodd"/><path d="M759.5 1494.33C759.5 1486.14 766.141 1479.5 774.333 1479.5L840.666 1479.5C848.859 1479.5 855.5 1486.14 855.5 1494.33L855.5 1553.67C855.5 1561.86 848.859 1568.5 840.666 1568.5L774.333 1568.5C766.141 1568.5 759.5 1561.86 759.5 1553.67Z" stroke="#2F528F" stroke-width="4.58333" stroke-miterlimit="8" fill="#C5E0B4" fill-rule="evenodd"/><path d="M869.5 1494.33C869.5 1486.14 876.141 1479.5 884.333 1479.5L950.666 1479.5C958.859 1479.5 965.5 1486.14 965.5 1494.33L965.5 1553.67C965.5 1561.86 958.859 1568.5 950.666 1568.5L884.333 1568.5C876.141 1568.5 869.5 1561.86 869.5 1553.67Z" stroke="#2F528F" stroke-width="4.58333" stroke-miterlimit="8" fill="#C5E0B4" fill-rule="evenodd"/><path d="M979.5 1494.33C979.5 1486.14 986.141 1479.5 994.333 1479.5L1060.67 1479.5C1068.86 1479.5 1075.5 1486.14 1075.5 1494.33L1075.5 1553.67C1075.5 1561.86 1068.86 1568.5 1060.67 1568.5L994.333 1568.5C986.141 1568.5 979.5 1561.86 979.5 1553.67Z" stroke="#2F528F" stroke-width="4.58333" stroke-miterlimit="8" fill="#C5E0B4" fill-rule="evenodd"/><path d="M1127.5 1495.33C1127.5 1487.14 1134.14 1480.5 1142.33 1480.5L1208.67 1480.5C1216.86 1480.5 1223.5 1487.14 1223.5 1495.33L1223.5 1554.67C1223.5 1562.86 1216.86 1569.5 1208.67 1569.5L1142.33 1569.5C1134.14 1569.5 1127.5 1562.86 1127.5 1554.67Z" stroke="#2F528F" stroke-width="4.58333" stroke-miterlimit="8" fill="#C5E0B4" fill-rule="evenodd"/><path d="M1237.5 1495.33C1237.5 1487.14 1244.14 1480.5 1252.33 1480.5L1318.67 1480.5C1326.86 1480.5 1333.5 1487.14 1333.5 1495.33L1333.5 1554.67C1333.5 1562.86 1326.86 1569.5 1318.67 1569.5L1252.33 1569.5C1244.14 1569.5 1237.5 1562.86 1237.5 1554.67Z" stroke="#2F528F" stroke-width="4.58333" stroke-miterlimit="8" fill="#C5E0B4" fill-rule="evenodd"/><path d="M2.08029-4.71798 133.178 53.0867 129.017 62.5226-2.08029 4.71798ZM132.621 41.5705 154.688 68.2061 120.139 69.8783Z" fill="#595959" transform="matrix(-1 0 0 1 1078.69 1233)"/><path d="M1077.04 1228.27 1211.49 1286.26 1207.41 1295.73 1072.96 1237.73ZM1210.84 1274.75 1233.12 1301.21 1198.59 1303.16Z" fill="#595959"/><path d="M1010.5 1158.5C1010.5 1150.22 1017.22 1143.5 1025.5 1143.5L1132.5 1143.5C1140.78 1143.5 1147.5 1150.22 1147.5 1158.5L1147.5 1218.5C1147.5 1226.78 1140.78 1233.5 1132.5 1233.5L1025.5 1233.5C1017.22 1233.5 1010.5 1226.78 1010.5 1218.5Z" stroke="#2F528F" stroke-width="4.58333" stroke-miterlimit="8" fill="#BDD7EE" fill-rule="evenodd"/><path d="M3.11162-4.11154 99.4289 68.7815 93.2057 77.0046-3.11162 4.11154ZM101.541 57.4468 116.875 88.4511 82.8709 82.116Z" fill="#595959" transform="matrix(-1 0 0 1 923.875 1390)"/><path d="M5.14069-0.400314 10.0141 62.1824-0.267259 62.9831-5.14069 0.400314ZM19.8952 56.2411 6.875 88.2862-10.9489 58.643Z" fill="#595959" transform="matrix(-1 0 0 1 923.875 1390)"/><path d="M927.357 1386.09 1010.91 1457.75 1004.2 1465.58 920.643 1393.91ZM1013.71 1446.57 1027.12 1478.45 993.571 1470.05Z" fill="#595959"/><path d="M4.36818-2.7397 45.6697 63.1116 36.9333 68.591-4.36818 2.7397ZM51.6664 53.264 55 87.6922 25.4573 69.7022Z" fill="#595959" transform="matrix(-1 0 0 1 1230 1392)"/><path d="M1234.37 1389.26 1275.69 1455.27 1266.95 1460.74 1225.63 1394.74ZM1281.7 1445.43 1285 1479.86 1255.47 1461.84Z" fill="#595959"/><text font-family="Times New Roman,Times New Roman_MSFontService,sans-serif" font-weight="400" font-size="83" transform="matrix(1 0 0 1 963.309 1063)">B+<tspan font-family="SimSun,SimSun_MSFontService,sans-serif" font-size="83" x="101.406" y="0">树</tspan></text><path d="M1379 1352.12 1500 1352.13 1500 1365.88 1379 1365.87ZM1493.13 1338.38 1534.38 1359 1493.13 1379.63Z"/><rect x="1534.5" y="1292.5" width="359" height="134" stroke="#000000" stroke-width="3.4375" stroke-linejoin="round" stroke-miterlimit="10" stroke-dasharray="13.75 10.3125" fill="#D9D9D9"/><text font-family="SimSun,SimSun_MSFontService,sans-serif" font-weight="400" font-size="83" transform="matrix(1 0 0 1 1578.2 1390)">值<tspan font-family="Times New Roman,Times New Roman_MSFontService,sans-serif" font-size="83" x="82.5" y="0">/</tspan><tspan font-size="83" x="105.417" y="0">标签</tspan></text><path d="M0.00361296-6.875 374.92-6.67797 374.913 7.07203-0.00361296 6.875ZM368.053-20.4316 409.292 0.215092 368.031 20.8184Z" transform="matrix(1 0 0 -1 1894 1359.21)"/><text font-family="SimSun,SimSun_MSFontService,sans-serif" font-weight="400" font-size="83" transform="matrix(1 0 0 1 1933.77 1313)">位图指针</text><rect x="2301.5" y="1238.5" width="720" height="233" stroke="#000000" stroke-width="3.4375" stroke-linejoin="round" stroke-miterlimit="10" stroke-dasharray="13.75 10.3125" fill="#F2F2F2"/><text font-family="Cascadia Code,Cascadia Code_MSFontService,sans-serif" font-weight="400" font-size="83" transform="matrix(1 0 0 1 2371.46 1387)">000010101010</text><path d="M3026.02 1352.12 3185.43 1352.56 3185.4 1366.31 3025.98 1365.87ZM3178.6 1338.79 3219.79 1359.53 3178.48 1380.04Z"/><rect x="3220.5" y="1292.5" width="429" height="134" stroke="#000000" stroke-width="3.4375" stroke-linejoin="round" stroke-miterlimit="10" stroke-dasharray="13.75 10.3125" fill="#D9D9D9"/><text font-family="SimSun,SimSun_MSFontService,sans-serif" font-weight="400" font-size="83" transform="matrix(1 0 0 1 3258.14 1390)">边<tspan font-family="Times New Roman,Times New Roman_MSFontService,sans-serif" font-size="83" x="82.5" y="0">/</tspan><tspan font-size="83" x="105.417" y="0">顶点</tspan><tspan font-size="83" x="270.417" y="0">号</tspan><tspan font-size="83" x="-678.777" y="-181">位图</tspan></text></g></svg>