<svg width="3079" height="1288" xmlns="http://www.w3.org/2000/svg" xmlns:xlink="http://www.w3.org/1999/xlink" overflow="hidden"><defs><clipPath id="clip0"><rect x="750" y="541" width="3079" height="1288"/></clipPath><clipPath id="clip1"><rect x="3291" y="1321" width="282" height="467"/></clipPath><clipPath id="clip2"><rect x="3291" y="1321" width="282" height="467"/></clipPath><clipPath id="clip3"><rect x="3291" y="1321" width="282" height="467"/></clipPath></defs><g clip-path="url(#clip0)" transform="translate(-750 -541)"><path d="M750 578.486C750 557.783 766.783 541 787.485 541L3790.51 541C3811.22 541 3828 557.783 3828 578.486L3828 783.514C3828 804.217 3811.22 821 3790.51 821L787.485 821C766.783 821 750 804.217 750 783.514Z" fill="#92CEF3" fill-rule="evenodd"/><text font-family="SimSun,SimSun_MSFontService,sans-serif" font-weight="400" font-size="110" transform="matrix(1 0 0 1 2124.34 723)">计算层</text><path d="M751 907.043C751 876.644 775.644 852 806.043 852L3773.96 852C3804.36 852 3829 876.644 3829 907.043L3829 1773.96C3829 1804.36 3804.36 1829 3773.96 1829L806.043 1829C775.644 1829 751 1804.36 751 1773.96Z" fill="#D0CECE" fill-rule="evenodd"/><path d="M799 938.013C799 919.228 814.228 904 833.013 904L1464.99 904C1483.77 904 1499 919.228 1499 938.013L1499 1755.99C1499 1774.77 1483.77 1790 1464.99 1790L833.013 1790C814.228 1790 799 1774.77 799 1755.99Z" fill="#FFF2CC" fill-rule="evenodd"/><text font-family="SimSun,SimSun_MSFontService,sans-serif" font-weight="400" font-size="110" transform="matrix(1 0 0 1 930.318 1041)">图存储层</text><g clip-path="url(#clip1)"><g clip-path="url(#clip2)"><g clip-path="url(#clip3)"><path d="M41.125 223.25 240.875 223.25 240.875 240.875 41.125 240.875Z" fill="#FFFFFF" transform="matrix(1 0 0 1.65248 3291 1321)"/><path d="M41.125 41.125 64.625 41.125 64.625 211.5 41.125 211.5Z" fill="#FFFFFF" transform="matrix(1 0 0 1.65248 3291 1321)"/><path d="M188 188 240.875 188 240.875 211.5 188 211.5Z" fill="#FFFFFF" transform="matrix(1 0 0 1.65248 3291 1321)"/><path d="M188 88.125 240.875 88.125 240.875 176.25 188 176.25Z" fill="#FFFFFF" transform="matrix(1 0 0 1.65248 3291 1321)"/><path d="M188 52.875 240.875 52.875 240.875 76.375 188 76.375Z" fill="#FFFFFF" transform="matrix(1 0 0 1.65248 3291 1321)"/><path d="M152.75 105.75C149.519 105.75 146.875 103.106 146.875 99.875 146.875 96.6437 149.519 94 152.75 94 155.981 94 158.625 96.6437 158.625 99.875 158.625 103.106 155.981 105.75 152.75 105.75ZM152.75 199.75C149.519 199.75 146.875 197.106 146.875 193.875 146.875 190.644 149.519 188 152.75 188 155.981 188 158.625 190.644 158.625 193.875 158.625 197.106 155.981 199.75 152.75 199.75ZM176.25 82.25 129.25 82.25 129.25 211.5 176.25 211.5 176.25 82.25Z" fill="#FFFFFF" transform="matrix(1 0 0 1.65248 3291 1321)"/><path d="M105.75 88.125 88.125 88.125 88.125 70.5 105.75 70.5 105.75 88.125ZM117.5 58.75 76.375 58.75 76.375 211.5 117.5 211.5 117.5 58.75Z" fill="#FFFFFF" transform="matrix(1 0 0 1.65248 3291 1321)"/></g></g></g><path d="M845 1125.13C845 1118.98 849.982 1114 856.127 1114L1437.87 1114C1444.02 1114 1449 1118.98 1449 1125.13L1449 1331.87C1449 1338.02 1444.02 1343 1437.87 1343L856.127 1343C849.982 1343 845 1338.02 845 1331.87Z" fill="#FFD966" fill-rule="evenodd"/><text font-family="SimSun,SimSun_MSFontService,sans-serif" font-weight="400" font-size="110" transform="matrix(1 0 0 1 927.299 1270)">拓扑编码</text><path d="M852 1455.13C852 1448.98 856.982 1444 863.127 1444L1444.87 1444C1451.02 1444 1456 1448.98 1456 1455.13L1456 1661.87C1456 1668.02 1451.02 1673 1444.87 1673L863.127 1673C856.982 1673 852 1668.02 852 1661.87Z" fill="#FFD966" fill-rule="evenodd"/><text font-family="SimSun,SimSun_MSFontService,sans-serif" font-weight="400" font-size="110" transform="matrix(1 0 0 1 934.071 1601)">属性<tspan font-size="110" x="220" y="0">编码</tspan></text><path d="M1560 946.05C1560 922.274 1579.27 903 1603.05 903L3740.95 903C3764.73 903 3784 922.274 3784 946.05L3784 1745.95C3784 1769.73 3764.73 1789 3740.95 1789L1603.05 1789C1579.27 1789 1560 1769.73 1560 1745.95Z" fill="#FFF2CC" fill-rule="evenodd"/><text font-family="SimSun,SimSun_MSFontService,sans-serif" font-weight="400" font-size="110" transform="matrix(1 0 0 1 2400.7 1040)">键<tspan font-size="110" x="110" y="0">值存储层</tspan></text><path d="M1609 1122.88C1609 1105.27 1623.27 1091 1640.88 1091L3236.12 1091C3253.73 1091 3268 1105.27 3268 1122.88L3268 1715.12C3268 1732.73 3253.73 1747 3236.12 1747L1640.88 1747C1623.27 1747 1609 1732.73 1609 1715.12Z" fill="#FFD966" fill-rule="evenodd"/><text font-family="SimSun,SimSun_MSFontService,sans-serif" font-weight="400" font-size="92" transform="matrix(1 0 0 1 1946.98 1201)">使用<tspan font-size="92" x="183.333" y="0">外部更新</tspan><tspan font-size="92" x="550" y="0">策略的</tspan><tspan font-family="Times New Roman,Times New Roman_MSFontService,sans-serif" font-size="92" x="825" y="0">B+</tspan><tspan font-size="92" x="937.865" y="0">树</tspan></text><path d="M2032.5 1425.33C2032.5 1417.14 2039.14 1410.5 2047.33 1410.5L2155.67 1410.5C2163.86 1410.5 2170.5 1417.14 2170.5 1425.33L2170.5 1484.67C2170.5 1492.86 2163.86 1499.5 2155.67 1499.5L2047.33 1499.5C2039.14 1499.5 2032.5 1492.86 2032.5 1484.67Z" stroke="#2F528F" stroke-width="4.58333" stroke-miterlimit="8" fill="#BDD7EE" fill-rule="evenodd"/><path d="M1726.5 1423.5C1726.5 1415.22 1733.22 1408.5 1741.5 1408.5L1849.5 1408.5C1857.78 1408.5 1864.5 1415.22 1864.5 1423.5L1864.5 1483.5C1864.5 1491.78 1857.78 1498.5 1849.5 1498.5L1741.5 1498.5C1733.22 1498.5 1726.5 1491.78 1726.5 1483.5Z" stroke="#2F528F" stroke-width="4.58333" stroke-miterlimit="8" fill="#BDD7EE" fill-rule="evenodd"/><path d="M1630.5 1601.33C1630.5 1593.14 1637.14 1586.5 1645.33 1586.5L1711.67 1586.5C1719.86 1586.5 1726.5 1593.14 1726.5 1601.33L1726.5 1660.67C1726.5 1668.86 1719.86 1675.5 1711.67 1675.5L1645.33 1675.5C1637.14 1675.5 1630.5 1668.86 1630.5 1660.67Z" stroke="#2F528F" stroke-width="4.58333" stroke-miterlimit="8" fill="#C5E0B4" fill-rule="evenodd"/><path d="M1740.5 1601.33C1740.5 1593.14 1747.14 1586.5 1755.33 1586.5L1821.67 1586.5C1829.86 1586.5 1836.5 1593.14 1836.5 1601.33L1836.5 1660.67C1836.5 1668.86 1829.86 1675.5 1821.67 1675.5L1755.33 1675.5C1747.14 1675.5 1740.5 1668.86 1740.5 1660.67Z" stroke="#2F528F" stroke-width="4.58333" stroke-miterlimit="8" fill="#C5E0B4" fill-rule="evenodd"/><path d="M1850.5 1601.33C1850.5 1593.14 1857.14 1586.5 1865.33 1586.5L1931.67 1586.5C1939.86 1586.5 1946.5 1593.14 1946.5 1601.33L1946.5 1660.67C1946.5 1668.86 1939.86 1675.5 1931.67 1675.5L1865.33 1675.5C1857.14 1675.5 1850.5 1668.86 1850.5 1660.67Z" stroke="#2F528F" stroke-width="4.58333" stroke-miterlimit="8" fill="#C5E0B4" fill-rule="evenodd"/><path d="M1998.5 1602.33C1998.5 1594.14 2005.14 1587.5 2013.33 1587.5L2079.67 1587.5C2087.86 1587.5 2094.5 1594.14 2094.5 1602.33L2094.5 1661.67C2094.5 1669.86 2087.86 1676.5 2079.67 1676.5L2013.33 1676.5C2005.14 1676.5 1998.5 1669.86 1998.5 1661.67Z" stroke="#2F528F" stroke-width="4.58333" stroke-miterlimit="8" fill="#C5E0B4" fill-rule="evenodd"/><path d="M2108.5 1602.5C2108.5 1594.22 2115.22 1587.5 2123.5 1587.5L2189.5 1587.5C2197.78 1587.5 2204.5 1594.22 2204.5 1602.5L2204.5 1662.5C2204.5 1670.78 2197.78 1677.5 2189.5 1677.5L2123.5 1677.5C2115.22 1677.5 2108.5 1670.78 2108.5 1662.5Z" stroke="#2F528F" stroke-width="4.58333" stroke-miterlimit="8" fill="#C5E0B4" fill-rule="evenodd"/><path d="M2.08029-4.71798 133.178 53.0867 129.017 62.5226-2.08029 4.71798ZM132.621 41.5705 154.688 68.2061 120.139 69.8783Z" fill="#595959" transform="matrix(-1 0 0 1 1949.69 1340)"/><path d="M1948.04 1335.27 2082.49 1393.26 2078.41 1402.73 1943.96 1344.73ZM2081.84 1381.75 2104.12 1408.21 2069.59 1410.16Z" fill="#595959"/><path d="M1881.5 1266.33C1881.5 1258.14 1888.14 1251.5 1896.33 1251.5L2004.67 1251.5C2012.86 1251.5 2019.5 1258.14 2019.5 1266.33L2019.5 1325.67C2019.5 1333.86 2012.86 1340.5 2004.67 1340.5L1896.33 1340.5C1888.14 1340.5 1881.5 1333.86 1881.5 1325.67Z" stroke="#2F528F" stroke-width="4.58333" stroke-miterlimit="8" fill="#BDD7EE" fill-rule="evenodd"/><path d="M3.11162-4.11154 99.4289 68.7815 93.2057 77.0046-3.11162 4.11154ZM101.541 57.4468 116.875 88.4511 82.8709 82.116Z" fill="#595959" transform="matrix(-1 0 0 1 1794.87 1498)"/><path d="M5.14069-0.400314 10.0141 62.1824-0.267259 62.9831-5.14069 0.400314ZM19.8952 56.2411 6.875 88.2862-10.9489 58.643Z" fill="#595959" transform="matrix(-1 0 0 1 1794.87 1498)"/><path d="M1798.36 1494.09 1881.91 1565.75 1875.2 1573.58 1791.64 1501.91ZM1884.71 1554.57 1898.13 1586.45 1864.57 1578.05Z" fill="#595959"/><path d="M4.36818-2.7397 45.6697 63.1116 36.9333 68.591-4.36818 2.7397ZM51.6664 53.264 55 87.6922 25.4573 69.7022Z" fill="#595959" transform="matrix(-1 0 0 1 2101 1499)"/><path d="M2105.37 1496.26 2146.69 1562.27 2137.95 1567.74 2096.63 1501.74ZM2152.7 1552.43 2156 1586.86 2126.47 1568.84Z" fill="#595959"/><path d="M3299 1112.87C3299 1100.79 3308.79 1091 3320.87 1091L3727.13 1091C3739.21 1091 3749 1100.79 3749 1112.87L3749 1725.13C3749 1737.21 3739.21 1747 3727.13 1747L3320.87 1747C3308.79 1747 3299 1737.21 3299 1725.13Z" fill="#FFD966" fill-rule="evenodd"/><text font-family="Times New Roman,Times New Roman_MSFontService,sans-serif" font-weight="400" font-size="110" transform="matrix(1 0 0 1 3402.77 1328)">value<tspan font-family="SimSun,SimSun_MSFontService,sans-serif" font-size="110" x="8.8916" y="139">存储</tspan><tspan font-family="SimSun,SimSun_MSFontService,sans-serif" font-size="110" x="8.8916" y="266">优化</tspan></text><path d="M2806.5 1425.33C2806.5 1417.14 2813.14 1410.5 2821.33 1410.5L2928.67 1410.5C2936.86 1410.5 2943.5 1417.14 2943.5 1425.33L2943.5 1484.67C2943.5 1492.86 2936.86 1499.5 2928.67 1499.5L2821.33 1499.5C2813.14 1499.5 2806.5 1492.86 2806.5 1484.67Z" stroke="#A6A6A6" stroke-width="6.875" stroke-miterlimit="8" stroke-dasharray="6.875 6.875" fill="#BDD7EE" fill-rule="evenodd"/><path d="M2500.5 1423.5C2500.5 1415.22 2507.22 1408.5 2515.5 1408.5L2622.5 1408.5C2630.78 1408.5 2637.5 1415.22 2637.5 1423.5L2637.5 1483.5C2637.5 1491.78 2630.78 1498.5 2622.5 1498.5L2515.5 1498.5C2507.22 1498.5 2500.5 1491.78 2500.5 1483.5Z" stroke="#2F528F" stroke-width="4.58333" stroke-miterlimit="8" fill="#BDD7EE" fill-rule="evenodd"/><path d="M2403.5 1601.33C2403.5 1593.14 2410.14 1586.5 2418.33 1586.5L2485.67 1586.5C2493.86 1586.5 2500.5 1593.14 2500.5 1601.33L2500.5 1660.67C2500.5 1668.86 2493.86 1675.5 2485.67 1675.5L2418.33 1675.5C2410.14 1675.5 2403.5 1668.86 2403.5 1660.67Z" stroke="#2F528F" stroke-width="4.58333" stroke-miterlimit="8" fill="#C5E0B4" fill-rule="evenodd"/><path d="M2513.5 1601.33C2513.5 1593.14 2520.14 1586.5 2528.33 1586.5L2595.67 1586.5C2603.86 1586.5 2610.5 1593.14 2610.5 1601.33L2610.5 1660.67C2610.5 1668.86 2603.86 1675.5 2595.67 1675.5L2528.33 1675.5C2520.14 1675.5 2513.5 1668.86 2513.5 1660.67Z" stroke="#2F528F" stroke-width="4.58333" stroke-miterlimit="8" fill="#C5E0B4" fill-rule="evenodd"/><path d="M2623.5 1601.33C2623.5 1593.14 2630.14 1586.5 2638.33 1586.5L2705.67 1586.5C2713.86 1586.5 2720.5 1593.14 2720.5 1601.33L2720.5 1660.67C2720.5 1668.86 2713.86 1675.5 2705.67 1675.5L2638.33 1675.5C2630.14 1675.5 2623.5 1668.86 2623.5 1660.67Z" stroke="#2F528F" stroke-width="4.58333" stroke-miterlimit="8" fill="#C5E0B4" fill-rule="evenodd"/><path d="M2771.5 1602.33C2771.5 1594.14 2778.14 1587.5 2786.33 1587.5L2853.67 1587.5C2861.86 1587.5 2868.5 1594.14 2868.5 1602.33L2868.5 1661.67C2868.5 1669.86 2861.86 1676.5 2853.67 1676.5L2786.33 1676.5C2778.14 1676.5 2771.5 1669.86 2771.5 1661.67Z" stroke="#2F528F" stroke-width="4.58333" stroke-miterlimit="8" fill="#C5E0B4" fill-rule="evenodd"/><path d="M2881.5 1602.5C2881.5 1594.22 2888.22 1587.5 2896.5 1587.5L2963.5 1587.5C2971.78 1587.5 2978.5 1594.22 2978.5 1602.5L2978.5 1662.5C2978.5 1670.78 2971.78 1677.5 2963.5 1677.5L2896.5 1677.5C2888.22 1677.5 2881.5 1670.78 2881.5 1662.5Z" stroke="#2F528F" stroke-width="4.58333" stroke-miterlimit="8" stroke-dasharray="4.58333 4.58333" fill="#C5E0B4" fill-rule="evenodd"/><path d="M1.38686-3.14532 7.6775-0.371597 4.90378 5.91904-1.38686 3.14532ZM13.9681 2.40212 20.2588 5.17585 17.485 11.4665 11.1944 8.69276ZM26.5494 7.94957 32.84 10.7233 30.0663 17.0139 23.7757 14.2402ZM39.1307 13.497 45.4213 16.2707 42.6476 22.5614 36.3569 19.7876ZM51.7119 19.0444 58.0026 21.8182 55.2289 28.1088 48.9382 25.3351ZM64.2932 24.5919 70.5839 27.3656 67.8101 33.6562 61.5195 30.8825ZM76.8745 30.1393 83.1651 32.9131 80.3914 39.2037 74.1008 36.43ZM89.4558 35.6868 95.7464 38.4605 92.9727 44.7511 86.682 41.9774ZM102.037 41.2342 108.328 44.0079 105.554 50.2986 99.2633 47.5248ZM114.618 46.7817 120.909 49.5554 118.135 55.846 111.845 53.0723ZM127.2 52.3291 133.49 55.1028 130.716 61.3935 124.426 58.6197ZM135.072 44.53 154.688 68.2061 123.978 69.6925Z" fill="#A6A6A6" transform="matrix(-1 0 0 1 2723.19 1340.5)"/><path d="M2721.86 1337.34 2728.17 1340.07 2725.45 1346.38 2719.14 1343.66ZM2734.49 1342.79 2740.8 1345.51 2738.08 1351.83 2731.76 1349.1ZM2747.11 1348.24 2753.43 1350.96 2750.7 1357.27 2744.39 1354.55ZM2759.74 1353.68 2766.05 1356.4 2763.33 1362.72 2757.02 1359.99ZM2772.36 1359.13 2778.68 1361.85 2775.95 1368.16 2769.64 1365.44ZM2784.99 1364.57 2791.3 1367.3 2788.58 1373.61 2782.27 1370.89ZM2797.61 1370.02 2803.93 1372.74 2801.2 1379.06 2794.89 1376.33ZM2810.24 1375.47 2816.55 1378.19 2813.83 1384.5 2807.52 1381.78ZM2822.87 1380.91 2829.18 1383.63 2826.46 1389.95 2820.14 1387.22ZM2835.49 1386.36 2841.8 1389.08 2839.08 1395.39 2832.77 1392.67ZM2848.12 1391.8 2854.43 1394.53 2851.71 1400.84 2845.39 1398.12ZM2858.82 1385.19 2878.62 1408.71 2847.93 1410.44Z" fill="#A6A6A6"/><path d="M2654.5 1266.33C2654.5 1258.14 2661.14 1251.5 2669.33 1251.5L2777.67 1251.5C2785.86 1251.5 2792.5 1258.14 2792.5 1266.33L2792.5 1325.67C2792.5 1333.86 2785.86 1340.5 2777.67 1340.5L2669.33 1340.5C2661.14 1340.5 2654.5 1333.86 2654.5 1325.67Z" stroke="#A6A6A6" stroke-width="6.875" stroke-miterlimit="8" stroke-dasharray="6.875 6.875" fill="#BDD7EE" fill-rule="evenodd"/><path d="M3.11162-4.11154 99.4289 68.7815 93.2057 77.0046-3.11162 4.11154ZM101.541 57.4468 116.875 88.4511 82.8709 82.116Z" fill="#595959" transform="matrix(-1 0 0 1 2568.88 1498)"/><path d="M5.14069-0.400314 10.0141 62.1824-0.267259 62.9831-5.14069 0.400314ZM19.8952 56.2411 6.875 88.2862-10.9489 58.643Z" fill="#595959" transform="matrix(-1 0 0 1 2568.88 1498)"/><path d="M2571.36 1494.09 2654.91 1565.75 2648.2 1573.58 2564.64 1501.91ZM2657.71 1554.57 2671.13 1586.45 2637.57 1578.05Z" fill="#595959"/><path d="M2.91212-1.82646 6.56505 3.99777 0.740808 7.6507-2.91212 1.82646ZM10.218 9.82201 13.8709 15.6462 8.04666 19.2992 4.39374 13.4749ZM17.5238 21.4705 21.1768 27.2947 15.3525 30.9477 11.6996 25.1234ZM24.8297 33.119 28.4826 38.9432 22.6584 42.5961 19.0054 36.7719ZM32.1355 44.7674 35.7885 50.5917 29.9642 54.2446 26.3113 48.4204ZM39.4414 56.4159 43.0943 62.2402 37.2701 65.8931 33.6172 60.0688ZM52.0368 57.0894 55 87.6922 28.7398 71.7011Z" fill="#A6A6A6" transform="matrix(-1 0 0 1 2874.5 1499.5)"/><path d="M2877.41 1497.68 2881.06 1503.5 2875.23 1507.15 2871.59 1501.32ZM2884.71 1509.33 2888.36 1515.16 2882.53 1518.81 2878.88 1512.98ZM2892.01 1520.99 2895.65 1526.81 2889.83 1530.46 2886.18 1524.63ZM2899.3 1532.64 2902.95 1538.47 2897.12 1542.12 2893.47 1536.29ZM2906.6 1544.29 2910.25 1550.12 2904.42 1553.77 2900.77 1547.94ZM2913.89 1555.95 2917.54 1561.78 2911.71 1565.42 2908.07 1559.6ZM2926.56 1556.75 2929.5 1587.36 2903.25 1571.34Z" fill="#A6A6A6"/><path d="M3000.5 1269.33C3000.5 1261.14 3007.14 1254.5 3015.33 1254.5L3123.67 1254.5C3131.86 1254.5 3138.5 1261.14 3138.5 1269.33L3138.5 1328.67C3138.5 1336.86 3131.86 1343.5 3123.67 1343.5L3015.33 1343.5C3007.14 1343.5 3000.5 1336.86 3000.5 1328.67Z" stroke="#2F528F" stroke-width="4.58333" stroke-miterlimit="8" fill="#BDD7EE" fill-rule="evenodd"/><path d="M3000.5 1423.5C3000.5 1415.22 3007.22 1408.5 3015.5 1408.5L3123.5 1408.5C3131.78 1408.5 3138.5 1415.22 3138.5 1423.5L3138.5 1483.5C3138.5 1491.78 3131.78 1498.5 3123.5 1498.5L3015.5 1498.5C3007.22 1498.5 3000.5 1491.78 3000.5 1483.5Z" stroke="#2F528F" stroke-width="4.58333" stroke-miterlimit="8" fill="#BDD7EE" fill-rule="evenodd"/><path d="M3020.5 1603.33C3020.5 1595.14 3027.14 1588.5 3035.33 1588.5L3101.67 1588.5C3109.86 1588.5 3116.5 1595.14 3116.5 1603.33L3116.5 1662.67C3116.5 1670.86 3109.86 1677.5 3101.67 1677.5L3035.33 1677.5C3027.14 1677.5 3020.5 1670.86 3020.5 1662.67Z" stroke="#2F528F" stroke-width="4.58333" stroke-miterlimit="8" fill="#C5E0B4" fill-rule="evenodd"/><path d="M3074.16 1343 3074.16 1382.21 3063.84 1382.21 3063.84 1343ZM3084.47 1377.06 3069 1408 3053.53 1377.06Z" fill="#595959"/><path d="M5.15608-0.0424006 5.6839 64.1434-4.62825 64.2282-5.15608 0.0424006ZM15.9537 58.9025 0.739829 89.9661-14.9828 59.1569Z" fill="#595959" transform="matrix(-1 0 0 1 3068.74 1498)"/><path d="M0.634817-5.11702 474.836 53.7123 473.566 63.9464-0.634817 5.11702ZM470.989 42.8435 499.787 62.0035 467.18 73.5457Z" fill="#595959" transform="matrix(-1 0 0 1 3067.79 1346)"/><path d="M1.67537-4.87648 226.143 72.2421 222.792 81.995-1.67537 4.87648ZM224.617 60.8137 248.85 85.4954 214.565 90.0726Z" fill="#595959" transform="matrix(-1 0 0 1 3067.85 1501)"/><path d="M2268.5 1427.5 2363.5 1427.5 2363.5 1410.5 2397.5 1444.5 2363.5 1478.5 2363.5 1461.5 2268.5 1461.5Z" stroke="#2F528F" stroke-width="4.58333" stroke-miterlimit="8" fill="#4472C4" fill-rule="evenodd"/></g></svg>