<svg width="376" height="316" xmlns="http://www.w3.org/2000/svg" xmlns:xlink="http://www.w3.org/1999/xlink" overflow="hidden"><defs><clipPath id="clip0"><rect x="372" y="388" width="376" height="316"/></clipPath></defs><g clip-path="url(#clip0)" transform="translate(-372 -388)"><path d="M374 653C374 625.938 415.638 604 467 604 518.362 604 560 625.938 560 653 560 680.062 518.362 702 467 702 415.638 702 374 680.062 374 653Z" stroke="#000000" stroke-width="2" stroke-miterlimit="8" fill="#FFF2CC" fill-rule="evenodd"/><text font-family="Times New Roman,Times New Roman_MSFontService,sans-serif" font-weight="400" font-size="21" transform="translate(410.599 635)">CID</text><text font-family="SimSun,SimSun_MSFontService,sans-serif" font-weight="400" font-size="21" transform="translate(452.599 635)">沪</text><text font-family="Times New Roman,Times New Roman_MSFontService,sans-serif" font-weight="400" font-size="21" transform="translate(473.932 635)">AA..</text><text font-family="SimSun,SimSun_MSFontService,sans-serif" font-weight="400" font-size="21" transform="translate(410.599 660)">品牌</text><text font-family="Times New Roman,Times New Roman_MSFontService,sans-serif" font-weight="400" font-size="21" transform="translate(458.599 660)">…</text><text font-family="SimSun,SimSun_MSFontService,sans-serif" font-weight="400" font-size="21" transform="translate(410.599 686)">类型</text><text font-family="SimSun,SimSun_MSFontService,sans-serif" font-weight="400" font-size="21" transform="translate(458.599 686)">新能源</text><path d="M631 575C631 545.729 656.744 522 688.5 522 720.256 522 746 545.729 746 575 746 604.271 720.256 628 688.5 628 656.744 628 631 604.271 631 575Z" stroke="#000000" stroke-width="2" stroke-miterlimit="8" fill="#FFF2CC" fill-rule="evenodd"/><text font-family="SimSun,SimSun_MSFontService,sans-serif" font-weight="400" font-size="21" transform="translate(657.017 583)">类别</text><text font-family="Times New Roman,Times New Roman_MSFontService,sans-serif" font-weight="400" font-size="21" transform="translate(703.837 583)">A</text><rect x="647" y="510" width="86" height="25" stroke="#000000" stroke-width="2" stroke-miterlimit="8" fill="#FFFFFF"/><text font-family="SimSun,SimSun_MSFontService,sans-serif" font-weight="400" font-size="21" transform="translate(668.954 530)">保险</text><path d="M407 461C407 433.938 443.937 412 489.5 412 535.063 412 572 433.938 572 461 572 488.062 535.063 510 489.5 510 443.937 510 407 488.062 407 461Z" stroke="#000000" stroke-width="2" stroke-miterlimit="8" fill="#FFF2CC" fill-rule="evenodd"/><text font-family="SimSun,SimSun_MSFontService,sans-serif" font-weight="400" font-size="21" transform="translate(440.745 469)">姓名</text><text font-family="Times New Roman,Times New Roman_MSFontService,sans-serif" font-weight="400" font-size="21" transform="translate(488.745 469)">B</text><text font-family="Times New Roman,Times New Roman_MSFontService,sans-serif" font-weight="400" font-size="21" transform="translate(502.912 469)">ob</text><rect x="445" y="397" width="90" height="25" stroke="#000000" stroke-width="2" stroke-miterlimit="8" fill="#FFFFFF"/><text font-family="SimSun,SimSun_MSFontService,sans-serif" font-weight="400" font-size="21" transform="translate(468.666 418)">车主</text><path d="M1.48029-1.3449 65.5388 69.1626 62.5782 71.8523-1.48029 1.3449ZM67.1545 64.9925 70.783 77.9089 58.2727 73.0618Z" transform="matrix(-1 0 0 1 630.783 575)"/><path d="M549.382 494.555 625.112 566.989 622.347 569.88 546.618 497.445ZM626.431 562.716 630.956 575.346 618.137 571.388Z"/><text font-family="SimSun,SimSun_MSFontService,sans-serif" font-weight="400" font-size="27" transform="matrix(0.738788 0.673938 -0.673938 0.738788 576.697 505)">购买</text><text font-family="SimSun,SimSun_MSFontService,sans-serif" font-weight="400" font-size="27" transform="matrix(0.693341 -0.72061 0.72061 0.693341 600.555 654)">绑定</text><rect x="422" y="591" width="89" height="26" stroke="#000000" stroke-width="2" stroke-miterlimit="8" fill="#FFFFFF"/><text font-family="SimSun,SimSun_MSFontService,sans-serif" font-weight="400" font-size="21" transform="translate(456.011 612)">车</text><text font-family="SimSun,SimSun_MSFontService,sans-serif" font-weight="400" font-size="24" transform="matrix(0.171407 -0.9852 0.9852 0.171407 457.597 570)">购买</text><path d="M1.96888-0.351447 14.7143 71.0512 10.7766 71.7541-1.96888 0.351447ZM18.3006 68.3794 14.5027 81.247 6.48736 70.4881Z" transform="matrix(-1 0 0 1 481.503 510)"/></g></svg>