<svg width="1276" height="544" xmlns="http://www.w3.org/2000/svg" xmlns:xlink="http://www.w3.org/1999/xlink" overflow="hidden"><defs><clipPath id="clip0"><rect x="-5" y="-2" width="1276" height="544"/></clipPath><clipPath id="clip1"><rect x="31" y="378" width="41" height="74"/></clipPath><clipPath id="clip2"><rect x="31" y="378" width="40" height="74"/></clipPath><clipPath id="clip3"><rect x="-45" y="363" width="116" height="111"/></clipPath><clipPath id="clip4"><rect x="959" y="52" width="40" height="74"/></clipPath><clipPath id="clip5"><rect x="959" y="52" width="39" height="74"/></clipPath><clipPath id="clip6"><rect x="885" y="37" width="113" height="111"/></clipPath></defs><g clip-path="url(#clip0)" transform="translate(5 2)"><path d="M1030.5 540.5-0.500053 540.5 1030.5 0.500061Z" stroke="#BFBFBF" stroke-width="1.33333" stroke-miterlimit="8" fill="#F2F2F2" fill-rule="evenodd"/><path d="M-0.500122 0.500105 1029.5 0.500105-0.500122 540.5Z" stroke="#BFBFBF" stroke-width="1.33333" stroke-miterlimit="8" fill="#F2F2F2" fill-rule="evenodd"/><path d="M330 104 361.018 238.745" fill="#FFFFFF" fill-rule="evenodd"/><path d="M330.975 103.776 361.549 236.591 359.6 237.04 329.025 104.224ZM364.282 228.27 361.019 238.749 353.503 230.751C353.125 230.349 353.144 229.716 353.547 229.337 353.949 228.959 354.582 228.979 354.96 229.381L361.303 236.131 359.619 236.518 362.372 227.675C362.536 227.148 363.097 226.854 363.624 227.018 364.152 227.182 364.446 227.742 364.282 228.27Z"/><path d="M340 81 417.715 128.16" fill="#FFFFFF" fill-rule="evenodd"/><path d="M340.519 80.1451 416.541 126.278 415.503 127.988 339.481 81.8549ZM412.483 118.516 417.719 128.162 406.745 127.972C406.193 127.962 405.753 127.507 405.762 126.955 405.772 126.403 406.227 125.963 406.779 125.972L416.04 126.133 415.143 127.61 410.725 119.47C410.462 118.985 410.642 118.378 411.127 118.114 411.612 117.851 412.219 118.031 412.483 118.516Z"/><path d="M86 62.5C86 44.5507 100.775 30 119 30 137.225 30 152 44.5507 152 62.5 152 80.4492 137.225 95 119 95 100.775 95 86 80.4492 86 62.5Z" stroke="#000000" stroke-width="2" stroke-miterlimit="8" fill="#FFFFFF" fill-rule="evenodd"/><text font-family="Times New Roman,Times New Roman_MSFontService,sans-serif" font-weight="400" font-size="37" transform="translate(109.795 76)">1</text><path d="M143 86 175.62 114.823" fill="#FFFFFF" fill-rule="evenodd"/><path d="M143.662 85.2506 174.798 112.763 173.474 114.261 142.338 86.7494ZM172.181 104.404 175.624 114.826 164.857 112.693C164.315 112.585 163.963 112.059 164.07 111.518 164.178 110.976 164.704 110.624 165.246 110.731L174.331 112.531 173.187 113.826 170.282 105.031C170.109 104.507 170.393 103.941 170.918 103.768 171.442 103.595 172.008 103.88 172.181 104.404Z"/><path d="M408 150.5C408 132.551 422.775 118 441 118 459.225 118 474 132.551 474 150.5 474 168.449 459.225 183 441 183 422.775 183 408 168.449 408 150.5Z" stroke="#000000" stroke-width="2" stroke-miterlimit="8" fill="#BFBFBF" fill-rule="evenodd"/><text font-family="Times New Roman,Times New Roman_MSFontService,sans-serif" font-weight="400" font-size="37" transform="translate(431.812 164)">6</text><path d="M0 0 93.7368 37.8308" fill="#FFFFFF" fill-rule="evenodd" transform="matrix(-1 0 0 1 327.737 271)"/><path d="M2.21015-0.186388 94.111 36.9034 93.3625 38.7581 1.46164 1.66826ZM6.71767 8.675-0.0042979-0.00173454 10.8573-1.58205C11.4038-1.66157 11.9113-1.28299 11.9908-0.736455 12.0703-0.189925 11.6917 0.317588 11.1452 0.397106L1.98009 1.7306 2.62663 0.128592 8.29873 7.45014C8.63696 7.88674 8.55723 8.51486 8.12063 8.8531 7.68403 9.19133 7.05591 9.1116 6.71767 8.675Z" transform="matrix(-1 0 0 1 327.737 271)"/><path d="M0 0 75.9603 166.611" fill="#FFFFFF" fill-rule="evenodd" transform="matrix(-1 0 0 1 292.96 111)"/><path d="M0.909897-0.414834 76.0482 164.393 74.2284 165.223-0.909897 0.414834ZM77.0615 155.695 75.9622 166.616 66.9972 160.283C66.5461 159.965 66.4387 159.341 66.7573 158.89 67.0759 158.438 67.6999 158.331 68.151 158.65L75.7159 163.993 74.144 164.71 75.0715 155.495C75.1268 154.945 75.6171 154.544 76.1666 154.6 76.7161 154.655 77.1168 155.145 77.0615 155.695Z" transform="matrix(-1 0 0 1 292.96 111)"/><path d="M328 270.5C328 252.551 342.775 238 361 238 379.225 238 394 252.551 394 270.5 394 288.449 379.225 303 361 303 342.775 303 328 288.449 328 270.5Z" stroke="#000000" stroke-width="2" stroke-miterlimit="8" fill="#BFBFBF" fill-rule="evenodd"/><text font-family="Times New Roman,Times New Roman_MSFontService,sans-serif" font-weight="400" font-size="37" transform="translate(351.801 284)">5</text><path d="M170 307C170 289.327 184.998 275 203.5 275 222.002 275 237 289.327 237 307 237 324.673 222.002 339 203.5 339 184.998 339 170 324.673 170 307Z" stroke="#000000" stroke-width="2" stroke-miterlimit="8" fill="#BFBFBF" fill-rule="evenodd"/><text font-family="Times New Roman,Times New Roman_MSFontService,sans-serif" font-weight="400" font-size="37" transform="translate(194.432 321)">4</text><path d="M273 80.5C273 62.5507 287.998 48 306.5 48 325.002 48 340 62.5507 340 80.5 340 98.4492 325.002 113 306.5 113 287.998 113 273 98.4492 273 80.5Z" stroke="#000000" stroke-width="2" stroke-miterlimit="8" fill="#FFFFFF" fill-rule="evenodd"/><text font-family="Times New Roman,Times New Roman_MSFontService,sans-serif" font-weight="400" font-size="37" transform="translate(297.226 94)">3</text><path d="M0 0 24.5312 122.635" fill="#FFFFFF" fill-rule="evenodd" transform="matrix(-1 0 0 1 109.531 94)"/><path d="M0.980574-0.196148 25.1234 120.498 23.1623 120.89-0.980574 0.196148ZM28.0955 112.259 24.5321 122.64 17.2495 114.428C16.8831 114.015 16.921 113.383 17.3342 113.016 17.7474 112.65 18.3794 112.688 18.7458 113.101L24.891 120.03 23.197 120.369 26.2039 111.609C26.3832 111.087 26.952 110.809 27.4743 110.988 27.9967 111.167 28.2748 111.736 28.0955 112.259Z" transform="matrix(-1 0 0 1 109.531 94)"/><path d="M115 251 179.848 284.365" fill="#FFFFFF" fill-rule="evenodd"/><path d="M115.458 250.111 178.544 282.57 177.629 284.348 114.542 251.889ZM173.952 275.112 179.852 284.367 168.891 284.947C168.34 284.976 167.869 284.553 167.84 284.001 167.811 283.45 168.234 282.979 168.785 282.95L178.034 282.46 177.244 283.997 172.265 276.187C171.968 275.721 172.105 275.103 172.571 274.806 173.037 274.509 173.655 274.646 173.952 275.112Z"/><path d="M166 137.5C166 119.551 180.775 105 199 105 217.225 105 232 119.551 232 137.5 232 155.449 217.225 170 199 170 180.775 170 166 155.449 166 137.5Z" stroke="#000000" stroke-width="2" stroke-miterlimit="8" fill="#FFFFFF" fill-rule="evenodd"/><text font-family="Times New Roman,Times New Roman_MSFontService,sans-serif" font-weight="400" font-size="37" transform="translate(189.529 151)">2</text><path d="M0 0 50.8249 33.675" fill="#FFFFFF" fill-rule="evenodd" transform="matrix(-1 0 0 1 272.825 81)"/><path d="M2.20287 0.259969 51.3772 32.8413 50.2725 34.5086 1.09821 1.92722ZM4.84489 9.84428-0.0038637-0.00255977 10.9542 0.623657C11.5056 0.655167 11.927 1.1277 11.8955 1.67908 11.864 2.23047 11.3915 2.65191 10.8401 2.6204L1.59352 2.09199 2.54771 0.651855 6.63915 8.96076C6.88313 9.45623 6.67925 10.0557 6.18378 10.2997 5.68831 10.5436 5.08887 10.3398 4.84489 9.84428Z" transform="matrix(-1 0 0 1 272.825 81)"/><path d="M0 0 358.701 258.643" stroke="#0093FF" stroke-width="4" stroke-miterlimit="8" stroke-dasharray="16 12" fill="none" fill-rule="evenodd" transform="matrix(1 0 0 -1 85 312.643)"/><path d="M48 248C48 230.327 62.9985 216 81.5 216 100.002 216 115 230.327 115 248 115 265.673 100.002 280 81.5 280 62.9985 280 48 265.673 48 248Z" stroke="#000000" stroke-width="2" stroke-miterlimit="8" fill="#FFFFFF" fill-rule="evenodd"/><text font-family="Times New Roman,Times New Roman_MSFontService,sans-serif" font-weight="400" font-size="37" transform="translate(71.877 261)">0</text><path d="M773 272 804.018 406.745" fill="#FFFFFF" fill-rule="evenodd"/><path d="M773.974 271.776 804.549 404.591 802.6 405.04 772.026 272.224ZM807.282 396.27 804.019 406.75 796.503 398.751C796.125 398.349 796.144 397.716 796.547 397.337 796.949 396.959 797.582 396.979 797.96 397.381L804.303 404.131 802.619 404.518 805.372 395.675C805.536 395.148 806.097 394.854 806.624 395.018 807.152 395.182 807.446 395.742 807.282 396.27Z"/><path d="M783 249 860.715 296.16" fill="#FFFFFF" fill-rule="evenodd"/><path d="M783.519 248.145 859.541 294.278 858.503 295.988 782.481 249.855ZM855.483 286.516 860.719 296.162 849.745 295.972C849.193 295.962 848.753 295.507 848.762 294.955 848.772 294.403 849.227 293.963 849.779 293.972L859.04 294.133 858.143 295.61 853.725 287.47C853.462 286.985 853.642 286.378 854.127 286.114 854.612 285.851 855.219 286.031 855.483 286.516Z"/><path d="M851 319C851 301.327 865.775 287 884 287 902.225 287 917 301.327 917 319 917 336.673 902.225 351 884 351 865.775 351 851 336.673 851 319Z" stroke="#000000" stroke-width="2" stroke-miterlimit="8" fill="#FFFFFF" fill-rule="evenodd"/><text font-family="Times New Roman,Times New Roman_MSFontService,sans-serif" font-weight="400" font-size="37" transform="translate(874.533 333)">6</text><path d="M0 0 93.7368 37.8308" fill="#FFFFFF" fill-rule="evenodd" transform="matrix(-1 0 0 1 770.737 439)"/><path d="M2.21015-0.186388 94.111 36.9034 93.3625 38.7581 1.46164 1.66826ZM6.71767 8.675-0.0042979-0.00173454 10.8573-1.58205C11.4038-1.66157 11.9113-1.28299 11.9908-0.736455 12.0703-0.189925 11.6917 0.317588 11.1452 0.397106L1.98009 1.7306 2.62663 0.128592 8.29873 7.45014C8.63696 7.88674 8.55723 8.51486 8.12063 8.8531 7.68403 9.19133 7.05591 9.1116 6.71767 8.675Z" transform="matrix(-1 0 0 1 770.737 439)"/><path d="M0 0 75.9603 166.611" fill="#FFFFFF" fill-rule="evenodd" transform="matrix(-1 0 0 1 735.96 279)"/><path d="M0.909897-0.414834 76.0482 164.393 74.2284 165.223-0.909897 0.414834ZM77.0615 155.695 75.9622 166.616 66.9972 160.283C66.5461 159.965 66.4387 159.341 66.7573 158.89 67.0759 158.438 67.6999 158.331 68.151 158.65L75.7159 163.993 74.144 164.71 75.0715 155.495C75.1268 154.945 75.6171 154.544 76.1666 154.6 76.7161 154.655 77.1168 155.145 77.0615 155.695Z" transform="matrix(-1 0 0 1 735.96 279)"/><path d="M771 439C771 421.327 785.775 407 804 407 822.225 407 837 421.327 837 439 837 456.673 822.225 471 804 471 785.775 471 771 456.673 771 439Z" stroke="#000000" stroke-width="2" stroke-miterlimit="8" fill="#FFFFFF" fill-rule="evenodd"/><text font-family="Times New Roman,Times New Roman_MSFontService,sans-serif" font-weight="400" font-size="37" transform="translate(794.522 453)">5</text><path d="M613 475.5C613 457.551 627.998 443 646.5 443 665.002 443 680 457.551 680 475.5 680 493.449 665.002 508 646.5 508 627.998 508 613 493.449 613 475.5Z" stroke="#000000" stroke-width="2" stroke-miterlimit="8" fill="#FFFFFF" fill-rule="evenodd"/><text font-family="Times New Roman,Times New Roman_MSFontService,sans-serif" font-weight="400" font-size="37" transform="translate(637.153 489)">4</text><path d="M716 248.5C716 230.551 730.998 216 749.5 216 768.002 216 783 230.551 783 248.5 783 266.449 768.002 281 749.5 281 730.998 281 716 266.449 716 248.5Z" stroke="#000000" stroke-width="2" stroke-miterlimit="8" fill="#BFBFBF" fill-rule="evenodd"/><text font-family="Times New Roman,Times New Roman_MSFontService,sans-serif" font-weight="400" font-size="37" transform="translate(739.947 262)">3</text><path d="M491 416C491 398.327 505.775 384 524 384 542.225 384 557 398.327 557 416 557 433.673 542.225 448 524 448 505.775 448 491 433.673 491 416Z" stroke="#000000" stroke-width="2" stroke-miterlimit="8" fill="#BFBFBF" fill-rule="evenodd"/><text font-family="Times New Roman,Times New Roman_MSFontService,sans-serif" font-weight="400" font-size="37" transform="translate(514.598 430)">0</text><path d="M558 419 622.848 452.365" fill="#FFFFFF" fill-rule="evenodd"/><path d="M558.915 417.222 620.241 448.775 618.411 452.332 557.085 420.778ZM613.545 437.764 622.856 452.369 605.559 453.285C604.456 453.343 603.515 452.496 603.456 451.393 603.398 450.29 604.245 449.349 605.348 449.29L619.221 448.556 617.64 451.628 610.172 439.914C609.578 438.982 609.852 437.746 610.783 437.152 611.715 436.558 612.951 436.832 613.545 437.764Z" fill="#C00000"/><path d="M608 305.5C608 287.551 622.998 273 641.5 273 660.002 273 675 287.551 675 305.5 675 323.449 660.002 338 641.5 338 622.998 338 608 323.449 608 305.5Z" stroke="#000000" stroke-width="2" stroke-miterlimit="8" fill="#BFBFBF" fill-rule="evenodd"/><text font-family="Times New Roman,Times New Roman_MSFontService,sans-serif" font-weight="400" font-size="37" transform="translate(632.25 319)">2</text><path d="M0 0 50.8249 33.675" fill="#FFFFFF" fill-rule="evenodd" transform="matrix(-1 0 0 1 715.825 249)"/><path d="M0.552333-0.833624 49.7267 31.7477 48.622 33.415-0.552333 0.833624ZM45.98 23.8307 50.8287 33.6775 39.8707 33.0513C39.3193 33.0198 38.8979 32.5473 38.9294 31.9959 38.9609 31.4445 39.4334 31.0231 39.9848 31.0546L49.2314 31.583 48.2772 33.0231 44.1857 24.7142C43.9417 24.2187 44.1456 23.6193 44.6411 23.3753 45.1366 23.1313 45.736 23.3352 45.98 23.8307Z" transform="matrix(-1 0 0 1 715.825 249)"/><path d="M884 404.5C884 386.551 898.775 372 917 372 935.225 372 950 386.551 950 404.5 950 422.449 935.225 437 917 437 898.775 437 884 422.449 884 404.5Z" stroke="#000000" stroke-width="2" stroke-miterlimit="8" fill="#FFFFFF" fill-rule="evenodd"/><text font-family="Times New Roman,Times New Roman_MSFontService,sans-serif" font-weight="400" font-size="37" transform="translate(907.848 418)">7</text><path d="M0 0 50.7998 19.0971" fill="#FFFFFF" fill-rule="evenodd" transform="matrix(-1 0 0 1 883.8 405)"/><path d="M2.20521-0.239325 51.1517 18.1611 50.4479 20.0332 1.50144 1.63276ZM6.92398 8.51125-0.0043383-0.00163083 10.8161-1.84222C11.3606-1.93484 11.8771-1.56854 11.9697-1.02408 12.0623-0.479614 11.696 0.0368399 11.1515 0.129455L2.02106 1.68257 2.62896 0.0655039 8.47517 7.24879C8.82379 7.67714 8.75916 8.307 8.33081 8.65561 7.90246 9.00423 7.2726 8.9396 6.92398 8.51125Z" transform="matrix(-1 0 0 1 883.8 405)"/><path d="M0 0 358.701 258.643" stroke="#0093FF" stroke-width="4" stroke-miterlimit="8" stroke-dasharray="16 12" fill="none" fill-rule="evenodd" transform="matrix(1 0 0 -1 527 480.643)"/><text font-family="Times New Roman,Times New Roman_MSFontService,sans-serif" font-weight="400" font-size="24" transform="translate(19.4357 480)">Node1</text><g clip-path="url(#clip1)"><g clip-path="url(#clip2)"><g clip-path="url(#clip3)"><path d="M63.9601 66.2444 9.13716 66.2444 9.13716 29.6958 63.9601 29.6958 63.9601 66.2444ZM66.2444 22.8429 6.85287 22.8429C4.34015 22.8429 2.28429 24.8988 2.28429 27.4115L2.28429 68.5287C2.28429 71.0414 4.34015 73.0973 6.85287 73.0973L29.6958 73.0973 29.6958 79.9501 19.4165 79.9501 19.4165 86.803 53.6808 86.803 53.6808 79.9501 43.4015 79.9501 43.4015 73.0973 66.2444 73.0973C68.7571 73.0973 70.813 71.0414 70.813 68.5287L70.813 27.4115C70.813 24.8988 68.7571 22.8429 66.2444 22.8429Z" transform="matrix(1.05167 0 0 1 -44.5922 363.357)"/><path d="M102.793 34.2643 79.9501 34.2643 79.9501 27.4115 102.793 27.4115 102.793 34.2643ZM102.793 45.6858 79.9501 45.6858 79.9501 38.8329 102.793 38.8329 102.793 45.6858ZM91.3716 79.9501C89.4299 79.9501 87.9451 78.4653 87.9451 76.5237 87.9451 74.582 89.4299 73.0973 91.3716 73.0973 93.3132 73.0973 94.798 74.582 94.798 76.5237 94.798 78.4653 93.3132 79.9501 91.3716 79.9501ZM102.793 22.8429 79.9501 22.8429C77.4374 22.8429 75.3815 24.8988 75.3815 27.4115L75.3815 82.2344C75.3815 84.7471 77.4374 86.803 79.9501 86.803L102.793 86.803C105.306 86.803 107.362 84.7471 107.362 82.2344L107.362 27.4115C107.362 24.8988 105.306 22.8429 102.793 22.8429Z" transform="matrix(1.05167 0 0 1 -44.5922 363.357)"/></g></g></g><text font-family="Times New Roman,Times New Roman_MSFontService,sans-serif" font-weight="400" font-size="24" transform="translate(946.804 154)">Node2</text><g clip-path="url(#clip4)"><g clip-path="url(#clip5)"><g clip-path="url(#clip6)"><path d="M63.9601 66.2444 9.13716 66.2444 9.13716 29.6958 63.9601 29.6958 63.9601 66.2444ZM66.2444 22.8429 6.85287 22.8429C4.34015 22.8429 2.28429 24.8988 2.28429 27.4115L2.28429 68.5287C2.28429 71.0414 4.34015 73.0973 6.85287 73.0973L29.6958 73.0973 29.6958 79.9501 19.4165 79.9501 19.4165 86.803 53.6808 86.803 53.6808 79.9501 43.4015 79.9501 43.4015 73.0973 66.2444 73.0973C68.7571 73.0973 70.813 71.0414 70.813 68.5287L70.813 27.4115C70.813 24.8988 68.7571 22.8429 66.2444 22.8429Z" transform="matrix(1.02602 0 0 1 885.252 37.3568)"/><path d="M102.793 34.2643 79.9501 34.2643 79.9501 27.4115 102.793 27.4115 102.793 34.2643ZM102.793 45.6858 79.9501 45.6858 79.9501 38.8329 102.793 38.8329 102.793 45.6858ZM91.3716 79.9501C89.4299 79.9501 87.9451 78.4653 87.9451 76.5237 87.9451 74.582 89.4299 73.0973 91.3716 73.0973 93.3132 73.0973 94.798 74.582 94.798 76.5237 94.798 78.4653 93.3132 79.9501 91.3716 79.9501ZM102.793 22.8429 79.9501 22.8429C77.4374 22.8429 75.3815 24.8988 75.3815 27.4115L75.3815 82.2344C75.3815 84.7471 77.4374 86.803 79.9501 86.803L102.793 86.803C105.306 86.803 107.362 84.7471 107.362 82.2344L107.362 27.4115C107.362 24.8988 105.306 22.8429 102.793 22.8429Z" transform="matrix(1.02602 0 0 1 885.252 37.3568)"/></g></g></g><path d="M1057 220.5C1057 202.551 1072 188 1090.5 188 1109 188 1124 202.551 1124 220.5 1124 238.449 1109 253 1090.5 253 1072 253 1057 238.449 1057 220.5Z" stroke="#000000" stroke-width="2" stroke-miterlimit="8" fill="#FFFFFF" fill-rule="evenodd"/><path d="M1056 307.5C1056 289.551 1070.77 275 1089 275 1107.23 275 1122 289.551 1122 307.5 1122 325.449 1107.23 340 1089 340 1070.77 340 1056 325.449 1056 307.5Z" stroke="#000000" stroke-width="2" stroke-miterlimit="8" fill="#BFBFBF" fill-rule="evenodd"/><text font-family="Times New Roman,Times New Roman_MSFontService,sans-serif" font-weight="400" font-size="37" transform="translate(1137.77 232)">Master</text><text font-family="Times New Roman,Times New Roman_MSFontService,sans-serif" font-weight="400" font-size="37" transform="translate(1139.99 319)">Mirror</text><text font-family="SimSun,SimSun_MSFontService,sans-serif" font-weight="700" font-size="37" transform="translate(1056.15 49)">分布式推送</text><path d="M78.64 277.855 89.3275 293.168 89.2986 293.127 100.424 308.252 100.358 308.168 112.421 322.856 112.34 322.764 118.903 329.826 118.845 329.767 125.845 336.704 125.768 336.632 133.205 343.257 133.135 343.197 141.072 349.634 140.976 349.561 149.539 355.686 149.447 355.624 158.697 361.499 158.593 361.438 168.531 366.938 168.427 366.884 179.115 372.009 179.019 371.966 190.581 376.779 190.468 376.735 202.905 381.048 202.815 381.019 216.19 384.956 216.094 384.931 230.344 388.368 230.28 388.354 245.405 391.479 245.341 391.467 261.216 394.217 261.159 394.208 277.721 396.583 277.682 396.577 294.932 398.702 294.89 398.698 312.702 400.51 312.669 400.507 331.044 402.07 331.02 402.068 349.895 403.443 349.873 403.441 369.123 404.629 369.092 404.627 408.654 406.44 408.63 406.439 449.13 407.814 449.12 407.813 486.1 408.886 485.984 412.884 449 411.812 408.483 410.436 368.893 408.622 349.616 407.433 330.718 406.056 312.314 404.491 294.464 402.675 277.173 400.545 260.562 398.163 244.627 395.403 229.438 392.264 215.108 388.808 201.64 384.843 189.1 380.495 177.433 375.639 166.645 370.466 156.604 364.908 147.256 358.971 138.6 352.779 130.579 346.274 123.067 339.583 116 332.579 109.368 325.442 97.233 310.666 86.0617 295.478 75.36 280.145ZM475.307 401.843 490.009 411 474.801 419.29C473.831 419.819 472.616 419.461 472.088 418.492 471.559 417.522 471.917 416.307 472.887 415.778L485.084 409.129 484.984 412.583 473.192 405.238C472.255 404.654 471.968 403.42 472.552 402.483 473.136 401.545 474.369 401.259 475.307 401.843Z" fill="#C00000"/><text fill="#C00000" font-family="SimSun,SimSun_MSFontService,sans-serif" font-weight="400" font-size="32" transform="matrix(0.996019 0.089144 -0.089144 0.996019 268.33 382)">通知</text><text fill="#C00000" font-family="Times New Roman,Times New Roman_MSFontService,sans-serif" font-weight="400" font-size="32" transform="matrix(0.996019 0.089144 -0.089144 0.996019 332.076 388)">mirror</text></g></svg>