<svg width="3790" height="1319" xmlns="http://www.w3.org/2000/svg" xmlns:xlink="http://www.w3.org/1999/xlink" overflow="hidden"><defs><clipPath id="clip0"><rect x="-89" y="525" width="3790" height="1319"/></clipPath></defs><g clip-path="url(#clip0)" transform="translate(89 -525)"><text font-family="SimSun,SimSun_MSFontService,sans-serif" font-weight="400" font-size="110" transform="matrix(1 0 0 1 607.485 672)">（拷贝原始数据）<tspan font-size="110" x="2000.12" y="-1">（重新连接）</tspan></text><path d="M1243.5 1030.5 1350.12 1493.69" stroke="#000000" stroke-width="6.875" stroke-miterlimit="8" fill="#FFFFFF" fill-rule="evenodd"/><path d="M1277.5 951.5 1647.32 1071.38" stroke="#000000" stroke-width="6.875" stroke-miterlimit="8" fill="#FFFFFF" fill-rule="evenodd"/><path d="M403.5 889.5C403.5 828.197 454.763 778.5 518 778.5 581.237 778.5 632.5 828.197 632.5 889.5 632.5 950.804 581.237 1000.5 518 1000.5 454.763 1000.5 403.5 950.804 403.5 889.5Z" stroke="#000000" stroke-width="6.875" stroke-miterlimit="8" fill="#FFFFFF" fill-rule="evenodd"/><path d="M548.5 993.5 632.632 1150" stroke="#000000" stroke-width="6.875" stroke-miterlimit="8" fill="#FFFFFF" fill-rule="evenodd"/><path d="M612.5 947.5 1268.65 1525.85" stroke="#000000" stroke-width="6.875" stroke-miterlimit="8" fill="#FFFFFF" fill-rule="evenodd"/><path d="M1646.5 1104.5C1646.5 1043.2 1697.76 993.5 1761 993.5 1824.24 993.5 1875.5 1043.2 1875.5 1104.5 1875.5 1165.8 1824.24 1215.5 1761 1215.5 1697.76 1215.5 1646.5 1165.8 1646.5 1104.5Z" stroke="#000000" stroke-width="6.875" stroke-miterlimit="8" fill="#FFFFFF" fill-rule="evenodd"/><path d="M0 0 877.911 156.13" stroke="#000000" stroke-width="6.875" stroke-miterlimit="8" fill="#FFFFFF" fill-rule="evenodd" transform="matrix(1 0 0 -1 768.5 1260.63)"/><path d="M0 0 311.916 124.444" stroke="#000000" stroke-width="6.875" stroke-miterlimit="8" fill="#FFFFFF" fill-rule="evenodd" transform="matrix(-1 0 0 1 1235.42 1604.5)"/><path d="M0 0 261.114 572.726" stroke="#000000" stroke-width="6.875" stroke-miterlimit="8" fill="#FFFFFF" fill-rule="evenodd" transform="matrix(-1 0 0 1 1116.61 1056.5)"/><path d="M1235.5 1605C1235.5 1543.42 1286.76 1493.5 1350 1493.5 1413.24 1493.5 1464.5 1543.42 1464.5 1605 1464.5 1666.58 1413.24 1716.5 1350 1716.5 1286.76 1716.5 1235.5 1666.58 1235.5 1605Z" stroke="#000000" stroke-width="6.875" stroke-miterlimit="8" fill="#FFFFFF" fill-rule="evenodd"/><path d="M694.5 1729C694.5 1667.42 745.763 1617.5 809 1617.5 872.237 1617.5 923.5 1667.42 923.5 1729 923.5 1790.58 872.237 1840.5 809 1840.5 745.763 1840.5 694.5 1790.58 694.5 1729Z" stroke="#000000" stroke-width="6.875" stroke-miterlimit="8" fill="#FFFFFF" fill-rule="evenodd"/><path d="M1047.5 951.5C1047.5 890.196 1098.99 840.5 1162.5 840.5 1226.01 840.5 1277.5 890.196 1277.5 951.5 1277.5 1012.8 1226.01 1062.5 1162.5 1062.5 1098.99 1062.5 1047.5 1012.8 1047.5 951.5Z" stroke="#000000" stroke-width="6.875" stroke-miterlimit="8" fill="#FFFFFF" fill-rule="evenodd"/><path d="M548.5 1258.5C548.5 1197.2 599.763 1147.5 663 1147.5 726.237 1147.5 777.5 1197.2 777.5 1258.5 777.5 1319.8 726.237 1369.5 663 1369.5 599.763 1369.5 548.5 1319.8 548.5 1258.5Z" stroke="#000000" stroke-width="6.875" stroke-miterlimit="8" fill="#FFFFFF" fill-rule="evenodd"/><text font-family="Times New Roman,Times New Roman_MSFontService,sans-serif" font-weight="400" font-size="128" transform="matrix(1 0 0 1 616.211 1305)">N</text><path d="M273.5 1526C273.5 1464.42 324.763 1414.5 388 1414.5 451.237 1414.5 502.5 1464.42 502.5 1526 502.5 1587.58 451.237 1637.5 388 1637.5 324.763 1637.5 273.5 1587.58 273.5 1526Z" stroke="#A6A6A6" stroke-width="6.875" stroke-miterlimit="8" stroke-dasharray="20.625 6.875" fill="#FFFFFF" fill-rule="evenodd"/><text fill="#A6A6A6" font-family="Times New Roman,Times New Roman_MSFontService,sans-serif" font-weight="400" font-size="128" transform="matrix(1 0 0 1 319.478 1573)">N’</text><path d="M0 0 84.3261 421.559" stroke="#A6A6A6" stroke-width="6.875" stroke-miterlimit="8" stroke-dasharray="20.625 6.875" fill="#FFFFFF" fill-rule="evenodd" transform="matrix(-1 0 0 1 471.826 993.5)"/><path d="M0 0 1144.46 421.559" stroke="#A6A6A6" stroke-width="6.875" stroke-miterlimit="8" stroke-dasharray="20.625 6.875" fill="#FFFFFF" fill-rule="evenodd" transform="matrix(1 0 0 -1 502.5 1526.06)"/><path d="M3065.5 1030.5 3172.12 1493.69" stroke="#000000" stroke-width="6.875" stroke-miterlimit="8" fill="#FFFFFF" fill-rule="evenodd"/><path d="M3098.5 951.5 3468.32 1071.38" stroke="#000000" stroke-width="6.875" stroke-miterlimit="8" fill="#FFFFFF" fill-rule="evenodd"/><path d="M2225.5 889.5C2225.5 828.197 2276.76 778.5 2340 778.5 2403.24 778.5 2454.5 828.197 2454.5 889.5 2454.5 950.804 2403.24 1000.5 2340 1000.5 2276.76 1000.5 2225.5 950.804 2225.5 889.5Z" stroke="#000000" stroke-width="6.875" stroke-miterlimit="8" fill="#FFFFFF" fill-rule="evenodd"/><path d="M2370.5 993.5 2454.63 1150" stroke="#A6A6A6" stroke-width="6.875" stroke-miterlimit="8" stroke-dasharray="20.625 6.875" fill="#FFFFFF" fill-rule="evenodd"/><path d="M2434.5 947.5 3090.65 1525.85" stroke="#000000" stroke-width="6.875" stroke-miterlimit="8" fill="#FFFFFF" fill-rule="evenodd"/><path d="M3468.5 1104.5C3468.5 1043.2 3519.76 993.5 3583 993.5 3646.24 993.5 3697.5 1043.2 3697.5 1104.5 3697.5 1165.8 3646.24 1215.5 3583 1215.5 3519.76 1215.5 3468.5 1165.8 3468.5 1104.5Z" stroke="#000000" stroke-width="6.875" stroke-miterlimit="8" fill="#FFFFFF" fill-rule="evenodd"/><path d="M0 0 877.911 156.13" stroke="#A6A6A6" stroke-width="6.875" stroke-miterlimit="8" stroke-dasharray="20.625 6.875" fill="#FFFFFF" fill-rule="evenodd" transform="matrix(1 0 0 -1 2590.5 1260.63)"/><path d="M0 0 311.916 124.444" stroke="#000000" stroke-width="6.875" stroke-miterlimit="8" fill="#FFFFFF" fill-rule="evenodd" transform="matrix(-1 0 0 1 3057.42 1604.5)"/><path d="M0 0 261.114 572.726" stroke="#000000" stroke-width="6.875" stroke-miterlimit="8" fill="#FFFFFF" fill-rule="evenodd" transform="matrix(-1 0 0 1 2937.61 1056.5)"/><path d="M3057.5 1605C3057.5 1543.42 3108.76 1493.5 3172 1493.5 3235.24 1493.5 3286.5 1543.42 3286.5 1605 3286.5 1666.58 3235.24 1716.5 3172 1716.5 3108.76 1716.5 3057.5 1666.58 3057.5 1605Z" stroke="#000000" stroke-width="6.875" stroke-miterlimit="8" fill="#FFFFFF" fill-rule="evenodd"/><path d="M2516.5 1729C2516.5 1667.42 2567.76 1617.5 2631 1617.5 2694.24 1617.5 2745.5 1667.42 2745.5 1729 2745.5 1790.58 2694.24 1840.5 2631 1840.5 2567.76 1840.5 2516.5 1790.58 2516.5 1729Z" stroke="#000000" stroke-width="6.875" stroke-miterlimit="8" fill="#FFFFFF" fill-rule="evenodd"/><path d="M2869.5 951.5C2869.5 890.196 2920.76 840.5 2984 840.5 3047.24 840.5 3098.5 890.196 3098.5 951.5 3098.5 1012.8 3047.24 1062.5 2984 1062.5 2920.76 1062.5 2869.5 1012.8 2869.5 951.5Z" stroke="#000000" stroke-width="6.875" stroke-miterlimit="8" fill="#FFFFFF" fill-rule="evenodd"/><path d="M2370.5 1258.5C2370.5 1197.2 2421.76 1147.5 2485 1147.5 2548.24 1147.5 2599.5 1197.2 2599.5 1258.5 2599.5 1319.8 2548.24 1369.5 2485 1369.5 2421.76 1369.5 2370.5 1319.8 2370.5 1258.5Z" stroke="#A6A6A6" stroke-width="6.875" stroke-miterlimit="8" stroke-dasharray="20.625 6.875" fill="#FFFFFF" fill-rule="evenodd"/><text fill="#A6A6A6" font-family="Times New Roman,Times New Roman_MSFontService,sans-serif" font-weight="400" font-size="128" transform="matrix(1 0 0 1 2437.93 1305)">N</text><path d="M2095.5 1526C2095.5 1464.42 2146.76 1414.5 2210 1414.5 2273.24 1414.5 2324.5 1464.42 2324.5 1526 2324.5 1587.58 2273.24 1637.5 2210 1637.5 2146.76 1637.5 2095.5 1587.58 2095.5 1526Z" stroke="#000000" stroke-width="6.875" stroke-miterlimit="8" fill="#FFFFFF" fill-rule="evenodd"/><text font-family="Times New Roman,Times New Roman_MSFontService,sans-serif" font-weight="400" font-size="128" transform="matrix(1 0 0 1 2141.2 1573)">N’</text><path d="M0 0 84.3261 421.559" stroke="#000000" stroke-width="6.875" stroke-miterlimit="8" fill="#FFFFFF" fill-rule="evenodd" transform="matrix(-1 0 0 1 2306.83 996.5)"/><path d="M0 0 1144.46 421.559" stroke="#000000" stroke-width="6.875" stroke-miterlimit="8" fill="#FFFFFF" fill-rule="evenodd" transform="matrix(1 0 0 -1 2326.5 1536.06)"/><path d="M352 1248.12 494.046 1248.13 494.046 1261.88 352 1261.88ZM487.171 1234.38 528.421 1255 487.171 1275.63Z" fill="#C00000"/><text fill="#C00000" font-family="Times New Roman,Times New Roman_MSFontService,sans-serif" font-style="italic" font-weight="700" font-size="110" transform="matrix(1 0 0 1 276.489 1274)">p</text><path d="M1885 1513.13 2027.05 1513.13 2027.05 1526.88 1885 1526.88ZM2020.17 1499.38 2061.42 1520 2020.17 1540.63Z" fill="#C00000"/><text fill="#C00000" font-family="Times New Roman,Times New Roman_MSFontService,sans-serif" font-style="italic" font-weight="700" font-size="110" transform="matrix(1 0 0 1 1809.77 1540)">p</text><path d="M73.9999 1515.13 216.046 1515.13 216.046 1528.88 73.9999 1528.88ZM209.171 1501.38 250.421 1522 209.171 1542.63Z" fill="#C00000"/><text fill="#C00000" font-family="Times New Roman,Times New Roman_MSFontService,sans-serif" font-style="italic" font-weight="700" font-size="110" transform="matrix(1 0 0 1 -20.0865 1542)">p’</text></g></svg>