<svg width="829" height="691" xmlns="http://www.w3.org/2000/svg" xmlns:xlink="http://www.w3.org/1999/xlink" overflow="hidden"><defs><clipPath id="clip0"><rect x="439" y="19" width="829" height="691"/></clipPath></defs><g clip-path="url(#clip0)" transform="translate(-439 -19)"><path d="M439 21.3457C439 20.0502 440.05 19 441.346 19L701.654 19C702.95 19 704 20.0502 704 21.3457L704 97.6543C704 98.9498 702.95 100 701.654 100L441.346 100C440.05 100 439 98.9498 439 97.6543Z" fill="#92CEF3" fill-rule="evenodd"/><text font-family="SimSun,SimSun_MSFontService,sans-serif" font-weight="400" font-size="32" transform="translate(519.217 71)">客户端</text><path d="M722 21.3457C722 20.0502 723.05 19 724.346 19L984.654 19C985.95 19 987 20.0502 987 21.3457L987 97.6543C987 98.9498 985.95 100 984.654 100L724.346 100C723.05 100 722 98.9498 722 97.6543Z" fill="#92CEF3" fill-rule="evenodd"/><text font-family="SimSun,SimSun_MSFontService,sans-serif" font-weight="400" font-size="32" transform="translate(774.493 71)">可视化平台</text><path d="M1010 21.3459C1010 20.0503 1011.05 19 1012.35 19L1262.65 19C1263.95 19 1265 20.0503 1265 21.3459L1265 97.6541C1265 98.9497 1263.95 100 1262.65 100L1012.35 100C1011.05 100 1010 98.9497 1010 97.6541Z" fill="#D9D9D9" fill-rule="evenodd"/><text font-family="SimSun,SimSun_MSFontService,sans-serif" font-weight="400" font-size="32" transform="translate(1073.45 72)">生态工具</text><path d="M439 119.281C439 115.26 442.26 112 446.281 112L1257.72 112C1261.74 112 1265 115.26 1265 119.281L1265 407.719C1265 411.74 1261.74 415 1257.72 415L446.281 415C442.26 415 439 411.74 439 407.719Z" fill="#92CEF3" fill-rule="evenodd"/><text font-family="SimSun,SimSun_MSFontService,sans-serif" font-weight="400" font-size="32" transform="translate(804.36 148)">计算层</text><path d="M455 167.682C455 166.753 455.753 166 456.682 166L704.318 166C705.247 166 706 166.753 706 167.682L706 234.318C706 235.247 705.247 236 704.318 236L456.682 236C455.753 236 455 235.247 455 234.318Z" fill="#5AA6D8" fill-rule="evenodd"/><text font-family="SimSun,SimSun_MSFontService,sans-serif" font-weight="400" font-size="32" transform="translate(500.894 212)">图查询引擎</text><path d="M741 167.682C741 166.753 741.753 166 742.682 166L987.318 166C988.247 166 989 166.753 989 167.682L989 234.318C989 235.247 988.247 236 987.318 236L742.682 236C741.753 236 741 235.247 741 234.318Z" fill="#5AA6D8" fill-rule="evenodd"/><text font-family="SimSun,SimSun_MSFontService,sans-serif" font-weight="400" font-size="32" transform="translate(784.808 212)">图分析引擎</text><path d="M1023 167.682C1023 166.753 1023.75 166 1024.68 166L1245.32 166C1246.25 166 1247 166.753 1247 167.682L1247 234.318C1247 235.247 1246.25 236 1245.32 236L1024.68 236C1023.75 236 1023 235.247 1023 234.318Z" fill="#5AA6D8" fill-rule="evenodd"/><text font-family="SimSun,SimSun_MSFontService,sans-serif" font-weight="400" font-size="32" transform="translate(1055.21 212)">图学习引擎</text><path d="M455 251.658C455 250.742 455.742 250 456.658 250L703.342 250C704.258 250 705 250.742 705 251.658L705 317.342C705 318.258 704.258 319 703.342 319L456.658 319C455.742 319 455 318.258 455 317.342Z" fill="#E2F0D9" fill-rule="evenodd"/><text font-family="Times New Roman,Times New Roman_MSFontService,sans-serif" font-weight="400" font-size="32" transform="translate(533.277 296)">Cypher</text><path d="M456 328.658C456 327.742 456.742 327 457.658 327L568.342 327C569.258 327 570 327.742 570 328.658L570 394.342C570 395.258 569.258 396 568.342 396L457.658 396C456.742 396 456 395.258 456 394.342Z" fill="#E2F0D9" fill-rule="evenodd"/><text font-family="Times New Roman,Times New Roman_MSFontService,sans-serif" font-weight="400" font-size="32" transform="translate(487.327 373)">ISO</text><path d="M583 327.682C583 326.753 583.753 326 584.682 326L702.318 326C703.247 326 704 326.753 704 327.682L704 394.318C704 395.247 703.247 396 702.318 396L584.682 396C583.753 396 583 395.247 583 394.318Z" fill="#E2F0D9" fill-rule="evenodd"/><text font-family="Times New Roman,Times New Roman_MSFontService,sans-serif" font-weight="400" font-size="32" transform="translate(610.567 373)">GQL</text><path d="M744 255.46C744 253.549 745.549 252 747.46 252L888.54 252C890.451 252 892 253.549 892 255.46L892 392.54C892 394.451 890.451 396 888.54 396L747.46 396C745.549 396 744 394.451 744 392.54Z" fill="#E2F0D9" fill-rule="evenodd"/><text font-family="SimSun,SimSun_MSFontService,sans-serif" font-weight="400" font-size="32" transform="translate(786.051 317)">存储</text><text font-family="SimSun,SimSun_MSFontService,sans-serif" font-weight="400" font-size="32" transform="translate(786.051 356)">过程</text><path d="M1095 255.46C1095 253.549 1096.55 252 1098.46 252L1238.54 252C1240.45 252 1242 253.549 1242 255.46L1242 392.54C1242 394.451 1240.45 396 1238.54 396L1098.46 396C1096.55 396 1095 394.451 1095 392.54Z" fill="#E2F0D9" fill-rule="evenodd"/><text font-family="SimSun,SimSun_MSFontService,sans-serif" font-weight="400" font-size="32" transform="translate(1120.47 336)">图采样</text><path d="M919 255.46C919 253.549 920.549 252 922.46 252L1063.54 252C1065.45 252 1067 253.549 1067 255.46L1067 392.54C1067 394.451 1065.45 396 1063.54 396L922.46 396C920.549 396 919 394.451 919 392.54Z" fill="#E2F0D9" fill-rule="evenodd"/><text font-family="SimSun,SimSun_MSFontService,sans-serif" font-weight="400" font-size="32" transform="translate(945.35 319)">图计算</text><text font-family="SimSun,SimSun_MSFontService,sans-serif" font-weight="400" font-size="32" transform="translate(961.35 356)">框架</text><path d="M442 428.316C442 426.484 443.484 425 445.316 425L1263.68 425C1265.52 425 1267 426.484 1267 428.316L1267 559.684C1267 561.516 1265.52 563 1263.68 563L445.316 563C443.484 563 442 561.516 442 559.684Z" fill="#92CEF3" fill-rule="evenodd"/><text font-family="SimSun,SimSun_MSFontService,sans-serif" font-weight="400" font-size="32" transform="translate(790.493 458)">图存储</text><text font-family="SimSun,SimSun_MSFontService,sans-serif" font-weight="400" font-size="32" transform="translate(886.493 458)">层</text><path d="M463 476.682C463 475.753 463.753 475 464.682 475L597.318 475C598.247 475 599 475.753 599 476.682L599 543.318C599 544.247 598.247 545 597.318 545L464.682 545C463.753 545 463 544.247 463 543.318Z" fill="#E2F0D9" fill-rule="evenodd"/><text font-family="Times New Roman,Times New Roman_MSFontService,sans-serif" font-weight="400" font-size="32" transform="translate(491.985 522)">ACI</text><text font-family="Times New Roman,Times New Roman_MSFontService,sans-serif" font-weight="400" font-size="32" transform="translate(547.152 522)">D</text><path d="M624 476.682C624 475.753 624.753 475 625.682 475L816.318 475C817.247 475 818 475.753 818 476.682L818 543.318C818 544.247 817.247 545 816.318 545L625.682 545C624.753 545 624 544.247 624 543.318Z" fill="#E2F0D9" fill-rule="evenodd"/><text font-family="SimSun,SimSun_MSFontService,sans-serif" font-weight="400" font-size="32" transform="translate(689.206 522)">索引</text><path d="M844 476.658C844 475.742 844.742 475 845.658 475L1036.34 475C1037.26 475 1038 475.742 1038 476.658L1038 542.342C1038 543.258 1037.26 544 1036.34 544L845.658 544C844.742 544 844 543.258 844 542.342Z" fill="#E2F0D9" fill-rule="evenodd"/><text font-family="SimSun,SimSun_MSFontService,sans-serif" font-weight="400" font-size="32" transform="translate(861.061 521)">属性图模型</text><path d="M1066 476.658C1066 475.742 1066.74 475 1067.66 475L1245.34 475C1246.26 475 1247 475.742 1247 476.658L1247 542.342C1247 543.258 1246.26 544 1245.34 544L1067.66 544C1066.74 544 1066 543.258 1066 542.342Z" fill="#E2F0D9" fill-rule="evenodd"/><text font-family="SimSun,SimSun_MSFontService,sans-serif" font-weight="400" font-size="32" transform="translate(1092.81 521)">高可用性</text><path d="M439 575.292C439 573.474 440.474 572 442.292 572L1261.71 572C1263.53 572 1265 573.474 1265 575.292L1265 705.708C1265 707.526 1263.53 709 1261.71 709L442.292 709C440.474 709 439 707.526 439 705.708Z" fill="#92CEF3" fill-rule="evenodd"/><text font-family="SimSun,SimSun_MSFontService,sans-serif" font-weight="400" font-size="32" transform="translate(772.36 607)">键值存储层</text><path d="M498 623.658C498 622.742 498.742 622 499.658 622L833.342 622C834.258 622 835 622.742 835 623.658L835 689.342C835 690.258 834.258 691 833.342 691L499.658 691C498.742 691 498 690.258 498 689.342Z" fill="#E2F0D9" fill-rule="evenodd"/><text font-family="SimSun,SimSun_MSFontService,sans-serif" font-weight="400" font-size="32" transform="translate(582.893 668)">多版本</text><text font-family="Times New Roman,Times New Roman_MSFontService,sans-serif" font-weight="400" font-size="32" transform="translate(678.893 668)">B+</text><text font-family="SimSun,SimSun_MSFontService,sans-serif" font-weight="400" font-size="32" transform="translate(718.227 668)">树</text><path d="M865 622.682C865 621.753 865.753 621 866.682 621L1212.32 621C1213.25 621 1214 621.753 1214 622.682L1214 689.318C1214 690.247 1213.25 691 1212.32 691L866.682 691C865.753 691 865 690.247 865 689.318Z" fill="#E2F0D9" fill-rule="evenodd"/><text font-family="SimSun,SimSun_MSFontService,sans-serif" font-weight="400" font-size="32" transform="translate(975.789 668)">预写日志</text></g></svg>