<svg width="3621" height="675" xmlns="http://www.w3.org/2000/svg" xmlns:xlink="http://www.w3.org/1999/xlink" overflow="hidden"><defs><clipPath id="clip0"><rect x="247" y="725" width="3621" height="675"/></clipPath></defs><g clip-path="url(#clip0)" transform="translate(-247 -725)"><rect x="248.5" y="1065.5" width="325" height="133" stroke="#000000" stroke-width="3.4375" stroke-linejoin="round" stroke-miterlimit="10" stroke-dasharray="13.75 10.3125" fill="#D9D9D9"/><text font-family="SimSun,SimSun_MSFontService,sans-serif" font-weight="400" font-size="83" transform="matrix(1 0 0 1 327.555 1163)">边<tspan font-size="83" x="82.5" y="0">号</tspan></text><path d="M573 1125.12 703.625 1125.13 703.625 1138.88 573 1138.88ZM696.75 1111.38 738 1132 696.75 1152.63Z"/><rect x="738.5" y="865.5" width="653" height="533" stroke="#000000" stroke-width="3.4375" stroke-linejoin="round" stroke-miterlimit="10" stroke-dasharray="13.75 10.3125" fill="#F2F2F2"/><path d="M1173.5 1090.5C1173.5 1082.22 1180.22 1075.5 1188.5 1075.5L1296.5 1075.5C1304.78 1075.5 1311.5 1082.22 1311.5 1090.5L1311.5 1150.5C1311.5 1158.78 1304.78 1165.5 1296.5 1165.5L1188.5 1165.5C1180.22 1165.5 1173.5 1158.78 1173.5 1150.5Z" stroke="#2F528F" stroke-width="4.58333" stroke-miterlimit="8" fill="#BDD7EE" fill-rule="evenodd"/><path d="M867.5 1089.33C867.5 1081.14 874.141 1074.5 882.334 1074.5L990.666 1074.5C998.859 1074.5 1005.5 1081.14 1005.5 1089.33L1005.5 1148.67C1005.5 1156.86 998.859 1163.5 990.666 1163.5L882.334 1163.5C874.141 1163.5 867.5 1156.86 867.5 1148.67Z" stroke="#2F528F" stroke-width="4.58333" stroke-miterlimit="8" fill="#BDD7EE" fill-rule="evenodd"/><path d="M771.5 1266.5C771.5 1258.22 778.216 1251.5 786.5 1251.5L852.5 1251.5C860.784 1251.5 867.5 1258.22 867.5 1266.5L867.5 1326.5C867.5 1334.78 860.784 1341.5 852.5 1341.5L786.5 1341.5C778.216 1341.5 771.5 1334.78 771.5 1326.5Z" stroke="#2F528F" stroke-width="4.58333" stroke-miterlimit="8" fill="#C5E0B4" fill-rule="evenodd"/><path d="M881.5 1266.5C881.5 1258.22 888.216 1251.5 896.5 1251.5L962.5 1251.5C970.784 1251.5 977.5 1258.22 977.5 1266.5L977.5 1326.5C977.5 1334.78 970.784 1341.5 962.5 1341.5L896.5 1341.5C888.216 1341.5 881.5 1334.78 881.5 1326.5Z" stroke="#2F528F" stroke-width="4.58333" stroke-miterlimit="8" fill="#C5E0B4" fill-rule="evenodd"/><path d="M991.5 1266.5C991.5 1258.22 998.216 1251.5 1006.5 1251.5L1072.5 1251.5C1080.78 1251.5 1087.5 1258.22 1087.5 1266.5L1087.5 1326.5C1087.5 1334.78 1080.78 1341.5 1072.5 1341.5L1006.5 1341.5C998.216 1341.5 991.5 1334.78 991.5 1326.5Z" stroke="#2F528F" stroke-width="4.58333" stroke-miterlimit="8" fill="#C5E0B4" fill-rule="evenodd"/><path d="M1139.5 1267.5C1139.5 1259.22 1146.22 1252.5 1154.5 1252.5L1220.5 1252.5C1228.78 1252.5 1235.5 1259.22 1235.5 1267.5L1235.5 1327.5C1235.5 1335.78 1228.78 1342.5 1220.5 1342.5L1154.5 1342.5C1146.22 1342.5 1139.5 1335.78 1139.5 1327.5Z" stroke="#2F528F" stroke-width="4.58333" stroke-miterlimit="8" fill="#C5E0B4" fill-rule="evenodd"/><path d="M1249.5 1268.33C1249.5 1260.14 1256.14 1253.5 1264.33 1253.5L1330.67 1253.5C1338.86 1253.5 1345.5 1260.14 1345.5 1268.33L1345.5 1327.67C1345.5 1335.86 1338.86 1342.5 1330.67 1342.5L1264.33 1342.5C1256.14 1342.5 1249.5 1335.86 1249.5 1327.67Z" stroke="#2F528F" stroke-width="4.58333" stroke-miterlimit="8" fill="#C5E0B4" fill-rule="evenodd"/><path d="M2.08029-4.71798 133.178 53.0867 129.017 62.5226-2.08029 4.71798ZM132.621 41.5705 154.688 68.2061 120.139 69.8783Z" fill="#595959" transform="matrix(-1 0 0 1 1090.69 1005)"/><path d="M1089.04 1000.27 1223.49 1058.26 1219.41 1067.73 1084.96 1009.73ZM1222.84 1046.75 1245.12 1073.21 1210.59 1075.16Z" fill="#595959"/><path d="M1022.5 931.333C1022.5 923.141 1029.14 916.5 1037.33 916.5L1144.67 916.5C1152.86 916.5 1159.5 923.141 1159.5 931.333L1159.5 990.666C1159.5 998.859 1152.86 1005.5 1144.67 1005.5L1037.33 1005.5C1029.14 1005.5 1022.5 998.859 1022.5 990.666Z" stroke="#2F528F" stroke-width="4.58333" stroke-miterlimit="8" fill="#BDD7EE" fill-rule="evenodd"/><path d="M3.11162-4.11154 99.4289 68.7815 93.2057 77.0046-3.11162 4.11154ZM101.541 57.4468 116.875 88.4511 82.8709 82.116Z" fill="#595959" transform="matrix(-1 0 0 1 935.875 1163)"/><path d="M5.14069-0.400314 10.0141 62.1824-0.267259 62.9831-5.14069 0.400314ZM19.8952 56.2411 6.875 88.2862-10.9489 58.643Z" fill="#595959" transform="matrix(-1 0 0 1 935.875 1163)"/><path d="M939.357 1159.09 1022.91 1230.75 1016.2 1238.58 932.643 1166.91ZM1025.71 1219.57 1039.12 1251.45 1005.57 1243.05Z" fill="#595959"/><path d="M4.36818-2.7397 45.6697 63.1116 36.9333 68.591-4.36818 2.7397ZM51.6664 53.264 55 87.6922 25.4573 69.7022Z" fill="#595959" transform="matrix(-1 0 0 1 1242 1165)"/><path d="M1246.37 1162.26 1287.69 1228.27 1278.95 1233.74 1237.63 1167.74ZM1293.7 1218.43 1297 1252.86 1267.47 1234.84Z" fill="#595959"/><text font-family="Times New Roman,Times New Roman_MSFontService,sans-serif" font-weight="400" font-size="83" transform="matrix(1 0 0 1 975.424 836)">B+<tspan font-family="SimSun,SimSun_MSFontService,sans-serif" font-size="83" x="101.406" y="0">树</tspan></text><path d="M1391 1124.12 1512 1124.13 1512 1137.88 1391 1137.87ZM1505.13 1110.38 1546.38 1131 1505.13 1151.63Z"/><rect x="1546.5" y="1065.5" width="325" height="133" stroke="#000000" stroke-width="3.4375" stroke-linejoin="round" stroke-miterlimit="10" stroke-dasharray="13.75 10.3125" fill="#D9D9D9"/><text font-family="SimSun,SimSun_MSFontService,sans-serif" font-weight="400" font-size="83" transform="matrix(1 0 0 1 1584.92 1163)">顶点号</text><path d="M0.00361296-6.875 374.92-6.67797 374.913 7.07203-0.00361296 6.875ZM368.053-20.4316 409.292 0.215092 368.031 20.8184Z" transform="matrix(1 0 0 -1 1871 1131.21)"/><text font-family="SimSun,SimSun_MSFontService,sans-serif" font-weight="400" font-size="83" transform="matrix(1 0 0 1 1910.64 1085)">位图指针</text><rect x="2283.5" y="865.5" width="1061" height="532" stroke="#000000" stroke-width="3.4375" stroke-linejoin="round" stroke-miterlimit="10" stroke-dasharray="13.75 10.3125" fill="#F2F2F2"/><text font-family="Cascadia Code,Cascadia Code_MSFontService,sans-serif" font-weight="400" font-size="83" transform="matrix(1 0 0 1 2333.41 1078)">00001010101011110100</text><path d="M2795 1105C2795 1113.84 2794.4 1121 2793.67 1121L2352.33 1121C2351.6 1121 2351 1113.84 2351 1105" stroke="#4472C4" stroke-width="10.3125" stroke-miterlimit="8" fill="none" fill-rule="evenodd"/><path d="M3279 1104C3279 1113.39 3278.37 1121 3277.58 1121L2836.42 1121C2835.63 1121 2835 1113.39 2835 1104" stroke="#4472C4" stroke-width="10.3125" stroke-miterlimit="8" fill="none" fill-rule="evenodd"/><text fill="#2F5597" font-family="SimSun,SimSun_MSFontService,sans-serif" font-weight="400" font-size="83" transform="matrix(1 0 0 1 2366.68 1269)">出边的位图</text><path d="M1.14583-8.24661e-06 1.14603 27.2279-1.14564 27.2279-1.14583 8.24661e-06ZM13.7502 22.6445 0.000360892 50.1446-13.7498 22.6447Z" fill="#4472C4" transform="matrix(-1 0 0 1 2573 1121)"/><path d="M3058.15 1121 3058.15 1148.36 3055.85 1148.36 3055.85 1121ZM3070.75 1143.78 3057 1171.28 3043.25 1143.78Z" fill="#4472C4"/><text fill="#2F5597" font-family="SimSun,SimSun_MSFontService,sans-serif" font-weight="400" font-size="83" transform="matrix(1 0 0 1 2850.87 1269)">入<tspan font-size="83" x="82.5" y="0">边的位图</tspan></text><rect x="3540.5" y="1065.5" width="326" height="133" stroke="#000000" stroke-width="3.4375" stroke-linejoin="round" stroke-miterlimit="10" stroke-dasharray="13.75 10.3125" fill="#D9D9D9"/><text font-family="SimSun,SimSun_MSFontService,sans-serif" font-weight="400" font-size="83" transform="matrix(1 0 0 1 3620.45 1163)">边<tspan font-size="83" x="82.5" y="0">号</tspan></text><path d="M3344.02 1124.12 3505.66 1124.66 3505.62 1138.41 3343.98 1137.87ZM3498.83 1110.88 3540.02 1131.65 3498.7 1152.13Z"/></g></svg>