<svg width="1194" height="565" xmlns="http://www.w3.org/2000/svg" xmlns:xlink="http://www.w3.org/1999/xlink" overflow="hidden"><defs><clipPath id="clip0"><rect x="43" y="138" width="1194" height="565"/></clipPath></defs><g clip-path="url(#clip0)" transform="translate(-43 -138)"><path d="M789 195 789 699.66" stroke="#D9D9D9" stroke-width="4" stroke-miterlimit="8" stroke-dasharray="4 4" fill="none" fill-rule="evenodd"/><path d="M1011 292 1048.39 292 1048.39 296 1011 296ZM1046.39 288 1058.39 294 1046.39 300Z"/><path d="M1011 448 1048.39 448 1048.39 452 1011 452ZM1046.39 444 1058.39 450 1046.39 456Z"/><path d="M1011 294 1011 449.733" stroke="#000000" stroke-width="4" stroke-miterlimit="8" fill="none" fill-rule="evenodd"/><path d="M983 373 1011.15 373" stroke="#000000" stroke-width="4" stroke-miterlimit="8" fill="none" fill-rule="evenodd"/><rect x="149" y="345" width="112" height="55" stroke="#BF9000" stroke-width="2" stroke-miterlimit="8" fill="#E1C972"/><text font-family="SimSun,SimSun_MSFontService,sans-serif" font-weight="400" font-size="24" transform="translate(169.328 383)">解析器</text><path d="M54 370 138.785 370 138.785 374 54 374ZM136.785 366 148.785 372 136.785 378Z"/><text font-family="SimSun,SimSun_MSFontService,sans-serif" font-weight="400" font-size="24" transform="translate(77.8006 359)">查询</text><path d="M261 370 345.785 370 345.785 374 261 374ZM343.785 366 355.785 372 343.785 378Z"/><text font-family="Times New Roman,Times New Roman_MSFontService,sans-serif" font-weight="400" font-size="24" transform="translate(284.842 357)">GST</text><rect x="356" y="344" width="123" height="56" stroke="#BF9000" stroke-width="2" stroke-miterlimit="8" fill="#E1C972"/><text font-family="SimSun,SimSun_MSFontService,sans-serif" font-weight="400" font-size="24" transform="translate(369.768 382)">计划生成</text><path d="M480 370 598.041 370 598.041 374 480 374ZM596.041 366 608.041 372 596.041 378Z"/><text font-family="SimSun,SimSun_MSFontService,sans-serif" font-weight="400" font-size="24" transform="translate(492.535 357)">逻辑计划</text><rect x="608" y="344" width="123" height="56" stroke="#BF9000" stroke-width="2" stroke-miterlimit="8" fill="#E1C972"/><text font-family="SimSun,SimSun_MSFontService,sans-serif" font-weight="400" font-size="24" transform="translate(633.651 382)">优化器</text><path d="M732 370 850.041 370 850.041 374 732 374ZM848.041 366 860.041 372 848.041 378Z"/><text font-family="SimSun,SimSun_MSFontService,sans-serif" font-weight="400" font-size="24" transform="translate(744.417 357)">逻辑计划</text><rect x="860" y="344" width="123" height="56" stroke="#BF9000" stroke-width="2" stroke-miterlimit="8" fill="#E1C972"/><text font-family="SimSun,SimSun_MSFontService,sans-serif" font-weight="400" font-size="24" transform="translate(897.532 368)">物理</text><text font-family="SimSun,SimSun_MSFontService,sans-serif" font-weight="400" font-size="24" transform="translate(873.532 397)">计划生成</text><rect x="1060" y="266" width="130" height="56" stroke="#BF9000" stroke-width="2" stroke-miterlimit="8" fill="#E1C972"/><text font-family="SimSun,SimSun_MSFontService,sans-serif" font-weight="400" font-size="24" transform="translate(1071 303)">物理计划</text><text font-family="Times New Roman,Times New Roman_MSFontService,sans-serif" font-weight="400" font-size="24" transform="translate(1167 303)">1</text><rect x="1060" y="422" width="130" height="55" stroke="#BF9000" stroke-width="2" stroke-miterlimit="8" fill="#E1C972"/><text font-family="SimSun,SimSun_MSFontService,sans-serif" font-weight="400" font-size="24" transform="translate(1071 458)">物理计划</text><text font-family="Times New Roman,Times New Roman_MSFontService,sans-serif" font-weight="400" font-size="24" transform="translate(1167 458)">n</text><text font-family="Times New Roman,Times New Roman_MSFontService,sans-serif" font-weight="700" font-size="32" transform="translate(1093 372)">……</text><path d="M1220 294 1220 574.952" stroke="#000000" stroke-width="4" stroke-miterlimit="8" fill="none" fill-rule="evenodd"/><path d="M1190 294 1218.15 294" stroke="#000000" stroke-width="4" stroke-miterlimit="8" fill="none" fill-rule="evenodd"/><path d="M1190 450 1218.15 450" stroke="#000000" stroke-width="4" stroke-miterlimit="8" fill="none" fill-rule="evenodd"/><path d="M4.36574e-06-2 38.0959-1.99992 38.0958 2.00008-4.36574e-06 2ZM36.0959-5.99992 48.0959 0.000104987 36.0958 6.00008Z" transform="matrix(-1 0 0 1 1220.1 575)"/><path d="M1022 575 1097 525 1172 575 1097 625Z" stroke="#BF9000" stroke-width="2" stroke-miterlimit="8" fill="#EECDB4" fill-rule="evenodd"/><text font-family="SimSun,SimSun_MSFontService,sans-serif" font-weight="400" font-size="24" transform="translate(1073.39 569)">代价</text><text font-family="SimSun,SimSun_MSFontService,sans-serif" font-weight="400" font-size="24" transform="translate(1073.39 598)">模型</text><path d="M4.79072e-06-2 33.8293-1.99992 33.8293 2.00008-4.79072e-06 2ZM31.8293-5.99992 43.8293 0.000104987 31.8293 6.00008Z" transform="matrix(-1 0 0 1 1022.83 575)"/><rect x="848" y="547" width="131" height="56" stroke="#BF9000" stroke-width="2" stroke-miterlimit="8" fill="#E1C972"/><text font-family="SimSun,SimSun_MSFontService,sans-serif" font-weight="400" font-size="24" transform="translate(865.167 584)">计划执行</text><path d="M44 142.593C44 141.713 44.7131 141 45.5928 141L787.407 141C788.287 141 789 141.713 789 142.593L789 194.407C789 195.287 788.287 196 787.407 196L45.5928 196C44.7131 196 44 195.287 44 194.407Z" fill="#D8EAE4" fill-rule="evenodd"/><text font-family="Times New Roman,Times New Roman_MSFontService,sans-serif" font-weight="400" font-size="32" transform="translate(378.94 181)">GeaX</text><path d="M789 142.593C789 141.713 789.713 141 790.593 141L1234.41 141C1235.29 141 1236 141.713 1236 142.593L1236 194.407C1236 195.287 1235.29 196 1234.41 196L790.593 196C789.713 196 789 195.287 789 194.407Z" fill="#BDD7EE" fill-rule="evenodd"/><text font-family="SimSun,SimSun_MSFontService,sans-serif" font-weight="400" font-size="32" transform="translate(900.526 181)">图数据处理系统</text><path d="M848 662.16C848 651.578 856.578 643 867.16 643L959.84 643C970.422 643 979 651.578 979 662.16L979 670.84C979 681.422 970.422 690 959.84 690L867.16 690C856.578 690 848 681.422 848 670.84Z" stroke="#BF9000" stroke-width="2" stroke-miterlimit="8" fill="#F6EFD5" fill-rule="evenodd"/><text font-family="SimSun,SimSun_MSFontService,sans-serif" font-weight="400" font-size="24" transform="translate(877.457 675)">元</text><text font-family="SimSun,SimSun_MSFontService,sans-serif" font-weight="400" font-size="24" transform="translate(901.457 675)">数据</text><path d="M416 445.392 416 408 420 408 420 445.392ZM412 410 418 398 424 410Z"/><path d="M668 445.392 668 408 672 408 672 445.392ZM664 410 670 398 676 410Z"/><path d="M418 445 669.776 445" stroke="#000000" stroke-width="4" stroke-miterlimit="8" fill="none" fill-rule="evenodd"/><path d="M546 473.155 546 445" stroke="#000000" stroke-width="4" stroke-miterlimit="8" fill="none" fill-rule="evenodd"/><path d="M480 507.243C480 488.331 495.331 473 514.243 473L576.757 473C595.669 473 611 488.331 611 507.243L611 522.757C611 541.669 595.669 557 576.757 557L514.243 557C495.331 557 480 541.669 480 522.757Z" stroke="#BF9000" stroke-width="2" stroke-miterlimit="8" fill="#F6EFD5" fill-rule="evenodd"/><text font-family="SimSun,SimSun_MSFontService,sans-serif" font-weight="400" font-size="24" transform="translate(509.493 511)">元数据</text><text font-family="SimSun,SimSun_MSFontService,sans-serif" font-weight="400" font-size="24" transform="translate(509.493 538)">适配器</text><path d="M0 0 302.106 0.000104987" stroke="#000000" stroke-width="4" stroke-miterlimit="8" fill="none" fill-rule="evenodd" transform="matrix(-1 0 0 1 848.106 667)"/><path d="M2-1.90719e-06 2.0001 100.096-1.9999 100.096-2 1.90719e-06ZM6.00009 98.0959 0.000104987 110.096-5.99991 98.096Z" transform="matrix(1 0 0 -1 545 667.096)"/></g></svg>