<svg width="3450" height="1691" xmlns="http://www.w3.org/2000/svg" xmlns:xlink="http://www.w3.org/1999/xlink" overflow="hidden"><defs><clipPath id="clip0"><rect x="530" y="158" width="3450" height="1691"/></clipPath></defs><g clip-path="url(#clip0)" transform="translate(-530 -158)"><path d="M2708.5 744.5C2708.5 651.716 2854.01 576.5 3033.5 576.5 3212.99 576.5 3358.5 651.716 3358.5 744.5 3358.5 837.284 3212.99 912.5 3033.5 912.5 2854.01 912.5 2708.5 837.284 2708.5 744.5Z" stroke="#000000" stroke-width="6.875" stroke-miterlimit="8" fill="#E2F0D9" fill-rule="evenodd"/><text font-family="Times New Roman,Times New Roman_MSFontService,sans-serif" font-weight="400" font-size="128" transform="matrix(1 0 0 1 2919.52 791)">Jack</text><path d="M4.98096-4.73874 242.87 245.31 232.908 254.787-4.98096 4.73874ZM248.093 230.851 261.582 274.953 218.207 259.284Z" transform="matrix(1 0 0 -1 3263 624.953)"/><text font-family="SimSun,SimSun_MSFontService,sans-serif" font-weight="400" font-size="92" transform="matrix(0.688455 -0.725279 0.725279 0.688455 3377.62 668)">名字是</text><text font-family="Times New Roman,Times New Roman_MSFontService,sans-serif" font-weight="400" font-size="128" transform="matrix(1 0 0 1 3516.5 323)">“Jack”</text><path d="M2799.56 631.328 2475.37 426.19 2482.72 414.571 2806.91 619.709ZM2473.83 441.486 2450 402 2495.89 406.628Z"/><text font-family="SimSun,SimSun_MSFontService,sans-serif" font-weight="400" font-size="92" transform="matrix(0.841566 0.540154 -0.540154 0.841566 2453.98 530)">年龄是</text><text font-family="Times New Roman,Times New Roman_MSFontService,sans-serif" font-weight="400" font-size="128" transform="matrix(1 0 0 1 2226.02 393)">“23”</text><path d="M3039.88 912 3039.88 1103.31 3026.13 1103.31 3026.12 912ZM3053.63 1096.44 3033 1137.69 3012.38 1096.44Z"/><text font-family="SimSun,SimSun_MSFontService,sans-serif" font-weight="400" font-size="92" transform="matrix(1 0 0 1 3066.24 1042)">借阅</text><path d="M2708.5 1308C2708.5 1214.94 2854.01 1139.5 3033.5 1139.5 3212.99 1139.5 3358.5 1214.94 3358.5 1308 3358.5 1401.06 3212.99 1476.5 3033.5 1476.5 2854.01 1476.5 2708.5 1401.06 2708.5 1308Z" stroke="#000000" stroke-width="6.875" stroke-miterlimit="8" fill="#E2F0D9" fill-rule="evenodd"/><text font-family="SimSun,SimSun_MSFontService,sans-serif" font-weight="400" font-size="78" transform="matrix(1 0 0 1 2838.43 1294)">数据库系统<tspan font-size="78" x="116.875" y="90">概念</tspan><tspan font-size="92" x="-443.148" y="124">作者是</tspan></text><path d="M2708.06 1315.02 2347.34 1313.06 2347.41 1299.31 2708.13 1301.27ZM2354.14 1326.85 2313 1306 2354.36 1285.6Z"/><path d="M1663.5 1309C1663.5 1215.94 1809.01 1140.5 1988.5 1140.5 2167.99 1140.5 2313.5 1215.94 2313.5 1309 2313.5 1402.06 2167.99 1477.5 1988.5 1477.5 1809.01 1477.5 1663.5 1402.06 1663.5 1309Z" stroke="#000000" stroke-width="6.875" stroke-miterlimit="8" fill="#E2F0D9" fill-rule="evenodd"/><text font-family="Times New Roman,Times New Roman_MSFontService,sans-serif" font-weight="400" font-size="78" transform="matrix(1 0 0 1 1843.6 1290)">Abraham <tspan font-size="78" x="-45.5354" y="94">Silberschatz</tspan><tspan font-family="SimSun,SimSun_MSFontService,sans-serif" font-size="92" x="-231.544" y="-201">就职于</tspan></text><path d="M1983.01 1144.04 1843.62 951.863 1854.75 943.789 1994.14 1135.97ZM1836.52 965.501 1829 920 1869.92 941.282Z"/><path d="M3267 1421.41 3511.86 1596.31 3503.87 1607.5 3259 1432.59ZM3514.26 1581.12 3535.83 1621.88 3490.28 1614.69Z"/><text font-family="Times New Roman,Times New Roman_MSFontService,sans-serif" font-weight="400" font-size="83" transform="matrix(0.810249 0.586085 -0.586085 0.810249 3345.28 1435)">ISBN</text><text font-family="Times New Roman,Times New Roman_MSFontService,sans-serif" font-weight="400" font-size="92" transform="matrix(1 0 0 1 3205.14 1744)">“9787111375296”</text><path d="M4.17436-5.46263 234.394 170.463 226.045 181.389-4.17436 5.46263ZM237.28 155.364 257.533 196.798 212.234 188.14Z" transform="matrix(-1 0 0 1 1758.53 1428)"/><text font-family="SimSun,SimSun_MSFontService,sans-serif" font-weight="400" font-size="92" transform="matrix(0.794502 -0.607262 0.607262 0.794502 1606.15 1695)">名字是</text><text font-family="Times New Roman,Times New Roman_MSFontService,sans-serif" font-weight="400" font-size="110" transform="matrix(1 0 0 1 994.039 1625)">“<tspan font-size="110" x="48.6979" y="0">Abraham </tspan><tspan font-size="110" x="-46.4063" y="132">Silberschatz</tspan><tspan font-size="110" x="490.417" y="132">”</tspan><tspan font-family="SimSun,SimSun_MSFontService,sans-serif" font-size="92" x="251.656" y="-768">位于</tspan></text><path d="M1504.28 758.875 1162.37 758.875 1162.37 745.125 1504.28 745.125ZM1169.25 772.625 1128 752 1169.25 731.375Z"/><path d="M1596.68 639.594 1039.56 458.181 1043.81 445.106 1600.94 626.52ZM1041.84 473.383 1009 441 1054.61 434.161Z"/><text font-family="SimSun,SimSun_MSFontService,sans-serif" font-weight="400" font-size="92" transform="matrix(0.950612 0.310382 -0.310382 0.950612 1135.53 584)">创办于</text><path d="M1824.72 589.872 1362.61 303.934 1369.85 292.241 1831.96 578.179ZM1361.23 319.244 1337 280 1382.93 284.166Z"/><text font-family="SimSun,SimSun_MSFontService,sans-serif" font-weight="400" font-size="92" transform="matrix(0.844811 0.535065 -0.535065 0.844811 1515.99 337)">名字是</text><text font-family="Times New Roman,Times New Roman_MSFontService,sans-serif" font-weight="400" font-size="92" transform="matrix(1 0 0 1 910.901 281)">“<tspan font-family="SimSun,SimSun_MSFontService,sans-serif" font-size="92" x="40.6771" y="0">耶鲁大学</tspan><tspan font-size="92" x="407.344" y="0">”</tspan><tspan font-size="92" x="-180.292" y="186">“1701”</tspan><tspan font-size="92" x="-325.836" y="504">“</tspan><tspan font-family="SimSun,SimSun_MSFontService,sans-serif" font-size="92" x="-285.159" y="504">康涅狄格州</tspan><tspan font-size="92" x="173.175" y="504">”</tspan></text><path d="M1504.5 752.5C1504.5 659.716 1650.01 584.5 1829.5 584.5 2008.99 584.5 2154.5 659.716 2154.5 752.5 2154.5 845.284 2008.99 920.5 1829.5 920.5 1650.01 920.5 1504.5 845.284 1504.5 752.5Z" stroke="#000000" stroke-width="6.875" stroke-miterlimit="8" fill="#E2F0D9" fill-rule="evenodd"/><text font-family="SimSun,SimSun_MSFontService,sans-serif" font-weight="400" font-size="92" transform="matrix(1 0 0 1 1645.37 787)">耶鲁大学</text></g></svg>