<svg width="521" height="634" xmlns="http://www.w3.org/2000/svg" xmlns:xlink="http://www.w3.org/1999/xlink" overflow="hidden"><defs><clipPath id="clip0"><rect x="351" y="6" width="521" height="634"/></clipPath><clipPath id="clip1"><rect x="455" y="475" width="61" height="116"/></clipPath><clipPath id="clip2"><rect x="455" y="475" width="60" height="116"/></clipPath><clipPath id="clip3"><rect x="342" y="452" width="173" height="172"/></clipPath><clipPath id="clip4"><rect x="358" y="262" width="64" height="315"/></clipPath><clipPath id="clip5"><rect x="421" y="262" width="64" height="315"/></clipPath><clipPath id="clip6"><rect x="484" y="262" width="65" height="315"/></clipPath><clipPath id="clip7"><rect x="548" y="262" width="64" height="315"/></clipPath><clipPath id="clip8"><rect x="611" y="262" width="64" height="315"/></clipPath><clipPath id="clip9"><rect x="674" y="262" width="64" height="315"/></clipPath><clipPath id="clip10"><rect x="737" y="262" width="64" height="315"/></clipPath><clipPath id="clip11"><rect x="800" y="262" width="65" height="315"/></clipPath><clipPath id="clip12"><rect x="707" y="475" width="62" height="116"/></clipPath><clipPath id="clip13"><rect x="707" y="475" width="61" height="116"/></clipPath><clipPath id="clip14"><rect x="592" y="452" width="176" height="172"/></clipPath></defs><g clip-path="url(#clip0)" transform="translate(-351 -6)"><path d="M667 81 698.018 215.745" stroke="#000000" stroke-width="2" stroke-miterlimit="8" fill="#FFFFFF" fill-rule="evenodd"/><path d="M677 58 754.715 105.16" stroke="#000000" stroke-width="2" stroke-miterlimit="8" fill="#FFFFFF" fill-rule="evenodd"/><path d="M423 40C423 22.3269 437.775 8 456 8 474.225 8 489 22.3269 489 40 489 57.6731 474.225 72 456 72 437.775 72 423 57.6731 423 40Z" stroke="#000000" stroke-width="2" stroke-miterlimit="8" fill="#FFFFFF" fill-rule="evenodd"/><text font-family="Times New Roman,Times New Roman_MSFontService,sans-serif" font-weight="400" font-size="37" transform="translate(446.806 54)">1</text><path d="M480 63 512.62 91.823" stroke="#000000" stroke-width="2" stroke-miterlimit="8" fill="#FFFFFF" fill-rule="evenodd"/><path d="M745 128.5C745 110.551 759.775 96 778 96 796.225 96 811 110.551 811 128.5 811 146.449 796.225 161 778 161 759.775 161 745 146.449 745 128.5Z" stroke="#000000" stroke-width="2" stroke-miterlimit="8" fill="#FFFFFF" fill-rule="evenodd"/><text font-family="Times New Roman,Times New Roman_MSFontService,sans-serif" font-weight="400" font-size="37" transform="translate(768.823 142)">6</text><path d="M0 0 93.7368 37.8308" stroke="#000000" stroke-width="2" stroke-miterlimit="8" fill="#FFFFFF" fill-rule="evenodd" transform="matrix(-1 0 0 1 664.737 248)"/><path d="M0 0 75.9603 166.611" stroke="#000000" stroke-width="2" stroke-miterlimit="8" fill="#FFFFFF" fill-rule="evenodd" transform="matrix(-1 0 0 1 629.96 89)"/><path d="M665 248C665 230.327 679.775 216 698 216 716.225 216 731 230.327 731 248 731 265.673 716.225 280 698 280 679.775 280 665 265.673 665 248Z" stroke="#000000" stroke-width="2" stroke-miterlimit="8" fill="#FFFFFF" fill-rule="evenodd"/><text font-family="Times New Roman,Times New Roman_MSFontService,sans-serif" font-weight="400" font-size="37" transform="translate(688.811 262)">5</text><path d="M507 284.5C507 266.551 521.998 252 540.5 252 559.002 252 574 266.551 574 284.5 574 302.449 559.002 317 540.5 317 521.998 317 507 302.449 507 284.5Z" stroke="#000000" stroke-width="2" stroke-miterlimit="8" fill="#FFFFFF" fill-rule="evenodd"/><text font-family="Times New Roman,Times New Roman_MSFontService,sans-serif" font-weight="400" font-size="37" transform="translate(531.443 298)">4</text><path d="M610 58C610 40.3269 624.998 26 643.5 26 662.002 26 677 40.3269 677 58 677 75.6731 662.002 90 643.5 90 624.998 90 610 75.6731 610 58Z" stroke="#000000" stroke-width="2" stroke-miterlimit="8" fill="#FFFFFF" fill-rule="evenodd"/><text font-family="Times New Roman,Times New Roman_MSFontService,sans-serif" font-weight="400" font-size="37" transform="translate(634.236 72)">3</text><path d="M385 225.5C385 207.551 399.998 193 418.5 193 437.002 193 452 207.551 452 225.5 452 243.449 437.002 258 418.5 258 399.998 258 385 243.449 385 225.5Z" stroke="#000000" stroke-width="2" stroke-miterlimit="8" fill="#FFFFFF" fill-rule="evenodd"/><text font-family="Times New Roman,Times New Roman_MSFontService,sans-serif" font-weight="400" font-size="37" transform="translate(408.887 239)">0</text><path d="M0 0 24.5312 122.635" stroke="#000000" stroke-width="2" stroke-miterlimit="8" fill="#FFFFFF" fill-rule="evenodd" transform="matrix(-1 0 0 1 446.531 71)"/><path d="M452 228 516.848 261.365" stroke="#000000" stroke-width="2" stroke-miterlimit="8" fill="#FFFFFF" fill-rule="evenodd"/><path d="M503 114.5C503 96.5507 517.775 82 536 82 554.225 82 569 96.5507 569 114.5 569 132.449 554.225 147 536 147 517.775 147 503 132.449 503 114.5Z" stroke="#000000" stroke-width="2" stroke-miterlimit="8" fill="#FFFFFF" fill-rule="evenodd"/><text font-family="Times New Roman,Times New Roman_MSFontService,sans-serif" font-weight="400" font-size="37" transform="translate(526.54 128)">2</text><path d="M0 0 50.8249 33.675" stroke="#000000" stroke-width="2" stroke-miterlimit="8" fill="#FFFFFF" fill-rule="evenodd" transform="matrix(-1 0 0 1 609.825 58)"/><path d="M778 214C778 196.327 792.998 182 811.5 182 830.002 182 845 196.327 845 214 845 231.673 830.002 246 811.5 246 792.998 246 778 231.673 778 214Z" stroke="#000000" stroke-width="2" stroke-miterlimit="8" fill="#FFFFFF" fill-rule="evenodd"/><text font-family="Times New Roman,Times New Roman_MSFontService,sans-serif" font-weight="400" font-size="37" transform="translate(802.137 228)">7</text><path d="M0 0 56.4546 11.1387" stroke="#000000" stroke-width="2" stroke-miterlimit="8" fill="#FFFFFF" fill-rule="evenodd" transform="matrix(-1 0 0 1 778.455 214)"/><path d="M0 0 358.701 258.643" stroke="#C00000" stroke-width="4" stroke-miterlimit="8" stroke-dasharray="16 12" fill="none" fill-rule="evenodd" transform="matrix(1 0 0 -1 422 289.643)"/><text font-family="SimSun,SimSun_MSFontService,sans-serif" font-weight="400" font-size="24" transform="translate(431.122 619)">计算节点</text><text font-family="Times New Roman,Times New Roman_MSFontService,sans-serif" font-weight="400" font-size="24" transform="translate(527.122 619)">1</text><g clip-path="url(#clip1)"><g clip-path="url(#clip2)"><g clip-path="url(#clip3)"><path d="M100.077 103.651 14.2967 103.651 14.2967 46.4643 100.077 46.4643 100.077 103.651ZM103.651 35.7417 10.7225 35.7417C6.79093 35.7417 3.57417 38.9585 3.57417 42.8901L3.57417 107.225C3.57417 111.157 6.79093 114.374 10.7225 114.374L46.4643 114.374 46.4643 125.096 30.3805 125.096 30.3805 135.819 83.9931 135.819 83.9931 125.096 67.9093 125.096 67.9093 114.374 103.651 114.374C107.583 114.374 110.799 111.157 110.799 107.225L110.799 42.8901C110.799 38.9585 107.583 35.7417 103.651 35.7417Z" transform="matrix(1 0 0 1.00185 342.534 452.046)"/><path d="M160.838 53.6126 125.096 53.6126 125.096 42.8901 160.838 42.8901 160.838 53.6126ZM160.838 71.4835 125.096 71.4835 125.096 60.761 160.838 60.761 160.838 71.4835ZM142.967 125.096C139.929 125.096 137.606 122.773 137.606 119.735 137.606 116.697 139.929 114.374 142.967 114.374 146.005 114.374 148.328 116.697 148.328 119.735 148.328 122.773 146.005 125.096 142.967 125.096ZM160.838 35.7417 125.096 35.7417C121.165 35.7417 117.948 38.9585 117.948 42.8901L117.948 128.67C117.948 132.602 121.165 135.819 125.096 135.819L160.838 135.819C164.769 135.819 167.986 132.602 167.986 128.67L167.986 42.8901C167.986 38.9585 164.769 35.7417 160.838 35.7417Z" transform="matrix(1 0 0 1.00185 342.534 452.046)"/></g></g></g><path d="M358.507 387.119 421.71 387.119 421.71 451.909 358.507 451.909Z" fill="#FBE5D6" fill-rule="evenodd"/><path d="M421.71 387.119 484.914 387.119 484.914 451.909 421.71 451.909Z" fill="#FBE5D6" fill-rule="evenodd"/><path d="M484.914 387.119 548.118 387.119 548.118 451.909 484.914 451.909Z" fill="#FBE5D6" fill-rule="evenodd"/><path d="M548.118 387.119 611.321 387.119 611.321 451.909 548.118 451.909Z" fill="#FBE5D6" fill-rule="evenodd"/><path d="M611.321 387.119 674.525 387.119 674.525 451.909 611.321 451.909Z" fill="#BDD7EE" fill-rule="evenodd"/><path d="M674.525 387.119 737.729 387.119 737.729 451.909 674.525 451.909Z" fill="#BDD7EE" fill-rule="evenodd"/><path d="M737.729 387.119 800.932 387.119 800.932 451.909 737.729 451.909Z" fill="#BDD7EE" fill-rule="evenodd"/><path d="M800.932 387.119 864.136 387.119 864.136 451.909 800.932 451.909Z" fill="#BDD7EE" fill-rule="evenodd"/><path d="M421.71 386.453 421.71 452.576" stroke="#000000" stroke-width="1.33333" stroke-linejoin="round" stroke-miterlimit="10" fill="none" fill-rule="evenodd"/><path d="M484.914 386.453 484.914 452.576" stroke="#000000" stroke-width="1.33333" stroke-linejoin="round" stroke-miterlimit="10" fill="none" fill-rule="evenodd"/><path d="M548.118 386.453 548.118 452.576" stroke="#000000" stroke-width="1.33333" stroke-linejoin="round" stroke-miterlimit="10" fill="none" fill-rule="evenodd"/><path d="M611.321 386.453 611.321 452.576" stroke="#000000" stroke-width="1.33333" stroke-linejoin="round" stroke-miterlimit="10" fill="none" fill-rule="evenodd"/><path d="M674.525 386.453 674.525 452.576" stroke="#000000" stroke-width="1.33333" stroke-linejoin="round" stroke-miterlimit="10" fill="none" fill-rule="evenodd"/><path d="M737.729 386.453 737.729 452.576" stroke="#000000" stroke-width="1.33333" stroke-linejoin="round" stroke-miterlimit="10" fill="none" fill-rule="evenodd"/><path d="M800.932 386.453 800.932 452.576" stroke="#000000" stroke-width="1.33333" stroke-linejoin="round" stroke-miterlimit="10" fill="none" fill-rule="evenodd"/><path d="M358.507 386.453 358.507 452.576" stroke="#000000" stroke-width="1.33333" stroke-linejoin="round" stroke-miterlimit="10" fill="none" fill-rule="evenodd"/><path d="M864.136 386.453 864.136 452.576" stroke="#000000" stroke-width="1.33333" stroke-linejoin="round" stroke-miterlimit="10" fill="none" fill-rule="evenodd"/><path d="M357.84 387.119 864.803 387.119" stroke="#000000" stroke-width="1.33333" stroke-linejoin="round" stroke-miterlimit="10" fill="none" fill-rule="evenodd"/><path d="M357.84 451.909 864.803 451.909" stroke="#000000" stroke-width="1.33333" stroke-linejoin="round" stroke-miterlimit="10" fill="none" fill-rule="evenodd"/><g clip-path="url(#clip4)"><text font-family="Times New Roman,Times New Roman_MSFontService,sans-serif" font-weight="700" font-size="37" transform="translate(380.775 433)">0</text></g><g clip-path="url(#clip5)"><text font-family="Times New Roman,Times New Roman_MSFontService,sans-serif" font-weight="700" font-size="37" transform="translate(443.979 433)">1</text></g><g clip-path="url(#clip6)"><text font-family="Times New Roman,Times New Roman_MSFontService,sans-serif" font-weight="700" font-size="37" transform="translate(507.183 433)">2</text></g><g clip-path="url(#clip7)"><text font-family="Times New Roman,Times New Roman_MSFontService,sans-serif" font-weight="700" font-size="37" transform="translate(570.386 433)">3</text></g><g clip-path="url(#clip8)"><text font-family="Times New Roman,Times New Roman_MSFontService,sans-serif" font-weight="700" font-size="37" transform="translate(633.59 433)">4</text></g><g clip-path="url(#clip9)"><text font-family="Times New Roman,Times New Roman_MSFontService,sans-serif" font-weight="700" font-size="37" transform="translate(696.794 433)">5</text></g><g clip-path="url(#clip10)"><text font-family="Times New Roman,Times New Roman_MSFontService,sans-serif" font-weight="700" font-size="37" transform="translate(759.997 433)">6</text></g><g clip-path="url(#clip11)"><text font-family="Times New Roman,Times New Roman_MSFontService,sans-serif" font-weight="700" font-size="37" transform="translate(823.201 433)">7</text></g><text font-family="SimSun,SimSun_MSFontService,sans-serif" font-weight="400" font-size="24" transform="translate(683.922 619)">计算节点</text><text font-family="Times New Roman,Times New Roman_MSFontService,sans-serif" font-weight="400" font-size="24" transform="translate(779.922 619)">2</text><g clip-path="url(#clip12)"><g clip-path="url(#clip13)"><g clip-path="url(#clip14)"><path d="M100.262 103.843 14.3231 103.843 14.3231 46.5501 100.262 46.5501 100.262 103.843ZM103.843 35.8078 10.7423 35.8078C6.80348 35.8078 3.58078 39.0305 3.58078 42.9693L3.58078 107.423C3.58078 111.362 6.80348 114.585 10.7423 114.585L46.5501 114.585 46.5501 125.327 30.4366 125.327 30.4366 136.07 84.1483 136.07 84.1483 125.327 68.0348 125.327 68.0348 114.585 103.843 114.585C107.781 114.585 111.004 111.362 111.004 107.423L111.004 42.9693C111.004 39.0305 107.781 35.8078 103.843 35.8078Z" transform="matrix(1.01452 0 0 1 592.69 452.046)"/><path d="M161.135 53.7117 125.327 53.7117 125.327 42.9693 161.135 42.9693 161.135 53.7117ZM161.135 71.6155 125.327 71.6155 125.327 60.8732 161.135 60.8732 161.135 71.6155ZM143.231 125.327C140.187 125.327 137.86 123 137.86 119.956 137.86 116.912 140.187 114.585 143.231 114.585 146.275 114.585 148.602 116.912 148.602 119.956 148.602 123 146.275 125.327 143.231 125.327ZM161.135 35.8078 125.327 35.8078C121.388 35.8078 118.166 39.0305 118.166 42.9693L118.166 128.908C118.166 132.847 121.388 136.07 125.327 136.07L161.135 136.07C165.074 136.07 168.297 132.847 168.297 128.908L168.297 42.9693C168.297 39.0305 165.074 35.8078 161.135 35.8078Z" transform="matrix(1.01452 0 0 1 592.69 452.046)"/></g></g></g><path d="M377.981 248.943 376.095 252.47 372.568 250.584 374.454 247.057ZM374.208 255.998 373.201 257.881 373.224 257.837 372.385 259.502 368.813 257.703 369.662 256.016 370.681 254.111ZM370.587 263.075 368.788 266.648 365.215 264.849 367.014 261.276ZM367.278 270.207 365.721 273.892 362.037 272.335 363.594 268.65ZM364.434 277.468 363.243 281.286 359.424 280.095 360.616 276.276ZM362.2 284.932 361.523 288.273 361.553 288.074 361.494 288.662 357.514 288.264 357.582 287.576 358.28 284.137ZM361.122 292.473 361.064 296.473 357.064 296.415 357.122 292.415ZM361.449 300.219 361.49 300.608 361.445 300.348 362.284 303.858 358.393 304.787 357.524 301.149 357.47 300.628ZM363.529 307.396 363.936 308.488 363.846 308.282 365.129 310.81 361.562 312.62 360.228 309.992 359.781 308.794ZM367.049 313.995 368.644 316.299 368.515 316.132 369.297 317.039 366.266 319.65 365.416 318.663 363.76 316.272ZM371.908 320.07 372.015 320.195 371.892 320.064 374.645 322.734 371.861 325.606 369.043 322.873 368.877 322.68ZM377.51 325.294 380.589 327.846 378.037 330.926 374.957 328.373ZM383.724 330.107 385.92 331.69 385.859 331.648 386.935 332.366 384.717 335.694 383.61 334.956 381.385 333.352ZM390.264 334.585 391.672 335.523 391.589 335.471 393.569 336.655 391.516 340.088 389.494 338.879 388.045 337.913ZM397.002 338.708 397.964 339.284 397.921 339.259 400.428 340.675 398.461 344.157 395.932 342.729 394.949 342.141ZM403.911 342.642 404.671 343.071 404.619 343.043 407.386 344.499 405.523 348.039 402.73 346.569 401.944 346.125ZM410.926 346.362 411.744 346.793 411.683 346.762 414.452 348.101 412.71 351.702 409.911 350.348 409.063 349.902ZM418.053 349.843 421.654 351.585 419.912 355.186 416.311 353.444ZM425.255 353.327 427.058 354.2 427.009 354.176 428.829 354.996 427.186 358.643 425.341 357.812 423.513 356.928ZM432.476 356.639 436.123 358.281 434.481 361.929 430.833 360.286ZM439.77 359.924 443.384 361.551 443.351 361.537 443.385 361.551 441.808 365.228 441.758 365.206 438.128 363.571ZM447.061 363.127 450.737 364.703 449.162 368.379 445.485 366.804ZM454.414 366.278 458.091 367.854 456.515 371.531 452.838 369.955ZM461.759 369.416 465.446 370.967 463.894 374.654 460.207 373.102ZM469.133 372.519 472.819 374.071 471.268 377.757 467.581 376.206ZM466.604 364.156 477.009 378.004 459.833 380.244C458.738 380.387 457.734 379.615 457.591 378.52 457.448 377.424 458.22 376.421 459.316 376.278L473.091 374.481 471.751 377.665 463.406 366.558C462.743 365.675 462.921 364.422 463.804 363.758 464.687 363.095 465.941 363.273 466.604 364.156Z" fill="#7F7F7F"/><path d="M723.96 293.6 724.759 297.519 720.84 298.319 720.04 294.4ZM725.559 301.439 726.359 305.358 722.439 306.158 721.64 302.238ZM727.158 309.277 727.958 313.196 724.039 313.996 723.239 310.077ZM728.758 317.116 729.557 321.035 725.638 321.835 724.838 317.915ZM730.357 324.954 731.157 328.873 727.237 329.673 726.438 325.754ZM731.956 332.793 732.756 336.712 728.837 337.512 728.037 333.592ZM733.556 340.631 734.355 344.55 730.436 345.35 729.636 341.431ZM735.155 348.47 735.955 352.389 732.035 353.189 731.236 349.269ZM736.754 356.308 737.554 360.227 733.635 361.027 732.835 357.108ZM738.354 364.147 739.153 368.066 735.234 368.866 734.434 364.946ZM739.953 371.985 740.189 373.143 736.27 373.942 736.034 372.785ZM744.583 361.027 739.023 377.431 727.48 364.517C726.744 363.693 726.815 362.429 727.639 361.693 728.462 360.957 729.727 361.028 730.463 361.851L739.721 372.21 736.335 372.9 740.795 359.743C741.149 358.697 742.285 358.136 743.331 358.491 744.377 358.846 744.938 359.981 744.583 361.027Z" fill="#7F7F7F"/><rect x="353" y="384" width="261" height="73" stroke="#7F7F7F" stroke-width="4" stroke-miterlimit="8" stroke-dasharray="4 4" fill="none"/><rect x="609" y="384" width="261" height="73" stroke="#7F7F7F" stroke-width="4" stroke-miterlimit="8" stroke-dasharray="4 4" fill="none"/></g></svg>