<svg width="956" height="566" xmlns="http://www.w3.org/2000/svg" xmlns:xlink="http://www.w3.org/1999/xlink" overflow="hidden"><defs><clipPath id="clip0"><rect x="66" y="126" width="956" height="566"/></clipPath></defs><g clip-path="url(#clip0)" transform="translate(-66 -126)"><rect x="730" y="145" width="175" height="96" stroke="#000000" stroke-width="2" stroke-miterlimit="8" fill="#DEEBF7"/><text font-family="SimSun,SimSun_MSFontService,sans-serif" font-weight="400" font-size="37" transform="translate(761.709 208)">出版社</text><rect x="242" y="145" width="176" height="96" stroke="#000000" stroke-width="2" stroke-miterlimit="8" fill="#DEEBF7"/><text font-family="SimSun,SimSun_MSFontService,sans-serif" font-weight="400" font-size="37" transform="translate(292.608 208)">书籍</text><rect x="242" y="495" width="176" height="96" stroke="#000000" stroke-width="2" stroke-miterlimit="8" fill="#DEEBF7"/><text font-family="SimSun,SimSun_MSFontService,sans-serif" font-weight="400" font-size="37" transform="translate(255.275 557)">读者记录</text><path d="M242 376.5 330 317 418 376.5 330 436Z" stroke="#000000" stroke-width="2" stroke-miterlimit="8" fill="#FFF2CC" fill-rule="evenodd"/><text font-family="SimSun,SimSun_MSFontService,sans-serif" font-style="oblique" font-weight="400" font-size="32" transform="translate(297.942 388)">借阅</text><path d="M330 241 330 316.806" stroke="#000000" stroke-width="2" stroke-miterlimit="8" fill="none" fill-rule="evenodd"/><path d="M330 436 330 495.184" stroke="#000000" stroke-width="2" stroke-miterlimit="8" fill="none" fill-rule="evenodd"/><text font-family="Times New Roman,Times New Roman_MSFontService,sans-serif" font-weight="400" font-size="37" transform="translate(341.639 476)">1</text><text font-family="Times New Roman,Times New Roman_MSFontService,sans-serif" font-weight="400" font-size="37" transform="translate(339.775 290)">n</text><path d="M489 193.5 576.5 134 664 193.5 576.5 253Z" stroke="#000000" stroke-width="2" stroke-miterlimit="8" fill="#FFF2CC" fill-rule="evenodd"/><text font-family="SimSun,SimSun_MSFontService,sans-serif" font-style="oblique" font-weight="400" font-size="32" transform="translate(544.622 205)">出版</text><path d="M418 193 489.456 193" stroke="#000000" stroke-width="2" stroke-miterlimit="8" fill="none" fill-rule="evenodd"/><path d="M664 193 729.864 193" stroke="#000000" stroke-width="2" stroke-miterlimit="8" fill="none" fill-rule="evenodd"/><text font-family="Times New Roman,Times New Roman_MSFontService,sans-serif" font-weight="400" font-size="37" transform="translate(687.348 184)">1</text><text font-family="Times New Roman,Times New Roman_MSFontService,sans-serif" font-weight="400" font-size="37" transform="translate(442.766 184)">n</text><path d="M96 160.5C96 142.551 120.624 128 151 128 181.376 128 206 142.551 206 160.5 206 178.449 181.376 193 151 193 120.624 193 96 178.449 96 160.5Z" stroke="#000000" stroke-width="2" stroke-miterlimit="8" fill="#FFFFFF" fill-rule="evenodd"/><text font-family="Times New Roman,Times New Roman_MSFontService,sans-serif" font-weight="400" font-size="24" transform="translate(123.3 169)">ISBN</text><path d="M83 231.5C83 213.551 106.057 199 134.5 199 162.943 199 186 213.551 186 231.5 186 249.449 162.943 264 134.5 264 106.057 264 83 249.449 83 231.5Z" stroke="#000000" stroke-width="2" stroke-miterlimit="8" fill="#FFFFFF" fill-rule="evenodd"/><text font-family="SimSun,SimSun_MSFontService,sans-serif" font-weight="400" font-size="24" transform="translate(110.068 241)">书名</text><path d="M96 440.5C96 422.551 119.057 408 147.5 408 175.943 408 199 422.551 199 440.5 199 458.449 175.943 473 147.5 473 119.057 473 96 458.449 96 440.5Z" stroke="#000000" stroke-width="2" stroke-miterlimit="8" fill="#FFFFFF" fill-rule="evenodd"/><text font-family="Times New Roman,Times New Roman_MSFontService,sans-serif" font-weight="400" font-size="24" transform="translate(134.358 449)">ID</text><path d="M86 303.5C86 285.551 115.101 271 151 271 186.898 271 216 285.551 216 303.5 216 321.449 186.898 336 151 336 115.101 336 86 321.449 86 303.5Z" stroke="#000000" stroke-width="2" stroke-miterlimit="8" fill="#FFFFFF" fill-rule="evenodd"/><text font-family="SimSun,SimSun_MSFontService,sans-serif" font-weight="400" font-size="24" transform="translate(115.243 300)">出版社</text><text font-family="Times New Roman,Times New Roman_MSFontService,sans-serif" font-weight="400" font-size="24" transform="translate(138.576 327)">ID</text><path d="M68 512.5C68 494.551 91.0573 480 119.5 480 147.943 480 171 494.551 171 512.5 171 530.449 147.943 545 119.5 545 91.0573 545 68 530.449 68 512.5Z" stroke="#000000" stroke-width="2" stroke-miterlimit="8" fill="#FFFFFF" fill-rule="evenodd"/><text font-family="SimSun,SimSun_MSFontService,sans-serif" font-weight="400" font-size="24" transform="translate(95.3735 521)">姓名</text><path d="M763 316.5C763 298.551 792.325 284 828.5 284 864.675 284 894 298.551 894 316.5 894 334.449 864.675 349 828.5 349 792.325 349 763 334.449 763 316.5Z" stroke="#000000" stroke-width="2" stroke-miterlimit="8" fill="#FFFFFF" fill-rule="evenodd"/><text font-family="SimSun,SimSun_MSFontService,sans-serif" font-weight="400" font-size="24" transform="translate(792.709 313)">出版社</text><text font-family="SimSun,SimSun_MSFontService,sans-serif" font-weight="400" font-size="24" transform="translate(816.709 340)">名</text><path d="M917 316.5C917 298.551 940.057 284 968.5 284 996.943 284 1020 298.551 1020 316.5 1020 334.449 996.943 349 968.5 349 940.057 349 917 334.449 917 316.5Z" stroke="#000000" stroke-width="2" stroke-miterlimit="8" fill="#FFFFFF" fill-rule="evenodd"/><text font-family="SimSun,SimSun_MSFontService,sans-serif" font-weight="400" font-size="24" transform="translate(944.617 325)">城市</text><path d="M86 657.5C86 639.551 111.296 625 142.5 625 173.704 625 199 639.551 199 657.5 199 675.449 173.704 690 142.5 690 111.296 690 86 675.449 86 657.5Z" stroke="#000000" stroke-width="2" stroke-miterlimit="8" fill="#FFFFFF" fill-rule="evenodd"/><text font-family="Times New Roman,Times New Roman_MSFontService,sans-serif" font-weight="400" font-size="24" transform="translate(115.101 666)">ISBN</text><path d="M68 585.5C68 567.551 91.0573 553 119.5 553 147.943 553 171 567.551 171 585.5 171 603.449 147.943 618 119.5 618 91.0573 618 68 603.449 68 585.5Z" stroke="#000000" stroke-width="2" stroke-miterlimit="8" fill="#FFFFFF" fill-rule="evenodd"/><text font-family="SimSun,SimSun_MSFontService,sans-serif" font-weight="400" font-size="24" transform="translate(95.3736 594)">地址</text><path d="M612 315.5C612 297.551 641.997 283 679 283 716.003 283 746 297.551 746 315.5 746 333.449 716.003 348 679 348 641.997 348 612 333.449 612 315.5Z" stroke="#000000" stroke-width="2" stroke-miterlimit="8" fill="#FFFFFF" fill-rule="evenodd"/><text font-family="SimSun,SimSun_MSFontService,sans-serif" font-weight="400" font-size="24" transform="translate(642.934 312)">出版社</text><text font-family="Times New Roman,Times New Roman_MSFontService,sans-serif" font-weight="400" font-size="24" transform="translate(666.268 339)">ID</text><path d="M0 0 91.3966 51.2954" stroke="#000000" stroke-width="2" stroke-miterlimit="8" fill="none" fill-rule="evenodd" transform="matrix(1 0 0 -1 726 292.295)"/><path d="M829 283.83 818 241" stroke="#000000" stroke-width="2" stroke-miterlimit="8" fill="none" fill-rule="evenodd"/><path d="M932.492 292.873 818 241" stroke="#000000" stroke-width="2" stroke-miterlimit="8" fill="none" fill-rule="evenodd"/><path d="M242.728 193.35 190 183" stroke="#000000" stroke-width="2" stroke-miterlimit="8" fill="none" fill-rule="evenodd"/><path d="M0 0 56.762 38.5713" stroke="#000000" stroke-width="2" stroke-miterlimit="8" fill="none" fill-rule="evenodd" transform="matrix(1 0 0 -1 186 231.571)"/><path d="M0 0 45.1964 87.4224" stroke="#000000" stroke-width="2" stroke-miterlimit="8" fill="none" fill-rule="evenodd" transform="matrix(1 0 0 -1 197 280.422)"/><path d="M183 464 241.89 543.131" stroke="#000000" stroke-width="2" stroke-miterlimit="8" fill="none" fill-rule="evenodd"/><path d="M171 512 242.457 542.405" stroke="#000000" stroke-width="2" stroke-miterlimit="8" fill="none" fill-rule="evenodd"/><path d="M0 0 71.4566 42.3108" stroke="#000000" stroke-width="2" stroke-miterlimit="8" fill="none" fill-rule="evenodd" transform="matrix(1 0 0 -1 171 585.311)"/><path d="M0 0 60.2342 92.0458" stroke="#000000" stroke-width="2" stroke-miterlimit="8" fill="none" fill-rule="evenodd" transform="matrix(1 0 0 -1 182 635.046)"/></g></svg>