<svg width="1565" height="929" xmlns="http://www.w3.org/2000/svg" xmlns:xlink="http://www.w3.org/1999/xlink" overflow="hidden"><defs><clipPath id="clip0"><rect x="1126" y="490" width="1565" height="929"/></clipPath></defs><g clip-path="url(#clip0)" transform="translate(-1126 -490)"><path d="M1421.59 869.878 1711.97 1129.9 1702.8 1140.14 1412.41 880.122ZM1716.03 1115.07 1733 1157.95 1688.51 1145.8Z"/><path d="M5.3079-4.36942 273.47 321.39 262.854 330.129-5.3079 4.36942ZM279.717 307.343 290.01 352.299 247.869 333.56Z" transform="matrix(-1 0 0 1 2405.01 882)"/><path d="M27.7418 21.4312 261.093 289.841 250.716 298.863 17.3651 30.4526ZM11.499 44.6624 0 0 42.6293 17.5982Z" transform="matrix(-1 0 0 1 2337.91 846)"/><path d="M34.3753-6.87498 762.379-6.87464 762.379 6.87536 34.3753 6.87502ZM41.25 20.625 0 0 41.25-20.625Z" transform="matrix(-1 0 0 1 2289.38 675)"/><path d="M1711.5 1234.5C1711.5 1134.54 1801.94 1053.5 1913.5 1053.5 2025.06 1053.5 2115.5 1134.54 2115.5 1234.5 2115.5 1334.46 2025.06 1415.5 1913.5 1415.5 1801.94 1415.5 1711.5 1334.46 1711.5 1234.5Z" stroke="#000000" stroke-width="6.875" stroke-miterlimit="8" fill="#FFF2CC" fill-rule="evenodd"/><rect x="1766.5" y="1041.5" width="296" height="84.9999" stroke="#000000" stroke-width="6.875" stroke-miterlimit="8" fill="#FFFFFF"/><text font-family="SimSun,SimSun_MSFontService,sans-serif" font-weight="400" font-size="73" transform="matrix(1 0 0 1 1840.71 1112)">评论</text><path d="M1129.5 730C1129.5 636.94 1221.06 561.5 1334 561.5 1446.94 561.5 1538.5 636.94 1538.5 730 1538.5 823.06 1446.94 898.5 1334 898.5 1221.06 898.5 1129.5 823.06 1129.5 730Z" stroke="#000000" stroke-width="6.875" stroke-miterlimit="8" fill="#FFF2CC" fill-rule="evenodd"/><rect x="1182.5" y="523.5" width="307" height="88" stroke="#000000" stroke-width="6.875" stroke-miterlimit="8" fill="#FFFFFF"/><text font-family="SimSun,SimSun_MSFontService,sans-serif" font-weight="400" font-size="73" transform="matrix(1 0 0 1 1261.96 595)">用户</text><path d="M2278.5 723C2278.5 626.074 2370.06 547.5 2483 547.5 2595.94 547.5 2687.5 626.074 2687.5 723 2687.5 819.926 2595.94 898.5 2483 898.5 2370.06 898.5 2278.5 819.926 2278.5 723Z" stroke="#000000" stroke-width="6.875" stroke-miterlimit="8" fill="#FFF2CC" fill-rule="evenodd"/><rect x="2332.5" y="516.5" width="308" height="88" stroke="#000000" stroke-width="6.875" stroke-miterlimit="8" fill="#FFFFFF"/><text font-family="SimSun,SimSun_MSFontService,sans-serif" font-weight="400" font-size="73" transform="matrix(1 0 0 1 2412.72 588)">博客<tspan font-size="83" x="-594.722" y="57">点赞</tspan></text><path d="M3.25446e-06-6.875 728.004-6.87466 728.004 6.87534-3.25446e-06 6.875ZM721.129-20.6247 762.379 0.000360892 721.129 20.6253Z" transform="matrix(-1 0 0 1 2289.38 778)"/><text font-family="SimSun,SimSun_MSFontService,sans-serif" font-weight="400" font-size="83" transform="matrix(1 0 0 1 1816.52 870)">点赞</text><text font-family="SimSun,SimSun_MSFontService,sans-serif" font-weight="400" font-size="83" transform="matrix(0.631612 -0.775285 0.775285 0.631612 2120.37 1039)">归属<tspan font-size="83" x="-9.32321" y="218.127">归属</tspan></text><path d="M1364.23 915.751 1715.55 1229.13 1706.4 1239.39 1355.08 926.012ZM1351.05 940.85 1334 898 1378.51 910.067Z"/><text font-family="SimSun,SimSun_MSFontService,sans-serif" font-weight="400" font-size="83" transform="matrix(0.744122 0.668044 -0.668044 0.744122 1530.7 930)">撰写<tspan font-size="83" x="-2.77956" y="210.795">撰写</tspan></text><text font-family="SimSun,SimSun_MSFontService,sans-serif" font-weight="400" font-size="64" transform="matrix(1 0 0 1 1792.89 1226)">内容<tspan font-family="Times New Roman,Times New Roman_MSFontService,sans-serif" font-size="64" x="144.375" y="0">…</tspan><tspan font-size="64" x="0" y="77">日期</tspan><tspan font-family="Times New Roman,Times New Roman_MSFontService,sans-serif" font-size="64" x="144.375" y="77">5.8</tspan><tspan font-family="Times New Roman,Times New Roman_MSFontService,sans-serif" font-size="64" x="-581.973" y="-505">ID  0008</tspan><tspan font-size="64" x="-581.973" y="-427">姓名</tspan><tspan font-family="Times New Roman,Times New Roman_MSFontService,sans-serif" font-size="64" x="-437.598" y="-427">Eric</tspan><tspan font-family="Times New Roman,Times New Roman_MSFontService,sans-serif" font-size="64" x="557.989" y="-550">BID 089</tspan><tspan font-size="64" x="557.989" y="-472">主题</tspan><tspan font-size="64" x="702.364" y="-472">旅游</tspan><tspan font-size="64" x="557.989" y="-395">日期</tspan><tspan font-family="Times New Roman,Times New Roman_MSFontService,sans-serif" font-size="64" x="702.364" y="-395">5.4</tspan></text></g></svg>