<svg width="383" height="315" xmlns="http://www.w3.org/2000/svg" xmlns:xlink="http://www.w3.org/1999/xlink" overflow="hidden"><defs><clipPath id="clip0"><rect x="702" y="30" width="383" height="315"/></clipPath></defs><g clip-path="url(#clip0)" transform="translate(-702 -30)"><path d="M721 294C721 266.938 751.221 245 788.5 245 825.779 245 856 266.938 856 294 856 321.062 825.779 343 788.5 343 751.221 343 721 321.062 721 294Z" stroke="#000000" stroke-width="2" stroke-miterlimit="8" fill="#FFF2CC" fill-rule="evenodd"/><text font-family="SimSun,SimSun_MSFontService,sans-serif" font-weight="400" font-size="21" transform="translate(767.187 289)">名称</text><text font-family="Times New Roman,Times New Roman_MSFontService,sans-serif" font-weight="400" font-size="21" transform="translate(750.4 314)">TuGraph</text><path d="M927 216C927 186.729 961.922 163 1005 163 1048.08 163 1083 186.729 1083 216 1083 245.271 1048.08 269 1005 269 961.922 269 927 245.271 927 216Z" stroke="#000000" stroke-width="2" stroke-miterlimit="8" fill="#FFF2CC" fill-rule="evenodd"/><text font-family="Times New Roman,Times New Roman_MSFontService,sans-serif" font-weight="400" font-size="21" transform="translate(959.491 211)">DID</text><text font-family="Times New Roman,Times New Roman_MSFontService,sans-serif" font-weight="400" font-size="21" transform="translate(1002.66 211)">0001</text><text font-family="SimSun,SimSun_MSFontService,sans-serif" font-weight="400" font-size="21" transform="translate(959.491 236)">名称</text><text font-family="Times New Roman,Times New Roman_MSFontService,sans-serif" font-weight="400" font-size="21" transform="translate(1007.49 236)">db</text><text font-family="Times New Roman,Times New Roman_MSFontService,sans-serif" font-weight="400" font-size="21" transform="translate(1028.82 236)">_1</text><rect x="962" y="127" width="86" height="49" stroke="#000000" stroke-width="2" stroke-miterlimit="8" fill="#FFFFFF"/><text font-family="SimSun,SimSun_MSFontService,sans-serif" font-weight="400" font-size="21" transform="translate(973.333 148)">数据库</text><text font-family="SimSun,SimSun_MSFontService,sans-serif" font-weight="400" font-size="21" transform="translate(984 172)">实例</text><path d="M704 102C704 74.938 740.713 53 786 53 831.287 53 868 74.938 868 102 868 129.062 831.287 151 786 151 740.713 151 704 129.062 704 102Z" stroke="#000000" stroke-width="2" stroke-miterlimit="8" fill="#FFF2CC" fill-rule="evenodd"/><text font-family="Times New Roman,Times New Roman_MSFontService,sans-serif" font-weight="400" font-size="21" transform="translate(737.231 98)">ID</text><text font-family="Times New Roman,Times New Roman_MSFontService,sans-serif" font-weight="400" font-size="21" transform="translate(770.398 98)">0088</text><text font-family="SimSun,SimSun_MSFontService,sans-serif" font-weight="400" font-size="21" transform="translate(737.231 123)">姓名</text><text font-family="Times New Roman,Times New Roman_MSFontService,sans-serif" font-weight="400" font-size="21" transform="translate(785.231 123)">Eric</text><rect x="742" y="38" width="89" height="25" stroke="#000000" stroke-width="2" stroke-miterlimit="8" fill="#FFFFFF"/><text font-family="SimSun,SimSun_MSFontService,sans-serif" font-weight="400" font-size="21" transform="translate(765.151 59)">用户</text><path d="M1.48029-1.3449 65.5389 69.1625 62.5783 71.8523-1.48029 1.3449ZM67.1546 64.9925 70.7831 77.9089 58.2729 73.0618Z" transform="matrix(-1 0 0 1 926.783 216)"/><path d="M845.382 135.555 921.112 207.989 918.347 210.88 842.618 138.445ZM922.431 203.716 926.956 216.346 914.137 212.388Z"/><text font-family="SimSun,SimSun_MSFontService,sans-serif" font-weight="400" font-size="27" transform="matrix(0.738788 0.673938 -0.673938 0.738788 871.583 145)">创建</text><text font-family="SimSun,SimSun_MSFontService,sans-serif" font-weight="400" font-size="27" transform="matrix(0.693341 -0.72061 0.72061 0.693341 897.041 295)">归属</text><rect x="747" y="232" width="83" height="25" stroke="#000000" stroke-width="2" stroke-miterlimit="8" fill="#FFFFFF"/><text font-family="SimSun,SimSun_MSFontService,sans-serif" font-weight="400" font-size="21" transform="translate(756.651 253)">数据库</text><text font-family="SimSun,SimSun_MSFontService,sans-serif" font-weight="400" font-size="24" transform="matrix(-0.0442172 -0.999022 0.999022 -0.0442172 774.062 214)">登录</text><path d="M787.999 150.931 790.452 221.837 786.454 221.975 784.001 151.069ZM794.38 219.7 788.799 231.9 782.388 220.114Z"/></g></svg>