<svg width="2988" height="1516" xmlns="http://www.w3.org/2000/svg" xmlns:xlink="http://www.w3.org/1999/xlink" overflow="hidden"><defs><clipPath id="clip0"><rect x="51" y="106" width="2988" height="1516"/></clipPath></defs><g clip-path="url(#clip0)" transform="translate(-51 -106)"><path d="M642.148 134.481 642.148 238.064" stroke="#000000" stroke-width="4.58333" stroke-linejoin="round" stroke-miterlimit="10" fill="none" fill-rule="evenodd"/><path d="M201.831 134.481 201.831 238.064" stroke="#000000" stroke-width="4.58333" stroke-linejoin="round" stroke-miterlimit="10" fill="none" fill-rule="evenodd"/><path d="M2970 134.481 2970 238.064" stroke="#000000" stroke-width="4.58333" stroke-linejoin="round" stroke-miterlimit="10" fill="none" fill-rule="evenodd"/><path d="M199.539 136.772 2972.29 136.772" stroke="#000000" stroke-width="4.58333" stroke-linejoin="round" stroke-miterlimit="10" fill="none" fill-rule="evenodd"/><path d="M199.539 235.772 2972.29 235.772" stroke="#000000" stroke-width="4.58333" stroke-linejoin="round" stroke-miterlimit="10" fill="none" fill-rule="evenodd"/><text font-family="Times New Roman,Times New Roman_MSFontService,sans-serif" font-weight="400" font-size="83" transform="matrix(1 0 0 1 310.844 215)">y: <tspan font-size="83" x="84.7917" y="0">B</tspan><tspan font-size="83" x="139.792" y="0">ob</tspan><tspan font-size="83" x="500.361" y="1">(“</tspan><tspan font-family="SimSun,SimSun_MSFontService,sans-serif" font-size="83" x="564.527" y="1">名字是</tspan><tspan font-size="83" x="812.027" y="1">”, “Bob”) (“</tspan><tspan font-family="SimSun,SimSun_MSFontService,sans-serif" font-size="83" x="1213.07" y="1">年龄是</tspan>”, “19”)<tspan font-size="83" x="1740.73" y="1">(“</tspan><tspan font-family="SimSun,SimSun_MSFontService,sans-serif" font-size="83" x="1804.89" y="1">借阅</tspan>”, y: <tspan font-family="SimSun,SimSun_MSFontService,sans-serif" font-size="83" x="2132.6" y="1">操作系统</tspan>)</text><path d="M841 526.5 858.75 526.5 858.75 274 894.25 274 894.25 526.5 912 526.5 876.5 562Z" fill="#2E75B6" fill-rule="evenodd"/><text font-family="SimSun,SimSun_MSFontService,sans-serif" font-weight="400" font-size="92" transform="matrix(1 0 0 1 932.248 438)">转换成<tspan font-weight="700" font-size="92" x="275" y="0">二进制位串</tspan></text><rect x="122.5" y="918.5" width="453" height="154" stroke="#000000" stroke-width="6.875" stroke-miterlimit="8" stroke-dasharray="6.875 6.875" fill="#DEEBF7"/><text font-family="Times New Roman,Times New Roman_MSFontService,sans-serif" font-weight="400" font-size="83" transform="matrix(1 0 0 1 173.431 1026)">0100 1000<tspan font-family="SimSun,SimSun_MSFontService,sans-serif" font-size="83" x="-72.1875" y="-352">（实体标签）</tspan><tspan font-family="SimSun,SimSun_MSFontService,sans-serif" font-size="83" x="543.37" y="-352">（谓词）</tspan><tspan font-family="SimSun,SimSun_MSFontService,sans-serif" font-size="83" x="1078.07" y="-351">（邻居）</tspan></text><rect x="654.5" y="1102.5" width="453" height="154" stroke="#000000" stroke-width="6.875" stroke-miterlimit="8" stroke-dasharray="6.875 6.875" fill="#F2F2F2"/><text font-family="Times New Roman,Times New Roman_MSFontService,sans-serif" font-weight="400" font-size="83" transform="matrix(1 0 0 1 705.567 1209)">1<tspan font-size="83" x="41.25" y="0">000 0010</tspan></text><rect x="654.5" y="918.5" width="453" height="154" stroke="#000000" stroke-width="6.875" stroke-miterlimit="8" stroke-dasharray="6.875 6.875" fill="#F2F2F2"/><text font-family="Times New Roman,Times New Roman_MSFontService,sans-serif" font-weight="400" font-size="83" transform="matrix(1 0 0 1 705.567 1025)">0000 1000</text><rect x="654.5" y="736.5" width="453" height="155" stroke="#000000" stroke-width="6.875" stroke-miterlimit="8" stroke-dasharray="6.875 6.875" fill="#F2F2F2"/><text font-family="Times New Roman,Times New Roman_MSFontService,sans-serif" font-weight="400" font-size="83" transform="matrix(1 0 0 1 705.567 844)">1000 1000</text><rect x="1190.5" y="1101.5" width="453" height="155" stroke="#000000" stroke-width="6.875" stroke-miterlimit="8" stroke-dasharray="6.875 6.875" fill="#F2F2F2"/><text font-family="Times New Roman,Times New Roman_MSFontService,sans-serif" font-weight="400" font-size="83" transform="matrix(1 0 0 1 1241.19 1209)">0001 0001</text><rect x="1190.5" y="918.5" width="453" height="154" stroke="#000000" stroke-width="6.875" stroke-miterlimit="8" stroke-dasharray="6.875 6.875" fill="#F2F2F2"/><text font-family="Times New Roman,Times New Roman_MSFontService,sans-serif" font-weight="400" font-size="83" transform="matrix(1 0 0 1 1241.19 1025)">0100 1010</text><rect x="1190.5" y="736.5" width="453" height="155" stroke="#000000" stroke-width="6.875" stroke-miterlimit="8" stroke-dasharray="6.875 6.875" fill="#F2F2F2"/><text font-family="Times New Roman,Times New Roman_MSFontService,sans-serif" font-weight="400" font-size="83" transform="matrix(1 0 0 1 1241.19 844)">0010 1010</text><rect x="618" y="702" width="520" height="596" stroke="#2F528F" stroke-width="10.3125" stroke-miterlimit="8" stroke-dasharray="10.3125 10.3125" fill="none"/><rect x="1157" y="700" width="519" height="596" stroke="#2F528F" stroke-width="10.3125" stroke-miterlimit="8" stroke-dasharray="10.3125 10.3125" fill="none"/><text font-family="SimSun,SimSun_MSFontService,sans-serif" font-weight="700" font-size="92" transform="matrix(1 0 0 1 1006.52 1403)">或<tspan font-weight="400" font-size="92" x="92.2396" y="0">运算</tspan></text><rect x="655.5" y="1445.5" width="454" height="155" stroke="#000000" stroke-width="6.875" stroke-miterlimit="8" stroke-dasharray="6.875 6.875" fill="#DEEBF7"/><text font-family="Times New Roman,Times New Roman_MSFontService,sans-serif" font-weight="400" font-size="83" transform="matrix(1 0 0 1 706.731 1553)">1000 1010</text><rect x="1186.5" y="1446.5" width="453" height="154" stroke="#000000" stroke-width="6.875" stroke-miterlimit="8" stroke-dasharray="6.875 6.875" fill="#DEEBF7"/><text font-family="Times New Roman,Times New Roman_MSFontService,sans-serif" font-weight="400" font-size="83" transform="matrix(1 0 0 1 1241.44 1553)">0111 1011</text><path d="M845 1409 863 1409 863 1302 899 1302 899 1409 917 1409 881 1445Z" fill="#2E75B6" fill-rule="evenodd"/><path d="M1376 1409 1394 1409 1394 1302 1430 1302 1430 1409 1448 1409 1412 1445Z" fill="#2E75B6" fill-rule="evenodd"/><path d="M1876 1031 1876 1013 1705 1013 1705 977 1876 977 1876 959 1912 995Z" fill="#7F7F7F" fill-rule="evenodd"/><rect x="1929.5" y="918.5" width="424" height="154" stroke="#000000" stroke-width="6.875" stroke-miterlimit="8" stroke-dasharray="6.875 6.875" fill="#DEEBF7"/><text font-family="Times New Roman,Times New Roman_MSFontService,sans-serif" font-weight="400" font-size="83" transform="matrix(1 0 0 1 1965.74 1025)">0100 1000</text><rect x="2589.5" y="918.5" width="446" height="154" stroke="#000000" stroke-width="6.875" stroke-miterlimit="8" stroke-dasharray="6.875 6.875" fill="#DEEBF7"/><text font-family="Times New Roman,Times New Roman_MSFontService,sans-serif" font-weight="400" font-size="83" transform="matrix(1 0 0 1 2641.38 1025)">0111 1011<tspan font-size="83" x="-347.069" y="-144">1000 1010</tspan></text><path d="M2353.5 993.208 2566.67 993.209 2566.67 997.792 2353.5 997.792ZM2562.09 981.75 2589.59 995.5 2562.09 1009.25Z"/></g></svg>