<svg width="2536" height="1602" xmlns="http://www.w3.org/2000/svg" xmlns:xlink="http://www.w3.org/1999/xlink" overflow="hidden"><defs><clipPath id="clip0"><rect x="627" y="420" width="2536" height="1602"/></clipPath></defs><g clip-path="url(#clip0)" transform="translate(-627 -420)"><path d="M2252.38 1606.25 2252.12 1396.01 2265.88 1395.99 2266.13 1606.23ZM2279.87 1599.34 2259.3 1640.61 2238.62 1599.39Z" fill="#00B050"/><path d="M25.4118 24.1484 176.188 238.281 164.945 246.197 14.1692 32.0646ZM6.88474 45.6021 0 0 40.6125 21.8535Z" transform="matrix(-1 0 0 1 2468.57 798)"/><path d="M2055 1227.5C2055 1134.44 2146.56 1059 2259.5 1059 2372.44 1059 2464 1134.44 2464 1227.5 2464 1320.56 2372.44 1396 2259.5 1396 2146.56 1396 2055 1320.56 2055 1227.5Z" stroke="#C00000" stroke-width="13.75" stroke-miterlimit="8" fill="#FFF2CC" fill-rule="evenodd"/><rect x="2107.5" y="1021.5" width="307" height="88" stroke="#000000" stroke-width="6.875" stroke-miterlimit="8" fill="#FFFFFF"/><text font-family="SimSun,SimSun_MSFontService,sans-serif" font-weight="400" font-size="73" transform="matrix(1 0 0 1 2150.75 1093)">开发者<tspan font-size="83" x="10.7832" y="132">姓名</tspan><tspan font-family="Times New Roman,Times New Roman_MSFontService,sans-serif" font-size="83" x="175.783" y="132">:</tspan><tspan font-family="Times New Roman,Times New Roman_MSFontService,sans-serif" font-size="83" x="15.3665" y="230">Mark</tspan></text><path d="M1352.5 1226C1352.5 1132.94 1444.06 1057.5 1557 1057.5 1669.94 1057.5 1761.5 1132.94 1761.5 1226 1761.5 1319.06 1669.94 1394.5 1557 1394.5 1444.06 1394.5 1352.5 1319.06 1352.5 1226Z" stroke="#000000" stroke-width="6.875" stroke-miterlimit="8" fill="#FFF2CC" fill-rule="evenodd"/><rect x="1404.5" y="1019.5" width="308" height="87.9999" stroke="#000000" stroke-width="6.875" stroke-miterlimit="8" fill="#FFFFFF"/><text font-family="SimSun,SimSun_MSFontService,sans-serif" font-weight="400" font-size="73" transform="matrix(1 0 0 1 1448.08 1091)">开发者<tspan font-size="83" x="12.5023" y="132">姓名</tspan><tspan font-family="Times New Roman,Times New Roman_MSFontService,sans-serif" font-size="83" x="177.502" y="132">:</tspan><tspan font-family="Times New Roman,Times New Roman_MSFontService,sans-serif" font-size="83" x="5.62732" y="230">James</tspan></text><path d="M2409.5 679.5C2409.5 586.716 2501.06 511.5 2614 511.5 2726.94 511.5 2818.5 586.716 2818.5 679.5 2818.5 772.284 2726.94 847.5 2614 847.5 2501.06 847.5 2409.5 772.284 2409.5 679.5Z" stroke="#000000" stroke-width="6.875" stroke-miterlimit="8" fill="#FFF2CC" fill-rule="evenodd"/><rect x="2461.5" y="472.5" width="308" height="88" stroke="#000000" stroke-width="6.875" stroke-miterlimit="8" fill="#FFFFFF"/><text font-family="SimSun,SimSun_MSFontService,sans-serif" font-weight="400" font-size="73" transform="matrix(1 0 0 1 2541.78 544)">项目<tspan font-size="64" x="-5.95435" y="126">名称</tspan><tspan font-family="Times New Roman,Times New Roman_MSFontService,sans-serif" font-size="64" x="122.379" y="126">:</tspan><tspan font-size="64" x="-52.3606" y="203">电商</tspan><tspan font-family="Times New Roman,Times New Roman_MSFontService,sans-serif" font-size="64" x="75.9729" y="203">App</tspan></text><path d="M2704.5 1229C2704.5 1135.94 2796.06 1060.5 2909 1060.5 3021.94 1060.5 3113.5 1135.94 3113.5 1229 3113.5 1322.06 3021.94 1397.5 2909 1397.5 2796.06 1397.5 2704.5 1322.06 2704.5 1229Z" stroke="#000000" stroke-width="6.875" stroke-miterlimit="8" fill="#FFF2CC" fill-rule="evenodd"/><rect x="2757.5" y="1022.5" width="307" height="86.9999" stroke="#000000" stroke-width="6.875" stroke-miterlimit="8" fill="#FFFFFF"/><text font-family="SimSun,SimSun_MSFontService,sans-serif" font-weight="400" font-size="73" transform="matrix(1 0 0 1 2800.48 1094)">开发者<tspan font-size="83" x="10.7832" y="132">姓名</tspan><tspan font-family="Times New Roman,Times New Roman_MSFontService,sans-serif" font-size="83" x="175.783" y="132">:</tspan><tspan font-family="Times New Roman,Times New Roman_MSFontService,sans-serif" font-size="83" x="8.4917" y="230">Linda</tspan></text><path d="M1350.5 1847.5C1350.5 1754.72 1442.28 1679.5 1555.5 1679.5 1668.72 1679.5 1760.5 1754.72 1760.5 1847.5 1760.5 1940.28 1668.72 2015.5 1555.5 2015.5 1442.28 2015.5 1350.5 1940.28 1350.5 1847.5Z" stroke="#000000" stroke-width="6.875" stroke-miterlimit="8" fill="#FFF2CC" fill-rule="evenodd"/><rect x="1403.5" y="1640.5" width="307" height="88" stroke="#000000" stroke-width="6.875" stroke-miterlimit="8" fill="#FFFFFF"/><text font-family="SimSun,SimSun_MSFontService,sans-serif" font-weight="400" font-size="73" transform="matrix(1 0 0 1 1483.19 1712)">技术<tspan font-size="83" x="-25.8833" y="133">名称</tspan><tspan font-family="Times New Roman,Times New Roman_MSFontService,sans-serif" font-size="83" x="139.117" y="133">:</tspan><tspan font-family="Times New Roman,Times New Roman_MSFontService,sans-serif" font-size="83" x="-5.8313" y="231">C++</tspan></text><path d="M2703.5 1847.5C2703.5 1754.72 2795.06 1679.5 2908 1679.5 3020.94 1679.5 3112.5 1754.72 3112.5 1847.5 3112.5 1940.28 3020.94 2015.5 2908 2015.5 2795.06 2015.5 2703.5 1940.28 2703.5 1847.5Z" stroke="#000000" stroke-width="6.875" stroke-miterlimit="8" fill="#FFF2CC" fill-rule="evenodd"/><rect x="2756.5" y="1640.5" width="307" height="88" stroke="#000000" stroke-width="6.875" stroke-miterlimit="8" fill="#FFFFFF"/><text font-family="SimSun,SimSun_MSFontService,sans-serif" font-weight="400" font-size="73" transform="matrix(1 0 0 1 2836.09 1712)">技术<tspan font-size="83" x="-25.8835" y="133">名称</tspan><tspan font-family="Times New Roman,Times New Roman_MSFontService,sans-serif" font-size="83" x="139.116" y="133">:</tspan><tspan font-family="Times New Roman,Times New Roman_MSFontService,sans-serif" font-size="83" x="-5.8313" y="231">C++</tspan></text><path d="M1691.5 671C1691.5 577.94 1783.06 502.5 1896 502.5 2008.94 502.5 2100.5 577.94 2100.5 671 2100.5 764.06 2008.94 839.5 1896 839.5 1783.06 839.5 1691.5 764.06 1691.5 671Z" stroke="#000000" stroke-width="6.875" stroke-miterlimit="8" fill="#FFF2CC" fill-rule="evenodd"/><rect x="1743.5" y="464.5" width="308" height="88" stroke="#000000" stroke-width="6.875" stroke-miterlimit="8" fill="#FFFFFF"/><text font-family="SimSun,SimSun_MSFontService,sans-serif" font-weight="400" font-size="73" transform="matrix(1 0 0 1 1823.57 536)">项目<tspan font-size="64" x="-1.64587" y="128">名称</tspan><tspan font-family="Times New Roman,Times New Roman_MSFontService,sans-serif" font-size="64" x="126.687" y="128">:</tspan><tspan font-size="64" x="-48.0521" y="205">外卖</tspan><tspan font-family="Times New Roman,Times New Roman_MSFontService,sans-serif" font-size="64" x="80.2811" y="205">App</tspan></text><path d="M2902.55 1606.42 2902.13 1397.01 2915.88 1396.99 2916.3 1606.4ZM2930.04 1599.49 2909.5 1640.79 2888.79 1599.58Z"/><path d="M2783.01 822.567 2915.98 1018.23 2904.6 1025.95 2771.64 830.295ZM2764.13 843.71 2758 798 2798.24 820.524Z"/><path d="M1550.13 1606.3 1550.12 1394 1563.87 1394 1563.88 1606.3ZM1577.63 1599.43 1557.01 1640.68 1536.38 1599.43Z"/><path d="M27.3676 21.9068 197.892 225.029 187.361 233.87 16.8366 30.7477ZM10.7262 44.8542 0 0 42.3191 18.3315Z" transform="matrix(-1 0 0 1 1750.63 789)"/><text font-family="SimSun,SimSun_MSFontService,sans-serif" font-weight="400" font-size="83" transform="matrix(1 0 0 1 2877.03 926)">工作<tspan font-size="83" x="68.6216" y="603">掌握</tspan></text><path d="M1795.42 1218.37 2054.62 1220.19 2054.53 1233.94 1795.33 1232.12ZM1802.1 1245.91 1761 1225 1802.39 1204.67Z" fill="#C00000"/><path d="M2053 1847C2053 1754.22 2144.56 1679 2257.5 1679 2370.44 1679 2462 1754.22 2462 1847 2462 1939.78 2370.44 2015 2257.5 2015 2144.56 2015 2053 1939.78 2053 1847Z" stroke="#00B050" stroke-width="13.75" stroke-miterlimit="8" fill="#FFF2CC" fill-rule="evenodd"/><rect x="2106.5" y="1640.5" width="307" height="88" stroke="#000000" stroke-width="6.875" stroke-miterlimit="8" fill="#FFFFFF"/><text font-family="SimSun,SimSun_MSFontService,sans-serif" font-weight="400" font-size="73" transform="matrix(1 0 0 1 2186.16 1712)">技术<tspan font-size="83" x="-25.8833" y="133">名称</tspan><tspan font-family="Times New Roman,Times New Roman_MSFontService,sans-serif" font-size="83" x="139.117" y="133">:</tspan><tspan font-family="Times New Roman,Times New Roman_MSFontService,sans-serif" font-size="83" x="-5.2583" y="231">Java</tspan><tspan font-size="83" x="-347.259" y="-526">认识</tspan></text><path d="M2498.4 1221.24 2704.66 1221.95 2704.61 1235.7 2498.35 1234.99ZM2505.18 1248.77 2464 1228 2505.32 1207.52Z"/><text font-family="SimSun,SimSun_MSFontService,sans-serif" font-weight="400" font-size="83" transform="matrix(1 0 0 1 2511.4 1190)">认识</text><path d="M686.5 653.5C686.5 560.716 778.058 485.5 891 485.5 1003.94 485.5 1095.5 560.716 1095.5 653.5 1095.5 746.284 1003.94 821.5 891 821.5 778.058 821.5 686.5 746.284 686.5 653.5Z" stroke="#000000" stroke-width="6.875" stroke-miterlimit="8" fill="#FFF2CC" fill-rule="evenodd"/><rect x="738.5" y="447.5" width="307" height="86.9999" stroke="#000000" stroke-width="6.875" stroke-miterlimit="8" fill="#FFFFFF"/><text font-family="SimSun,SimSun_MSFontService,sans-serif" font-weight="400" font-size="73" transform="matrix(1 0 0 1 818.448 518)">项目<tspan font-size="64" x="-1.65723" y="129">名称</tspan><tspan font-family="Times New Roman,Times New Roman_MSFontService,sans-serif" font-size="64" x="126.676" y="129">:</tspan><tspan font-size="64" x="-56.9322" y="206">独立游戏</tspan></text><path d="M683 1225C683 1132.22 774.558 1057 887.5 1057 1000.44 1057 1092 1132.22 1092 1225 1092 1317.78 1000.44 1393 887.5 1393 774.558 1393 683 1317.78 683 1225Z" stroke="#C00000" stroke-width="13.75" stroke-miterlimit="8" fill="#FFF2CC" fill-rule="evenodd"/><rect x="736.5" y="1019.5" width="307" height="86.9999" stroke="#000000" stroke-width="6.875" stroke-miterlimit="8" fill="#FFFFFF"/><text font-family="SimSun,SimSun_MSFontService,sans-serif" font-weight="400" font-size="73" transform="matrix(1 0 0 1 779.179 1090)">开发者<tspan font-size="83" x="12.5022" y="133">姓名</tspan><tspan font-family="Times New Roman,Times New Roman_MSFontService,sans-serif" font-size="83" x="177.502" y="133">:</tspan><tspan font-family="Times New Roman,Times New Roman_MSFontService,sans-serif" font-size="83" x="-5.83112" y="231">Brown</tspan></text><path d="M1092.01 1218.13 1317.44 1218.36 1317.42 1232.11 1091.99 1231.88ZM1310.58 1204.6 1351.81 1225.27 1310.54 1245.85Z" fill="#C00000"/><text font-family="SimSun,SimSun_MSFontService,sans-serif" font-weight="400" font-size="83" transform="matrix(1 0 0 1 1129.44 1192)">认识</text><path d="M7.05675 34.3382 7.91896 197.32-5.83084 197.393-6.69305 34.411ZM-20.4065 41.3585 0 0 20.8429 41.1403Z" transform="matrix(-1 0 0 1 890.044 821)"/><text font-family="SimSun,SimSun_MSFontService,sans-serif" font-weight="400" font-size="83" transform="matrix(1 0 0 1 686.384 951)">工作<tspan font-size="83" x="-9.86932" y="575">掌握</tspan></text><path d="M676.5 1846C676.5 1752.94 768.058 1677.5 881 1677.5 993.942 1677.5 1085.5 1752.94 1085.5 1846 1085.5 1939.06 993.942 2014.5 881 2014.5 768.058 2014.5 676.5 1939.06 676.5 1846Z" stroke="#000000" stroke-width="6.875" stroke-miterlimit="8" fill="#FFF2CC" fill-rule="evenodd"/><rect x="728.5" y="1639.5" width="308" height="88" stroke="#000000" stroke-width="6.875" stroke-miterlimit="8" fill="#FFFFFF"/><text font-family="SimSun,SimSun_MSFontService,sans-serif" font-weight="400" font-size="73" transform="matrix(1 0 0 1 808.784 1711)">技术<tspan font-size="83" x="-25.8834" y="132">名称</tspan><tspan font-family="Times New Roman,Times New Roman_MSFontService,sans-serif" font-size="83" x="139.117" y="132">:</tspan><tspan font-family="Times New Roman,Times New Roman_MSFontService,sans-serif" font-size="83" x="19.95" y="230">C#</tspan></text><path d="M875.13 1604.3 875.125 1392 888.875 1392 888.88 1604.3ZM902.63 1597.43 882.006 1638.68 861.38 1597.43Z"/></g></svg>