<svg width="6072" height="2298" xmlns="http://www.w3.org/2000/svg" xmlns:xlink="http://www.w3.org/1999/xlink" overflow="hidden"><defs><clipPath id="clip0"><rect x="-579" y="-140" width="6072" height="2298"/></clipPath></defs><g clip-path="url(#clip0)" transform="translate(579 140)"><path d="M34.9267 3.00181 960.201 272.21 956.36 285.413 31.0854 16.2044ZM33.8457 31.3276 0 0 45.3695-8.27999Z" fill="#0070C0" transform="matrix(1 0 0 -1 256 744.812)"/><path d="M1060.5 502.5C1060.5 487.036 1073.04 474.5 1088.5 474.5 1103.96 474.5 1116.5 487.036 1116.5 502.5 1116.5 517.964 1103.96 530.5 1088.5 530.5 1073.04 530.5 1060.5 517.964 1060.5 502.5Z" stroke="#000000" stroke-width="4.58333" stroke-miterlimit="8" fill="#0070C0" fill-rule="evenodd"/><text fill="#FFFFFF" font-family="Times New Roman,Times New Roman_MSFontService,sans-serif" font-weight="400" font-size="55" transform="matrix(1 0 0 1 1074.09 522)">1</text><path d="M1037.66 1235.87 1031.13 1056.25 1044.87 1055.75 1051.4 1235.37ZM1064.89 1228 1045.78 1269.97 1023.67 1229.5Z" fill="#0070C0"/><path d="M1014.5 1155.5C1014.5 1140.04 1027.26 1127.5 1043 1127.5 1058.74 1127.5 1071.5 1140.04 1071.5 1155.5 1071.5 1170.96 1058.74 1183.5 1043 1183.5 1027.26 1183.5 1014.5 1170.96 1014.5 1155.5Z" stroke="#000000" stroke-width="4.58333" stroke-miterlimit="8" fill="#0070C0" fill-rule="evenodd"/><text fill="#FFFFFF" font-family="Times New Roman,Times New Roman_MSFontService,sans-serif" font-weight="400" font-size="55" transform="matrix(1 0 0 1 1028.93 1175)">1</text><path d="M7.26325 34.295 9.78335 257.154-3.96577 257.309-6.48587 34.4505ZM-20.1573 41.4806 0 0 21.0901 41.0142Z" fill="#0070C0" transform="matrix(1 0 0 -1 875 1833.23)"/><path d="M7.39758 34.2663 9.77975 190.707-3.96866 190.916-6.35083 34.4757ZM-19.9946 41.5592 0 0 21.2507 40.9312Z" fill="#0070C0" transform="matrix(1 0 0 -1 122 1258.81)"/><path d="M2147.55 1795.05 1878.23 1535.95 1887.77 1526.05 2157.09 1785.14ZM2161.67 1770.47 2177.09 1813.93 2133.07 1800.19Z" fill="#0070C0"/><path d="M1289.51 1760.24 1028.12 1581.68 1035.88 1570.32 1297.27 1748.88ZM1299.35 1733.65 1321.77 1773.95 1276.08 1767.71Z" fill="#0070C0"/><path d="M694.654 1764.74 315.587 1547.97 322.413 1536.03 701.48 1752.8ZM702.337 1737.45 727.907 1775.84 681.86 1773.26Z" fill="#0070C0"/><path d="M1711.97 717.233 1525.84 505.539 1536.16 496.46 1722.3 708.154ZM1728.08 693.912 1739.83 738.509 1697.1 721.149Z" fill="#0070C0"/><path d="M26.8423 22.5477 208.59 249.735 197.853 258.324 16.1053 31.1372ZM9.66307 45.0952 0 0 41.874 19.3267Z" fill="#0070C0" transform="matrix(1 0 0 -1 1038 755.029)"/><path d="M379.5 378.5C379.5 285.716 471.058 210.5 584 210.5 696.942 210.5 788.5 285.716 788.5 378.5 788.5 471.284 696.942 546.5 584 546.5 471.058 546.5 379.5 471.284 379.5 378.5Z" stroke="#000000" stroke-width="6.875" stroke-miterlimit="8" fill="#F2F2F2" fill-rule="evenodd"/><rect x="305.5" y="149.5" width="214" height="171" stroke="#000000" stroke-width="6.875" stroke-miterlimit="8" fill="#FFFFFF"/><text font-family="SimSun,SimSun_MSFontService,sans-serif" font-weight="400" font-size="73" transform="matrix(1 0 0 1 338.391 219)">集散<tspan font-size="73" x="0" y="88">中心</tspan><tspan font-family="Times New Roman,Times New Roman_MSFontService,sans-serif" font-size="92" x="119.463" y="192">CID</tspan><tspan font-family="Times New Roman,Times New Roman_MSFontService,sans-serif" font-size="92" x="277.588" y="192">: 1</tspan></text><path d="M-23 909C-23 816.216 68.5578 741 181.5 741 294.442 741 386 816.216 386 909 386 1001.78 294.442 1077 181.5 1077 68.5578 1077-23 1001.78-23 909Z" stroke="#C00000" stroke-width="13.75" stroke-miterlimit="8" fill="#F2F2F2" fill-rule="evenodd"/><rect x="-162.5" y="729.5" width="301" height="102" stroke="#000000" stroke-width="6.875" stroke-miterlimit="8" fill="#FFFFFF"/><text font-family="SimSun,SimSun_MSFontService,sans-serif" font-weight="400" font-size="73" transform="matrix(1 0 0 1 -122.154 808)">派送点<tspan font-family="Times New Roman,Times New Roman_MSFontService,sans-serif" font-size="92" x="182.692" y="134">PID</tspan><tspan font-family="Times New Roman,Times New Roman_MSFontService,sans-serif" font-size="92" x="330.505" y="134">: 1</tspan></text><path d="M-29.9999 1423C-29.9999 1330.22 61.5579 1255 174.5 1255 287.442 1255 379 1330.22 379 1423 379 1515.78 287.442 1591 174.5 1591 61.5579 1591-29.9999 1515.78-29.9999 1423Z" stroke="#C00000" stroke-width="13.75" stroke-miterlimit="8" fill="#F2F2F2" fill-rule="evenodd"/><text font-family="Times New Roman,Times New Roman_MSFontService,sans-serif" font-weight="400" font-size="92" transform="matrix(1 0 0 1 46.1805 1457)">A<tspan font-size="92" x="66.4583" y="0">ID</tspan><tspan font-size="92" x="163.281" y="0">: 1</tspan></text><rect x="-168.5" y="1215.5" width="214" height="170" stroke="#000000" stroke-width="6.875" stroke-miterlimit="8" fill="#FFFFFF"/><text font-family="SimSun,SimSun_MSFontService,sans-serif" font-weight="400" font-size="73" transform="matrix(1 0 0 1 -135.627 1288)">派送<tspan font-size="73" x="0" y="84">区域</tspan></text><path d="M-429 1982C-429 1889.22-337.442 1814-224.5 1814-111.558 1814-19.9999 1889.22-19.9999 1982-19.9999 2074.78-111.558 2150-224.5 2150-337.442 2150-429 2074.78-429 1982Z" stroke="#C00000" stroke-width="13.75" stroke-miterlimit="8" fill="#F2F2F2" fill-rule="evenodd"/><text font-family="Times New Roman,Times New Roman_MSFontService,sans-serif" font-weight="400" font-size="92" transform="matrix(1 0 0 1 -352.967 2015)">U<tspan font-size="92" x="66.4583" y="0">ID</tspan><tspan font-size="92" x="163.281" y="0">: 1</tspan></text><rect x="-567.5" y="1774.5" width="214" height="170" stroke="#000000" stroke-width="6.875" stroke-miterlimit="8" fill="#FFFFFF"/><text font-family="SimSun,SimSun_MSFontService,sans-serif" font-weight="400" font-size="73" transform="matrix(1 0 0 1 -534.774 1847)">派送<tspan font-size="73" x="0" y="84">单元</tspan></text><path d="M1181.5 382.5C1181.5 289.716 1273.06 214.5 1386 214.5 1498.94 214.5 1590.5 289.716 1590.5 382.5 1590.5 475.284 1498.94 550.5 1386 550.5 1273.06 550.5 1181.5 475.284 1181.5 382.5Z" stroke="#000000" stroke-width="6.875" stroke-miterlimit="8" fill="#F2F2F2" fill-rule="evenodd"/><rect x="1110.5" y="153.5" width="214" height="171" stroke="#000000" stroke-width="6.875" stroke-miterlimit="8" fill="#FFFFFF"/><text font-family="SimSun,SimSun_MSFontService,sans-serif" font-weight="400" font-size="73" transform="matrix(1 0 0 1 1143.71 223)">集散<tspan font-size="73" x="0" y="88">中心</tspan><tspan font-family="Times New Roman,Times New Roman_MSFontService,sans-serif" font-size="92" x="116.163" y="192">CID</tspan><tspan font-family="Times New Roman,Times New Roman_MSFontService,sans-serif" font-size="92" x="274.288" y="192">: 2</tspan></text><path d="M1535.5 907.5C1535.5 814.716 1627.06 739.5 1740 739.5 1852.94 739.5 1944.5 814.716 1944.5 907.5 1944.5 1000.28 1852.94 1075.5 1740 1075.5 1627.06 1075.5 1535.5 1000.28 1535.5 907.5Z" stroke="#000000" stroke-width="6.875" stroke-miterlimit="8" fill="#F2F2F2" fill-rule="evenodd"/><rect x="1395.5" y="727.5" width="301" height="102" stroke="#000000" stroke-width="6.875" stroke-miterlimit="8" fill="#FFFFFF"/><text font-family="SimSun,SimSun_MSFontService,sans-serif" font-weight="400" font-size="73" transform="matrix(1 0 0 1 1435.8 806)">派送点<tspan font-family="Times New Roman,Times New Roman_MSFontService,sans-serif" font-size="92" x="182.692" y="134">PID</tspan><tspan font-family="Times New Roman,Times New Roman_MSFontService,sans-serif" font-size="92" x="330.505" y="134">: 3</tspan></text><path d="M755 908.5C755 815.44 846.781 740 960 740 1073.22 740 1165 815.44 1165 908.5 1165 1001.56 1073.22 1077 960 1077 846.781 1077 755 1001.56 755 908.5Z" stroke="#C00000" stroke-width="13.75" stroke-miterlimit="8" fill="#F2F2F2" fill-rule="evenodd"/><rect x="616.5" y="729.5" width="301" height="102" stroke="#000000" stroke-width="6.875" stroke-miterlimit="8" fill="#FFFFFF"/><text font-family="SimSun,SimSun_MSFontService,sans-serif" font-weight="400" font-size="73" transform="matrix(1 0 0 1 656.43 808)">派送点<tspan font-family="Times New Roman,Times New Roman_MSFontService,sans-serif" font-size="92" x="182.692" y="134">PID</tspan><tspan font-family="Times New Roman,Times New Roman_MSFontService,sans-serif" font-size="92" x="330.505" y="134">: 2</tspan></text><path d="M753 1423C753 1330.22 844.558 1255 957.5 1255 1070.44 1255 1162 1330.22 1162 1423 1162 1515.78 1070.44 1591 957.5 1591 844.558 1591 753 1515.78 753 1423Z" stroke="#C00000" stroke-width="13.75" stroke-miterlimit="8" fill="#F2F2F2" fill-rule="evenodd"/><text font-family="Times New Roman,Times New Roman_MSFontService,sans-serif" font-weight="400" font-size="92" transform="matrix(1 0 0 1 829.155 1457)">A<tspan font-size="92" x="66.4583" y="0">ID</tspan><tspan font-size="92" x="163.281" y="0">: 2</tspan></text><rect x="614.5" y="1215.5" width="214" height="170" stroke="#000000" stroke-width="6.875" stroke-miterlimit="8" fill="#FFFFFF"/><text font-family="SimSun,SimSun_MSFontService,sans-serif" font-weight="400" font-size="73" transform="matrix(1 0 0 1 647.347 1288)">派送<tspan font-size="73" x="0" y="84">区域</tspan></text><path d="M1534.5 1412.5C1534.5 1319.72 1626.06 1244.5 1739 1244.5 1851.94 1244.5 1943.5 1319.72 1943.5 1412.5 1943.5 1505.28 1851.94 1580.5 1739 1580.5 1626.06 1580.5 1534.5 1505.28 1534.5 1412.5Z" stroke="#000000" stroke-width="6.875" stroke-miterlimit="8" fill="#F2F2F2" fill-rule="evenodd"/><text font-family="Times New Roman,Times New Roman_MSFontService,sans-serif" font-weight="400" font-size="92" transform="matrix(1 0 0 1 1609.89 1445)">A<tspan font-size="92" x="66.4584" y="0">ID</tspan><tspan font-size="92" x="163.281" y="0">: 3</tspan></text><rect x="1394.5" y="1204.5" width="214" height="170" stroke="#000000" stroke-width="6.875" stroke-miterlimit="8" fill="#FFFFFF"/><text font-family="SimSun,SimSun_MSFontService,sans-serif" font-weight="400" font-size="73" transform="matrix(1 0 0 1 1428.09 1277)">派送<tspan font-size="73" x="0" y="84">区域</tspan></text><path d="M163.5 1982.5C163.5 1889.72 255.058 1814.5 368 1814.5 480.942 1814.5 572.5 1889.72 572.5 1982.5 572.5 2075.28 480.942 2150.5 368 2150.5 255.058 2150.5 163.5 2075.28 163.5 1982.5Z" stroke="#000000" stroke-width="6.875" stroke-miterlimit="8" fill="#F2F2F2" fill-rule="evenodd"/><text font-family="Times New Roman,Times New Roman_MSFontService,sans-serif" font-weight="400" font-size="92" transform="matrix(1 0 0 1 239.303 2015)">U<tspan font-size="92" x="66.4583" y="0">ID</tspan><tspan font-size="92" x="163.281" y="0">: 2</tspan></text><rect x="24.4999" y="1774.5" width="214" height="170" stroke="#000000" stroke-width="6.875" stroke-miterlimit="8" fill="#FFFFFF"/><text font-family="SimSun,SimSun_MSFontService,sans-serif" font-weight="400" font-size="73" transform="matrix(1 0 0 1 57.4963 1847)">派送<tspan font-size="73" x="0" y="84">单元</tspan></text><path d="M772 1982C772 1889.22 863.558 1814 976.5 1814 1089.44 1814 1181 1889.22 1181 1982 1181 2074.78 1089.44 2150 976.5 2150 863.558 2150 772 2074.78 772 1982Z" stroke="#C00000" stroke-width="13.75" stroke-miterlimit="8" fill="#F2F2F2" fill-rule="evenodd"/><text font-family="Times New Roman,Times New Roman_MSFontService,sans-serif" font-weight="400" font-size="92" transform="matrix(1 0 0 1 847.988 2015)">U<tspan font-size="92" x="66.4583" y="0">ID</tspan><tspan font-size="92" x="163.281" y="0">: 3</tspan></text><rect x="633.5" y="1774.5" width="213" height="170" stroke="#000000" stroke-width="6.875" stroke-miterlimit="8" fill="#FFFFFF"/><text font-family="SimSun,SimSun_MSFontService,sans-serif" font-weight="400" font-size="73" transform="matrix(1 0 0 1 666.181 1847)">派送<tspan font-size="73" x="0" y="84">单元</tspan></text><path d="M1354.5 1982.5C1354.5 1889.72 1446.06 1814.5 1559 1814.5 1671.94 1814.5 1763.5 1889.72 1763.5 1982.5 1763.5 2075.28 1671.94 2150.5 1559 2150.5 1446.06 2150.5 1354.5 2075.28 1354.5 1982.5Z" stroke="#000000" stroke-width="6.875" stroke-miterlimit="8" fill="#F2F2F2" fill-rule="evenodd"/><text font-family="Times New Roman,Times New Roman_MSFontService,sans-serif" font-weight="400" font-size="92" transform="matrix(1 0 0 1 1429.95 2015)">U<tspan font-size="92" x="66.4583" y="0">ID</tspan><tspan font-size="92" x="163.281" y="0">: 4</tspan></text><rect x="1215.5" y="1774.5" width="213" height="170" stroke="#000000" stroke-width="6.875" stroke-miterlimit="8" fill="#FFFFFF"/><text font-family="SimSun,SimSun_MSFontService,sans-serif" font-weight="400" font-size="73" transform="matrix(1 0 0 1 1248.14 1847)">派送<tspan font-size="73" x="0" y="84">单元</tspan></text><path d="M1973.5 1982.5C1973.5 1889.72 2065.06 1814.5 2178 1814.5 2290.94 1814.5 2382.5 1889.72 2382.5 1982.5 2382.5 2075.28 2290.94 2150.5 2178 2150.5 2065.06 2150.5 1973.5 2075.28 1973.5 1982.5Z" stroke="#000000" stroke-width="6.875" stroke-miterlimit="8" fill="#F2F2F2" fill-rule="evenodd"/><text font-family="Times New Roman,Times New Roman_MSFontService,sans-serif" font-weight="400" font-size="92" transform="matrix(1 0 0 1 2048.62 2015)">U<tspan font-size="92" x="66.4583" y="0">ID</tspan><tspan font-size="92" x="163.281" y="0">: 5</tspan></text><rect x="1833.5" y="1774.5" width="214" height="170" stroke="#000000" stroke-width="6.875" stroke-miterlimit="8" fill="#FFFFFF"/><text font-family="SimSun,SimSun_MSFontService,sans-serif" font-weight="400" font-size="73" transform="matrix(1 0 0 1 1866.82 1847)">派送<tspan font-size="73" x="0" y="84">单元</tspan></text><path d="M29.6987 18.6251 262.559 238.855 253.111 248.845 20.2507 28.615ZM15.7976 43.3289 0 0 44.1416 13.3593Z" fill="#0070C0" transform="matrix(1 0 0 -1 181 740.85)"/><path d="M1327.5 560C1327.5 544.26 1340.26 531.5 1356 531.5 1371.74 531.5 1384.5 544.26 1384.5 560 1384.5 575.74 1371.74 588.5 1356 588.5 1340.26 588.5 1327.5 575.74 1327.5 560Z" stroke="#000000" stroke-width="4.58333" stroke-miterlimit="8" fill="#0070C0" fill-rule="evenodd"/><text fill="#FFFFFF" font-family="Times New Roman,Times New Roman_MSFontService,sans-serif" font-weight="400" font-size="55" transform="matrix(1 0 0 1 1341.67 580)">1</text><path d="M931.8 720.137 724.019 501.739 733.981 492.261 941.762 710.659ZM946.985 696.201 960.475 740.303 917.1 724.633Z" fill="#0070C0"/><path d="M579.742 1209.17 281.957 1062.16 288.043 1049.84 585.829 1196.84ZM585.751 1181.47 613.609 1218.23 567.49 1218.46Z" fill="#0070C0"/><path d="M6.87507 34.375 6.87536 174.224-6.87464 174.224-6.87493 34.375ZM-20.6249 41.25 0 0 20.6251 41.25Z" fill="#0070C0" transform="matrix(1 0 0 -1 1739 1246.22)"/><path d="M30.536 17.2173 329.712 274.785 320.741 285.205 21.5649 27.6376ZM17.8043 42.5436 0 0 44.7175 11.2828Z" fill="#0070C0" transform="matrix(1 0 0 -1 -295 1821.99)"/><path d="M256.528 1800.58 161.761 1595.89 174.239 1590.11 269.005 1794.8ZM278.594 1782.79 277.208 1828.89 241.161 1800.12Z" fill="#0070C0"/><path d="M745.5 540.5C745.5 525.036 758.26 512.5 774 512.5 789.74 512.5 802.5 525.036 802.5 540.5 802.5 555.964 789.74 568.5 774 568.5 758.26 568.5 745.5 555.964 745.5 540.5Z" stroke="#000000" stroke-width="4.58333" stroke-miterlimit="8" fill="#0070C0" fill-rule="evenodd"/><text fill="#FFFFFF" font-family="Times New Roman,Times New Roman_MSFontService,sans-serif" font-weight="400" font-size="55" transform="matrix(1 0 0 1 759.625 560)">1</text><path d="M1157.5 571.5C1157.5 556.036 1170.26 543.5 1186 543.5 1201.74 543.5 1214.5 556.036 1214.5 571.5 1214.5 586.964 1201.74 599.5 1186 599.5 1170.26 599.5 1157.5 586.964 1157.5 571.5Z" stroke="#000000" stroke-width="4.58333" stroke-miterlimit="8" fill="#0070C0" fill-rule="evenodd"/><text fill="#FFFFFF" font-family="Times New Roman,Times New Roman_MSFontService,sans-serif" font-weight="400" font-size="55" transform="matrix(1 0 0 1 1171.84 591)">1</text><path d="M1559.5 561.5C1559.5 546.036 1572.04 533.5 1587.5 533.5 1602.96 533.5 1615.5 546.036 1615.5 561.5 1615.5 576.964 1602.96 589.5 1587.5 589.5 1572.04 589.5 1559.5 576.964 1559.5 561.5Z" stroke="#000000" stroke-width="4.58333" stroke-miterlimit="8" fill="#0070C0" fill-rule="evenodd"/><text fill="#FFFFFF" font-family="Times New Roman,Times New Roman_MSFontService,sans-serif" font-weight="400" font-size="55" transform="matrix(1 0 0 1 1573.19 581)">1</text><path d="M97.5001 1127.5C97.5001 1112.04 110.26 1099.5 126 1099.5 141.74 1099.5 154.5 1112.04 154.5 1127.5 154.5 1142.96 141.74 1155.5 126 1155.5 110.26 1155.5 97.5001 1142.96 97.5001 1127.5Z" stroke="#000000" stroke-width="4.58333" stroke-miterlimit="8" fill="#0070C0" fill-rule="evenodd"/><text fill="#FFFFFF" font-family="Times New Roman,Times New Roman_MSFontService,sans-serif" font-weight="400" font-size="55" transform="matrix(1 0 0 1 111.744 1147)">1</text><path d="M354.5 1107.5C354.5 1092.04 367.26 1079.5 383 1079.5 398.74 1079.5 411.5 1092.04 411.5 1107.5 411.5 1122.96 398.74 1135.5 383 1135.5 367.26 1135.5 354.5 1122.96 354.5 1107.5Z" stroke="#000000" stroke-width="4.58333" stroke-miterlimit="8" fill="#0070C0" fill-rule="evenodd"/><text fill="#FFFFFF" font-family="Times New Roman,Times New Roman_MSFontService,sans-serif" font-weight="400" font-size="55" transform="matrix(1 0 0 1 368.721 1127)">1</text><path d="M1713.5 1127.5C1713.5 1112.04 1726.26 1099.5 1742 1099.5 1757.74 1099.5 1770.5 1112.04 1770.5 1127.5 1770.5 1142.96 1757.74 1155.5 1742 1155.5 1726.26 1155.5 1713.5 1142.96 1713.5 1127.5Z" stroke="#000000" stroke-width="4.58333" stroke-miterlimit="8" fill="#0070C0" fill-rule="evenodd"/><text fill="#FFFFFF" font-family="Times New Roman,Times New Roman_MSFontService,sans-serif" font-weight="400" font-size="55" transform="matrix(1 0 0 1 1727.51 1147)">1</text><path d="M-102.5 1633.5C-102.5 1618.04-89.9639 1605.5-74.4999 1605.5-59.0359 1605.5-46.4999 1618.04-46.4999 1633.5-46.4999 1648.96-59.0359 1661.5-74.4999 1661.5-89.9639 1661.5-102.5 1648.96-102.5 1633.5Z" stroke="#000000" stroke-width="4.58333" stroke-miterlimit="8" fill="#0070C0" fill-rule="evenodd"/><text fill="#FFFFFF" font-family="Times New Roman,Times New Roman_MSFontService,sans-serif" font-weight="400" font-size="55" transform="matrix(1 0 0 1 -88.7052 1653)">1</text><path d="M173.5 1663.5C173.5 1648.04 186.036 1635.5 201.5 1635.5 216.964 1635.5 229.5 1648.04 229.5 1663.5 229.5 1678.96 216.964 1691.5 201.5 1691.5 186.036 1691.5 173.5 1678.96 173.5 1663.5Z" stroke="#000000" stroke-width="4.58333" stroke-miterlimit="8" fill="#0070C0" fill-rule="evenodd"/><text fill="#FFFFFF" font-family="Times New Roman,Times New Roman_MSFontService,sans-serif" font-weight="400" font-size="55" transform="matrix(1 0 0 1 187.269 1683)">1</text><path d="M397.5 1600C397.5 1584.26 410.26 1571.5 426 1571.5 441.74 1571.5 454.5 1584.26 454.5 1600 454.5 1615.74 441.74 1628.5 426 1628.5 410.26 1628.5 397.5 1615.74 397.5 1600Z" stroke="#000000" stroke-width="4.58333" stroke-miterlimit="8" fill="#0070C0" fill-rule="evenodd"/><text fill="#FFFFFF" font-family="Times New Roman,Times New Roman_MSFontService,sans-serif" font-weight="400" font-size="55" transform="matrix(1 0 0 1 411.565 1619)">1</text><path d="M848.5 1669.5C848.5 1654.04 861.036 1641.5 876.5 1641.5 891.964 1641.5 904.5 1654.04 904.5 1669.5 904.5 1684.96 891.964 1697.5 876.5 1697.5 861.036 1697.5 848.5 1684.96 848.5 1669.5Z" stroke="#000000" stroke-width="4.58333" stroke-miterlimit="8" fill="#0070C0" fill-rule="evenodd"/><text fill="#FFFFFF" font-family="Times New Roman,Times New Roman_MSFontService,sans-serif" font-weight="400" font-size="55" transform="matrix(1 0 0 1 862.326 1689)">1</text><path d="M1098.5 1640.5C1098.5 1625.04 1111.04 1612.5 1126.5 1612.5 1141.96 1612.5 1154.5 1625.04 1154.5 1640.5 1154.5 1655.96 1141.96 1668.5 1126.5 1668.5 1111.04 1668.5 1098.5 1655.96 1098.5 1640.5Z" stroke="#000000" stroke-width="4.58333" stroke-miterlimit="8" fill="#0070C0" fill-rule="evenodd"/><text fill="#FFFFFF" font-family="Times New Roman,Times New Roman_MSFontService,sans-serif" font-weight="400" font-size="55" transform="matrix(1 0 0 1 1112.14 1660)">1</text><path d="M1927.5 1605.5C1927.5 1590.04 1940.26 1577.5 1956 1577.5 1971.74 1577.5 1984.5 1590.04 1984.5 1605.5 1984.5 1620.96 1971.74 1633.5 1956 1633.5 1940.26 1633.5 1927.5 1620.96 1927.5 1605.5Z" stroke="#000000" stroke-width="4.58333" stroke-miterlimit="8" fill="#0070C0" fill-rule="evenodd"/><text fill="#FFFFFF" font-family="Times New Roman,Times New Roman_MSFontService,sans-serif" font-weight="400" font-size="55" transform="matrix(1 0 0 1 1941.66 1625)">1<tspan fill="#0070C0" font-weight="700" font-size="83" x="-1699.56" y="-1016">1</tspan><tspan fill="#0070C0" font-weight="700" font-size="83" x="-140.756" y="-447">3</tspan><tspan fill="#0070C0" font-weight="700" font-size="83" x="-279.359" y="-1019">11</tspan><tspan fill="#0070C0" font-weight="700" font-size="83" x="-762.059" y="-947">5</tspan><tspan fill="#0070C0" font-weight="700" font-size="83" x="-1489.07" y="-520">7</tspan><tspan fill="#0070C0" font-weight="700" font-size="83" x="-1667.16" y="99">5</tspan><tspan fill="#0070C0" font-weight="700" font-size="83" x="-1428.32" y="-5">5</tspan><tspan fill="#0070C0" font-weight="700" font-size="83" x="-2139.24" y="42">5</tspan><tspan fill="#0070C0" font-weight="700" font-size="83" x="-1145.41" y="-933">7</tspan><tspan fill="#0070C0" font-weight="700" font-size="83" x="-845.118" y="-443">3</tspan><tspan fill="#0070C0" font-weight="700" font-size="83" x="-1906.85" y="-447">8</tspan><tspan fill="#0070C0" font-weight="700" font-size="83" x="-1159.61" y="92">7</tspan><tspan fill="#0070C0" font-weight="700" font-size="83" x="-741.94" y="31">8</tspan><tspan fill="#0070C0" font-weight="700" font-size="83" x="119.04" y="30">1</tspan></text><path d="M-114.617 1838.91-104.43 1829.67-95.1952 1839.86-105.383 1849.09ZM-94.2424 1820.44-84.055 1811.2-74.8204 1821.39-85.0078 1830.62ZM-73.9644 1801.96-63.8623 1792.63-54.5344 1802.73-64.6365 1812.06ZM-53.7602 1783.3-45.6639 1775.82-45.7479 1775.9-43.7733 1774.02-34.2775 1783.96-36.2938 1785.89-44.4323 1793.4ZM-33.8289 1764.52-23.8844 1755.03-14.3886 1764.97-24.333 1774.47ZM-13.94 1745.53-12.4979 1744.15-12.5829 1744.24-4.22158 1735.97 5.44411 1745.75-2.95925 1754.06-4.44415 1755.47ZM5.42312 1726.36 15.0107 1716.51 24.8667 1726.09 15.2791 1735.95ZM24.4496 1706.64 33.8964 1696.65 43.8874 1706.1 34.4406 1716.09ZM43.0156 1686.57 48.7112 1680.27 48.5954 1680.4 52.0172 1676.41 62.4514 1685.37 58.9725 1689.42 53.2182 1695.79ZM60.9722 1665.98 62.5954 1664.09 62.478 1664.23 69.5794 1655.49 80.2485 1664.16 73.0893 1672.97 71.4063 1674.93ZM78.0373 1644.91 86.3928 1633.99 97.3129 1642.34 88.9573 1653.26ZM94.2698 1623.04 99.8857 1615.09 99.7372 1615.31 101.929 1611.94 113.455 1619.44 111.191 1622.92 105.498 1630.98ZM109.427 1600.42 110.675 1598.5 110.523 1598.75 116.367 1588.88 128.196 1595.89 122.279 1605.88 120.953 1607.92ZM122.943 1577.23 129.322 1565.05 141.503 1571.42 135.125 1583.61ZM134.904 1552.87 137.252 1547.76 137.111 1548.09 140.109 1540.54 152.887 1545.62 149.823 1553.33 147.4 1558.61ZM144.978 1528 149.5 1515.01 162.485 1519.54 157.963 1532.52ZM153.56 1502.15 155.991 1494.23 155.914 1494.5 157.308 1489.21 170.605 1492.71 169.175 1498.14 166.703 1506.18ZM160.757 1476.12 163.836 1462.72 177.237 1465.8 174.158 1479.2ZM166.653 1449.45 168.699 1439.33 168.667 1439.49 169.261 1436.13 182.802 1438.51 182.193 1441.97 180.131 1452.17ZM171.647 1422.59 171.917 1421.06 171.896 1421.18 173.794 1409.13 187.377 1411.27 185.469 1423.38 185.189 1424.97ZM175.754 1395.67 177.603 1382.05 191.228 1383.89 189.38 1397.52ZM179.451 1368.42 179.625 1367.14 179.61 1367.26 181.068 1354.89 194.723 1356.5 193.258 1368.93 193.076 1370.27ZM182.671 1341.24 183.672 1332.7 184.271 1327.58 197.927 1329.18 197.328 1334.3 196.328 1342.84ZM185.891 1313.87 187.59 1300.23 201.234 1301.93 199.535 1315.57ZM189.175 1286.63 189.421 1284.52 189.405 1284.67 190.496 1273.09 204.186 1274.38 203.088 1286.03 202.833 1288.22ZM191.444 1259.6 192.289 1245.88 206.013 1246.72 205.168 1260.45ZM192.768 1232.44 193.01 1218.69 206.758 1218.93 206.516 1232.68ZM192.995 1205.19 192.744 1191.44 206.492 1191.19 206.743 1204.94ZM192.274 1177.92 191.597 1164.18 205.33 1163.51 206.007 1177.24ZM190.727 1150.63 189.708 1136.92 203.42 1135.9 204.439 1149.61ZM188.507 1123.36 187.208 1109.68 200.897 1108.38 202.195 1122.07ZM185.851 1096.03 185.771 1095.23 199.452 1093.86 199.532 1094.66ZM166.538 1135.14 191.247 1080.97 226.24 1129.14C228.471 1132.21 227.79 1136.51 224.718 1138.74 221.646 1140.98 217.347 1140.29 215.115 1137.22L187.049 1098.58 198.866 1097.4 179.049 1140.85C177.473 1144.3 173.395 1145.82 169.941 1144.25 166.486 1142.67 164.963 1138.6 166.538 1135.14Z" fill="#C00000"/><path d="M965.514 1820.43 965.223 1806.68 978.97 1806.39 979.261 1820.14ZM964.933 1792.94 964.642 1779.19 978.389 1778.9 978.68 1792.65ZM964.351 1765.44 964.163 1756.54 964.065 1751.69 977.812 1751.41 977.91 1756.25 978.098 1765.15ZM963.787 1737.94 963.509 1724.19 977.257 1723.92 977.534 1737.66ZM963.232 1710.45 962.954 1696.7 976.701 1696.42 976.979 1710.17ZM962.673 1682.95 962.392 1669.21 976.139 1668.93 976.421 1682.67ZM962.112 1655.46 961.833 1641.71 975.58 1641.43 975.859 1655.18ZM961.556 1627.96 961.287 1614.21 975.034 1613.94 975.303 1627.69ZM961.018 1600.47 961.014 1600.23 960.776 1586.7 974.524 1586.46 974.761 1599.96 974.766 1600.2ZM960.535 1572.96 960.485 1570.11 960.269 1559.22 974.016 1558.95 974.233 1569.87 974.283 1572.71ZM959.995 1545.48 959.897 1540.58 959.737 1531.72 973.485 1531.47 973.645 1540.31 973.742 1545.2ZM959.488 1517.97 959.373 1511.6 959.251 1504.21 972.999 1503.98 973.121 1511.35 973.236 1517.72ZM959.025 1490.46 958.906 1483.25 958.804 1476.71 972.552 1476.49 972.654 1483.02 972.773 1490.24ZM958.589 1462.96 958.476 1455.73 958.382 1449.2 972.131 1449 972.225 1455.51 972.337 1462.74ZM958.184 1435.45 958.09 1428.96 957.991 1421.7 971.739 1421.51 971.839 1428.76 971.933 1435.26ZM957.802 1407.95 957.735 1403.08 957.62 1394.2 971.369 1394.02 971.484 1402.89 971.551 1407.76ZM957.441 1380.45 957.41 1378.09 957.29 1366.68 971.039 1366.54 971.159 1377.91 971.19 1380.27ZM957.149 1352.91 957.045 1339.16 970.795 1339.06 970.898 1352.81ZM956.942 1325.41 956.84 1311.66 970.589 1311.56 970.692 1325.31ZM956.751 1297.91 956.691 1288.43 956.684 1284.12 970.434 1284.1 970.441 1288.39 970.441 1288.36 970.5 1297.82ZM956.662 1270.37 956.659 1268.3 956.658 1256.61 970.408 1256.61 970.409 1268.27 970.412 1270.35ZM956.673 1242.85 956.706 1230.49 956.709 1229.1 970.459 1229.13 970.456 1230.53 970.423 1242.88ZM956.737 1215.35 956.743 1212.63 956.804 1201.58 970.554 1201.65 970.493 1212.7 970.493 1212.68 970.487 1215.38ZM956.916 1187.79 957.01 1178.61 957.01 1178.63 957.041 1174.07 970.791 1174.16 970.759 1178.74 970.665 1187.93ZM957.149 1160.28 957.324 1146.53 971.073 1146.7 970.898 1160.45ZM957.468 1132.8 957.487 1131 957.658 1119.02 971.406 1119.22 971.236 1131.18 971.236 1131.16 971.217 1132.94ZM957.853 1105.27 957.918 1100.73 958.054 1091.52 971.803 1091.72 971.667 1100.93 971.602 1105.47ZM934.475 1122.03 965.232 1071.05 994.47 1122.92C996.335 1126.23 995.165 1130.42 991.857 1132.28 988.55 1134.15 984.357 1132.98 982.492 1129.67L959.042 1088.07 970.917 1088.24 946.248 1129.13C944.287 1132.39 940.061 1133.43 936.81 1131.47 933.559 1129.51 932.514 1125.28 934.475 1122.03Z" fill="#C00000"/><path d="M951.915 1324.2 945.515 1312.03 957.684 1305.63 964.085 1317.8ZM939.114 1299.86 937.978 1297.7 938.029 1297.8 932.608 1287.87 944.674 1281.28 950.122 1291.25 951.284 1293.46ZM926.015 1275.81 923.654 1271.48 923.772 1271.69 919.275 1264.1 931.106 1257.09 935.664 1264.79 938.082 1269.21ZM912.268 1252.27 908.522 1245.94 908.656 1246.16 905.194 1240.78 916.756 1233.34 920.288 1238.82 924.099 1245.26ZM897.741 1229.42 892.186 1221.23 892.318 1221.42 890.048 1218.31 901.163 1210.21 903.5 1213.42 909.119 1221.7ZM882.039 1207.47 874.169 1197.51 874.323 1197.7 873.636 1196.89 884.115 1187.99 884.881 1188.89 892.825 1198.94ZM864.734 1186.41 864.448 1186.08 864.676 1186.33 855.566 1176.63 865.59 1167.22 874.817 1177.04 875.213 1177.51ZM846.005 1167.16 843.131 1164.35 843.384 1164.59 836.094 1158.14 845.202 1147.84 852.621 1154.4 855.617 1157.33ZM825.809 1149.53 819.136 1144.18 819.434 1144.4 815.21 1141.38 823.217 1130.2 827.593 1133.33 834.412 1138.8ZM804.202 1133.6 799.096 1130.24 799.359 1130.41 792.795 1126.5 799.826 1114.69 806.524 1118.67 811.759 1122.12ZM781.108 1119.97 775.861 1117.21 776.059 1117.31 769.024 1113.89 775.032 1101.52 782.166 1104.99 787.512 1107.8ZM756.875 1108.08 744.272 1102.58 749.77 1089.98 762.372 1095.48ZM731.76 1097.46 720.898 1093.14 721.037 1093.19 719.105 1092.47 723.906 1079.59 725.908 1080.33 736.839 1084.68ZM706.22 1087.67 700.912 1085.69 701.062 1085.75 693.423 1083.1 697.924 1070.11 705.639 1072.78 711.022 1074.79ZM680.536 1078.63 667.472 1074.35 671.762 1061.28 684.826 1065.57ZM654.461 1070.14 641.351 1065.99 645.497 1052.88 658.607 1057.03ZM628.267 1061.96 618.67 1059.01 618.723 1059.03 615.168 1057.97 619.096 1044.79 622.679 1045.86 632.303 1048.81ZM601.991 1054.04 598.598 1053.03 588.825 1050.14 592.714 1036.96 602.527 1039.85 605.919 1040.86ZM575.634 1046.25 562.447 1042.36 566.341 1029.17 579.528 1033.07ZM549.236 1038.36 542.941 1036.45 536.09 1034.39 540.05 1021.23 546.935 1023.3 553.23 1025.21ZM522.866 1030.16 518.983 1028.91 511.808 1026.52 509.712 1025.8 514.133 1012.78 516.21 1013.49 516.174 1013.48 523.299 1015.85 523.234 1015.83 527.085 1017.07ZM496.734 1021.41 485.773 1017.78 485.805 1017.79 483.712 1017.1 487.977 1004.03 490.086 1004.72 501.063 1008.36ZM470.707 1012.9 462.822 1010.44 462.853 1010.45 457.608 1008.83 461.651 995.69 466.912 997.309 474.813 999.78ZM444.481 1004.82 442.439 1004.2 442.514 1004.23 433.077 1001.48 431.377 1000.98 435.191 987.774 436.923 988.274 446.399 991.035 448.477 991.667ZM418.233 997.278 415.87 996.63 415.9 996.639 407.775 994.451 407.844 994.469 405.05 993.748 408.487 980.434 411.316 981.165 419.49 983.365 421.867 984.017ZM391.826 990.345 378.466 987.092 381.719 973.733 395.078 976.986ZM408.894 1018.25 365.969 976.992 423.015 959.938C426.653 958.851 430.484 960.918 431.572 964.556 432.659 968.194 430.592 972.025 426.954 973.112L381.199 986.791 383.995 975.247 418.423 1008.34C421.16 1010.97 421.246 1015.33 418.615 1018.06 415.983 1020.8 411.631 1020.89 408.894 1018.25Z" fill="#C00000"/><text fill="#0070C0" font-family="Times New Roman,Times New Roman_MSFontService,sans-serif" font-weight="700" font-size="83" transform="matrix(1 0 0 1 962.853 509)">2</text><path d="M34.9267 3.00181 960.201 272.21 956.36 285.413 31.0854 16.2044ZM33.8457 31.3276 0 0 45.3695-8.27999Z" fill="#0070C0" transform="matrix(1 0 0 -1 3363 748.812)"/><path d="M4145.66 1239.87 4139.13 1060.25 4152.87 1059.75 4159.4 1239.37ZM4172.89 1232 4153.78 1273.97 4131.67 1233.5Z" fill="#0070C0"/><path d="M4122.5 1159.5C4122.5 1144.04 4135.04 1131.5 4150.5 1131.5 4165.96 1131.5 4178.5 1144.04 4178.5 1159.5 4178.5 1174.96 4165.96 1187.5 4150.5 1187.5 4135.04 1187.5 4122.5 1174.96 4122.5 1159.5Z" stroke="#000000" stroke-width="4.58333" stroke-miterlimit="8" fill="#0070C0" fill-rule="evenodd"/><text fill="#FFFFFF" font-family="Times New Roman,Times New Roman_MSFontService,sans-serif" font-weight="400" font-size="55" transform="matrix(1 0 0 1 4136.43 1179)">1</text><path d="M7.26325 34.295 9.78335 257.154-3.96577 257.309-6.48587 34.4505ZM-20.1573 41.4806 0 0 21.0901 41.0142Z" fill="#0070C0" transform="matrix(1 0 0 -1 3982 1837.23)"/><path d="M7.39758 34.2663 9.77975 190.707-3.96866 190.916-6.35083 34.4757ZM-19.9946 41.5592 0 0 21.2507 40.9312Z" fill="#0070C0" transform="matrix(1 0 0 -1 3230 1261.81)"/><path d="M5255.55 1798.05 4986.23 1538.95 4995.77 1529.05 5265.09 1788.14ZM5269.67 1773.47 5285.09 1816.93 5241.07 1803.19Z" fill="#0070C0"/><path d="M4396.51 1764.24 4135.12 1585.68 4142.88 1574.32 4404.27 1752.88ZM4406.35 1737.65 4428.77 1777.95 4383.08 1771.71Z" fill="#0070C0"/><path d="M3802.65 1768.74 3423.59 1551.97 3430.41 1540.03 3809.48 1756.8ZM3810.34 1741.45 3835.91 1779.84 3789.86 1777.26Z" fill="#0070C0"/><path d="M4818.97 720.233 4632.84 508.54 4643.16 499.46 4829.29 711.154ZM4835.08 696.912 4846.83 741.509 4804.1 724.149Z" fill="#0070C0"/><path d="M3487 381.5C3487 288.44 3578.56 213 3691.5 213 3804.44 213 3896 288.44 3896 381.5 3896 474.56 3804.44 550 3691.5 550 3578.56 550 3487 474.56 3487 381.5Z" stroke="#548235" stroke-width="13.75" stroke-miterlimit="8" fill="#F2F2F2" fill-rule="evenodd"/><rect x="3412.5" y="153.5" width="214" height="170" stroke="#000000" stroke-width="6.875" stroke-miterlimit="8" fill="#FFFFFF"/><text font-family="SimSun,SimSun_MSFontService,sans-serif" font-weight="400" font-size="73" transform="matrix(1 0 0 1 3445.89 222)">集散<tspan font-size="73" x="0" y="88">中心</tspan><tspan font-family="Times New Roman,Times New Roman_MSFontService,sans-serif" font-size="92" x="119.463" y="193">CID</tspan><tspan font-family="Times New Roman,Times New Roman_MSFontService,sans-serif" font-size="92" x="277.588" y="193">: 1</tspan></text><path d="M3084 912.5C3084 819.44 3175.56 744 3288.5 744 3401.44 744 3493 819.44 3493 912.5 3493 1005.56 3401.44 1081 3288.5 1081 3175.56 1081 3084 1005.56 3084 912.5Z" stroke="#548235" stroke-width="13.75" stroke-miterlimit="8" fill="#F2F2F2" fill-rule="evenodd"/><rect x="2945.5" y="733.5" width="301" height="102" stroke="#000000" stroke-width="6.875" stroke-miterlimit="8" fill="#FFFFFF"/><text font-family="SimSun,SimSun_MSFontService,sans-serif" font-weight="400" font-size="73" transform="matrix(1 0 0 1 2985.35 812)">派送点<tspan font-family="Times New Roman,Times New Roman_MSFontService,sans-serif" font-size="92" x="182.692" y="134">PID</tspan><tspan font-family="Times New Roman,Times New Roman_MSFontService,sans-serif" font-size="92" x="330.505" y="134">: 1</tspan></text><path d="M3078.5 1427C3078.5 1333.94 3170.06 1258.5 3283 1258.5 3395.94 1258.5 3487.5 1333.94 3487.5 1427 3487.5 1520.06 3395.94 1595.5 3283 1595.5 3170.06 1595.5 3078.5 1520.06 3078.5 1427Z" stroke="#000000" stroke-width="6.875" stroke-miterlimit="8" fill="#F2F2F2" fill-rule="evenodd"/><text font-family="Times New Roman,Times New Roman_MSFontService,sans-serif" font-weight="400" font-size="92" transform="matrix(1 0 0 1 3153.68 1460)">A<tspan font-size="92" x="66.4583" y="0">ID</tspan><tspan font-size="92" x="163.281" y="0">: 1</tspan></text><rect x="2938.5" y="1219.5" width="214" height="170" stroke="#000000" stroke-width="6.875" stroke-miterlimit="8" fill="#FFFFFF"/><text font-family="SimSun,SimSun_MSFontService,sans-serif" font-weight="400" font-size="73" transform="matrix(1 0 0 1 2971.87 1292)">派送<tspan font-size="73" x="0" y="84">区域</tspan></text><path d="M2679.5 1986C2679.5 1892.94 2771.06 1817.5 2884 1817.5 2996.94 1817.5 3088.5 1892.94 3088.5 1986 3088.5 2079.06 2996.94 2154.5 2884 2154.5 2771.06 2154.5 2679.5 2079.06 2679.5 1986Z" stroke="#000000" stroke-width="6.875" stroke-miterlimit="8" fill="#F2F2F2" fill-rule="evenodd"/><text font-family="Times New Roman,Times New Roman_MSFontService,sans-serif" font-weight="400" font-size="92" transform="matrix(1 0 0 1 2754.53 2019)">U<tspan font-size="92" x="66.4583" y="0">ID</tspan><tspan font-size="92" x="163.281" y="0">: 1</tspan></text><rect x="2539.5" y="1778.5" width="214" height="170" stroke="#000000" stroke-width="6.875" stroke-miterlimit="8" fill="#FFFFFF"/><text font-family="SimSun,SimSun_MSFontService,sans-serif" font-weight="400" font-size="73" transform="matrix(1 0 0 1 2572.73 1851)">派送<tspan font-size="73" x="0" y="84">单元</tspan></text><path d="M4289 385.5C4289 292.44 4380.56 217 4493.5 217 4606.44 217 4698 292.44 4698 385.5 4698 478.56 4606.44 554 4493.5 554 4380.56 554 4289 478.56 4289 385.5Z" stroke="#548235" stroke-width="13.75" stroke-miterlimit="8" fill="#F2F2F2" fill-rule="evenodd"/><rect x="4218.5" y="157.5" width="214" height="170" stroke="#000000" stroke-width="6.875" stroke-miterlimit="8" fill="#FFFFFF"/><text font-family="SimSun,SimSun_MSFontService,sans-serif" font-weight="400" font-size="73" transform="matrix(1 0 0 1 4251.21 226)">集散<tspan font-size="73" x="0" y="88">中心</tspan><tspan font-family="Times New Roman,Times New Roman_MSFontService,sans-serif" font-size="92" x="116.163" y="193">CID</tspan><tspan font-family="Times New Roman,Times New Roman_MSFontService,sans-serif" font-size="92" x="274.288" y="193">: 2</tspan></text><path d="M4642.5 910.5C4642.5 817.716 4734.06 742.5 4847 742.5 4959.94 742.5 5051.5 817.716 5051.5 910.5 5051.5 1003.28 4959.94 1078.5 4847 1078.5 4734.06 1078.5 4642.5 1003.28 4642.5 910.5Z" stroke="#000000" stroke-width="6.875" stroke-miterlimit="8" fill="#F2F2F2" fill-rule="evenodd"/><rect x="4503.5" y="730.5" width="301" height="103" stroke="#000000" stroke-width="6.875" stroke-miterlimit="8" fill="#FFFFFF"/><text font-family="SimSun,SimSun_MSFontService,sans-serif" font-weight="400" font-size="73" transform="matrix(1 0 0 1 4543.3 809)">派送点<tspan font-family="Times New Roman,Times New Roman_MSFontService,sans-serif" font-size="92" x="182.692" y="134">PID</tspan><tspan font-family="Times New Roman,Times New Roman_MSFontService,sans-serif" font-size="92" x="330.505" y="134">: 3</tspan></text><path d="M3863 912C3863 819.216 3954.56 744 4067.5 744 4180.44 744 4272 819.216 4272 912 4272 1004.78 4180.44 1080 4067.5 1080 3954.56 1080 3863 1004.78 3863 912Z" stroke="#548235" stroke-width="13.75" stroke-miterlimit="8" fill="#F2F2F2" fill-rule="evenodd"/><rect x="3723.5" y="732.5" width="301" height="102" stroke="#000000" stroke-width="6.875" stroke-miterlimit="8" fill="#FFFFFF"/><text font-family="SimSun,SimSun_MSFontService,sans-serif" font-weight="400" font-size="73" transform="matrix(1 0 0 1 3763.93 811)">派送点<tspan font-family="Times New Roman,Times New Roman_MSFontService,sans-serif" font-size="92" x="182.692" y="134">PID</tspan><tspan font-family="Times New Roman,Times New Roman_MSFontService,sans-serif" font-size="92" x="330.505" y="134">: 2</tspan></text><path d="M3861.5 1427C3861.5 1333.94 3953.06 1258.5 4066 1258.5 4178.94 1258.5 4270.5 1333.94 4270.5 1427 4270.5 1520.06 4178.94 1595.5 4066 1595.5 3953.06 1595.5 3861.5 1520.06 3861.5 1427Z" stroke="#000000" stroke-width="6.875" stroke-miterlimit="8" fill="#F2F2F2" fill-rule="evenodd"/><text font-family="Times New Roman,Times New Roman_MSFontService,sans-serif" font-weight="400" font-size="92" transform="matrix(1 0 0 1 3936.65 1460)">A<tspan font-size="92" x="66.4585" y="0">ID</tspan><tspan font-size="92" x="163.281" y="0">: 2</tspan></text><rect x="3721.5" y="1219.5" width="214" height="170" stroke="#000000" stroke-width="6.875" stroke-miterlimit="8" fill="#FFFFFF"/><text font-family="SimSun,SimSun_MSFontService,sans-serif" font-weight="400" font-size="73" transform="matrix(1 0 0 1 3754.85 1292)">派送<tspan font-size="73" x="0" y="84">区域</tspan></text><path d="M4641.5 1416C4641.5 1322.94 4733.28 1247.5 4846.5 1247.5 4959.72 1247.5 5051.5 1322.94 5051.5 1416 5051.5 1509.06 4959.72 1584.5 4846.5 1584.5 4733.28 1584.5 4641.5 1509.06 4641.5 1416Z" stroke="#000000" stroke-width="6.875" stroke-miterlimit="8" fill="#F2F2F2" fill-rule="evenodd"/><text font-family="Times New Roman,Times New Roman_MSFontService,sans-serif" font-weight="400" font-size="92" transform="matrix(1 0 0 1 4717.39 1449)">A<tspan font-size="92" x="66.4585" y="0">ID</tspan><tspan font-size="92" x="163.281" y="0">: 3</tspan></text><rect x="4502.5" y="1208.5" width="214" height="170" stroke="#000000" stroke-width="6.875" stroke-miterlimit="8" fill="#FFFFFF"/><text font-family="SimSun,SimSun_MSFontService,sans-serif" font-weight="400" font-size="73" transform="matrix(1 0 0 1 4535.59 1281)">派送<tspan font-size="73" x="0" y="84">区域</tspan></text><path d="M3271.5 1986C3271.5 1892.94 3363.06 1817.5 3476 1817.5 3588.94 1817.5 3680.5 1892.94 3680.5 1986 3680.5 2079.06 3588.94 2154.5 3476 2154.5 3363.06 2154.5 3271.5 2079.06 3271.5 1986Z" stroke="#000000" stroke-width="6.875" stroke-miterlimit="8" fill="#F2F2F2" fill-rule="evenodd"/><text font-family="Times New Roman,Times New Roman_MSFontService,sans-serif" font-weight="400" font-size="92" transform="matrix(1 0 0 1 3346.8 2019)">U<tspan font-size="92" x="66.4583" y="0">ID</tspan><tspan font-size="92" x="163.281" y="0">: 2</tspan></text><rect x="3131.5" y="1778.5" width="214" height="170" stroke="#000000" stroke-width="6.875" stroke-miterlimit="8" fill="#FFFFFF"/><text font-family="SimSun,SimSun_MSFontService,sans-serif" font-weight="400" font-size="73" transform="matrix(1 0 0 1 3165 1851)">派送<tspan font-size="73" x="0" y="84">单元</tspan></text><path d="M3880.5 1986C3880.5 1892.94 3972.06 1817.5 4085 1817.5 4197.94 1817.5 4289.5 1892.94 4289.5 1986 4289.5 2079.06 4197.94 2154.5 4085 2154.5 3972.06 2154.5 3880.5 2079.06 3880.5 1986Z" stroke="#000000" stroke-width="6.875" stroke-miterlimit="8" fill="#F2F2F2" fill-rule="evenodd"/><text font-family="Times New Roman,Times New Roman_MSFontService,sans-serif" font-weight="400" font-size="92" transform="matrix(1 0 0 1 3955.49 2019)">U<tspan font-size="92" x="66.4585" y="0">ID</tspan><tspan font-size="92" x="163.281" y="0">: 3</tspan></text><rect x="3740.5" y="1778.5" width="214" height="170" stroke="#000000" stroke-width="6.875" stroke-miterlimit="8" fill="#FFFFFF"/><text font-family="SimSun,SimSun_MSFontService,sans-serif" font-weight="400" font-size="73" transform="matrix(1 0 0 1 3773.68 1851)">派送<tspan font-size="73" x="0" y="84">单元</tspan></text><path d="M4462.5 1986C4462.5 1892.94 4554.06 1817.5 4667 1817.5 4779.94 1817.5 4871.5 1892.94 4871.5 1986 4871.5 2079.06 4779.94 2154.5 4667 2154.5 4554.06 2154.5 4462.5 2079.06 4462.5 1986Z" stroke="#000000" stroke-width="6.875" stroke-miterlimit="8" fill="#F2F2F2" fill-rule="evenodd"/><text font-family="Times New Roman,Times New Roman_MSFontService,sans-serif" font-weight="400" font-size="92" transform="matrix(1 0 0 1 4537.45 2019)">U<tspan font-size="92" x="66.4585" y="0">ID</tspan><tspan font-size="92" x="163.281" y="0">: 4</tspan></text><rect x="4322.5" y="1778.5" width="214" height="170" stroke="#000000" stroke-width="6.875" stroke-miterlimit="8" fill="#FFFFFF"/><text font-family="SimSun,SimSun_MSFontService,sans-serif" font-weight="400" font-size="73" transform="matrix(1 0 0 1 4355.64 1851)">派送<tspan font-size="73" x="0" y="84">单元</tspan></text><path d="M5080.5 1986C5080.5 1892.94 5172.06 1817.5 5285 1817.5 5397.94 1817.5 5489.5 1892.94 5489.5 1986 5489.5 2079.06 5397.94 2154.5 5285 2154.5 5172.06 2154.5 5080.5 2079.06 5080.5 1986Z" stroke="#000000" stroke-width="6.875" stroke-miterlimit="8" fill="#F2F2F2" fill-rule="evenodd"/><text font-family="Times New Roman,Times New Roman_MSFontService,sans-serif" font-weight="400" font-size="92" transform="matrix(1 0 0 1 5156.12 2019)">U<tspan font-size="92" x="66.4585" y="0">ID</tspan><tspan font-size="92" x="163.281" y="0">: 5</tspan></text><rect x="4941.5" y="1778.5" width="214" height="170" stroke="#000000" stroke-width="6.875" stroke-miterlimit="8" fill="#FFFFFF"/><text font-family="SimSun,SimSun_MSFontService,sans-serif" font-weight="400" font-size="73" transform="matrix(1 0 0 1 4974.32 1851)">派送<tspan font-size="73" x="0" y="84">单元</tspan></text><path d="M29.6987 18.6251 262.559 238.855 253.111 248.845 20.2507 28.615ZM15.7976 43.3289 0 0 44.1416 13.3593Z" fill="#0070C0" transform="matrix(1 0 0 -1 3289 743.85)"/><path d="M3459.5 561.5C3459.5 546.036 3472.04 533.5 3487.5 533.5 3502.96 533.5 3515.5 546.036 3515.5 561.5 3515.5 576.964 3502.96 589.5 3487.5 589.5 3472.04 589.5 3459.5 576.964 3459.5 561.5Z" stroke="#000000" stroke-width="4.58333" stroke-miterlimit="8" fill="#0070C0" fill-rule="evenodd"/><text fill="#FFFFFF" font-family="Times New Roman,Times New Roman_MSFontService,sans-serif" font-weight="400" font-size="55" transform="matrix(1 0 0 1 3473.28 581)">1</text><path d="M3687.74 1213.17 3389.96 1066.16 3396.04 1053.84 3693.83 1200.84ZM3693.75 1185.47 3721.61 1222.23 3675.49 1222.46Z" fill="#0070C0"/><path d="M6.87507 34.375 6.87536 174.224-6.87464 174.224-6.87493 34.375ZM-20.6249 41.25 0 0 20.6251 41.25Z" fill="#0070C0" transform="matrix(1 0 0 -1 4846 1249.22)"/><path d="M30.536 17.2173 329.712 274.785 320.741 285.205 21.5649 27.6376ZM17.8043 42.5436 0 0 44.7175 11.2828Z" fill="#0070C0" transform="matrix(1 0 0 -1 2812 1825.99)"/><path d="M3363.53 1804.58 3268.76 1599.89 3281.24 1594.11 3376 1798.8ZM3385.59 1786.79 3384.21 1832.89 3348.16 1804.12Z" fill="#0070C0"/><path d="M4666.5 565C4666.5 549.26 4679.26 536.5 4695 536.5 4710.74 536.5 4723.5 549.26 4723.5 565 4723.5 580.74 4710.74 593.5 4695 593.5 4679.26 593.5 4666.5 580.74 4666.5 565Z" stroke="#000000" stroke-width="4.58333" stroke-miterlimit="8" fill="#0070C0" fill-rule="evenodd"/><text fill="#FFFFFF" font-family="Times New Roman,Times New Roman_MSFontService,sans-serif" font-weight="400" font-size="55" transform="matrix(1 0 0 1 4680.69 585)">1</text><path d="M3205.5 1130.5C3205.5 1115.04 3218.04 1102.5 3233.5 1102.5 3248.96 1102.5 3261.5 1115.04 3261.5 1130.5 3261.5 1145.96 3248.96 1158.5 3233.5 1158.5 3218.04 1158.5 3205.5 1145.96 3205.5 1130.5Z" stroke="#000000" stroke-width="4.58333" stroke-miterlimit="8" fill="#0070C0" fill-rule="evenodd"/><text fill="#FFFFFF" font-family="Times New Roman,Times New Roman_MSFontService,sans-serif" font-weight="400" font-size="55" transform="matrix(1 0 0 1 3219.24 1150)">1</text><path d="M3462.5 1110.5C3462.5 1095.04 3475.04 1082.5 3490.5 1082.5 3505.96 1082.5 3518.5 1095.04 3518.5 1110.5 3518.5 1125.96 3505.96 1138.5 3490.5 1138.5 3475.04 1138.5 3462.5 1125.96 3462.5 1110.5Z" stroke="#000000" stroke-width="4.58333" stroke-miterlimit="8" fill="#0070C0" fill-rule="evenodd"/><text fill="#FFFFFF" font-family="Times New Roman,Times New Roman_MSFontService,sans-serif" font-weight="400" font-size="55" transform="matrix(1 0 0 1 3476.22 1130)">1</text><path d="M4821.5 1131.5C4821.5 1116.04 4834.04 1103.5 4849.5 1103.5 4864.96 1103.5 4877.5 1116.04 4877.5 1131.5 4877.5 1146.96 4864.96 1159.5 4849.5 1159.5 4834.04 1159.5 4821.5 1146.96 4821.5 1131.5Z" stroke="#000000" stroke-width="4.58333" stroke-miterlimit="8" fill="#0070C0" fill-rule="evenodd"/><text fill="#FFFFFF" font-family="Times New Roman,Times New Roman_MSFontService,sans-serif" font-weight="400" font-size="55" transform="matrix(1 0 0 1 4835.01 1151)">1</text><path d="M3004.5 1636.5C3004.5 1621.04 3017.26 1608.5 3033 1608.5 3048.74 1608.5 3061.5 1621.04 3061.5 1636.5 3061.5 1651.96 3048.74 1664.5 3033 1664.5 3017.26 1664.5 3004.5 1651.96 3004.5 1636.5Z" stroke="#000000" stroke-width="4.58333" stroke-miterlimit="8" fill="#0070C0" fill-rule="evenodd"/><text fill="#FFFFFF" font-family="Times New Roman,Times New Roman_MSFontService,sans-serif" font-weight="400" font-size="55" transform="matrix(1 0 0 1 3018.79 1656)">1</text><path d="M3280.5 1666.5C3280.5 1651.04 3293.26 1638.5 3309 1638.5 3324.74 1638.5 3337.5 1651.04 3337.5 1666.5 3337.5 1681.96 3324.74 1694.5 3309 1694.5 3293.26 1694.5 3280.5 1681.96 3280.5 1666.5Z" stroke="#000000" stroke-width="4.58333" stroke-miterlimit="8" fill="#0070C0" fill-rule="evenodd"/><text fill="#FFFFFF" font-family="Times New Roman,Times New Roman_MSFontService,sans-serif" font-weight="400" font-size="55" transform="matrix(1 0 0 1 3294.77 1686)">1</text><path d="M3505.5 1603.5C3505.5 1588.04 3518.04 1575.5 3533.5 1575.5 3548.96 1575.5 3561.5 1588.04 3561.5 1603.5 3561.5 1618.96 3548.96 1631.5 3533.5 1631.5 3518.04 1631.5 3505.5 1618.96 3505.5 1603.5Z" stroke="#000000" stroke-width="4.58333" stroke-miterlimit="8" fill="#0070C0" fill-rule="evenodd"/><text fill="#FFFFFF" font-family="Times New Roman,Times New Roman_MSFontService,sans-serif" font-weight="400" font-size="55" transform="matrix(1 0 0 1 3519.07 1623)">1</text><path d="M3955.5 1672.5C3955.5 1657.04 3968.26 1644.5 3984 1644.5 3999.74 1644.5 4012.5 1657.04 4012.5 1672.5 4012.5 1687.96 3999.74 1700.5 3984 1700.5 3968.26 1700.5 3955.5 1687.96 3955.5 1672.5Z" stroke="#000000" stroke-width="4.58333" stroke-miterlimit="8" fill="#0070C0" fill-rule="evenodd"/><text fill="#FFFFFF" font-family="Times New Roman,Times New Roman_MSFontService,sans-serif" font-weight="400" font-size="55" transform="matrix(1 0 0 1 3969.83 1692)">1</text><path d="M4205.5 1643.5C4205.5 1628.04 4218.26 1615.5 4234 1615.5 4249.74 1615.5 4262.5 1628.04 4262.5 1643.5 4262.5 1658.96 4249.74 1671.5 4234 1671.5 4218.26 1671.5 4205.5 1658.96 4205.5 1643.5Z" stroke="#000000" stroke-width="4.58333" stroke-miterlimit="8" fill="#0070C0" fill-rule="evenodd"/><text fill="#FFFFFF" font-family="Times New Roman,Times New Roman_MSFontService,sans-serif" font-weight="400" font-size="55" transform="matrix(1 0 0 1 4219.64 1663)">1</text><path d="M5035.5 1608.5C5035.5 1593.04 5048.04 1580.5 5063.5 1580.5 5078.96 1580.5 5091.5 1593.04 5091.5 1608.5 5091.5 1623.96 5078.96 1636.5 5063.5 1636.5 5048.04 1636.5 5035.5 1623.96 5035.5 1608.5Z" stroke="#000000" stroke-width="4.58333" stroke-miterlimit="8" fill="#0070C0" fill-rule="evenodd"/><text fill="#FFFFFF" font-family="Times New Roman,Times New Roman_MSFontService,sans-serif" font-weight="400" font-size="55" transform="matrix(1 0 0 1 5049.16 1628)">1<tspan fill="#0070C0" font-weight="700" font-size="83" x="-1699.56" y="-1016">1</tspan><tspan fill="#0070C0" font-weight="700" font-size="83" x="-140.755" y="-446">3</tspan><tspan fill="#0070C0" font-weight="700" font-size="83" x="-279.358" y="-1019">11</tspan><tspan fill="#0070C0" font-weight="700" font-size="83" x="-1489.07" y="-520">7</tspan><tspan fill="#0070C0" font-weight="700" font-size="83" x="-1667.16" y="99">5</tspan><tspan fill="#0070C0" font-weight="700" font-size="83" x="-1428.32" y="-5">5</tspan><tspan fill="#0070C0" font-weight="700" font-size="83" x="-2139.24" y="42">5</tspan><tspan fill="#0070C0" font-weight="700" font-size="83" x="-845.118" y="-443">3</tspan><tspan fill="#0070C0" font-weight="700" font-size="83" x="-1906.85" y="-447">8</tspan><tspan fill="#0070C0" font-weight="700" font-size="83" x="-1159.61" y="93">7</tspan><tspan fill="#0070C0" font-weight="700" font-size="83" x="-741.94" y="32">8</tspan><tspan fill="#0070C0" font-weight="700" font-size="83" x="119.04" y="31">1</tspan></text><path d="M26.8423 22.5477 208.59 249.735 197.853 258.324 16.1053 31.1372ZM9.66307 45.0952 0 0 41.874 19.3267Z" fill="#0070C0" transform="matrix(1 0 0 -1 4146 758.029)"/><path d="M4038.8 723.137 3831.02 504.739 3840.98 495.261 4048.76 713.659ZM4053.98 699.201 4067.47 743.303 4024.1 727.633Z" fill="#0070C0"/><path d="M3853.5 543.5C3853.5 528.036 3866.04 515.5 3881.5 515.5 3896.96 515.5 3909.5 528.036 3909.5 543.5 3909.5 558.964 3896.96 571.5 3881.5 571.5 3866.04 571.5 3853.5 558.964 3853.5 543.5Z" stroke="#000000" stroke-width="4.58333" stroke-miterlimit="8" fill="#0070C0" fill-rule="evenodd"/><text fill="#FFFFFF" font-family="Times New Roman,Times New Roman_MSFontService,sans-serif" font-weight="400" font-size="55" transform="matrix(1 0 0 1 3867.13 563)">1</text><path d="M4265.5 575.5C4265.5 560.036 4278.04 547.5 4293.5 547.5 4308.96 547.5 4321.5 560.036 4321.5 575.5 4321.5 590.964 4308.96 603.5 4293.5 603.5 4278.04 603.5 4265.5 590.964 4265.5 575.5Z" stroke="#000000" stroke-width="4.58333" stroke-miterlimit="8" fill="#0070C0" fill-rule="evenodd"/><text fill="#FFFFFF" font-family="Times New Roman,Times New Roman_MSFontService,sans-serif" font-weight="400" font-size="55" transform="matrix(1 0 0 1 4279.34 595)">1<tspan fill="#0070C0" font-weight="700" font-size="83" x="7.76074" y="87">5</tspan><tspan fill="#0070C0" font-weight="700" font-size="83" x="-375.588" y="101">7</tspan><tspan fill="#0070C0" font-weight="700" font-size="83" x="-208.986" y="-83">2</tspan></text><path d="M4171.5 506.5C4171.5 491.036 4184.04 478.5 4199.5 478.5 4214.96 478.5 4227.5 491.036 4227.5 506.5 4227.5 521.964 4214.96 534.5 4199.5 534.5 4184.04 534.5 4171.5 521.964 4171.5 506.5Z" stroke="#000000" stroke-width="4.58333" stroke-miterlimit="8" fill="#0070C0" fill-rule="evenodd"/><text fill="#FFFFFF" font-family="Times New Roman,Times New Roman_MSFontService,sans-serif" font-weight="400" font-size="55" transform="matrix(1 0 0 1 4185.38 526)">1</text><path d="M3469.27 123.178C3160.39 234.068 2974.11 689.011 2918.23 851.762 2862.34 1014.51 2903.93 1057.1 3133.97 1099.68 3364 1142.27 4025.5 1259.48 4298.42 1107.27 4571.34 955.062 4908.38 350.017 4771.48 186.423 4634.59 22.829 3778.14 12.2882 3469.27 123.178Z" stroke="#548235" stroke-width="10.3125" stroke-miterlimit="8" stroke-dasharray="41.25 30.9375" fill="none" fill-rule="evenodd"/><text fill="#548235" font-family="SimSun,SimSun_MSFontService,sans-serif" font-weight="700" font-size="110" transform="matrix(1 0 0 1 3506.77 6)">找寻派送点间的最短路径</text></g></svg>