<svg width="3704" height="714" xmlns="http://www.w3.org/2000/svg" xmlns:xlink="http://www.w3.org/1999/xlink" overflow="hidden"><defs><clipPath id="clip0"><rect x="216" y="1231" width="3704" height="714"/></clipPath></defs><g clip-path="url(#clip0)" transform="translate(-216 -1231)"><rect x="217.5" y="1260.5" width="3701" height="433" stroke="#000000" stroke-width="3.4375" stroke-linejoin="round" stroke-miterlimit="10" stroke-dasharray="13.75 10.3125" fill="#F2F2F2"/><path d="M308.5 1353.42C308.5 1340.76 318.761 1330.5 331.418 1330.5L1701.58 1330.5C1714.24 1330.5 1724.5 1340.76 1724.5 1353.42L1724.5 1598.58C1724.5 1611.24 1714.24 1621.5 1701.58 1621.5L331.418 1621.5C318.761 1621.5 308.5 1611.24 308.5 1598.58Z" stroke="#BFBFBF" stroke-width="4.58333" stroke-miterlimit="8" fill="#BFBFBF" fill-rule="evenodd"/><path d="M1785.5 1353.42C1785.5 1340.76 1795.76 1330.5 1808.42 1330.5L3812.58 1330.5C3825.24 1330.5 3835.5 1340.76 3835.5 1353.42L3835.5 1598.58C3835.5 1611.24 3825.24 1621.5 3812.58 1621.5L1808.42 1621.5C1795.76 1621.5 1785.5 1611.24 1785.5 1598.58Z" stroke="#BFBFBF" stroke-width="4.58333" stroke-miterlimit="8" fill="#BFBFBF" fill-rule="evenodd"/><rect x="503.5" y="1330.5" width="871" height="291" stroke="#2F528F" stroke-width="4.58333" stroke-miterlimit="8" fill="#F2F2F2"/><text font-family="Times New Roman,Times New Roman_MSFontService,sans-serif" font-weight="400" font-size="110" transform="matrix(1 0 0 1 547.074 1517)">&lt;key<tspan font-size="110" x="220.573" y="0">,</tspan><tspan font-size="110" x="275.573" y="0">value</tspan><tspan font-family="SimSun,SimSun_MSFontService,sans-serif" font-size="110" x="513.333" y="0">地址</tspan>&gt;</text><rect x="1958.5" y="1330.5" width="288" height="291" stroke="#2F528F" stroke-width="4.58333" stroke-miterlimit="8" fill="#F2F2F2"/><text font-family="Times New Roman,Times New Roman_MSFontService,sans-serif" font-weight="400" font-size="92" transform="matrix(1 0 0 1 2002.63 1509)">value</text><rect x="2246.5" y="1330.5" width="288" height="291" stroke="#2F528F" stroke-width="4.58333" stroke-miterlimit="8" fill="#D9D9D9"/><text font-family="Times New Roman,Times New Roman_MSFontService,sans-serif" font-weight="400" font-size="92" transform="matrix(1 0 0 1 2290.98 1509)">value</text><rect x="2534.5" y="1330.5" width="289" height="291" stroke="#2F528F" stroke-width="4.58333" stroke-miterlimit="8" fill="#F2F2F2"/><text font-family="Times New Roman,Times New Roman_MSFontService,sans-serif" font-weight="400" font-size="92" transform="matrix(1 0 0 1 2579.33 1509)">value</text><rect x="2823.5" y="1330.5" width="288" height="291" stroke="#2F528F" stroke-width="4.58333" stroke-miterlimit="8" fill="#F2F2F2"/><text font-family="Times New Roman,Times New Roman_MSFontService,sans-serif" font-weight="400" font-size="92" transform="matrix(1 0 0 1 2867.68 1509)">value</text><rect x="3105.5" y="1330.5" width="288" height="291" stroke="#2F528F" stroke-width="4.58333" stroke-miterlimit="8" fill="#F2F2F2"/><text font-family="Times New Roman,Times New Roman_MSFontService,sans-serif" font-weight="400" font-size="92" transform="matrix(1 0 0 1 3149.62 1509)">value</text><rect x="3393.5" y="1330.5" width="288" height="291" stroke="#2F528F" stroke-width="4.58333" stroke-miterlimit="8" fill="#F2F2F2"/><text font-family="Times New Roman,Times New Roman_MSFontService,sans-serif" font-weight="400" font-size="92" transform="matrix(1 0 0 1 3437.97 1509)">value<tspan font-size="110" x="-902.036" y="343">value</tspan><tspan font-family="SimSun,SimSun_MSFontService,sans-serif" font-size="110" x="-664.276" y="343">的日志</tspan><tspan font-size="110" x="-2625.14" y="343">LSM</tspan><tspan font-family="SimSun,SimSun_MSFontService,sans-serif" font-size="110" x="-2398.83" y="343">树</tspan></text><path d="M1064.57 1377.76 1095.67 1361.18 1127.43 1344.83 1143.76 1336.79 1160.54 1328.87 1177.83 1321.2 1195.69 1313.72 1214.19 1306.48 1233.44 1299.57 1253.45 1292.89 1274.41 1286.66 1296.35 1280.75 1319.31 1275.22 1343.39 1270.19 1368.63 1265.61 1381.8 1263.47 1395.38 1261.28 1409.35 1259.09 1423.76 1256.96 1453.62 1252.77 1484.8 1248.7 1517.12 1244.88 1550.31 1241.43 1584.25 1238.3 1618.77 1235.61 1653.6 1233.48 1688.7 1231.91 1723.74 1231.03 1758.6 1230.91 1793.11 1231.6 1827.07 1233.17 1860.3 1235.74 1892.6 1239.32 1924.27 1243.97 1955.68 1249.63 1986.95 1256.28 2018.08 1263.75 2048.96 1272.04 2079.76 1281.07 2110.36 1290.79 2140.88 1301.13 2171.27 1311.97 2201.58 1323.31 2231.83 1335.02 2261.94 1347.1 2322.05 1371.93 2372.6 1393.28 2368.59 1402.78 2318.06 1381.44 2318.09 1381.45 2258.03 1356.64 2258.08 1356.66 2228.02 1344.6 2228.08 1344.62 2197.89 1332.93 2197.94 1332.95 2167.69 1321.64 2167.77 1321.67 2137.46 1310.86 2137.53 1310.88 2107.1 1300.57 2107.19 1300.6 2076.69 1290.91 2076.8 1290.95 2046.11 1281.95 2046.23 1281.98 2015.48 1273.73 2015.61 1273.76 1984.61 1266.33 1984.74 1266.36 1953.61 1259.73 1953.77 1259.76 1922.52 1254.14 1922.69 1254.16 1891.19 1249.54 1891.37 1249.56 1859.24 1246 1859.41 1246.02 1826.35 1243.45 1826.51 1243.46 1792.7 1241.9 1792.83 1241.91 1758.46 1241.22 1758.58 1241.22 1723.83 1241.34 1723.94 1241.34 1689 1242.22 1689.1 1242.21 1654.1 1243.78 1654.19 1243.77 1619.44 1245.9 1619.53 1245.89 1585.09 1248.58 1585.16 1248.57 1551.29 1251.7 1551.34 1251.69 1518.22 1255.13 1518.29 1255.12 1486.04 1258.93 1486.1 1258.93 1454.98 1262.99 1455.03 1262.98 1425.22 1267.17 1425.25 1267.16 1410.88 1269.29 1410.92 1269.28 1396.99 1271.47 1397.01 1271.47 1383.45 1273.65 1370.32 1275.78 1370.42 1275.76 1345.3 1280.32 1345.43 1280.3 1321.49 1285.3 1321.65 1285.26 1298.83 1290.76 1298.97 1290.73 1277.15 1296.6 1277.28 1296.57 1256.47 1302.76 1256.63 1302.7 1236.76 1309.33 1236.87 1309.29 1217.74 1316.16 1217.88 1316.11 1199.5 1323.3 1199.62 1323.26 1181.87 1330.69 1181.97 1330.65 1164.78 1338.28 1164.89 1338.23 1148.2 1346.1 1148.28 1346.06 1132.03 1354.06 1132.11 1354.02 1100.42 1370.33 1100.49 1370.3 1069.43 1386.86ZM2353.24 1366.27 2380.02 1402.01 2335.73 1407.73C2332.91 1408.1 2330.32 1406.1 2329.96 1403.28 2329.6 1400.45 2331.59 1397.87 2334.41 1397.5L2369.93 1392.91 2366.47 1401.12 2344.99 1372.46C2343.28 1370.18 2343.74 1366.95 2346.02 1365.24 2348.3 1363.53 2351.53 1364 2353.24 1366.27Z" fill="#C00000"/></g></svg>