<svg width="2965" height="2035" xmlns="http://www.w3.org/2000/svg" xmlns:xlink="http://www.w3.org/1999/xlink" overflow="hidden"><defs><clipPath id="clip0"><rect x="-177" y="20" width="2965" height="2035"/></clipPath></defs><g clip-path="url(#clip0)" transform="translate(177 -20)"><path d="M7.26325 34.295 9.78335 257.154-3.96577 257.309-6.48587 34.4505ZM-20.1573 41.4806 0 0 21.0901 41.0142Z" fill="#0070C0" transform="matrix(1 0 0 -1 1277 1734.23)"/><path d="M1132.09 1107.39 732.177 927.268 737.823 914.731 1137.74 1094.85ZM1137.12 1079.49 1166.26 1115.24 1120.18 1117.1Z" fill="#C55A11"/><path d="M2614.64 1700.69 2320.81 1362.51 2331.19 1353.49 2625.02 1691.67ZM2630.89 1677.46 2642.38 1722.13 2599.75 1704.52Z" fill="#00B050"/><path d="M7.67805 34.2046 12.0848 222.344-1.66147 222.666-6.06818 34.5265ZM-19.6534 41.7216 0 0 21.5853 40.7557Z" fill="#00B050" transform="matrix(1 0 0 -1 1355 1714.5)"/><path d="M30.3564 17.5323 302.222 256.528 293.144 266.854 21.2781 27.8592ZM17.3634 42.7255 0 0 44.5984 11.7446Z" fill="#00B050" transform="matrix(1 0 0 -1 204 1720.69)"/><path d="M8.65763 33.9698 18.2966 218.619 4.56525 219.336-5.07367 34.6866ZM-18.4466 42.2691 0 0 22.7473 40.1187Z" fill="#0070C0" transform="matrix(1 0 0 -1 481 1175.98)"/><path d="M8.15024 34.0951 13.4937 177.495-0.246774 178.007-5.59022 34.6071ZM-19.0747 41.9894 0 0 22.1467 40.4534Z" fill="#C55A11" transform="matrix(1 0 0 -1 568 1155.75)"/><path d="M7.40926 34.2639 10.2142 214.438-3.53411 214.652-6.33908 34.478ZM-19.9804 41.5661 0 0 21.2646 40.924Z" fill="#00B050" transform="matrix(1 0 0 -1 645 1168.55)"/><path d="M34.677 5.13283 934.873 327.98 930.231 340.923 30.0352 18.0756ZM31.8657 33.3397 0 0 45.7911-5.48874Z" fill="#00B050" transform="matrix(1 0 0 -1 728 690.452)"/><path d="M1763.36 669.333 1156.96 370.166 1163.04 357.835 1769.44 657.002ZM1769.36 641.629 1797.23 678.376 1751.11 678.622Z" fill="#C55A11"/><path d="M24.2758 25.2902 174.018 260.18 162.424 267.571 12.6814 32.6816ZM4.78272 45.8702 0 0 39.5658 23.696Z" fill="#00B050" transform="matrix(1 0 0 -1 673 660.876)"/><path d="M2113.37 618.276 1878.97 366.686 1889.03 357.314 2123.43 608.903ZM2128.8 594.5 2141.83 638.74 2098.62 622.618Z" fill="#C55A11"/><path d="M2361.28 1648.34 2235.11 1438.54 2246.89 1431.46 2373.07 1641.25ZM2381.31 1628.28 2384.89 1674.26 2345.96 1649.54Z" fill="#0070C0"/><path d="M2501.98 1701.76 2289.53 1423.17 2300.47 1414.83 2512.91 1693.42ZM2519.68 1679.62 2528.29 1724.93 2486.88 1704.63Z" fill="#C55A11"/><path d="M19.4527 29.1632 112.797 255.695 100.084 260.933 6.73974 34.4017ZM-3.35401 45.9968 0 0 34.785 30.2813Z" fill="#C55A11" transform="matrix(1 0 0 -1 1961 1714.31)"/><path d="M2226.83 1667.92 1525.32 1370.33 1530.68 1357.67 2232.2 1655.26ZM2231.24 1639.92 2261.16 1675.01 2215.13 1677.89Z" fill="#C55A11"/><path d="M1854.23 1710.64 1454.14 1439.69 1461.85 1428.31 1861.94 1699.26ZM1863.96 1684.02 1886.55 1724.23 1840.83 1718.17Z" fill="#C55A11"/><path d="M1691.51 1661.24 1430.12 1482.68 1437.88 1471.32 1699.27 1649.88ZM1701.35 1634.65 1723.77 1674.95 1678.08 1668.71Z" fill="#0070C0"/><path d="M1212.73 1666.06 747.724 1414.04 754.276 1401.96 1219.28 1653.97ZM1219.79 1638.6 1246.23 1676.39 1200.13 1674.87Z" fill="#C55A11"/><path d="M1097.65 1664.74 718.587 1447.97 725.413 1436.03 1104.48 1652.8ZM1105.34 1637.45 1130.91 1675.84 1084.86 1673.26Z" fill="#0070C0"/><path d="M1991.77 609.55 1853.58 432.226 1864.42 423.774 2002.61 601.098ZM2009.23 587.223 2018.32 632.438 1976.7 612.579Z" fill="#0070C0"/><path d="M27.133 22.197 212.393 247.702 201.768 256.431 16.5086 30.9253ZM10.2483 44.9658 0 0 42.1216 18.7809Z" fill="#0070C0" transform="matrix(1 0 0 -1 1450 662.066)"/><path d="M782.5 279C782.5 185.94 874.058 110.5 987 110.5 1099.94 110.5 1191.5 185.94 1191.5 279 1191.5 372.06 1099.94 447.5 987 447.5 874.058 447.5 782.5 372.06 782.5 279Z" stroke="#000000" stroke-width="6.875" stroke-miterlimit="8" fill="#F2F2F2" fill-rule="evenodd"/><rect x="707.5" y="50.5" width="214" height="170" stroke="#000000" stroke-width="6.875" stroke-miterlimit="8" fill="#FFFFFF"/><text font-family="SimSun,SimSun_MSFontService,sans-serif" font-weight="400" font-size="73" transform="matrix(1 0 0 1 740.579 119)">集散<tspan font-size="73" x="0" y="88">中心</tspan><tspan font-family="Times New Roman,Times New Roman_MSFontService,sans-serif" font-size="92" x="119.463" y="193">CID</tspan><tspan font-family="Times New Roman,Times New Roman_MSFontService,sans-serif" font-size="92" x="277.588" y="193">: 1</tspan></text><path d="M379.5 810C379.5 716.94 471.058 641.5 584 641.5 696.942 641.5 788.5 716.94 788.5 810 788.5 903.06 696.942 978.5 584 978.5 471.058 978.5 379.5 903.06 379.5 810Z" stroke="#000000" stroke-width="6.875" stroke-miterlimit="8" fill="#F2F2F2" fill-rule="evenodd"/><rect x="240.5" y="630.5" width="301" height="102" stroke="#000000" stroke-width="6.875" stroke-miterlimit="8" fill="#FFFFFF"/><text font-family="SimSun,SimSun_MSFontService,sans-serif" font-weight="400" font-size="73" transform="matrix(1 0 0 1 280.034 709)">派送点<tspan font-family="Times New Roman,Times New Roman_MSFontService,sans-serif" font-size="92" x="182.692" y="134">PID</tspan><tspan font-family="Times New Roman,Times New Roman_MSFontService,sans-serif" font-size="92" x="330.505" y="134">: 1</tspan></text><path d="M372.5 1324C372.5 1230.94 464.282 1155.5 577.5 1155.5 690.718 1155.5 782.5 1230.94 782.5 1324 782.5 1417.06 690.718 1492.5 577.5 1492.5 464.282 1492.5 372.5 1417.06 372.5 1324Z" stroke="#000000" stroke-width="6.875" stroke-miterlimit="8" fill="#F2F2F2" fill-rule="evenodd"/><text font-family="Times New Roman,Times New Roman_MSFontService,sans-serif" font-weight="400" font-size="92" transform="matrix(1 0 0 1 448.368 1357)">A<tspan font-size="92" x="66.4583" y="0">ID</tspan><tspan font-size="92" x="163.281" y="0">: 1</tspan></text><rect x="233.5" y="1116.5" width="214" height="170" stroke="#000000" stroke-width="6.875" stroke-miterlimit="8" fill="#FFFFFF"/><text font-family="SimSun,SimSun_MSFontService,sans-serif" font-weight="400" font-size="73" transform="matrix(1 0 0 1 266.561 1189)">派送<tspan font-size="73" x="0" y="84">区域</tspan></text><path d="M-26.5 1883C-26.5 1789.94 65.0578 1714.5 178 1714.5 290.942 1714.5 382.5 1789.94 382.5 1883 382.5 1976.06 290.942 2051.5 178 2051.5 65.0578 2051.5-26.5 1976.06-26.5 1883Z" stroke="#000000" stroke-width="6.875" stroke-miterlimit="8" fill="#F2F2F2" fill-rule="evenodd"/><text font-family="Times New Roman,Times New Roman_MSFontService,sans-serif" font-weight="400" font-size="92" transform="matrix(1 0 0 1 49.2203 1916)">U<tspan font-size="92" x="66.4583" y="0">ID</tspan><tspan font-size="92" x="163.281" y="0">: 1</tspan></text><rect x="-165.5" y="1675.5" width="214" height="170" stroke="#000000" stroke-width="6.875" stroke-miterlimit="8" fill="#FFFFFF"/><text font-family="SimSun,SimSun_MSFontService,sans-serif" font-weight="400" font-size="73" transform="matrix(1 0 0 1 -132.587 1748)">派送<tspan font-size="73" x="0" y="84">单元</tspan></text><path d="M1584.5 283C1584.5 189.94 1676.06 114.5 1789 114.5 1901.94 114.5 1993.5 189.94 1993.5 283 1993.5 376.06 1901.94 451.5 1789 451.5 1676.06 451.5 1584.5 376.06 1584.5 283Z" stroke="#000000" stroke-width="6.875" stroke-miterlimit="8" fill="#F2F2F2" fill-rule="evenodd"/><rect x="1512.5" y="54.5002" width="214" height="170" stroke="#000000" stroke-width="6.875" stroke-miterlimit="8" fill="#FFFFFF"/><text font-family="SimSun,SimSun_MSFontService,sans-serif" font-weight="400" font-size="73" transform="matrix(1 0 0 1 1545.9 123)">集散<tspan font-size="73" x="0" y="88">中心</tspan><tspan font-family="Times New Roman,Times New Roman_MSFontService,sans-serif" font-size="92" x="116.163" y="193">CID</tspan><tspan font-family="Times New Roman,Times New Roman_MSFontService,sans-serif" font-size="92" x="274.288" y="193">: 2</tspan></text><path d="M1937.5 807.5C1937.5 714.716 2029.06 639.5 2142 639.5 2254.94 639.5 2346.5 714.716 2346.5 807.5 2346.5 900.284 2254.94 975.5 2142 975.5 2029.06 975.5 1937.5 900.284 1937.5 807.5Z" stroke="#000000" stroke-width="6.875" stroke-miterlimit="8" fill="#F2F2F2" fill-rule="evenodd"/><rect x="1798.5" y="627.5" width="300" height="102" stroke="#000000" stroke-width="6.875" stroke-miterlimit="8" fill="#FFFFFF"/><text font-family="SimSun,SimSun_MSFontService,sans-serif" font-weight="400" font-size="73" transform="matrix(1 0 0 1 1837.99 706)">派送点<tspan font-family="Times New Roman,Times New Roman_MSFontService,sans-serif" font-size="92" x="182.692" y="134">PID</tspan><tspan font-family="Times New Roman,Times New Roman_MSFontService,sans-serif" font-size="92" x="330.505" y="134">: 3</tspan></text><path d="M1158.5 809.5C1158.5 716.716 1250.06 641.5 1363 641.5 1475.94 641.5 1567.5 716.716 1567.5 809.5 1567.5 902.284 1475.94 977.5 1363 977.5 1250.06 977.5 1158.5 902.284 1158.5 809.5Z" stroke="#000000" stroke-width="6.875" stroke-miterlimit="8" fill="#F2F2F2" fill-rule="evenodd"/><rect x="1018.5" y="629.5" width="301" height="102" stroke="#000000" stroke-width="6.875" stroke-miterlimit="8" fill="#FFFFFF"/><text font-family="SimSun,SimSun_MSFontService,sans-serif" font-weight="400" font-size="73" transform="matrix(1 0 0 1 1058.62 708)">派送点<tspan font-family="Times New Roman,Times New Roman_MSFontService,sans-serif" font-size="92" x="182.692" y="134">PID</tspan><tspan font-family="Times New Roman,Times New Roman_MSFontService,sans-serif" font-size="92" x="330.505" y="134">: 2</tspan></text><path d="M1155.5 1324C1155.5 1230.94 1247.28 1155.5 1360.5 1155.5 1473.72 1155.5 1565.5 1230.94 1565.5 1324 1565.5 1417.06 1473.72 1492.5 1360.5 1492.5 1247.28 1492.5 1155.5 1417.06 1155.5 1324Z" stroke="#000000" stroke-width="6.875" stroke-miterlimit="8" fill="#F2F2F2" fill-rule="evenodd"/><text font-family="Times New Roman,Times New Roman_MSFontService,sans-serif" font-weight="400" font-size="92" transform="matrix(1 0 0 1 1231.34 1357)">A<tspan font-size="92" x="66.4584" y="0">ID</tspan><tspan font-size="92" x="163.281" y="0">: 2</tspan></text><rect x="1016.5" y="1116.5" width="214" height="170" stroke="#000000" stroke-width="6.875" stroke-miterlimit="8" fill="#FFFFFF"/><text font-family="SimSun,SimSun_MSFontService,sans-serif" font-weight="400" font-size="73" transform="matrix(1 0 0 1 1049.53 1189)">派送<tspan font-size="73" x="0" y="84">区域</tspan></text><path d="M1936.5 1313C1936.5 1219.94 2028.06 1144.5 2141 1144.5 2253.94 1144.5 2345.5 1219.94 2345.5 1313 2345.5 1406.06 2253.94 1481.5 2141 1481.5 2028.06 1481.5 1936.5 1406.06 1936.5 1313Z" stroke="#000000" stroke-width="6.875" stroke-miterlimit="8" fill="#F2F2F2" fill-rule="evenodd"/><text font-family="Times New Roman,Times New Roman_MSFontService,sans-serif" font-weight="400" font-size="92" transform="matrix(1 0 0 1 2012.08 1346)">A<tspan font-size="92" x="66.4584" y="0">ID</tspan><tspan font-size="92" x="163.281" y="0">: 3</tspan></text><rect x="1797.5" y="1104.5" width="214" height="171" stroke="#000000" stroke-width="6.875" stroke-miterlimit="8" fill="#FFFFFF"/><text font-family="SimSun,SimSun_MSFontService,sans-serif" font-weight="400" font-size="73" transform="matrix(1 0 0 1 1830.28 1178)">派送<tspan font-size="73" x="0" y="84">区域</tspan></text><path d="M566.5 1883C566.5 1789.94 658.058 1714.5 771 1714.5 883.942 1714.5 975.5 1789.94 975.5 1883 975.5 1976.06 883.942 2051.5 771 2051.5 658.058 2051.5 566.5 1976.06 566.5 1883Z" stroke="#000000" stroke-width="6.875" stroke-miterlimit="8" fill="#F2F2F2" fill-rule="evenodd"/><text font-family="Times New Roman,Times New Roman_MSFontService,sans-serif" font-weight="400" font-size="92" transform="matrix(1 0 0 1 641.491 1916)">U<tspan font-size="92" x="66.4583" y="0">ID</tspan><tspan font-size="92" x="163.281" y="0">: 2</tspan></text><rect x="426.5" y="1675.5" width="214" height="170" stroke="#000000" stroke-width="6.875" stroke-miterlimit="8" fill="#FFFFFF"/><text font-family="SimSun,SimSun_MSFontService,sans-serif" font-weight="400" font-size="73" transform="matrix(1 0 0 1 459.684 1748)">派送<tspan font-size="73" x="0" y="84">单元</tspan></text><path d="M1174.5 1883C1174.5 1789.94 1266.06 1714.5 1379 1714.5 1491.94 1714.5 1583.5 1789.94 1583.5 1883 1583.5 1976.06 1491.94 2051.5 1379 2051.5 1266.06 2051.5 1174.5 1976.06 1174.5 1883Z" stroke="#000000" stroke-width="6.875" stroke-miterlimit="8" fill="#F2F2F2" fill-rule="evenodd"/><text font-family="Times New Roman,Times New Roman_MSFontService,sans-serif" font-weight="400" font-size="92" transform="matrix(1 0 0 1 1250.18 1916)">U<tspan font-size="92" x="66.4584" y="0">ID</tspan><tspan font-size="92" x="163.281" y="0">: 3</tspan></text><rect x="1035.5" y="1675.5" width="214" height="170" stroke="#000000" stroke-width="6.875" stroke-miterlimit="8" fill="#FFFFFF"/><text font-family="SimSun,SimSun_MSFontService,sans-serif" font-weight="400" font-size="73" transform="matrix(1 0 0 1 1068.37 1748)">派送<tspan font-size="73" x="0" y="84">单元</tspan></text><path d="M1756.5 1883C1756.5 1789.94 1848.06 1714.5 1961 1714.5 2073.94 1714.5 2165.5 1789.94 2165.5 1883 2165.5 1976.06 2073.94 2051.5 1961 2051.5 1848.06 2051.5 1756.5 1976.06 1756.5 1883Z" stroke="#000000" stroke-width="6.875" stroke-miterlimit="8" fill="#F2F2F2" fill-rule="evenodd"/><text font-family="Times New Roman,Times New Roman_MSFontService,sans-serif" font-weight="400" font-size="92" transform="matrix(1 0 0 1 1832.13 1916)">U<tspan font-size="92" x="66.4583" y="0">ID</tspan><tspan font-size="92" x="163.281" y="0">: 4</tspan></text><rect x="1617.5" y="1675.5" width="214" height="170" stroke="#000000" stroke-width="6.875" stroke-miterlimit="8" fill="#FFFFFF"/><text font-family="SimSun,SimSun_MSFontService,sans-serif" font-weight="400" font-size="73" transform="matrix(1 0 0 1 1650.33 1748)">派送<tspan font-size="73" x="0" y="84">单元</tspan></text><path d="M2375.5 1883C2375.5 1789.94 2467.06 1714.5 2580 1714.5 2692.94 1714.5 2784.5 1789.94 2784.5 1883 2784.5 1976.06 2692.94 2051.5 2580 2051.5 2467.06 2051.5 2375.5 1976.06 2375.5 1883Z" stroke="#000000" stroke-width="6.875" stroke-miterlimit="8" fill="#F2F2F2" fill-rule="evenodd"/><text font-family="Times New Roman,Times New Roman_MSFontService,sans-serif" font-weight="400" font-size="92" transform="matrix(1 0 0 1 2450.81 1916)">U<tspan font-size="92" x="66.4585" y="0">ID</tspan><tspan font-size="92" x="163.281" y="0">: 5</tspan></text><rect x="2235.5" y="1675.5" width="214" height="170" stroke="#000000" stroke-width="6.875" stroke-miterlimit="8" fill="#FFFFFF"/><text font-family="SimSun,SimSun_MSFontService,sans-serif" font-weight="400" font-size="73" transform="matrix(1 0 0 1 2269.01 1748)">派送<tspan font-size="73" x="0" y="84">单元</tspan></text><path d="M30.5886 17.1247 346.041 287.038 337.101 297.486 21.6493 27.5722ZM17.9336 42.4893 0 0 44.7516 11.1467Z" fill="#0070C0" transform="matrix(1 0 0 -1 451 629.262)"/><path d="M592.5 477.5C592.5 462.036 605.036 449.5 620.5 449.5 635.964 449.5 648.5 462.036 648.5 477.5 648.5 492.964 635.964 505.5 620.5 505.5 605.036 505.5 592.5 492.964 592.5 477.5Z" stroke="#000000" stroke-width="4.58333" stroke-miterlimit="8" fill="#0070C0" fill-rule="evenodd"/><text fill="#FFFFFF" font-family="Times New Roman,Times New Roman_MSFontService,sans-serif" font-weight="400" font-size="55" transform="matrix(1 0 0 1 606.047 497)">1</text><path d="M1240.49 613.232 1071.99 433.705 1082.01 424.295 1250.51 603.822ZM1255.83 589.399 1269.03 633.591 1225.76 617.629Z" fill="#0070C0"/><path d="M981.742 1109.17 683.957 962.165 690.044 949.835 987.829 1096.84ZM987.751 1081.47 1015.61 1118.23 969.491 1118.46Z" fill="#0070C0"/><path d="M6.87506 34.375 6.87536 206.279-6.87464 206.279-6.87494 34.375ZM-20.6249 41.25 0 0 20.6251 41.25Z" fill="#0070C0" transform="matrix(1 0 0 -1 1280 1167.28)"/><path d="M6.87507 34.375 6.87536 174.224-6.87464 174.224-6.87493 34.375ZM-20.6249 41.25 0 0 20.6251 41.25Z" fill="#0070C0" transform="matrix(1 0 0 -1 2090 1144.22)"/><path d="M30.536 17.2173 329.712 274.785 320.741 285.205 21.5649 27.6376ZM17.8043 42.5436 0 0 44.7175 11.2828Z" fill="#0070C0" transform="matrix(1 0 0 -1 107 1721.99)"/><path d="M658.527 1700.58 563.761 1495.89 576.239 1490.11 671.005 1694.8ZM680.594 1682.79 679.208 1728.88 643.161 1700.12Z" fill="#0070C0"/><path d="M26.9903 22.3704 231.629 274.744 220.949 283.404 16.3102 31.0304ZM9.96003 45.0306 0 0 42.0005 19.0503Z" fill="#C55A11" transform="matrix(1 0 0 -1 584 641.074)"/><path d="M33.3024 10.9467 495.718 272.633 488.946 284.6 26.5304 22.9134ZM25.7419 38.2663 0 0 46.0582 2.36621Z" fill="#C55A11" transform="matrix(1 0 0 -1 1505 1204.62)"/><path d="M742.089 1689.38 612.254 1491.78 623.746 1484.22 753.58 1681.83ZM761.296 1668.53 766.711 1714.33 726.822 1691.18Z" fill="#C55A11"/><path d="M675.5 492.5C675.5 477.036 688.26 464.5 704 464.5 719.74 464.5 732.5 477.036 732.5 492.5 732.5 507.964 719.74 520.5 704 520.5 688.26 520.5 675.5 507.964 675.5 492.5Z" stroke="#000000" stroke-width="4.58333" stroke-miterlimit="8" fill="#C55A11" fill-rule="evenodd"/><text fill="#FFFFFF" font-family="Times New Roman,Times New Roman_MSFontService,sans-serif" font-weight="400" font-size="55" transform="matrix(1 0 0 1 689.933 512)">2</text><path d="M1385.12 628.235 1126.48 402.177 1135.52 391.824 1394.17 617.882ZM1398.04 603.005 1415.53 645.68 1370.9 634.064Z" fill="#00B050"/><path d="M2257.82 668.093 1966.06 366.782 1975.94 357.218 2267.7 658.528ZM2272.79 644.025 2286.67 688.006 2243.16 672.719Z" fill="#00B050"/><path d="M7.03204 34.3432 7.65879 171.473-6.09107 171.536-6.71782 34.4061ZM-20.4363 41.3438 0 0 20.8133 41.1553Z" fill="#00B050" transform="matrix(1 0 0 -1 2184 1144.5)"/><path d="M7.30498 34.2862 9.10766 178.213-4.64126 178.385-6.44395 34.4584ZM-20.1068 41.5051 0 0 21.14 40.9885Z" fill="#00B050" transform="matrix(1 0 0 -1 1360 1155.3)"/><path d="M33.3668 10.7518 499.284 270.827 492.582 282.834 26.665 22.758ZM25.9657 38.1148 0 0 46.0712 2.09632Z" fill="#00B050" transform="matrix(1 0 0 -1 722 1204.83)"/><path d="M893.446 1741.48 654.935 1481.65 665.065 1472.35 903.576 1732.18ZM909.056 1717.81 921.757 1762.15 878.668 1745.71Z" fill="#00B050"/><path d="M1097.5 473.5C1097.5 458.036 1110.04 445.5 1125.5 445.5 1140.96 445.5 1153.5 458.036 1153.5 473.5 1153.5 488.964 1140.96 501.5 1125.5 501.5 1110.04 501.5 1097.5 488.964 1097.5 473.5Z" stroke="#000000" stroke-width="4.58333" stroke-miterlimit="8" fill="#0070C0" fill-rule="evenodd"/><text fill="#FFFFFF" font-family="Times New Roman,Times New Roman_MSFontService,sans-serif" font-weight="400" font-size="55" transform="matrix(1 0 0 1 1111.21 493)">1</text><path d="M1569.5 479.5C1569.5 464.036 1582.26 451.5 1598 451.5 1613.74 451.5 1626.5 464.036 1626.5 479.5 1626.5 494.964 1613.74 507.5 1598 507.5 1582.26 507.5 1569.5 494.964 1569.5 479.5Z" stroke="#000000" stroke-width="4.58333" stroke-miterlimit="8" fill="#0070C0" fill-rule="evenodd"/><text fill="#FFFFFF" font-family="Times New Roman,Times New Roman_MSFontService,sans-serif" font-weight="400" font-size="55" transform="matrix(1 0 0 1 1583.97 499)">1</text><path d="M1891.5 507C1891.5 491.26 1904.04 478.5 1919.5 478.5 1934.96 478.5 1947.5 491.26 1947.5 507 1947.5 522.74 1934.96 535.5 1919.5 535.5 1904.04 535.5 1891.5 522.74 1891.5 507Z" stroke="#000000" stroke-width="4.58333" stroke-miterlimit="8" fill="#0070C0" fill-rule="evenodd"/><text fill="#FFFFFF" font-family="Times New Roman,Times New Roman_MSFontService,sans-serif" font-weight="400" font-size="55" transform="matrix(1 0 0 1 1905.25 527)">1</text><path d="M461.5 1041.5C461.5 1026.04 474.036 1013.5 489.5 1013.5 504.964 1013.5 517.5 1026.04 517.5 1041.5 517.5 1056.96 504.964 1069.5 489.5 1069.5 474.036 1069.5 461.5 1056.96 461.5 1041.5Z" stroke="#000000" stroke-width="4.58333" stroke-miterlimit="8" fill="#0070C0" fill-rule="evenodd"/><text fill="#FFFFFF" font-family="Times New Roman,Times New Roman_MSFontService,sans-serif" font-weight="400" font-size="55" transform="matrix(1 0 0 1 475.083 1061)">1</text><path d="M809.5 1042.5C809.5 1027.04 822.26 1014.5 838 1014.5 853.74 1014.5 866.5 1027.04 866.5 1042.5 866.5 1057.96 853.74 1070.5 838 1070.5 822.26 1070.5 809.5 1057.96 809.5 1042.5Z" stroke="#000000" stroke-width="4.58333" stroke-miterlimit="8" fill="#0070C0" fill-rule="evenodd"/><text fill="#FFFFFF" font-family="Times New Roman,Times New Roman_MSFontService,sans-serif" font-weight="400" font-size="55" transform="matrix(1 0 0 1 823.617 1062)">1</text><path d="M1252.5 1047.5C1252.5 1032.04 1265.04 1019.5 1280.5 1019.5 1295.96 1019.5 1308.5 1032.04 1308.5 1047.5 1308.5 1062.96 1295.96 1075.5 1280.5 1075.5 1265.04 1075.5 1252.5 1062.96 1252.5 1047.5Z" stroke="#000000" stroke-width="4.58333" stroke-miterlimit="8" fill="#0070C0" fill-rule="evenodd"/><text fill="#FFFFFF" font-family="Times New Roman,Times New Roman_MSFontService,sans-serif" font-weight="400" font-size="55" transform="matrix(1 0 0 1 1266.05 1067)">1</text><path d="M2062.5 1046.5C2062.5 1031.04 2075.26 1018.5 2091 1018.5 2106.74 1018.5 2119.5 1031.04 2119.5 1046.5 2119.5 1061.96 2106.74 1074.5 2091 1074.5 2075.26 1074.5 2062.5 1061.96 2062.5 1046.5Z" stroke="#000000" stroke-width="4.58333" stroke-miterlimit="8" fill="#0070C0" fill-rule="evenodd"/><text fill="#FFFFFF" font-family="Times New Roman,Times New Roman_MSFontService,sans-serif" font-weight="400" font-size="55" transform="matrix(1 0 0 1 2076.66 1066)">1</text><path d="M251.5 1565.5C251.5 1550.04 264.036 1537.5 279.5 1537.5 294.964 1537.5 307.5 1550.04 307.5 1565.5 307.5 1580.96 294.964 1593.5 279.5 1593.5 264.036 1593.5 251.5 1580.96 251.5 1565.5Z" stroke="#000000" stroke-width="4.58333" stroke-miterlimit="8" fill="#0070C0" fill-rule="evenodd"/><text fill="#FFFFFF" font-family="Times New Roman,Times New Roman_MSFontService,sans-serif" font-weight="400" font-size="55" transform="matrix(1 0 0 1 265.357 1585)">1</text><path d="M586.5 1591.5C586.5 1576.04 599.26 1563.5 615 1563.5 630.74 1563.5 643.5 1576.04 643.5 1591.5 643.5 1606.96 630.74 1619.5 615 1619.5 599.26 1619.5 586.5 1606.96 586.5 1591.5Z" stroke="#000000" stroke-width="4.58333" stroke-miterlimit="8" fill="#0070C0" fill-rule="evenodd"/><text fill="#FFFFFF" font-family="Times New Roman,Times New Roman_MSFontService,sans-serif" font-weight="400" font-size="55" transform="matrix(1 0 0 1 600.915 1611)">1</text><path d="M870.5 1548.5C870.5 1533.04 883.26 1520.5 899 1520.5 914.74 1520.5 927.5 1533.04 927.5 1548.5 927.5 1563.96 914.74 1576.5 899 1576.5 883.26 1576.5 870.5 1563.96 870.5 1548.5Z" stroke="#000000" stroke-width="4.58333" stroke-miterlimit="8" fill="#0070C0" fill-rule="evenodd"/><text fill="#FFFFFF" font-family="Times New Roman,Times New Roman_MSFontService,sans-serif" font-weight="400" font-size="55" transform="matrix(1 0 0 1 884.794 1568)">1</text><path d="M1250.5 1601.5C1250.5 1586.04 1263.26 1573.5 1279 1573.5 1294.74 1573.5 1307.5 1586.04 1307.5 1601.5 1307.5 1616.96 1294.74 1629.5 1279 1629.5 1263.26 1629.5 1250.5 1616.96 1250.5 1601.5Z" stroke="#000000" stroke-width="4.58333" stroke-miterlimit="8" fill="#0070C0" fill-rule="evenodd"/><text fill="#FFFFFF" font-family="Times New Roman,Times New Roman_MSFontService,sans-serif" font-weight="400" font-size="55" transform="matrix(1 0 0 1 1264.51 1621)">1</text><path d="M1532.5 1565.5C1532.5 1550.04 1545.04 1537.5 1560.5 1537.5 1575.96 1537.5 1588.5 1550.04 1588.5 1565.5 1588.5 1580.96 1575.96 1593.5 1560.5 1593.5 1545.04 1593.5 1532.5 1580.96 1532.5 1565.5Z" stroke="#000000" stroke-width="4.58333" stroke-miterlimit="8" fill="#0070C0" fill-rule="evenodd"/><text fill="#FFFFFF" font-family="Times New Roman,Times New Roman_MSFontService,sans-serif" font-weight="400" font-size="55" transform="matrix(1 0 0 1 1546.41 1585)">1</text><path d="M2268.5 1535.5C2268.5 1520.04 2281.26 1507.5 2297 1507.5 2312.74 1507.5 2325.5 1520.04 2325.5 1535.5 2325.5 1550.96 2312.74 1563.5 2297 1563.5 2281.26 1563.5 2268.5 1550.96 2268.5 1535.5Z" stroke="#000000" stroke-width="4.58333" stroke-miterlimit="8" fill="#0070C0" fill-rule="evenodd"/><text fill="#FFFFFF" font-family="Times New Roman,Times New Roman_MSFontService,sans-serif" font-weight="400" font-size="55" transform="matrix(1 0 0 1 2282.67 1555)">1</text><path d="M1230.5 405C1230.5 389.26 1243.04 376.5 1258.5 376.5 1273.96 376.5 1286.5 389.26 1286.5 405 1286.5 420.74 1273.96 433.5 1258.5 433.5 1243.04 433.5 1230.5 420.74 1230.5 405Z" stroke="#000000" stroke-width="4.58333" stroke-miterlimit="8" fill="#C55A11" fill-rule="evenodd"/><text fill="#FFFFFF" font-family="Times New Roman,Times New Roman_MSFontService,sans-serif" font-weight="400" font-size="55" transform="matrix(1 0 0 1 1244.48 424)">2</text><path d="M541.5 1045.5C541.5 1030.04 554.26 1017.5 570 1017.5 585.74 1017.5 598.5 1030.04 598.5 1045.5 598.5 1060.96 585.74 1073.5 570 1073.5 554.26 1073.5 541.5 1060.96 541.5 1045.5Z" stroke="#000000" stroke-width="4.58333" stroke-miterlimit="8" fill="#C55A11" fill-rule="evenodd"/><text fill="#FFFFFF" font-family="Times New Roman,Times New Roman_MSFontService,sans-serif" font-weight="400" font-size="55" transform="matrix(1 0 0 1 555.982 1065)">2</text><path d="M865.5 987.5C865.5 972.036 878.036 959.5 893.5 959.5 908.964 959.5 921.5 972.036 921.5 987.5 921.5 1002.96 908.964 1015.5 893.5 1015.5 878.036 1015.5 865.5 1002.96 865.5 987.5Z" stroke="#000000" stroke-width="4.58333" stroke-miterlimit="8" fill="#C55A11" fill-rule="evenodd"/><text fill="#FFFFFF" font-family="Times New Roman,Times New Roman_MSFontService,sans-serif" font-weight="400" font-size="55" transform="matrix(1 0 0 1 879.264 1007)">2</text><path d="M1813.5 1012.5C1813.5 997.036 1826.26 984.5 1842 984.5 1857.74 984.5 1870.5 997.036 1870.5 1012.5 1870.5 1027.96 1857.74 1040.5 1842 1040.5 1826.26 1040.5 1813.5 1027.96 1813.5 1012.5Z" stroke="#000000" stroke-width="4.58333" stroke-miterlimit="8" fill="#C55A11" fill-rule="evenodd"/><text fill="#FFFFFF" font-family="Times New Roman,Times New Roman_MSFontService,sans-serif" font-weight="400" font-size="55" transform="matrix(1 0 0 1 1827.79 1032)">2</text><path d="M925.5 1513.5C925.5 1498.04 938.036 1485.5 953.5 1485.5 968.964 1485.5 981.5 1498.04 981.5 1513.5 981.5 1528.96 968.964 1541.5 953.5 1541.5 938.036 1541.5 925.5 1528.96 925.5 1513.5Z" stroke="#000000" stroke-width="4.58333" stroke-miterlimit="8" fill="#C55A11" fill-rule="evenodd"/><text fill="#FFFFFF" font-family="Times New Roman,Times New Roman_MSFontService,sans-serif" font-weight="400" font-size="55" transform="matrix(1 0 0 1 939.117 1533)">2</text><path d="M1594.5 1537.5C1594.5 1522.04 1607.26 1509.5 1623 1509.5 1638.74 1509.5 1651.5 1522.04 1651.5 1537.5 1651.5 1552.96 1638.74 1565.5 1623 1565.5 1607.26 1565.5 1594.5 1552.96 1594.5 1537.5Z" stroke="#000000" stroke-width="4.58333" stroke-miterlimit="8" fill="#C55A11" fill-rule="evenodd"/><text fill="#FFFFFF" font-family="Times New Roman,Times New Roman_MSFontService,sans-serif" font-weight="400" font-size="55" transform="matrix(1 0 0 1 1608.65 1557)">2</text><path d="M1697.5 1443C1697.5 1427.26 1710.04 1414.5 1725.5 1414.5 1740.96 1414.5 1753.5 1427.26 1753.5 1443 1753.5 1458.74 1740.96 1471.5 1725.5 1471.5 1710.04 1471.5 1697.5 1458.74 1697.5 1443Z" stroke="#000000" stroke-width="4.58333" stroke-miterlimit="8" fill="#C55A11" fill-rule="evenodd"/><text fill="#FFFFFF" font-family="Times New Roman,Times New Roman_MSFontService,sans-serif" font-weight="400" font-size="55" transform="matrix(1 0 0 1 1711.24 1462)">2</text><path d="M1977.5 491.5C1977.5 476.036 1990.04 463.5 2005.5 463.5 2020.96 463.5 2033.5 476.036 2033.5 491.5 2033.5 506.964 2020.96 519.5 2005.5 519.5 1990.04 519.5 1977.5 506.964 1977.5 491.5Z" stroke="#000000" stroke-width="4.58333" stroke-miterlimit="8" fill="#C55A11" fill-rule="evenodd"/><text fill="#FFFFFF" font-family="Times New Roman,Times New Roman_MSFontService,sans-serif" font-weight="400" font-size="55" transform="matrix(1 0 0 1 1991.07 511)">2</text><path d="M2349.5 1523.5C2349.5 1508.04 2362.26 1495.5 2378 1495.5 2393.74 1495.5 2406.5 1508.04 2406.5 1523.5 2406.5 1538.96 2393.74 1551.5 2378 1551.5 2362.26 1551.5 2349.5 1538.96 2349.5 1523.5Z" stroke="#000000" stroke-width="4.58333" stroke-miterlimit="8" fill="#C55A11" fill-rule="evenodd"/><text fill="#FFFFFF" font-family="Times New Roman,Times New Roman_MSFontService,sans-serif" font-weight="400" font-size="55" transform="matrix(1 0 0 1 2363.57 1543)">2</text><path d="M650.5 1580.5C650.5 1565.04 663.26 1552.5 679 1552.5 694.74 1552.5 707.5 1565.04 707.5 1580.5 707.5 1595.96 694.74 1608.5 679 1608.5 663.26 1608.5 650.5 1595.96 650.5 1580.5Z" stroke="#000000" stroke-width="4.58333" stroke-miterlimit="8" fill="#C55A11" fill-rule="evenodd"/><text fill="#FFFFFF" font-family="Times New Roman,Times New Roman_MSFontService,sans-serif" font-weight="400" font-size="55" transform="matrix(1 0 0 1 664.858 1600)">2</text><path d="M2014.5 1523.5C2014.5 1508.04 2027.26 1495.5 2043 1495.5 2058.74 1495.5 2071.5 1508.04 2071.5 1523.5 2071.5 1538.96 2058.74 1551.5 2043 1551.5 2027.26 1551.5 2014.5 1538.96 2014.5 1523.5Z" stroke="#000000" stroke-width="4.58333" stroke-miterlimit="8" fill="#C55A11" fill-rule="evenodd"/><text fill="#FFFFFF" font-family="Times New Roman,Times New Roman_MSFontService,sans-serif" font-weight="400" font-size="55" transform="matrix(1 0 0 1 2028.77 1543)">2</text><path d="M741.5 515.5C741.5 500.036 754.036 487.5 769.5 487.5 784.964 487.5 797.5 500.036 797.5 515.5 797.5 530.964 784.964 543.5 769.5 543.5 754.036 543.5 741.5 530.964 741.5 515.5Z" stroke="#000000" stroke-width="4.58333" stroke-miterlimit="8" fill="#00B050" fill-rule="evenodd"/><text fill="#FFFFFF" font-family="Times New Roman,Times New Roman_MSFontService,sans-serif" font-weight="400" font-size="55" transform="matrix(1 0 0 1 755.408 535)">3</text><path d="M1164.5 448C1164.5 432.26 1177.04 419.5 1192.5 419.5 1207.96 419.5 1220.5 432.26 1220.5 448 1220.5 463.74 1207.96 476.5 1192.5 476.5 1177.04 476.5 1164.5 463.74 1164.5 448Z" stroke="#000000" stroke-width="4.58333" stroke-miterlimit="8" fill="#00B050" fill-rule="evenodd"/><text fill="#FFFFFF" font-family="Times New Roman,Times New Roman_MSFontService,sans-serif" font-weight="400" font-size="55" transform="matrix(1 0 0 1 1178.19 468)">3</text><path d="M2046.5 466.5C2046.5 451.036 2059.04 438.5 2074.5 438.5 2089.96 438.5 2102.5 451.036 2102.5 466.5 2102.5 481.964 2089.96 494.5 2074.5 494.5 2059.04 494.5 2046.5 481.964 2046.5 466.5Z" stroke="#000000" stroke-width="4.58333" stroke-miterlimit="8" fill="#00B050" fill-rule="evenodd"/><text fill="#FFFFFF" font-family="Times New Roman,Times New Roman_MSFontService,sans-serif" font-weight="400" font-size="55" transform="matrix(1 0 0 1 2060.16 486)">3</text><path d="M1449.5 422.5C1449.5 407.036 1462.26 394.5 1478 394.5 1493.74 394.5 1506.5 407.036 1506.5 422.5 1506.5 437.964 1493.74 450.5 1478 450.5 1462.26 450.5 1449.5 437.964 1449.5 422.5Z" stroke="#000000" stroke-width="4.58333" stroke-miterlimit="8" fill="#00B050" fill-rule="evenodd"/><text fill="#FFFFFF" font-family="Times New Roman,Times New Roman_MSFontService,sans-serif" font-weight="400" font-size="55" transform="matrix(1 0 0 1 1463.73 442)">3</text><path d="M619.5 1051.5C619.5 1036.04 632.036 1023.5 647.5 1023.5 662.964 1023.5 675.5 1036.04 675.5 1051.5 675.5 1066.96 662.964 1079.5 647.5 1079.5 632.036 1079.5 619.5 1066.96 619.5 1051.5Z" stroke="#000000" stroke-width="4.58333" stroke-miterlimit="8" fill="#00B050" fill-rule="evenodd"/><text fill="#FFFFFF" font-family="Times New Roman,Times New Roman_MSFontService,sans-serif" font-weight="400" font-size="55" transform="matrix(1 0 0 1 633.151 1071)">3</text><path d="M1061.5 998.5C1061.5 983.036 1074.04 970.5 1089.5 970.5 1104.96 970.5 1117.5 983.036 1117.5 998.5 1117.5 1013.96 1104.96 1026.5 1089.5 1026.5 1074.04 1026.5 1061.5 1013.96 1061.5 998.5Z" stroke="#000000" stroke-width="4.58333" stroke-miterlimit="8" fill="#00B050" fill-rule="evenodd"/><text fill="#FFFFFF" font-family="Times New Roman,Times New Roman_MSFontService,sans-serif" font-weight="400" font-size="55" transform="matrix(1 0 0 1 1075.29 1018)">3</text><path d="M712.5 1558.5C712.5 1543.04 725.036 1530.5 740.5 1530.5 755.964 1530.5 768.5 1543.04 768.5 1558.5 768.5 1573.96 755.964 1586.5 740.5 1586.5 725.036 1586.5 712.5 1573.96 712.5 1558.5Z" stroke="#000000" stroke-width="4.58333" stroke-miterlimit="8" fill="#00B050" fill-rule="evenodd"/><text fill="#FFFFFF" font-family="Times New Roman,Times New Roman_MSFontService,sans-serif" font-weight="400" font-size="55" transform="matrix(1 0 0 1 726.34 1578)">3</text><path d="M1332.5 1051.5C1332.5 1036.04 1345.26 1023.5 1361 1023.5 1376.74 1023.5 1389.5 1036.04 1389.5 1051.5 1389.5 1066.96 1376.74 1079.5 1361 1079.5 1345.26 1079.5 1332.5 1066.96 1332.5 1051.5Z" stroke="#000000" stroke-width="4.58333" stroke-miterlimit="8" fill="#00B050" fill-rule="evenodd"/><text fill="#FFFFFF" font-family="Times New Roman,Times New Roman_MSFontService,sans-serif" font-weight="400" font-size="55" transform="matrix(1 0 0 1 1346.61 1071)">3</text><path d="M2419.5 1493.5C2419.5 1478.04 2432.04 1465.5 2447.5 1465.5 2462.96 1465.5 2475.5 1478.04 2475.5 1493.5 2475.5 1508.96 2462.96 1521.5 2447.5 1521.5 2432.04 1521.5 2419.5 1508.96 2419.5 1493.5Z" stroke="#000000" stroke-width="4.58333" stroke-miterlimit="8" fill="#00B050" fill-rule="evenodd"/><text fill="#FFFFFF" font-family="Times New Roman,Times New Roman_MSFontService,sans-serif" font-weight="400" font-size="55" transform="matrix(1 0 0 1 2433.25 1513)">3</text><path d="M1325.5 1601.5C1325.5 1586.04 1338.04 1573.5 1353.5 1573.5 1368.96 1573.5 1381.5 1586.04 1381.5 1601.5 1381.5 1616.96 1368.96 1629.5 1353.5 1629.5 1338.04 1629.5 1325.5 1616.96 1325.5 1601.5Z" stroke="#000000" stroke-width="4.58333" stroke-miterlimit="8" fill="#00B050" fill-rule="evenodd"/><text fill="#FFFFFF" font-family="Times New Roman,Times New Roman_MSFontService,sans-serif" font-weight="400" font-size="55" transform="matrix(1 0 0 1 1339.36 1621)">3</text><path d="M333.5 1584.5C333.5 1569.04 346.036 1556.5 361.5 1556.5 376.964 1556.5 389.5 1569.04 389.5 1584.5 389.5 1599.96 376.964 1612.5 361.5 1612.5 346.036 1612.5 333.5 1599.96 333.5 1584.5Z" stroke="#000000" stroke-width="4.58333" stroke-miterlimit="8" fill="#00B050" fill-rule="evenodd"/><text fill="#FFFFFF" font-family="Times New Roman,Times New Roman_MSFontService,sans-serif" font-weight="400" font-size="55" transform="matrix(1 0 0 1 347.38 1604)">3</text><path d="M2157.5 1046.5C2157.5 1031.04 2170.04 1018.5 2185.5 1018.5 2200.96 1018.5 2213.5 1031.04 2213.5 1046.5 2213.5 1061.96 2200.96 1074.5 2185.5 1074.5 2170.04 1074.5 2157.5 1061.96 2157.5 1046.5Z" stroke="#000000" stroke-width="4.58333" stroke-miterlimit="8" fill="#00B050" fill-rule="evenodd"/><text fill="#FFFFFF" font-family="Times New Roman,Times New Roman_MSFontService,sans-serif" font-weight="400" font-size="55" transform="matrix(1 0 0 1 2171.45 1066)">3</text><path d="M1869.58 1097.05 1504.2 934.28 1509.8 921.72 1875.17 1084.49ZM1874.49 1069.13 1903.78 1104.75 1857.7 1106.81Z" fill="#C55A11"/><path d="M1636.5 998.5C1636.5 983.036 1649.04 970.5 1664.5 970.5 1679.96 970.5 1692.5 983.036 1692.5 998.5 1692.5 1013.96 1679.96 1026.5 1664.5 1026.5 1649.04 1026.5 1636.5 1013.96 1636.5 998.5Z" stroke="#000000" stroke-width="4.58333" stroke-miterlimit="8" fill="#C55A11" fill-rule="evenodd"/><text fill="#FFFFFF" font-family="Times New Roman,Times New Roman_MSFontService,sans-serif" font-weight="400" font-size="55" transform="matrix(1 0 0 1 1650.29 1018)">2</text></g></svg>