<svg width="3195" height="1076" xmlns="http://www.w3.org/2000/svg" xmlns:xlink="http://www.w3.org/1999/xlink" overflow="hidden"><defs><clipPath id="clip0"><rect x="464" y="310" width="3195" height="1076"/></clipPath></defs><g clip-path="url(#clip0)" transform="translate(-464 -310)"><path d="M486.5 867C486.5 742.46 596.19 641.5 731.5 641.5 866.81 641.5 976.5 742.46 976.5 867 976.5 991.54 866.81 1092.5 731.5 1092.5 596.19 1092.5 486.5 991.54 486.5 867Z" stroke="#000000" stroke-width="6.875" stroke-miterlimit="8" fill="#E2F0D9" fill-rule="evenodd"/><rect x="617.5" y="581.5" width="217" height="120" stroke="#000000" stroke-width="6.875" stroke-miterlimit="8" fill="#FFFFFF"/><text font-family="SimSun,SimSun_MSFontService,sans-serif" font-weight="400" font-size="73" transform="matrix(1 0 0 1 652.218 669)">更新</text><path d="M1144.5 867C1144.5 742.46 1254.41 641.5 1390 641.5 1525.59 641.5 1635.5 742.46 1635.5 867 1635.5 991.54 1525.59 1092.5 1390 1092.5 1254.41 1092.5 1144.5 991.54 1144.5 867Z" stroke="#000000" stroke-width="6.875" stroke-miterlimit="8" fill="#E2F0D9" fill-rule="evenodd"/><path d="M1813.5 867C1813.5 742.46 1923.41 641.5 2059 641.5 2194.59 641.5 2304.5 742.46 2304.5 867 2304.5 991.54 2194.59 1092.5 2059 1092.5 1923.41 1092.5 1813.5 991.54 1813.5 867Z" stroke="#000000" stroke-width="6.875" stroke-miterlimit="8" fill="#E2F0D9" fill-rule="evenodd"/><path d="M2478.5 867C2478.5 742.46 2588.41 641.5 2724 641.5 2859.59 641.5 2969.5 742.46 2969.5 867 2969.5 991.54 2859.59 1092.5 2724 1092.5 2588.41 1092.5 2478.5 991.54 2478.5 867Z" stroke="#000000" stroke-width="6.875" stroke-miterlimit="8" fill="#E2F0D9" fill-rule="evenodd"/><path d="M3155.5 867C3155.5 742.46 3265.41 641.5 3401 641.5 3536.59 641.5 3646.5 742.46 3646.5 867 3646.5 991.54 3536.59 1092.5 3401 1092.5 3265.41 1092.5 3155.5 991.54 3155.5 867Z" stroke="#000000" stroke-width="6.875" stroke-miterlimit="8" fill="#E2F0D9" fill-rule="evenodd"/><text font-family="Times New Roman,Times New Roman_MSFontService,sans-serif" font-weight="400" font-size="83" transform="matrix(1 0 0 1 3278.67 803)">IVFPQ<tspan font-family="SimSun,SimSun_MSFontService,sans-serif" font-size="83" x="-45.8335" y="100">相似搜索</tspan><tspan font-family="SimSun,SimSun_MSFontService,sans-serif" font-size="83" x="-45.8335" y="199">查询功能</tspan></text><rect x="1281.5" y="581.5" width="216" height="120" stroke="#000000" stroke-width="6.875" stroke-miterlimit="8" fill="#FFFFFF"/><text font-family="SimSun,SimSun_MSFontService,sans-serif" font-weight="400" font-size="73" transform="matrix(1 0 0 1 1315.71 669)">更新</text><rect x="1952.5" y="581.5" width="217" height="120" stroke="#000000" stroke-width="6.875" stroke-miterlimit="8" fill="#FFFFFF"/><text font-family="SimSun,SimSun_MSFontService,sans-serif" font-weight="400" font-size="73" transform="matrix(1 0 0 1 1987.26 669)">更新</text><rect x="2613.5" y="581.5" width="217" height="120" stroke="#000000" stroke-width="6.875" stroke-miterlimit="8" fill="#FFFFFF"/><text font-family="SimSun,SimSun_MSFontService,sans-serif" font-weight="400" font-size="73" transform="matrix(1 0 0 1 2647.98 669)">更新</text><rect x="3289.5" y="580.5" width="217" height="121" stroke="#000000" stroke-width="6.875" stroke-miterlimit="8" fill="#FFFFFF"/><text font-family="SimSun,SimSun_MSFontService,sans-serif" font-weight="400" font-size="73" transform="matrix(1 0 0 1 3324.08 669)">更新<tspan font-family="Times New Roman,Times New Roman_MSFontService,sans-serif" font-size="83" x="-766.738" y="134">IVFFALT</tspan><tspan font-size="83" x="-762.155" y="234">相似搜索</tspan><tspan font-size="83" x="-762.155" y="333">查询功能</tspan><tspan font-size="83" x="-1391.54" y="171">更新了</tspan><tspan font-size="83" x="-1432.79" y="270">技术文档</tspan><tspan font-size="83" x="-2139.28" y="152">修复了影响</tspan><tspan font-size="83" x="-2139.28" y="251">用户登录的</tspan><tspan font-size="83" x="-2098.03" y="346">关键错误</tspan><tspan font-size="83" x="-2804.78" y="185">创建了向量</tspan><tspan font-family="Times New Roman,Times New Roman_MSFontService,sans-serif" font-size="83" x="-2774.99" y="281">PQ</tspan><tspan font-size="83" x="-2669.57" y="281">的模块</tspan></text><path d="M744.494 535.556 759.583 527.166 775.054 518.802 791.159 510.718 808.279 503.011 817.3 499.326 826.69 495.773 836.512 492.415 846.718 489.182 857.434 486.202 868.569 483.418 880.339 480.823 892.652 478.487 905.663 476.287 919.405 474.091 933.9 471.958 949.03 469.886 964.716 468.003 980.862 466.181 1014.07 463.294 1048.04 461.41 1065.11 460.969 1082.05 460.906 1098.86 461.284 1115.39 462.041 1131.57 463.368 1147.31 465.201 1162.74 467.542 1178.03 470.448 1193.31 473.795 1208.4 477.644 1223.44 481.862 1238.46 486.405 1268.13 496.589 1297.59 507.831 1326.88 519.873 1356.06 532.462 1375.75 541.158 1371.58 550.591 1351.92 541.904 1351.96 541.922 1322.83 529.36 1322.91 529.394 1293.73 517.394 1293.85 517.442 1264.54 506.255 1264.7 506.315 1235.2 496.19 1235.38 496.248 1220.51 491.748 1220.61 491.777 1205.67 487.59 1205.79 487.621 1190.85 483.809 1191.02 483.849 1175.9 480.537 1176.04 480.566 1160.91 477.691 1161.1 477.723 1145.85 475.411 1146.03 475.434 1130.47 473.622 1130.64 473.639 1114.64 472.327 1114.83 472.338 1098.45 471.588 1098.57 471.593 1081.88 471.218 1082.02 471.219 1065.21 471.281 1065.32 471.28 1048.38 471.717 1048.54 471.711 1014.72 473.586 1014.88 473.574 981.822 476.449 981.953 476.436 965.891 478.249 965.927 478.245 950.302 480.12 950.387 480.109 935.324 482.171 935.376 482.164 920.938 484.289 921.001 484.279 907.314 486.467 907.36 486.459 894.422 488.647 894.524 488.628 882.336 490.941 882.485 490.91 870.86 493.473 871 493.44 860 496.19 860.131 496.155 849.569 499.093 849.745 499.041 839.682 502.228 839.793 502.192 830.106 505.504 830.262 505.448 821.012 508.948 821.137 508.899 812.262 512.524 812.429 512.452 795.492 520.077 795.688 519.983 779.751 527.983 779.89 527.911 764.515 536.223 764.568 536.194 749.506 544.569ZM1356.83 513.84 1383.02 550.01 1338.65 555.003C1335.82 555.321 1333.26 553.286 1332.95 550.456 1332.63 547.626 1334.66 545.074 1337.49 544.755L1373.08 540.75 1369.48 548.898 1348.48 519.888C1346.81 517.582 1347.33 514.358 1349.63 512.688 1351.94 511.018 1355.16 511.534 1356.83 513.84Z"/><path d="M1417.47 537.447 1432.56 528.928 1448.04 520.497 1464.14 512.354 1481.26 504.517 1490.29 500.832 1499.66 497.221 1509.5 493.794 1519.7 490.561 1530.41 487.521 1541.56 484.671 1553.34 482.073 1565.64 479.739 1578.65 477.477 1592.41 475.279 1606.89 473.147 1622.01 471.013 1637.71 469.067 1653.86 467.245 1687.07 464.294 1721.04 462.41 1738.11 461.969 1755.04 461.906 1771.86 462.221 1788.4 463.042 1804.57 464.368 1820.32 466.203 1835.75 468.606 1851.04 471.512 1866.33 474.924 1881.41 478.834 1896.46 483.055 1911.49 487.727 1941.15 498.033 1970.61 509.401 1999.9 521.57 2029.08 534.346 2048.78 543.132 2044.58 552.55 2024.9 543.772 2024.93 543.786 1995.81 531.036 1995.9 531.074 1966.71 518.949 1966.83 518.998 1937.52 507.686 1937.68 507.746 1908.18 497.496 1908.34 497.549 1893.47 492.924 1893.61 492.965 1878.67 488.777 1878.77 488.804 1863.83 484.929 1864 484.97 1848.88 481.595 1849.04 481.628 1833.91 478.753 1834.08 478.783 1818.83 476.408 1819.03 476.434 1803.47 474.622 1803.64 474.639 1787.64 473.327 1787.81 473.338 1771.43 472.525 1771.59 472.53 1754.9 472.218 1755.02 472.219 1738.21 472.281 1738.32 472.28 1721.38 472.717 1721.54 472.711 1687.72 474.586 1687.89 474.574 1654.83 477.511 1654.95 477.499 1638.89 479.311 1638.95 479.305 1623.32 481.242 1623.41 481.231 1608.35 483.356 1608.38 483.351 1593.94 485.476 1594 485.467 1580.31 487.654 1580.38 487.643 1567.45 489.893 1567.52 489.879 1555.34 492.191 1555.48 492.161 1543.86 494.723 1544.03 494.683 1533.03 497.496 1533.16 497.46 1522.6 500.46 1522.74 500.416 1512.68 503.603 1512.82 503.557 1503.13 506.932 1503.29 506.874 1494.04 510.437 1494.14 510.399 1485.26 514.024 1485.46 513.939 1468.52 521.689 1468.7 521.601 1452.77 529.664 1452.9 529.591 1437.53 537.966 1437.6 537.928 1422.53 546.428ZM2029.96 515.746 2056.02 552.01 2011.63 556.843C2008.8 557.152 2006.25 555.107 2005.94 552.276 2005.64 549.445 2007.68 546.9 2010.51 546.591L2046.12 542.715 2042.49 550.85 2021.59 521.764C2019.93 519.451 2020.45 516.23 2022.77 514.568 2025.08 512.906 2028.3 513.434 2029.96 515.746Z"/><path d="M2103.47 537.447 2118.56 528.928 2134.04 520.495 2150.2 512.352 2167.33 504.514 2176.42 500.83 2185.79 497.221 2195.62 493.794 2205.83 490.561 2216.54 487.521 2227.75 484.67 2239.53 482.073 2251.83 479.739 2264.84 477.476 2278.66 475.278 2293.2 473.146 2308.32 471.013 2324.08 469.067 2340.23 467.245 2373.5 464.294 2407.48 462.41 2424.61 461.969 2441.6 461.906 2458.43 462.221 2474.96 463.042 2491.2 464.368 2506.95 466.203 2522.38 468.606 2537.73 471.512 2553.02 474.924 2568.15 478.834 2583.21 483.055 2598.24 487.726 2627.96 498.032 2657.48 509.399 2686.83 521.569 2716.02 534.346 2735.77 543.138 2731.58 552.559 2711.84 543.773 2711.87 543.786 2682.74 531.036 2682.84 531.076 2653.59 518.951 2653.71 518.999 2624.33 507.687 2624.5 507.747 2594.94 497.497 2595.09 497.549 2580.22 492.924 2580.36 492.965 2565.42 488.777 2565.52 488.805 2550.52 484.93 2550.69 484.97 2535.56 481.595 2535.73 481.629 2520.54 478.754 2520.71 478.783 2505.46 476.408 2505.65 476.434 2490.09 474.622 2490.27 474.639 2474.21 473.327 2474.37 473.338 2457.99 472.525 2458.15 472.53 2441.47 472.218 2441.58 472.219 2424.71 472.281 2424.82 472.28 2407.82 472.717 2407.97 472.711 2374.16 474.586 2374.33 474.574 2341.21 477.511 2341.33 477.499 2325.27 479.311 2325.32 479.305 2309.63 481.243 2309.72 481.231 2294.66 483.356 2294.69 483.352 2280.19 485.477 2280.25 485.467 2266.5 487.655 2266.57 487.643 2253.63 489.893 2253.71 489.879 2241.52 492.191 2241.67 492.161 2230.05 494.723 2230.21 494.685 2219.15 497.497 2219.28 497.46 2208.72 500.46 2208.87 500.416 2198.81 503.603 2198.95 503.557 2189.26 506.932 2189.42 506.874 2180.17 510.437 2180.25 510.403 2171.31 514.028 2171.52 513.939 2154.58 521.689 2154.76 521.605 2138.76 529.667 2138.9 529.591 2123.53 537.966 2123.6 537.928 2108.53 546.428ZM2716.93 515.767 2743.02 552.01 2698.63 556.879C2695.8 557.189 2693.26 555.146 2692.94 552.316 2692.63 549.485 2694.68 546.938 2697.51 546.628L2733.11 542.723 2729.49 550.86 2708.56 521.792C2706.9 519.48 2707.43 516.258 2709.74 514.594 2712.05 512.931 2715.27 513.456 2716.93 515.767Z"/><path d="M2776.49 538.556 2791.58 530.166 2807.06 521.8 2823.23 513.716 2840.35 506.008 2849.43 502.324 2858.82 498.773 2868.64 495.415 2878.84 492.182 2889.56 489.201 2900.76 486.417 2912.53 483.823 2924.84 481.487 2937.85 479.287 2951.66 477.09 2966.21 474.957 2981.34 472.885 2997.09 471.003 3013.24 469.181 3046.51 466.293 3080.48 464.41 3097.61 463.969 3114.61 463.906 3131.43 464.284 3147.95 465.041 3164.2 466.368 3179.93 468.201 3195.37 470.541 3210.72 473.447 3226 476.794 3241.14 480.643 3256.19 484.862 3271.21 489.404 3300.94 499.588 3330.46 510.83 3359.81 522.872 3389 535.461 3408.74 544.163 3404.58 553.6 3384.86 544.905 3384.9 544.922 3355.77 532.359 3355.86 532.395 3326.61 520.395 3326.73 520.443 3297.35 509.256 3297.52 509.315 3267.95 499.19 3268.13 499.248 3253.26 494.748 3253.36 494.777 3238.42 490.59 3238.54 490.622 3223.54 486.81 3223.71 486.849 3208.58 483.537 3208.73 483.566 3193.54 480.691 3193.73 480.723 3178.48 478.41 3178.65 478.434 3163.09 476.622 3163.27 476.639 3147.2 475.327 3147.39 475.338 3131.01 474.588 3131.13 474.592 3114.45 474.217 3114.58 474.219 3097.71 474.281 3097.82 474.279 3080.82 474.717 3080.97 474.711 3047.16 476.586 3047.32 476.574 3014.2 479.449 3014.33 479.436 2998.27 481.249 2998.3 481.245 2982.61 483.12 2982.7 483.108 2967.64 485.171 2967.68 485.164 2953.18 487.289 2953.25 487.28 2939.5 489.467 2939.55 489.459 2926.61 491.646 2926.71 491.628 2914.52 493.941 2914.67 493.91 2903.05 496.473 2903.18 496.441 2892.12 499.191 2892.26 499.155 2881.69 502.093 2881.87 502.04 2871.81 505.228 2871.92 505.191 2862.23 508.504 2862.39 508.447 2853.14 511.947 2853.25 511.903 2844.31 515.528 2844.49 515.452 2827.55 523.077 2827.74 522.987 2811.74 530.987 2811.89 530.911 2796.51 539.223 2796.57 539.194 2781.51 547.569ZM3389.8 516.861 3416.02 553.01 3371.65 558.038C3368.82 558.359 3366.27 556.325 3365.95 553.495 3365.62 550.666 3367.66 548.112 3370.49 547.791L3406.08 543.758 3402.48 551.909 3381.46 522.915C3379.78 520.61 3380.3 517.386 3382.6 515.714 3384.91 514.042 3388.13 514.555 3389.8 516.861Z"/><path d="M3393.51 1127.44 3378.42 1135.83 3362.94 1144.2 3346.77 1152.28 3329.65 1159.99 3320.57 1163.68 3311.18 1167.23 3301.36 1170.59 3291.16 1173.82 3280.44 1176.8 3269.24 1179.58 3257.47 1182.18 3245.16 1184.51 3232.15 1186.71 3218.34 1188.91 3203.79 1191.04 3188.66 1193.11 3172.91 1195 3156.76 1196.82 3123.49 1199.71 3089.52 1201.59 3072.39 1202.03 3055.39 1202.09 3038.57 1201.72 3022.05 1200.96 3005.8 1199.63 2990.06 1197.8 2974.63 1195.46 2959.28 1192.55 2944 1189.21 2928.86 1185.36 2913.81 1181.14 2898.79 1176.6 2869.06 1166.41 2839.54 1155.17 2810.19 1143.13 2781 1130.54 2761.26 1121.84 2765.42 1112.4 2785.14 1121.09 2785.1 1121.08 2814.23 1133.64 2814.14 1133.6 2843.39 1145.6 2843.27 1145.56 2872.65 1156.74 2872.48 1156.68 2902.05 1166.81 2901.87 1166.75 2916.74 1171.25 2916.64 1171.22 2931.58 1175.41 2931.46 1175.38 2946.46 1179.19 2946.29 1179.15 2961.42 1182.46 2961.27 1182.43 2976.46 1185.31 2976.27 1185.28 2991.52 1187.59 2991.35 1187.57 3006.91 1189.38 3006.73 1189.36 3022.79 1190.67 3022.61 1190.66 3038.99 1191.41 3038.87 1191.41 3055.55 1191.78 3055.42 1191.78 3072.29 1191.72 3072.18 1191.72 3089.18 1191.28 3089.03 1191.29 3122.84 1189.41 3122.68 1189.43 3155.8 1186.55 3155.67 1186.56 3171.73 1184.75 3171.7 1184.76 3187.39 1182.88 3187.3 1182.89 3202.36 1180.83 3202.31 1180.84 3216.81 1178.71 3216.75 1178.72 3230.5 1176.53 3230.45 1176.54 3243.39 1174.35 3243.29 1174.37 3255.48 1172.06 3255.33 1172.09 3266.95 1169.53 3266.82 1169.56 3277.88 1166.81 3277.74 1166.84 3288.31 1163.91 3288.13 1163.96 3298.19 1160.77 3298.08 1160.81 3307.77 1157.5 3307.61 1157.55 3316.86 1154.05 3316.75 1154.1 3325.69 1150.47 3325.51 1150.55 3342.45 1142.92 3342.26 1143.01 3358.26 1135.01 3358.11 1135.09 3373.49 1126.78 3373.43 1126.81 3388.49 1118.43ZM2780.2 1149.14 2753.98 1112.99 2798.35 1107.96C2801.18 1107.64 2803.73 1109.67 2804.05 1112.5 2804.37 1115.33 2802.34 1117.89 2799.51 1118.21L2763.92 1122.24 2767.52 1114.09 2788.54 1143.08C2790.22 1145.39 2789.7 1148.61 2787.4 1150.29 2785.09 1151.96 2781.87 1151.44 2780.2 1149.14Z"/><path d="M2720.51 1125.44 2705.42 1133.83 2689.94 1142.2 2673.77 1150.28 2656.65 1157.99 2647.57 1161.68 2638.18 1165.23 2628.36 1168.59 2618.16 1171.82 2607.44 1174.8 2596.24 1177.58 2584.47 1180.18 2572.16 1182.51 2559.15 1184.71 2545.34 1186.91 2530.79 1189.04 2515.66 1191.11 2499.91 1193 2483.76 1194.82 2450.49 1197.71 2416.52 1199.59 2399.39 1200.03 2382.39 1200.09 2365.57 1199.72 2349.05 1198.96 2332.8 1197.63 2317.06 1195.8 2301.63 1193.46 2286.28 1190.55 2271 1187.21 2255.86 1183.36 2240.81 1179.14 2225.79 1174.6 2196.06 1164.41 2166.54 1153.17 2137.19 1141.13 2108 1128.54 2088.26 1119.84 2092.42 1110.4 2112.14 1119.09 2112.1 1119.08 2141.23 1131.64 2141.14 1131.6 2170.39 1143.6 2170.27 1143.56 2199.65 1154.74 2199.48 1154.68 2229.05 1164.81 2228.87 1164.75 2243.74 1169.25 2243.64 1169.22 2258.58 1173.41 2258.46 1173.38 2273.46 1177.19 2273.29 1177.15 2288.42 1180.46 2288.27 1180.43 2303.46 1183.31 2303.27 1183.28 2318.52 1185.59 2318.35 1185.57 2333.91 1187.38 2333.73 1187.36 2349.79 1188.67 2349.61 1188.66 2365.99 1189.41 2365.87 1189.41 2382.55 1189.78 2382.42 1189.78 2399.29 1189.72 2399.18 1189.72 2416.18 1189.28 2416.03 1189.29 2449.84 1187.41 2449.68 1187.43 2482.8 1184.55 2482.67 1184.56 2498.73 1182.75 2498.7 1182.76 2514.39 1180.88 2514.3 1180.89 2529.36 1178.83 2529.31 1178.84 2543.81 1176.71 2543.75 1176.72 2557.5 1174.53 2557.45 1174.54 2570.39 1172.35 2570.29 1172.37 2582.48 1170.06 2582.33 1170.09 2593.95 1167.53 2593.82 1167.56 2604.88 1164.81 2604.74 1164.84 2615.31 1161.91 2615.13 1161.96 2625.19 1158.77 2625.08 1158.81 2634.77 1155.5 2634.61 1155.55 2643.86 1152.05 2643.75 1152.1 2652.69 1148.47 2652.51 1148.55 2669.45 1140.92 2669.26 1141.01 2685.26 1133.01 2685.11 1133.09 2700.49 1124.78 2700.43 1124.81 2715.49 1116.43ZM2107.2 1147.14 2080.98 1110.99 2125.35 1105.96C2128.18 1105.64 2130.73 1107.67 2131.05 1110.5 2131.37 1113.33 2129.34 1115.89 2126.51 1116.21L2090.92 1120.24 2094.52 1112.09 2115.54 1141.08C2117.22 1143.39 2116.7 1146.61 2114.4 1148.29 2112.09 1149.96 2108.87 1149.44 2107.2 1147.14Z"/><path d="M2033.51 1125.44 2018.42 1133.83 2002.95 1142.2 1986.84 1150.28 1969.72 1157.99 1960.7 1161.67 1951.31 1165.23 1941.49 1168.59 1931.28 1171.82 1920.57 1174.8 1909.43 1177.58 1897.66 1180.18 1885.35 1182.51 1872.34 1184.71 1858.59 1186.91 1844.1 1189.04 1828.97 1191.11 1813.28 1193 1797.14 1194.82 1763.93 1197.71 1729.96 1199.59 1712.89 1200.03 1695.95 1200.09 1679.14 1199.72 1662.61 1198.96 1646.43 1197.63 1630.69 1195.8 1615.26 1193.46 1599.97 1190.55 1584.69 1187.21 1569.6 1183.36 1554.56 1179.14 1539.54 1174.6 1509.87 1164.41 1480.41 1153.17 1451.12 1141.13 1421.94 1128.54 1402.25 1119.84 1406.42 1110.41 1426.08 1119.1 1426.04 1119.08 1455.17 1131.64 1455.09 1131.61 1484.27 1143.61 1484.15 1143.56 1513.46 1154.75 1513.3 1154.69 1542.8 1164.81 1542.62 1164.75 1557.49 1169.25 1557.39 1169.22 1572.33 1173.41 1572.21 1173.38 1587.15 1177.19 1586.98 1177.15 1602.1 1180.46 1601.96 1180.43 1617.09 1183.31 1616.9 1183.28 1632.15 1185.59 1631.97 1185.57 1647.53 1187.38 1647.36 1187.36 1663.36 1188.67 1663.17 1188.66 1679.55 1189.41 1679.43 1189.41 1696.12 1189.78 1695.98 1189.78 1712.79 1189.72 1712.68 1189.72 1729.62 1189.28 1729.46 1189.29 1763.28 1187.41 1763.12 1187.43 1796.18 1184.55 1796.05 1184.56 1812.11 1182.75 1812.07 1182.76 1827.7 1180.88 1827.61 1180.89 1842.68 1178.83 1842.62 1178.84 1857.06 1176.71 1857 1176.72 1870.69 1174.53 1870.64 1174.54 1883.58 1172.35 1883.48 1172.37 1895.66 1170.06 1895.51 1170.09 1907.14 1167.53 1907 1167.56 1918 1164.81 1917.87 1164.84 1928.43 1161.91 1928.26 1161.96 1938.32 1158.77 1938.21 1158.81 1947.89 1155.5 1947.74 1155.55 1956.99 1152.05 1956.86 1152.1 1965.74 1148.48 1965.57 1148.55 1982.51 1140.92 1982.31 1141.02 1998.25 1133.02 1998.11 1133.09 2013.49 1124.78 2013.43 1124.81 2028.49 1116.43ZM1421.17 1147.16 1394.98 1110.99 1439.35 1106C1442.18 1105.68 1444.74 1107.71 1445.05 1110.54 1445.37 1113.37 1443.34 1115.93 1440.51 1116.24L1404.92 1120.25 1408.51 1112.1 1429.52 1141.11C1431.19 1143.42 1430.67 1146.64 1428.37 1148.31 1426.06 1149.98 1422.84 1149.47 1421.17 1147.16Z"/><path d="M1360.51 1123.44 1345.42 1131.83 1329.95 1140.2 1313.84 1148.28 1296.72 1155.99 1287.7 1159.67 1278.31 1163.23 1268.49 1166.59 1258.28 1169.82 1247.57 1172.8 1236.43 1175.58 1224.66 1178.18 1212.35 1180.51 1199.34 1182.71 1185.59 1184.91 1171.1 1187.04 1155.97 1189.11 1140.28 1191 1124.14 1192.82 1090.93 1195.71 1056.96 1197.59 1039.89 1198.03 1022.95 1198.09 1006.14 1197.72 989.609 1196.96 973.428 1195.63 957.69 1193.8 942.257 1191.46 926.967 1188.55 911.686 1185.21 896.604 1181.36 881.557 1177.14 866.541 1172.6 836.868 1162.41 807.413 1151.17 778.124 1139.13 748.937 1126.54 729.255 1117.84 733.422 1108.41 753.084 1117.1 753.042 1117.08 782.167 1129.64 782.086 1129.61 811.273 1141.61 811.151 1141.56 840.464 1152.75 840.299 1152.69 869.799 1162.81 869.618 1162.75 884.493 1167.25 884.392 1167.22 899.329 1171.41 899.213 1171.38 914.15 1175.19 913.978 1175.15 929.103 1178.46 928.963 1178.43 944.088 1181.31 943.898 1181.28 959.148 1183.59 958.972 1183.57 974.534 1185.38 974.359 1185.36 990.359 1186.67 990.174 1186.66 1006.55 1187.41 1006.43 1187.41 1023.12 1187.78 1022.98 1187.78 1039.79 1187.72 1039.68 1187.72 1056.62 1187.28 1056.46 1187.29 1090.28 1185.41 1090.12 1185.43 1123.18 1182.55 1123.05 1182.56 1139.11 1180.75 1139.07 1180.76 1154.7 1178.88 1154.61 1178.89 1169.68 1176.83 1169.62 1176.84 1184.06 1174.71 1184 1174.72 1197.69 1172.53 1197.64 1172.54 1210.58 1170.35 1210.48 1170.37 1222.66 1168.06 1222.52 1168.09 1234.14 1165.53 1234 1165.56 1245 1162.81 1244.87 1162.84 1255.43 1159.91 1255.26 1159.96 1265.32 1156.77 1265.21 1156.81 1274.89 1153.5 1274.74 1153.55 1283.99 1150.05 1283.86 1150.1 1292.74 1146.48 1292.57 1146.55 1309.51 1138.92 1309.31 1139.02 1325.25 1131.02 1325.11 1131.09 1340.49 1122.78 1340.43 1122.81 1355.49 1114.43ZM748.168 1145.16 721.978 1108.99 766.354 1104C769.184 1103.68 771.736 1105.71 772.054 1108.54 772.373 1111.37 770.337 1113.93 767.507 1114.24L731.915 1118.25 735.515 1110.1 756.521 1139.11C758.191 1141.42 757.675 1144.64 755.368 1146.31 753.062 1147.98 749.838 1147.47 748.168 1145.16Z"/><text font-family="Times New Roman,Times New Roman_MSFontService,sans-serif" font-weight="400" font-size="92" transform="matrix(1 0 0 1 942.396 427)">NEXT<tspan font-size="92" x="672.962" y="0">NEXT</tspan><tspan font-size="92" x="1362.96" y="0">NEXT</tspan><tspan font-size="92" x="2035.92" y="0">NEXT</tspan><tspan font-size="92" x="-126.908" y="882">PREVIOUS</tspan><tspan font-size="92" x="546.054" y="882">PREVIOUS</tspan><tspan font-size="92" x="1241.4" y="882">PREVIOUS</tspan><tspan font-size="92" x="1914.36" y="882">PREVIOUS</tspan></text></g></svg>