<svg width="4154" height="1478" xmlns="http://www.w3.org/2000/svg" xmlns:xlink="http://www.w3.org/1999/xlink" overflow="hidden"><defs><clipPath id="clip0"><rect x="139" y="299" width="4154" height="1478"/></clipPath></defs><g clip-path="url(#clip0)" transform="translate(-139 -299)"><path d="M33.5448 10.1809 203.747 101.416 197.251 113.535 27.0488 22.2996ZM26.612 37.6664 0 0 46.1003 1.31021Z" transform="matrix(-1 0 0 1 2295.5 796)"/><path d="M2239.79 1288.97 2089.06 1244.59 2092.94 1231.4 2243.68 1275.78ZM2240.96 1260.65 2274.71 1292.08 2229.31 1300.22Z"/><path d="M2273.5 729.5C2273.5 632.85 2365.06 554.5 2478 554.5 2590.94 554.5 2682.5 632.85 2682.5 729.5 2682.5 826.15 2590.94 904.5 2478 904.5 2365.06 904.5 2273.5 826.15 2273.5 729.5Z" stroke="#000000" stroke-width="6.875" stroke-miterlimit="8" fill="#FFF2CC" fill-rule="evenodd"/><text font-family="SimSun,SimSun_MSFontService,sans-serif" font-weight="400" font-size="83" transform="matrix(1 0 0 1 2374.66 761)">节点<tspan font-family="Times New Roman,Times New Roman_MSFontService,sans-serif" font-size="83" x="165" y="0">3</tspan></text><path d="M2271.5 1330.5C2271.5 1230.54 2362.16 1149.5 2474 1149.5 2585.84 1149.5 2676.5 1230.54 2676.5 1330.5 2676.5 1430.46 2585.84 1511.5 2474 1511.5 2362.16 1511.5 2271.5 1430.46 2271.5 1330.5Z" stroke="#000000" stroke-width="6.875" stroke-miterlimit="8" fill="#FFF2CC" fill-rule="evenodd"/><text font-family="SimSun,SimSun_MSFontService,sans-serif" font-weight="400" font-size="83" transform="matrix(1 0 0 1 2370.37 1362)">节点<tspan font-family="Times New Roman,Times New Roman_MSFontService,sans-serif" font-size="83" x="165" y="0">3</tspan></text><rect x="2324.5" y="1650.5" width="296" height="85.0002" stroke="#000000" stroke-width="6.875" stroke-miterlimit="8" fill="#FFFFFF"/><text font-family="SimSun,SimSun_MSFontService,sans-serif" font-weight="400" font-size="73" transform="matrix(1 0 0 1 2398.74 1721)">评论</text><path d="M1206.5 1194.5C1206.5 1101.72 1298.06 1026.5 1411 1026.5 1523.94 1026.5 1615.5 1101.72 1615.5 1194.5 1615.5 1287.28 1523.94 1362.5 1411 1362.5 1298.06 1362.5 1206.5 1287.28 1206.5 1194.5Z" stroke="#000000" stroke-width="6.875" stroke-miterlimit="8" fill="#FFF2CC" fill-rule="evenodd"/><text font-family="SimSun,SimSun_MSFontService,sans-serif" font-weight="400" font-size="83" transform="matrix(1 0 0 1 1307.5 1226)">节点<tspan font-family="Times New Roman,Times New Roman_MSFontService,sans-serif" font-size="83" x="165" y="0">1</tspan></text><rect x="1259.5" y="797.5" width="308" height="88" stroke="#000000" stroke-width="6.875" stroke-miterlimit="8" fill="#FFFFFF"/><text font-family="SimSun,SimSun_MSFontService,sans-serif" font-weight="400" font-size="73" transform="matrix(1 0 0 1 1339.64 869)">用户</text><rect x="2324.5" y="325.5" width="307" height="88" stroke="#000000" stroke-width="6.875" stroke-miterlimit="8" fill="#FFFFFF"/><text font-family="SimSun,SimSun_MSFontService,sans-serif" font-weight="400" font-size="73" transform="matrix(1 0 0 1 2404.49 397)">博客</text><path d="M1649.39 1187.19 1821.91 1187.52 1821.88 1201.27 1649.36 1200.94ZM1656.21 1214.7 1615 1194 1656.29 1173.45Z"/><rect x="1822.5" y="1122.5" width="273" height="146" stroke="#000000" stroke-width="6.875" stroke-miterlimit="8" fill="#FFE699"/><text font-family="SimSun,SimSun_MSFontService,sans-serif" font-weight="400" font-size="73" transform="matrix(1 0 0 1 1885.27 1223)">撰写</text><path d="M1907.87 950 1907.88 1089.36 1894.13 1089.36 1894.12 950ZM1921.63 1082.49 1901 1123.74 1880.38 1082.49Z"/><rect x="1822.5" y="802.5" width="273" height="146" stroke="#000000" stroke-width="6.875" stroke-miterlimit="8" fill="#FFE699"/><text font-family="SimSun,SimSun_MSFontService,sans-serif" font-weight="400" font-size="73" transform="matrix(1 0 0 1 1885.27 903)">点赞</text><path d="M6.875-1.4387e-05 6.87529 138.082-6.87471 138.082-6.875 1.4387e-05ZM20.6253 131.207 0.000360892 172.457-20.6247 131.207Z" transform="matrix(1 0 0 -1 2002 1122.46)"/><path d="M6.88459 34.3731 6.91434 141.032-6.83566 141.036-6.86541 34.3769ZM-20.6135 41.2557 0 0 20.6365 41.2442Z" fill="#7F7F7F" transform="matrix(-1 0 0 1 2478.04 413)"/><text font-family="SimSun,SimSun_MSFontService,sans-serif" font-weight="400" font-size="64" transform="matrix(1 0 0 1 2507.93 517)">标签</text><path d="M6.875-0.00191758 6.90475 106.657-6.84525 106.661-6.875 0.00191758ZM20.6528 99.7785 0.0393373 141.034-20.5972 99.79Z" fill="#7F7F7F" transform="matrix(-1 0 0 1 2476.04 1511)"/><text font-family="SimSun,SimSun_MSFontService,sans-serif" font-weight="400" font-size="64" transform="matrix(1 0 0 1 2503.34 1593)">标签</text><path d="M6.88459 34.3731 6.91434 141.032-6.83566 141.036-6.86541 34.3769ZM-20.6135 41.2557 0 0 20.6365 41.2442Z" fill="#7F7F7F" transform="matrix(-1 0 0 1 1409.04 887)"/><text font-family="SimSun,SimSun_MSFontService,sans-serif" font-weight="400" font-size="64" transform="matrix(1 0 0 1 1439.44 988)">标签</text><path d="M11.2614 2.0091 19.5074 8.20198 13.3145 16.4479 5.06857 10.2551ZM27.7534 14.3949 35.9993 20.5877 29.8065 28.8337 21.5605 22.6408ZM44.2453 26.7806 52.4913 32.9735 46.2984 41.2195 38.0524 35.0266ZM60.7372 39.1664 68.9832 45.3593 62.7903 53.6052 54.5443 47.4123ZM77.2291 51.5521 85.4751 57.745 79.2822 65.991 71.0363 59.7981ZM93.7211 63.9379 101.967 70.1308 95.7742 78.3767 87.5282 72.1839ZM110.213 76.3237 118.459 82.5165 112.266 90.7625 104.02 84.5696ZM126.705 88.7094 134.951 94.9023 128.758 103.148 120.512 96.9554ZM143.197 101.095 151.443 107.288 145.25 115.534 137.004 109.341ZM159.689 113.481 167.935 119.674 161.742 127.92 153.496 121.727ZM176.181 125.867 184.427 132.06 178.234 140.306 169.988 134.113ZM192.673 138.252 200.919 144.445 194.726 152.691 186.48 146.498ZM209.165 150.638 217.411 156.831 211.218 165.077 202.972 158.884ZM225.656 163.024 233.902 169.217 227.71 177.463 219.464 171.27ZM242.148 175.41 250.394 181.603 244.201 189.849 235.956 183.656ZM258.64 187.796 266.886 193.988 260.693 202.234 252.447 196.041ZM17.3118 41.1412-0.0191097-0.0143518 44.3361 5.1576C47.1647 5.48741 49.1903 8.04778 48.8605 10.8763 48.5307 13.7049 45.9703 15.7305 43.1417 15.4007L7.56632 11.2525 12.9156 4.12981 26.8159 37.1389C27.9211 39.7634 26.6895 42.7869 24.065 43.8921 21.4405 44.9973 18.417 43.7657 17.3118 41.1412Z" transform="matrix(-1 0 0 1 1821.81 875)"/><path d="M11.4345 0.268964 20.5277 5.13316 15.6635 14.2264 6.57028 9.36222ZM29.621 9.99736 38.7142 14.8616 33.85 23.9548 24.7568 19.0906ZM47.8075 19.7258 56.9007 24.59 52.0365 33.6832 42.9433 28.819ZM65.994 29.4542 75.0872 34.3183 70.2231 43.4116 61.1298 38.5474ZM84.1805 39.1825 93.2738 44.0467 88.4096 53.14 79.3163 48.2758ZM102.367 48.9109 111.46 53.7751 106.596 62.8684 97.5028 58.0042ZM120.554 58.6393 129.647 63.5035 124.783 72.5968 115.689 67.7326ZM138.74 68.3677 147.833 73.2319 142.969 82.3252 133.876 77.461ZM156.927 78.0961 166.02 82.9603 161.156 92.0536 152.062 87.1894ZM175.113 87.8245 184.206 92.6887 179.342 101.782 170.249 96.9178ZM23.378 38.0232-0.0210713-0.0112726 44.6043-1.65778C47.4501-1.76278 49.8422 0.459065 49.9472 3.30485 50.0522 6.15063 47.8303 8.54271 44.9845 8.64771L9.19244 9.9683 13.394 2.11374 32.1614 32.6195C33.6536 35.045 32.897 38.2209 30.4715 39.7131 28.0461 41.2052 24.8702 40.4486 23.378 38.0232Z" transform="matrix(1 0 0 -1 2091 826.424)"/><path d="M2106.41 1148.2 2115.92 1152.2 2111.92 1161.7 2102.42 1157.71ZM2125.42 1156.19 2134.93 1160.19 2130.94 1169.69 2121.43 1165.7ZM2144.44 1164.18 2153.95 1168.17 2149.95 1177.68 2140.44 1173.69ZM2163.45 1172.17 2172.96 1176.16 2168.97 1185.67 2159.46 1181.68ZM2182.47 1180.16 2191.98 1184.15 2187.98 1193.66 2178.47 1189.67ZM2201.48 1188.15 2210.99 1192.14 2207 1201.65 2197.49 1197.66ZM2220.5 1196.14 2230.01 1200.13 2226.01 1209.64 2216.5 1205.65ZM2239.51 1204.13 2249.02 1208.12 2245.03 1217.63 2235.52 1213.63ZM2258.53 1212.12 2268.04 1216.11 2264.04 1225.62 2254.53 1221.62ZM2277.54 1220.11 2287.05 1224.1 2283.06 1233.61 2273.55 1229.61ZM2296.56 1228.1 2306.06 1232.09 2302.07 1241.6 2292.56 1237.6ZM2121.82 1184.68 2094.98 1148.99 2139.26 1143.19C2142.08 1142.82 2144.67 1144.81 2145.04 1147.63 2145.41 1150.45 2143.42 1153.04 2140.6 1153.41L2105.08 1158.07 2108.53 1149.86 2130.06 1178.48C2131.78 1180.75 2131.32 1183.99 2129.04 1185.7 2126.77 1187.41 2123.54 1186.95 2121.82 1184.68Z"/><path d="M1130.42 1186.38 1206.42 1186.94 1206.32 1200.69 1130.32 1200.13ZM1137.1 1213.93 1096 1193 1137.4 1172.68Z"/><rect x="689.5" y="1127.5" width="404" height="133" stroke="#000000" stroke-width="4.58333" stroke-linejoin="round" stroke-miterlimit="10" fill="#DAE3F3"/><text font-family="Times New Roman,Times New Roman_MSFontService,sans-serif" font-weight="400" font-size="83" transform="matrix(1 0 0 1 743.468 1223)">ID: 0008</text><path d="M613.425 1186.38 689.423 1186.94 689.322 1200.69 613.323 1200.13ZM620.097 1213.93 579 1193 620.401 1172.68Z"/><rect x="148.5" y="1127.5" width="429" height="133" stroke="#000000" stroke-width="4.58333" stroke-linejoin="round" stroke-miterlimit="10" fill="#DAE3F3"/><text font-family="SimSun,SimSun_MSFontService,sans-serif" font-weight="400" font-size="83" transform="matrix(1 0 0 1 189.232 1224)">姓名<tspan font-family="Times New Roman,Times New Roman_MSFontService,sans-serif" font-size="83" x="165" y="0">:</tspan><tspan font-family="Times New Roman,Times New Roman_MSFontService,sans-serif" font-size="83" x="208.542" y="0">Eric</tspan></text><path d="M34.375-6.8749 117.936-6.87464 117.936 6.87536 34.375 6.8751ZM41.2499 20.6251 0 0 41.2501-20.6249Z" transform="matrix(-1 0 0 1 2795.94 729)"/><rect x="2796.5" y="659.5" width="404" height="133" stroke="#000000" stroke-width="4.58333" stroke-linejoin="round" stroke-miterlimit="10" fill="#DAE3F3"/><text font-family="Times New Roman,Times New Roman_MSFontService,sans-serif" font-weight="400" font-size="83" transform="matrix(1 0 0 1 2843.67 755)">BID: 089</text><path d="M34.375-6.8749 117.936-6.87464 117.936 6.87536 34.375 6.8751ZM41.2499 20.6251 0 0 41.2501-20.6249Z" transform="matrix(-1 0 0 1 3313.94 729)"/><rect x="3314.5" y="659.5" width="456" height="133" stroke="#000000" stroke-width="4.58333" stroke-linejoin="round" stroke-miterlimit="10" fill="#DAE3F3"/><text font-family="SimSun,SimSun_MSFontService,sans-serif" font-weight="400" font-size="83" transform="matrix(1 0 0 1 3355.46 756)">主题<tspan font-family="Times New Roman,Times New Roman_MSFontService,sans-serif" font-size="83" x="165" y="0">: </tspan><tspan font-size="83" x="208.542" y="0">旅游</tspan></text><path d="M34.375-6.8749 117.936-6.87464 117.936 6.87536 34.375 6.8751ZM41.2499 20.6251 0 0 41.2501-20.6249Z" transform="matrix(-1 0 0 1 3884.94 729)"/><rect x="3885.5" y="659.5" width="404" height="133" stroke="#000000" stroke-width="4.58333" stroke-linejoin="round" stroke-miterlimit="10" fill="#DAE3F3"/><text font-family="SimSun,SimSun_MSFontService,sans-serif" font-weight="400" font-size="83" transform="matrix(1 0 0 1 3931.07 756)">日期<tspan font-family="Times New Roman,Times New Roman_MSFontService,sans-serif" font-size="83" x="165" y="0">: 5.4</tspan></text><path d="M34.375-6.8749 117.936-6.87464 117.936 6.87536 34.375 6.8751ZM41.2499 20.6251 0 0 41.2501-20.6249Z" transform="matrix(-1 0 0 1 2793.94 1330)"/><rect x="2794.5" y="1260.5" width="404" height="133" stroke="#000000" stroke-width="4.58333" stroke-linejoin="round" stroke-miterlimit="10" fill="#DAE3F3"/><text font-family="SimSun,SimSun_MSFontService,sans-serif" font-weight="400" font-size="83" transform="matrix(1 0 0 1 2850.09 1358)">内容<tspan font-family="Times New Roman,Times New Roman_MSFontService,sans-serif" font-size="83" x="165" y="0">: …</tspan></text><path d="M34.375-6.8749 117.936-6.87464 117.936 6.87536 34.375 6.8751ZM41.2499 20.6251 0 0 41.2501-20.6249Z" transform="matrix(-1 0 0 1 3311.94 1330)"/><rect x="3311.5" y="1260.5" width="429" height="133" stroke="#000000" stroke-width="4.58333" stroke-linejoin="round" stroke-miterlimit="10" fill="#DAE3F3"/><text font-family="SimSun,SimSun_MSFontService,sans-serif" font-weight="400" font-size="83" transform="matrix(1 0 0 1 3369.9 1358)">日期<tspan font-family="Times New Roman,Times New Roman_MSFontService,sans-serif" font-size="83" x="165" y="0">: 5.8</tspan></text></g></svg>