<svg width="5721" height="2804" xmlns="http://www.w3.org/2000/svg" xmlns:xlink="http://www.w3.org/1999/xlink" overflow="hidden"><defs><clipPath id="clip0"><rect x="-130" y="-100" width="5721" height="2804"/></clipPath><clipPath id="clip1"><rect x="1926" y="-101" width="2406" height="1300"/></clipPath><clipPath id="clip2"><rect x="1926" y="-101" width="2406" height="1300"/></clipPath><clipPath id="clip3"><rect x="1926" y="-101" width="2406" height="1300"/></clipPath><clipPath id="clip4"><rect x="1926" y="-101" width="2406" height="1300"/></clipPath><clipPath id="clip5"><rect x="-130" y="20" width="2040" height="1179"/></clipPath><clipPath id="clip6"><rect x="-130" y="20" width="2040" height="1179"/></clipPath><clipPath id="clip7"><rect x="-130" y="20" width="2040" height="1179"/></clipPath><clipPath id="clip8"><rect x="-130" y="20" width="2040" height="1180"/></clipPath><clipPath id="clip9"><rect x="4523" y="1689" width="1069" height="443"/></clipPath><clipPath id="clip10"><rect x="4523" y="1689" width="1069" height="443"/></clipPath><clipPath id="clip11"><rect x="4523" y="1689" width="1069" height="443"/></clipPath><clipPath id="clip12"><rect x="4523" y="1689" width="1069" height="443"/></clipPath><clipPath id="clip13"><rect x="4474" y="2205" width="1068" height="494"/></clipPath><clipPath id="clip14"><rect x="4474" y="2205" width="1068" height="494"/></clipPath><clipPath id="clip15"><rect x="4474" y="2205" width="1068" height="494"/></clipPath><clipPath id="clip16"><rect x="4474" y="2205" width="1068" height="494"/></clipPath></defs><g clip-path="url(#clip0)" transform="translate(130 100)"><g clip-path="url(#clip1)"><g clip-path="url(#clip2)"><g clip-path="url(#clip3)"><g clip-path="url(#clip4)"><path d="M1652.48 531.025C1652.48 470.613 1746.94 421.639 1863.46 421.639 1979.98 421.639 2074.44 470.613 2074.44 531.025 2074.44 591.438 1979.98 640.412 1863.46 640.412 1746.94 640.412 1652.48 591.438 1652.48 531.025Z" stroke="#000000" stroke-width="4.46308" stroke-miterlimit="8" fill="#E2F0D9" fill-rule="evenodd" transform="matrix(1.0006 0 0 1 1852.6 -149.987)"/><text font-family="Times New Roman,Times New Roman_MSFontService,sans-serif" font-weight="400" font-size="128" transform="matrix(0.649568 0 0 0.649175 3647.36 412)">Eric</text><path d="M3.23352-3.07627 157.665 159.249 151.198 165.401-3.23352 3.07627ZM161.056 149.863 169.813 178.493 141.655 168.321Z" transform="matrix(1.0006 0 0 -1 3866.26 303.757)"/><text font-family="SimSun,SimSun_MSFontService,sans-serif" font-weight="400" font-size="92" transform="matrix(0.447198 -0.470833 0.471118 0.446928 3940.45 332)">名字是</text><text font-family="Times New Roman,Times New Roman_MSFontService,sans-serif" font-weight="400" font-size="128" transform="matrix(0.649568 0 0 0.649175 4030.67 108)">“<tspan font-size="128" x="55.9999" y="0">Jack</tspan><tspan font-size="128" x="284" y="0">”</tspan></text><path d="M1711.59 457.232 1501.13 324.062 1505.91 316.519 1716.36 449.69ZM1500.13 333.992 1484.66 308.358 1514.45 311.363Z" transform="matrix(1.0006 0 0 1 1852.6 -149.987)"/><text font-family="SimSun,SimSun_MSFontService,sans-serif" font-weight="400" font-size="92" transform="matrix(0.546654 0.350655 -0.350867 0.546324 3340.49 241)">年龄是</text><text font-family="Times New Roman,Times New Roman_MSFontService,sans-serif" font-weight="400" font-size="128" transform="matrix(0.649568 0 0 0.649175 3192.42 153)">“<tspan font-size="128" x="56.0003" y="0">24</tspan><tspan font-size="128" x="184" y="0">”</tspan></text><path d="M1867.6 640.087 1867.6 764.281 1858.67 764.281 1858.67 640.087ZM1876.53 759.821 1863.13 786.599 1849.75 759.821Z" transform="matrix(1.0006 0 0 1 1852.6 -149.987)"/><text font-family="SimSun,SimSun_MSFontService,sans-serif" font-weight="400" font-size="92" transform="matrix(0.649568 0 0 0.649175 3741.8 583)">是孪生兄妹</text><path d="M1652.48 897.16C1652.48 836.748 1746.94 787.774 1863.46 787.774 1979.98 787.774 2074.44 836.748 2074.44 897.16 2074.44 957.573 1979.98 1006.55 1863.46 1006.55 1746.94 1006.55 1652.48 957.573 1652.48 897.16Z" stroke="#000000" stroke-width="4.46308" stroke-miterlimit="8" fill="#E2F0D9" fill-rule="evenodd" transform="matrix(1.0006 0 0 1 1852.6 -149.987)"/><text font-family="Times New Roman,Times New Roman_MSFontService,sans-serif" font-weight="400" font-size="128" transform="matrix(0.649568 0 0 0.649175 3626.69 777)">Alice<tspan font-family="SimSun,SimSun_MSFontService,sans-serif" font-size="92" x="-469.139" y="-86.2633">认识</tspan></text><path d="M1652.19 901.068 1418.02 899.796 1418.07 890.87 1652.24 892.142ZM1422.43 908.748 1395.73 895.213 1422.58 881.97Z" transform="matrix(1.0006 0 0 1 1852.6 -149.987)"/><path d="M974.088 897.485C974.088 837.254 1068.55 788.424 1185.07 788.424 1301.59 788.424 1396.05 837.254 1396.05 897.485 1396.05 957.716 1301.59 1006.55 1185.07 1006.55 1068.55 1006.55 974.088 957.716 974.088 897.485Z" stroke="#000000" stroke-width="4.46308" stroke-miterlimit="8" fill="#E2F0D9" fill-rule="evenodd" transform="matrix(1.0006 0 0 1 1852.6 -149.987)"/><text font-family="Times New Roman,Times New Roman_MSFontService,sans-serif" font-weight="400" font-size="128" transform="matrix(0.649568 0 0 0.649175 2936.2 778)">Adam<tspan font-family="SimSun,SimSun_MSFontService,sans-serif" font-size="92" x="120.992" y="-361.998">是同学</tspan></text><path d="M1180.4 789.904 1090.27 583.771 1098.45 580.195 1188.58 786.327ZM1083.88 591.436 1085.42 561.537 1108.42 580.709Z" transform="matrix(1.0006 0 0 1 1852.6 -149.987)"/><path d="M2014.99 970.095 2198.97 1097.61 2193.89 1104.95 2009.9 977.431ZM2200.39 1087.73 2214.77 1113.99 2185.13 1109.74Z" transform="matrix(1.0006 0 0 1 1852.6 -149.987)"/><path d="M2.70989-3.5462 152.163 110.66 146.743 117.753-2.70989 3.5462ZM154.036 100.858 167.184 127.756 137.777 122.136Z" transform="matrix(-1.0006 0 0 1 2889 824.426)"/><text font-family="SimSun,SimSun_MSFontService,sans-serif" font-weight="400" font-size="92" transform="matrix(0.516083 -0.39422 0.394458 0.515771 2787.68 988)">名字是</text><text font-family="Times New Roman,Times New Roman_MSFontService,sans-serif" font-weight="400" font-size="110" transform="matrix(0.649568 0 0 0.649175 2468.34 1005)">“<tspan font-size="110" x="48.0003" y="0">Adam</tspan><tspan font-size="110" x="314" y="0">”</tspan><tspan font-family="SimSun,SimSun_MSFontService,sans-serif" font-size="92" x="77.5015" y="-981.245">名字是</tspan></text><path d="M862.936 454.342 640.98 454.342 640.98 445.415 862.936 445.415ZM645.443 463.268 618.664 449.879 645.443 436.489Z" transform="matrix(1.0006 0 0 1 1852.6 -149.987)"/><path d="M923.569 376.907 561.898 259.138 564.663 250.651 926.334 368.42ZM563.378 269.007 542.061 247.985 571.67 243.545Z" transform="matrix(1.0006 0 0 1 1852.6 -149.987)"/><text font-family="SimSun,SimSun_MSFontService,sans-serif" font-weight="400" font-size="92" transform="matrix(0.617487 0.201492 -0.201614 0.617114 2505.19 200)">出生</text><path d="M1071.61 344.628 771.616 159.005 776.316 151.414 1076.31 337.038ZM770.721 168.944 754.991 143.468 784.808 146.172Z" transform="matrix(1.0006 0 0 1 1852.6 -149.987)"/><text font-family="SimSun,SimSun_MSFontService,sans-serif" font-weight="400" font-size="92" transform="matrix(0.548762 0.347351 -0.347561 0.548431 2728.19 43)">年龄</text><text font-family="Times New Roman,Times New Roman_MSFontService,sans-serif" font-weight="400" font-size="128" transform="matrix(0.649568 0 0 0.649175 2446.43 6)">“<tspan font-size="128" x="56.0003" y="0">42</tspan><tspan font-size="128" x="184" y="0">”</tspan><tspan font-size="128" x="-723.605" y="180.229">“</tspan><tspan font-size="128" x="-667.605" y="180.229">1983</tspan><tspan font-size="128" x="-410.219" y="180.229">-</tspan><tspan font-size="128" x="-367.251" y="180.229">1</tspan><tspan font-size="128" x="-303.084" y="180.229">-</tspan><tspan font-size="128" x="-260.084" y="180.229">11</tspan><tspan font-size="128" x="-137.084" y="180.229">”</tspan><tspan font-size="110" x="-277.974" y="491.393">“</tspan><tspan font-size="110" x="-229.974" y="491.393">Bob</tspan><tspan font-size="110" x="-46.9738" y="491.393">”</tspan></text><path d="M863.079 450.203C863.079 389.97 957.54 341.142 1074.06 341.142 1190.58 341.142 1285.04 389.97 1285.04 450.203 1285.04 510.436 1190.58 559.265 1074.06 559.265 957.54 559.265 863.079 510.436 863.079 450.203Z" stroke="#000000" stroke-width="4.46308" stroke-miterlimit="8" fill="#E2F0D9" fill-rule="evenodd" transform="matrix(1.0006 0 0 1 1852.6 -149.987)"/><text font-family="Times New Roman,Times New Roman_MSFontService,sans-serif" font-weight="400" font-size="128" transform="matrix(0.649568 0 0 0.649175 2857.75 330)">Bob</text><path d="M4.46308-0.000892616 4.49235 146.367-4.43381 146.369-4.46308 0.000892616ZM13.4176 141.902 0.0337367 168.684-13.3609 141.908Z" transform="matrix(1.0006 0 0 -1 3716.86 273.822)"/><text font-family="SimSun,SimSun_MSFontService,sans-serif" font-weight="400" font-size="92" transform="matrix(0.649568 0 0 0.649175 3573.98 222)">出生<tspan font-family="Times New Roman,Times New Roman_MSFontService,sans-serif" font-size="128" x="-72.4046" y="-218.739">“</tspan><tspan font-family="Times New Roman,Times New Roman_MSFontService,sans-serif" font-size="128" x="-16.4048" y="-218.739">2001</tspan><tspan font-family="Times New Roman,Times New Roman_MSFontService,sans-serif" font-size="128" x="240.981" y="-218.739">-</tspan><tspan font-family="Times New Roman,Times New Roman_MSFontService,sans-serif" font-size="128" x="283.949" y="-218.739">2</tspan><tspan font-family="Times New Roman,Times New Roman_MSFontService,sans-serif" font-size="128" x="348.116" y="-218.739">-</tspan><tspan font-family="Times New Roman,Times New Roman_MSFontService,sans-serif" font-size="128" x="391.085" y="-218.739">2</tspan><tspan font-family="Times New Roman,Times New Roman_MSFontService,sans-serif" font-size="128" x="455.085" y="-218.739">”</tspan></text><text font-family="SimSun,SimSun_MSFontService,sans-serif" font-weight="400" font-size="92" transform="matrix(0.533844 0.369843 -0.370067 0.533521 3910.24 821)">名字是</text><text font-family="Times New Roman,Times New Roman_MSFontService,sans-serif" font-weight="400" font-size="128" transform="matrix(0.649568 0 0 0.649175 3962.04 1050)">“<tspan font-size="128" x="56.0003" y="0">Alice</tspan><tspan font-size="128" x="334" y="0">”</tspan></text><path d="M1709.21 975.613 1493.01 1099.22 1488.58 1091.47 1704.79 967.862ZM1501.32 1104.75 1471.42 1106.42 1488.02 1081.51Z" transform="matrix(1.0006 0 0 1 1852.6 -149.987)"/><text font-family="SimSun,SimSun_MSFontService,sans-serif" font-weight="400" font-size="92" transform="matrix(0.565983 -0.318558 0.318751 0.565641 3406.68 988)">年龄是</text><text font-family="Times New Roman,Times New Roman_MSFontService,sans-serif" font-weight="400" font-size="128" transform="matrix(0.649568 0 0 0.649175 3171.76 1025)">“<tspan font-size="128" x="56.0003" y="0">24</tspan><tspan font-size="128" x="184" y="0">”</tspan></text><path d="M4.46308-5.41631e-06 4.46329 170.735-4.46287 170.735-4.46308 5.41631e-06ZM13.3894 166.272 0.000234282 193.05-13.389 166.272Z" transform="matrix(-1.0006 0 0 1 3716.86 856.235)"/><text font-family="SimSun,SimSun_MSFontService,sans-serif" font-weight="400" font-size="92" transform="matrix(0.649568 0 0 0.649175 3733.16 966)">出生<tspan font-family="Times New Roman,Times New Roman_MSFontService,sans-serif" font-size="128" x="-311.886" y="251.088">“</tspan><tspan font-family="Times New Roman,Times New Roman_MSFontService,sans-serif" font-size="128" x="-255.886" y="251.088">2001</tspan><tspan font-family="Times New Roman,Times New Roman_MSFontService,sans-serif" font-size="128" x="1.49964" y="251.088">-</tspan><tspan font-family="Times New Roman,Times New Roman_MSFontService,sans-serif" font-size="128" x="44.4684" y="251.088">2</tspan><tspan font-family="Times New Roman,Times New Roman_MSFontService,sans-serif" font-size="128" x="108.635" y="251.088">-</tspan><tspan font-family="Times New Roman,Times New Roman_MSFontService,sans-serif" font-size="128" x="151.604" y="251.088">2</tspan><tspan font-family="Times New Roman,Times New Roman_MSFontService,sans-serif" font-size="128" x="215.604" y="251.088">”</tspan></text><path d="M1.14657-4.31329 172.751 41.3032 170.458 49.9298-1.14657 4.31329ZM170.731 31.53 193.171 51.3493 163.851 57.4098Z" transform="matrix(-1.0006 0 0 1 2826.67 747.174)"/><text font-family="SimSun,SimSun_MSFontService,sans-serif" font-weight="400" font-size="92" transform="matrix(0.629167 -0.161419 0.161517 0.628787 2697.12 840)">出生</text><text font-family="Times New Roman,Times New Roman_MSFontService,sans-serif" font-weight="400" font-size="128" transform="matrix(0.649568 0 0 0.649175 2190.43 837)">“<tspan font-size="128" x="56.0003" y="0">1985</tspan><tspan font-size="128" x="313.385" y="0">-</tspan><tspan font-size="128" x="356.385" y="0">12</tspan><tspan font-size="128" x="484.688" y="0">-</tspan><tspan font-size="128" x="527.688" y="0">2</tspan><tspan font-size="128" x="591.688" y="0">”</tspan></text><path d="M1035.08 824.881 702.226 798.226 702.934 789.326 1035.79 815.981ZM705.959 807.477 680.336 791.994 708.095 780.783Z" transform="matrix(1.0006 0 0 1 1852.6 -149.987)"/><text font-family="SimSun,SimSun_MSFontService,sans-serif" font-weight="400" font-size="92" transform="matrix(0.64677 0.0601843 -0.0602207 0.646379 2631.66 709)">年龄</text><text font-family="Times New Roman,Times New Roman_MSFontService,sans-serif" font-weight="400" font-size="128" transform="matrix(0.649568 0 0 0.649175 2376.74 665)">“<tspan font-size="128" x="56.0003" y="0">40</tspan><tspan font-size="128" x="184" y="0">”</tspan></text></g></g></g></g><g clip-path="url(#clip5)"><g clip-path="url(#clip6)"><g clip-path="url(#clip7)"><g clip-path="url(#clip8)"><path d="M1045.26 843.756 1059.37 843.756 1059.37 643.051 1087.58 643.051 1087.58 843.756 1101.69 843.756 1073.47 871.974Z" fill="#2E75B6" fill-rule="evenodd" transform="matrix(1.00057 0 0 1 -206.351 -316.821)"/><path d="M153.808 348.551 2087.73 348.551 2087.73 613.244 153.808 613.244Z" stroke="#787878" stroke-width="3.64316" stroke-miterlimit="8" stroke-dasharray="14.5726 10.9295" fill="#F2F2F2" transform="matrix(1.00057 0 0 1 -206.351 -316.821)"/><text fill="#0070C0" font-family="Cascadia Code,Cascadia Code_MSFontService,sans-serif" font-weight="400" font-size="83" transform="matrix(0.795322 0 0 0.794872 -27.0058 104)">select <tspan fill="#000000" font-size="83" x="336.875" y="0">?</tspan><tspan fill="#000000" font-size="83" x="385.875" y="0">name </tspan>where <tspan fill="#000000" font-size="83" x="914.375" y="0">{</tspan><tspan fill="#000000" font-size="83" x="992.292" y="0">?</tspan><tspan fill="#000000" font-size="83" x="1041.29" y="0">m </tspan><tspan fill="#000000" font-size="83" x="1139.29" y="0">&lt;</tspan><tspan fill="#000000" font-size="83" x="1184.79" y="0">hasName</tspan><tspan fill="#000000" font-size="83" x="1521.67" y="0">&gt; ?</tspan><tspan fill="#000000" font-size="83" x="1668.67" y="0">name</tspan><tspan fill="#000000" font-size="83" x="1864.67" y="0">. </tspan><tspan fill="#000000" font-size="83" x="990" y="99.3871">?</tspan><tspan fill="#000000" font-size="83" x="1039" y="99.3871">m </tspan><tspan fill="#000000" font-size="83" x="1137" y="99.3871">&lt;</tspan><tspan fill="#000000" font-size="83" x="1186" y="99.3871">age</tspan><tspan fill="#000000" font-size="83" x="1333" y="99.3871">&gt; </tspan><tspan fill="#C45911" font-size="83" x="1423.13" y="99.3871">24</tspan><tspan fill="#000000" font-size="83" x="1519.38" y="99.3871">. </tspan><tspan fill="#000000" font-size="83" x="990" y="198.774">?</tspan><tspan fill="#000000" font-size="83" x="1039" y="198.774">m </tspan><tspan fill="#000000" font-size="83" x="1137" y="198.774">&lt;</tspan><tspan fill="#000000" font-size="83" x="1186" y="198.774">birthday</tspan><tspan fill="#000000" font-size="83" x="1578" y="198.774">&gt; </tspan><tspan fill="#C45911" font-size="83" x="1663.75" y="198.774">“</tspan><tspan fill="#C45911" font-size="83" x="1712.75" y="198.774">2001</tspan><tspan fill="#C45911" font-size="83" x="1904.38" y="198.774">-</tspan><tspan fill="#C45911" font-size="83" x="1952.5" y="198.774">02</tspan><tspan fill="#C45911" font-size="83" x="2048.75" y="198.774">-</tspan><tspan fill="#C45911" font-size="83" x="2096.88" y="198.774">02</tspan><tspan fill="#C45911" font-size="83" x="2193.13" y="198.774">”</tspan><tspan fill="#000000" font-size="83" x="2241.25" y="198.774">. </tspan><tspan fill="#000000" font-size="83" x="2339.25" y="198.774">}</tspan><tspan fill="#000000" font-family="SimSun,SimSun_MSFontService,sans-serif" font-size="92" x="1178.82" y="444.097">转换成</tspan><tspan fill="#000000" font-family="Times New Roman,Times New Roman_MSFontService,sans-serif" font-size="92" x="1453.82" y="444.097">RDF</tspan><tspan fill="#000000" font-family="SimSun,SimSun_MSFontService,sans-serif" font-size="92" x="1632.57" y="444.097">图</tspan></text><path d="M824.68 1025.78C824.68 959.49 934.825 905.756 1070.69 905.756 1206.56 905.756 1316.71 959.49 1316.71 1025.78 1316.71 1092.07 1206.56 1145.81 1070.69 1145.81 934.825 1145.81 824.68 1092.07 824.68 1025.78Z" stroke="#000000" stroke-width="5.46474" stroke-miterlimit="8" fill="#DEEBF7" fill-rule="evenodd" transform="matrix(1.00057 0 0 1 -206.351 -316.821)"/><text fill="#7F7F7F" font-family="Times New Roman,Times New Roman_MSFontService,sans-serif" font-style="italic" font-weight="400" font-size="110" transform="matrix(0.795322 0 0 0.794872 747.542 740)">?<tspan font-size="110" x="55" y="0">name</tspan></text><text font-family="SimSun,SimSun_MSFontService,sans-serif" font-weight="400" font-size="83" transform="matrix(0.668026 0.431355 -0.431599 0.667649 1092.09 786)">名字是</text><text font-family="Times New Roman,Times New Roman_MSFontService,sans-serif" font-style="italic" font-weight="400" font-size="110" transform="matrix(0.795322 0 0 0.794872 1132.92 1038)">“<tspan fill="#7F7F7F" font-size="110" x="61.3021" y="0">?</tspan><tspan fill="#7F7F7F" font-size="110" x="116.302" y="0">name</tspan><tspan font-size="110" x="354.635" y="0">”</tspan></text><path d="M2.48719-4.86594 257.534 125.499 252.559 135.231-2.48719 4.86594ZM257.642 113.28 279.376 142.801 242.719 142.475Z" transform="matrix(-1.00057 0 0 1 690.35 793.615)"/><text font-family="SimSun,SimSun_MSFontService,sans-serif" font-weight="400" font-size="83" transform="matrix(0.705949 -0.366088 0.366295 0.70555 509.595 969)">年龄是</text><text font-family="Times New Roman,Times New Roman_MSFontService,sans-serif" font-weight="400" font-size="110" transform="matrix(0.795322 0 0 0.794872 257.998 1019)">“<tspan font-size="110" x="48" y="0">24</tspan><tspan font-size="110" x="158" y="0">”</tspan></text><path d="M5.46474-7.393e-06 5.46499 184.719-5.4645 184.719-5.46474 7.393e-06ZM16.3945 179.255 0.000286863 212.043-16.394 179.255Z" transform="matrix(-1.00057 0 0 1 864.152 828.59)"/><text font-family="SimSun,SimSun_MSFontService,sans-serif" font-weight="400" font-size="83" transform="matrix(0.795322 0 0 0.794872 878.022 947)">出生<tspan font-family="Times New Roman,Times New Roman_MSFontService,sans-serif" font-size="110" x="-262.444" y="225.194">“</tspan><tspan font-family="Times New Roman,Times New Roman_MSFontService,sans-serif" font-size="110" x="-214.444" y="225.194">2001</tspan><tspan font-family="Times New Roman,Times New Roman_MSFontService,sans-serif" font-size="110" x="6.2543" y="225.194">-</tspan><tspan font-family="Times New Roman,Times New Roman_MSFontService,sans-serif" font-size="110" x="42.9209" y="225.194">2</tspan><tspan font-family="Times New Roman,Times New Roman_MSFontService,sans-serif" font-size="110" x="97.9209" y="225.194">-</tspan><tspan font-family="Times New Roman,Times New Roman_MSFontService,sans-serif" font-size="110" x="134.588" y="225.194">2</tspan><tspan font-family="Times New Roman,Times New Roman_MSFontService,sans-serif" font-size="110" x="189.588" y="225.194">”</tspan></text><path d="M1251.73 1101.88 1464.85 1240.98 1458.87 1250.13 1245.75 1111.04ZM1466.24 1228.83 1484.74 1260.48 1448.32 1256.29Z" transform="matrix(1.00057 0 0 1 -206.351 -316.821)"/></g></g></g></g><path d="M838 1446.5 852.25 1446.5 852.25 1200 880.75 1200 880.75 1446.5 895 1446.5 866.5 1475Z" fill="#548235" fill-rule="evenodd"/><text font-family="SimSun,SimSun_MSFontService,sans-serif" font-weight="400" font-size="73" transform="matrix(1 0 0 1 913.225 1357)">编码<tspan font-size="73" x="146.667" y="0">成</tspan><tspan font-size="73" x="220" y="0">位</tspan><tspan font-size="73" x="293.333" y="0">串</tspan></text><path d="M3080 1438.5 3094.25 1438.5 3094.25 1192 3122.75 1192 3122.75 1438.5 3137 1438.5 3108.5 1467Z" fill="#548235" fill-rule="evenodd"/><text font-family="SimSun,SimSun_MSFontService,sans-serif" font-weight="400" font-size="73" transform="matrix(1 0 0 1 3155.11 1349)">编码<tspan font-size="73" x="146.667" y="0">成</tspan><tspan font-size="73" x="220" y="0">位</tspan><tspan font-size="73" x="293.334" y="0">串</tspan></text><rect x="276.5" y="1691.5" width="453" height="154" stroke="#000000" stroke-width="4.58333" stroke-miterlimit="8" fill="#DAE3F3"/><text font-family="Times New Roman,Times New Roman_MSFontService,sans-serif" font-weight="400" font-size="83" transform="matrix(1 0 0 1 327.219 1798)">0000 1000</text><path d="M729.5 1766.21 1000.15 1766.21 1000.15 1770.79 729.5 1770.79ZM995.562 1754.75 1023.06 1768.5 995.562 1782.25Z"/><rect x="1021.5" y="1691.5" width="440" height="154" stroke="#000000" stroke-width="4.58333" stroke-miterlimit="8" fill="#DAE3F3"/><text font-family="Times New Roman,Times New Roman_MSFontService,sans-serif" font-weight="400" font-size="83" transform="matrix(1 0 0 1 1065.66 1798)">1000 0000<tspan font-size="83" x="-302.789" y="-58">10000</tspan></text><rect x="2351.5" y="1687.5" width="453" height="155" stroke="#000000" stroke-width="4.58333" stroke-miterlimit="8" fill="#DAE3F3"/><text font-family="Times New Roman,Times New Roman_MSFontService,sans-serif" font-weight="400" font-size="83" transform="matrix(1 0 0 1 2402.58 1795)">0101 <tspan font-size="83" x="185.625" y="0">0</tspan><tspan font-size="83" x="226.875" y="0">000</tspan></text><path d="M2804.5 1763.21 3075.15 1763.21 3075.15 1767.79 2804.5 1767.79ZM3070.56 1751.75 3098.06 1765.5 3070.56 1779.25Z"/><rect x="3097.5" y="1687.5" width="439" height="155" stroke="#000000" stroke-width="4.58333" stroke-miterlimit="8" fill="#DAE3F3"/><text font-family="Times New Roman,Times New Roman_MSFontService,sans-serif" font-weight="400" font-size="83" transform="matrix(1 0 0 1 3141.02 1795)">1000 0000<tspan font-size="83" x="-302.789" y="-58">10100</tspan></text><rect x="2684.5" y="1974.5" width="454" height="155" stroke="#000000" stroke-width="4.58333" stroke-miterlimit="8" fill="#DAE3F3"/><text font-family="Times New Roman,Times New Roman_MSFontService,sans-serif" font-weight="400" font-size="83" transform="matrix(1 0 0 1 2735.74 2082)">0000 1000</text><path d="M3138.5 2050.21 3409.15 2050.21 3409.15 2054.79 3138.5 2054.79ZM3404.56 2038.75 3432.06 2052.5 3404.56 2066.25Z"/><rect x="3430.5" y="1974.5" width="439" height="155" stroke="#000000" stroke-width="4.58333" stroke-miterlimit="8" fill="#DAE3F3"/><text font-family="Times New Roman,Times New Roman_MSFontService,sans-serif" font-weight="400" font-size="83" transform="matrix(1 0 0 1 3474.17 2082)">0000 0100<tspan font-size="83" x="-300.497" y="-65">10100</tspan></text><rect x="2504" y="2238" width="453" height="155" stroke="#C00000" stroke-width="13.75" stroke-miterlimit="8" fill="#DAE3F3"/><text font-family="Times New Roman,Times New Roman_MSFontService,sans-serif" font-weight="400" font-size="83" transform="matrix(1 0 0 1 2555.53 2346)">0010 1001</text><path d="M2957 2309.12 3216.19 2309.12 3216.19 2322.88 2957 2322.87ZM3209.31 2295.38 3250.56 2316 3209.31 2336.62Z" fill="#C00000"/><rect x="3250" y="2238" width="439" height="155" stroke="#C00000" stroke-width="13.75" stroke-miterlimit="8" fill="#DAE3F3"/><text font-family="Times New Roman,Times New Roman_MSFontService,sans-serif" font-weight="400" font-size="83" transform="matrix(1 0 0 1 3293.97 2346)">1010 0010<tspan font-size="83" x="-302.789" y="-60">10000</tspan></text><rect x="2607" y="2527" width="453" height="155" stroke="#C00000" stroke-width="13.75" stroke-miterlimit="8" fill="#DAE3F3"/><text font-family="Times New Roman,Times New Roman_MSFontService,sans-serif" font-weight="400" font-size="83" transform="matrix(1 0 0 1 2658.6 2635)">0000 1010</text><path d="M3060 2598.12 3319.19 2598.13 3319.19 2611.88 3060 2611.88ZM3312.31 2584.38 3353.56 2605 3312.31 2625.63Z" fill="#C00000"/><rect x="3353" y="2527" width="439" height="155" stroke="#C00000" stroke-width="13.75" stroke-miterlimit="8" fill="#DAE3F3"/><text font-family="Times New Roman,Times New Roman_MSFontService,sans-serif" font-weight="400" font-size="83" transform="matrix(1 0 0 1 3397.04 2635)">1000 <tspan font-size="83" x="185.625" y="0">0100</tspan><tspan font-size="83" x="-302.789" y="-63">10000</tspan></text><path d="M2910.81 1976.94 2598.95 1853.09 2600.64 1848.83 2912.5 1972.68ZM2598.98 1865.43 2578.5 1842.5 2609.13 1839.87Z"/><path d="M1.18907-1.95904 161.803 95.5277 159.425 99.4458-1.18907 1.95904ZM163.83 83.3544 180.204 109.377 149.561 106.863Z" transform="matrix(1 0 0 -1 2731.5 2238.88)"/><path d="M2832.75 2529.4 2743.62 2413.08 2747.26 2410.3 2836.39 2526.61ZM2737.31 2423.69 2731.5 2393.5 2759.14 2406.96Z"/><path d="M3116.9 1516.25C3124.49 1516.25 3131.3 1517.27 3137.31 1519.31L3134.04 1534.67 3127 1534.67C3127 1531.56 3126.67 1529.13 3126.01 1527.4 3125.34 1525.66 3124.33 1524.42 3122.97 1523.66 3121.61 1522.91 3119.79 1522.54 3117.49 1522.54 3112.73 1522.54 3108.45 1524.73 3104.66 1529.12 3100.86 1533.5 3097.64 1539.95 3094.99 1548.45 3092.34 1556.96 3091.01 1564.61 3091.01 1571.41 3091.01 1580.47 3094 1585 3099.98 1585 3102.85 1585 3105.21 1584.1 3107.07 1582.29 3108.94 1580.48 3110.3 1577.68 3111.16 1573.88L3111.91 1570.5C3112.19 1569.18 3112.37 1568.07 3112.44 1567.2 3112.52 1566.32 3112.55 1565.52 3112.55 1564.81 3112.55 1563.34 3112.21 1562.24 3111.53 1561.5 3110.85 1560.77 3109.69 1560.3 3108.04 1560.08L3108.79 1556.54 3135 1556.54 3134.25 1560.08C3132.85 1560.55 3131.82 1561.11 3131.14 1561.77 3130.46 1562.43 3129.85 1563.4 3129.31 1564.67 3128.77 1565.94 3128.18 1568.07 3127.54 1571.04L3123.4 1589.57 3115.99 1591.29 3113.14 1587.47C3108.45 1590.02 3103.56 1591.29 3098.48 1591.29 3090.96 1591.29 3085.19 1589.17 3081.16 1584.95 3077.13 1580.72 3075.12 1574.62 3075.12 1566.63 3075.12 1561.69 3075.96 1556.04 3077.64 1549.69 3079.32 1543.33 3081.93 1537.6 3085.46 1532.5 3088.98 1527.4 3093.41 1523.41 3098.75 1520.55 3104.08 1517.68 3110.14 1516.25 3116.9 1516.25Z" fill-rule="evenodd"/><text fill="#000000" fill-opacity="0" font-family="Arial,Arial_MSFontService,sans-serif" font-size="75.0342" x="3075.12" y="1581.91">𝑮</text><path d="M3158.53 1512.52 3163.69 1512.52 3162.55 1524.75 3172.59 1517.68 3175.13 1522.05 3164 1527.25 3175.13 1532.48 3172.59 1536.82 3162.55 1529.75 3163.69 1541.98 3158.53 1541.98 3159.7 1529.75 3149.62 1536.82 3147.04 1532.48 3158.22 1527.25 3147.04 1522.05 3149.62 1517.68 3159.7 1524.75Z" fill-rule="evenodd"/><text fill="#000000" fill-opacity="0" font-family="Arial,Arial_MSFontService,sans-serif" font-size="29.4531" x="3147.04" y="1538.29">∗</text><path d="M867.205 1539.8C864.161 1539.8 861.181 1541.15 858.262 1543.83 855.344 1546.52 852.676 1550.38 850.259 1555.43 847.842 1560.48 845.98 1566.18 844.673 1572.54 843.366 1578.9 842.713 1584.13 842.713 1588.25 842.713 1593.19 843.429 1596.76 844.861 1598.97 846.294 1601.17 848.621 1602.27 851.844 1602.27 853.921 1602.27 855.962 1601.66 857.967 1600.44 860.473 1598.94 862.819 1596.58 865.003 1593.35 867.545 1589.63 869.73 1585.14 871.556 1579.87 873.167 1575.25 874.51 1569.65 875.584 1563.06 876.157 1559.62 876.443 1556.49 876.443 1553.66 876.443 1548.86 875.727 1545.35 874.295 1543.13 872.863 1540.91 870.499 1539.8 867.205 1539.8ZM867.742 1533.52C875.906 1533.52 882.092 1535.65 886.299 1539.91 890.507 1544.17 892.61 1550.37 892.61 1558.49 892.61 1562.04 892.217 1565.97 891.429 1570.28 890.641 1574.6 889.415 1578.85 887.75 1583.04 886.085 1587.23 883.99 1590.99 881.465 1594.32 878.941 1597.65 876.058 1600.39 872.818 1602.54 869.577 1604.69 866.023 1606.26 862.156 1607.26L862.371 1607.21 863.553 1610.38C864.341 1612.53 865.075 1614.16 865.755 1615.27 866.435 1616.38 867.214 1617.21 868.091 1617.76 868.969 1618.32 870.088 1618.6 871.448 1618.6 872.809 1618.6 874.152 1618.22 875.477 1617.47 876.802 1616.72 878.287 1615.5 879.935 1613.82L884.07 1617.95C880.49 1621.53 877.249 1624.15 874.349 1625.79 871.448 1627.44 868.315 1628.27 864.949 1628.27 861.082 1628.27 857.824 1627.17 855.174 1624.99 852.524 1622.8 850.447 1619.38 848.943 1614.73L846.849 1608.34 846.956 1608.34C840.296 1607.62 835.229 1605.16 831.756 1600.95 828.283 1596.75 826.546 1590.85 826.546 1583.26 826.546 1580.43 826.832 1577.19 827.405 1573.53 827.978 1569.88 828.945 1566.02 830.306 1561.96 831.666 1557.89 833.546 1554.05 835.945 1550.44 838.344 1546.82 841.164 1543.73 844.405 1541.17 847.645 1538.61 851.253 1536.7 855.228 1535.43 859.202 1534.15 863.374 1533.52 867.742 1533.52Z" fill-rule="evenodd"/><text fill="#000000" fill-opacity="0" font-family="Arial,Arial_MSFontService,sans-serif" font-size="94.7461" x="826.546" y="1616.42">𝑸</text><path d="M916.834 1529.79 921.99 1529.79 920.857 1542.02 930.897 1534.95 933.436 1539.32 922.303 1544.52 933.436 1549.75 930.897 1554.09 920.857 1547.02 921.99 1559.24 916.834 1559.24 918.006 1547.02 907.928 1554.09 905.35 1549.75 916.522 1544.52 905.35 1539.32 907.928 1534.95 918.006 1542.02Z" fill-rule="evenodd"/><text fill="#000000" fill-opacity="0" font-family="Arial,Arial_MSFontService,sans-serif" font-size="29.4531" x="905.35" y="1555.56">∗</text><path d="M2189 1796 2189 1782 1632 1782 1632 1754 2189 1754 2189 1740 2217 1768Z" fill="#C00000" fill-rule="evenodd"/><path d="M1810.83 1587.28C1808.81 1587.28 1806.83 1588.17 1804.89 1589.95 1802.96 1591.73 1801.19 1594.3 1799.58 1597.65 1797.98 1601 1796.74 1604.78 1795.87 1609 1795.01 1613.22 1794.57 1616.69 1794.57 1619.43 1794.57 1622.71 1795.05 1625.08 1796 1626.54 1796.95 1628 1798.49 1628.73 1800.63 1628.73 1802.01 1628.73 1803.37 1628.33 1804.7 1627.52 1806.36 1626.52 1807.92 1624.95 1809.37 1622.81 1811.05 1620.34 1812.5 1617.36 1813.71 1613.87 1814.78 1610.8 1815.67 1607.08 1816.39 1602.71 1816.77 1600.43 1816.96 1598.35 1816.96 1596.47 1816.96 1593.29 1816.48 1590.96 1815.53 1589.49 1814.58 1588.01 1813.01 1587.28 1810.83 1587.28ZM1811.18 1583.11C1816.6 1583.11 1820.71 1584.52 1823.5 1587.35 1826.29 1590.17 1827.69 1594.29 1827.69 1599.68 1827.69 1602.03 1827.43 1604.64 1826.9 1607.5 1826.38 1610.37 1825.57 1613.19 1824.46 1615.97 1823.36 1618.75 1821.97 1621.25 1820.29 1623.46 1818.62 1625.67 1816.7 1627.48 1814.55 1628.91 1812.4 1630.33 1810.04 1631.38 1807.48 1632.05L1807.62 1632.01 1808.4 1634.11C1808.93 1635.54 1809.41 1636.62 1809.86 1637.36 1810.32 1638.09 1810.83 1638.65 1811.42 1639.01 1812 1639.38 1812.74 1639.57 1813.64 1639.57 1814.55 1639.57 1815.44 1639.32 1816.32 1638.82 1817.2 1638.32 1818.18 1637.51 1819.27 1636.39L1822.02 1639.14C1819.64 1641.52 1817.49 1643.25 1815.57 1644.34 1813.64 1645.44 1811.56 1645.98 1809.33 1645.98 1806.76 1645.98 1804.6 1645.26 1802.84 1643.81 1801.08 1642.36 1799.71 1640.09 1798.71 1637L1797.32 1632.76 1797.39 1632.76C1792.97 1632.28 1789.61 1630.65 1787.3 1627.86 1785 1625.07 1783.84 1621.15 1783.84 1616.11 1783.84 1614.23 1784.03 1612.08 1784.41 1609.66 1784.79 1607.24 1785.44 1604.68 1786.34 1601.98 1787.24 1599.28 1788.49 1596.73 1790.08 1594.33 1791.67 1591.93 1793.55 1589.88 1795.7 1588.18 1797.85 1586.49 1800.24 1585.21 1802.88 1584.37 1805.52 1583.53 1808.28 1583.11 1811.18 1583.11Z" fill-rule="evenodd"/><text fill="#000000" fill-opacity="0" font-family="Arial,Arial_MSFontService,sans-serif" font-size="62.877" x="1783.84" y="1638.12">𝑸</text><path d="M1843.99 1580.55 1847.4 1580.55 1846.65 1588.65 1853.3 1583.97 1854.99 1586.87 1847.61 1590.31 1854.99 1593.78 1853.3 1596.65 1846.65 1591.96 1847.4 1600.06 1843.99 1600.06 1844.76 1591.96 1838.09 1596.65 1836.38 1593.78 1843.78 1590.31 1836.38 1586.87 1838.09 1583.97 1844.76 1588.65Z" fill-rule="evenodd"/><text fill="#000000" fill-opacity="0" font-family="Arial,Arial_MSFontService,sans-serif" font-size="19.5127" x="1836.38" y="1597.62">∗</text><text font-family="SimSun,SimSun_MSFontService,sans-serif" font-weight="400" font-size="73" transform="matrix(1 0 0 1 1861.72 1632)">在</text><path d="M1967.59 1583.11C1972.63 1583.11 1977.14 1583.78 1981.14 1585.14L1978.96 1595.33 1974.29 1595.33C1974.29 1593.26 1974.07 1591.65 1973.63 1590.5 1973.19 1589.35 1972.52 1588.52 1971.62 1588.02 1970.72 1587.53 1969.51 1587.28 1967.98 1587.28 1964.82 1587.28 1961.98 1588.73 1959.47 1591.64 1956.95 1594.55 1954.81 1598.83 1953.05 1604.47 1951.29 1610.12 1950.41 1615.2 1950.41 1619.71 1950.41 1625.72 1952.4 1628.73 1956.36 1628.73 1958.27 1628.73 1959.83 1628.13 1961.07 1626.93 1962.3 1625.73 1963.21 1623.87 1963.78 1621.35L1964.28 1619.11C1964.47 1618.23 1964.59 1617.5 1964.63 1616.91 1964.68 1616.33 1964.7 1615.8 1964.7 1615.33 1964.7 1614.35 1964.48 1613.62 1964.03 1613.14 1963.58 1612.65 1962.8 1612.33 1961.71 1612.19L1962.21 1609.84 1979.6 1609.84 1979.11 1612.19C1978.18 1612.5 1977.49 1612.87 1977.04 1613.31 1976.59 1613.75 1976.18 1614.4 1975.83 1615.24 1975.47 1616.08 1975.08 1617.49 1974.65 1619.46L1971.91 1631.76 1966.99 1632.9 1965.1 1630.37C1961.98 1632.06 1958.74 1632.9 1955.37 1632.9 1950.38 1632.9 1946.54 1631.5 1943.87 1628.69 1941.2 1625.89 1939.86 1621.84 1939.86 1616.54 1939.86 1613.26 1940.42 1609.51 1941.54 1605.29 1942.65 1601.08 1944.38 1597.27 1946.72 1593.89 1949.06 1590.5 1952 1587.86 1955.54 1585.96 1959.08 1584.06 1963.1 1583.11 1967.59 1583.11Z" fill-rule="evenodd"/><text fill="#000000" fill-opacity="0" font-family="Arial,Arial_MSFontService,sans-serif" font-size="49.7954" x="1939.86" y="1626.68">𝑮</text><path d="M1995.42 1580.55 1998.84 1580.55 1998.09 1588.65 2004.74 1583.97 2006.42 1586.87 1999.04 1590.31 2006.42 1593.78 2004.74 1596.65 1998.09 1591.96 1998.84 1600.06 1995.42 1600.06 1996.2 1591.96 1989.52 1596.65 1987.81 1593.78 1995.21 1590.31 1987.81 1586.87 1989.52 1583.97 1996.2 1588.65Z" fill-rule="evenodd"/><text fill="#000000" fill-opacity="0" font-family="Arial,Arial_MSFontService,sans-serif" font-size="19.5127" x="1987.81" y="1597.62">∗</text><text font-family="SimSun,SimSun_MSFontService,sans-serif" font-weight="400" font-size="73" transform="matrix(1 0 0 1 2013.15 1632)">中<tspan font-size="73" x="-227.058" y="88">子图匹配</tspan></text><path d="M4563.5 2208 4563.5 2193.75 4007 2193.75 4007 2165.25 4563.5 2165.25 4563.5 2151 4592 2179.5Z" fill="#4472C4" fill-rule="evenodd"/><path d="M4172.67 2077.92 4172.67 2093.89 4189.49 2093.89 4189.49 2077.92ZM4089.12 2077.64 4093.11 2081.63 4090.54 2083.34 4090.54 2107.58C4092.06 2108.91 4094.44 2110.34 4097.67 2111.86 4100.9 2113.38 4104.47 2114.23 4108.37 2114.42 4112.26 2114.61 4116.02 2114.71 4119.63 2114.71 4123.24 2114.71 4126.76 2114.61 4130.18 2114.42 4133.6 2114.23 4137.5 2113.95 4141.87 2113.57L4142.16 2114.42C4138.54 2115.57 4136.55 2117.18 4136.17 2119.27 4127.8 2119.27 4120.86 2119.18 4115.35 2118.99 4109.84 2118.8 4105.37 2118.04 4101.95 2116.71 4098.53 2115.38 4095.68 2113.76 4093.39 2111.86 4090.92 2109.96 4089.35 2108.96 4088.69 2108.86 4088.02 2108.77 4086.65 2109.77 4084.55 2111.86 4082.46 2113.95 4080.66 2116.14 4079.14 2118.42L4075.43 2114.71C4077.9 2113 4081.7 2110.62 4086.84 2107.58L4086.84 2082.2 4084.27 2082.2C4081.8 2082.2 4079.52 2082.49 4077.43 2083.06L4074.86 2080.49 4086.27 2080.49ZM4168.68 2073.65 4172.95 2076.21 4189.21 2076.21 4191.2 2073.65 4195.77 2076.78 4193.48 2078.78C4193.48 2089.24 4193.58 2095.98 4193.77 2099.03L4189.49 2100.74 4189.49 2095.6 4172.67 2095.6 4172.67 2100.17 4168.68 2101.88C4168.87 2097.7 4168.96 2093.09 4168.96 2088.05 4168.96 2083.01 4168.87 2078.21 4168.68 2073.65ZM4158.98 2062.53 4158.98 2111.57 4203.75 2111.57 4203.75 2062.53ZM4205.18 2057.96 4209.74 2061.1 4207.46 2063.38 4207.46 2102.16C4207.46 2106.54 4207.55 2111.57 4207.74 2117.28L4203.75 2118.99 4203.75 2113.28 4158.98 2113.28 4158.98 2118.7 4154.7 2120.41C4154.89 2115.28 4154.99 2104.92 4154.99 2089.33 4154.99 2073.74 4154.89 2063.38 4154.7 2058.25L4158.98 2060.82 4203.46 2060.82ZM4083.7 2057.39C4086.74 2059.48 4088.93 2061.29 4090.26 2062.81 4091.59 2064.33 4092.11 2065.76 4091.83 2067.09 4091.54 2068.42 4091.07 2069.32 4090.4 2069.8 4089.73 2070.27 4089.31 2070.51 4089.12 2070.51 4088.17 2070.51 4087.5 2069.37 4087.12 2067.09 4086.55 2064.24 4085.12 2061.29 4082.84 2058.25ZM4129.61 2056.25 4133.89 2061.67C4129.89 2061.67 4125.71 2061.96 4121.34 2062.53 4116.78 2063.29 4111.45 2063.86 4105.37 2064.24L4105.37 2075.93 4126.76 2075.93 4129.61 2073.08 4133.89 2077.35 4131.32 2079.35C4128.47 2085.62 4126 2090.28 4123.91 2093.32 4130.18 2097.32 4133.7 2100.07 4134.46 2101.59 4135.22 2103.11 4135.6 2104.25 4135.6 2105.01 4135.6 2105.78 4135.41 2106.54 4135.03 2107.3 4134.65 2108.06 4134.27 2108.44 4133.89 2108.44 4133.51 2108.44 4133.03 2107.96 4132.46 2107.01 4131.51 2105.68 4130.18 2104.02 4128.47 2102.02 4126.76 2100.02 4124.67 2097.98 4122.19 2095.89 4116.68 2102.73 4109.36 2107.77 4100.24 2111L4099.95 2109.86C4108.13 2105.68 4114.5 2100.45 4119.06 2094.18 4113.74 2090.19 4109.74 2087.33 4107.08 2085.62L4107.65 2084.77C4111.83 2086.86 4116.21 2089.14 4120.77 2091.61 4123.81 2086.67 4126 2082.01 4127.33 2077.64L4105.37 2077.64C4105.18 2091.52 4101.38 2101.5 4093.96 2107.58L4093.39 2106.73C4097.2 2101.4 4099.48 2096.03 4100.24 2090.61 4101 2085.2 4101.38 2079.97 4101.38 2074.93 4101.38 2069.89 4101.28 2065.09 4101.09 2060.53L4105.09 2062.81C4109.27 2062.24 4113.83 2061.43 4118.77 2060.39 4123.72 2059.34 4127.33 2057.96 4129.61 2056.25Z" fill-rule="evenodd"/><text fill="#000000" fill-opacity="0" font-family="Arial,Arial_MSFontService,sans-serif" font-size="64.1602" x="4074.86" y="2112.39">返回</text><text font-family="SimSun,SimSun_MSFontService,sans-serif" font-weight="400" font-size="73" transform="matrix(1 0 0 1 4218.39 2114)">相应子图</text><g clip-path="url(#clip9)"><g clip-path="url(#clip10)"><g clip-path="url(#clip11)"><g clip-path="url(#clip12)"><path d="M2840.92 947.617C2840.92 896.137 2921.41 854.404 3020.7 854.404 3119.99 854.404 3200.49 896.137 3200.49 947.617 3200.49 999.097 3119.99 1040.83 3020.7 1040.83 2921.41 1040.83 2840.92 999.097 2840.92 947.617Z" stroke="#000000" stroke-width="3.80319" stroke-miterlimit="8" fill="#E2F0D9" fill-rule="evenodd" transform="matrix(1.0024 0 0 1 2038.21 1089.23)"/><text font-family="Times New Roman,Times New Roman_MSFontService,sans-serif" font-weight="400" font-size="128" transform="matrix(0.554517 0 0 0.553192 5006.79 2062)">Eric</text><path d="M2.75542-2.62143 134.354 135.703 128.843 140.946-2.75542 2.62143ZM137.243 127.705 144.705 152.102 120.71 143.434Z" transform="matrix(1.0024 0 0 -1 5193.41 1970.44)"/><text font-family="SimSun,SimSun_MSFontService,sans-serif" font-weight="400" font-size="92" transform="matrix(0.38176 -0.401218 0.40218 0.380848 5257.01 1995)">名字是</text><text font-family="Times New Roman,Times New Roman_MSFontService,sans-serif" font-weight="400" font-size="128" transform="matrix(0.554517 0 0 0.553192 5334.02 1804)">“<tspan font-size="128" x="56.0005" y="0">Jack</tspan><tspan font-size="128" x="284" y="0">”</tspan></text><path d="M2891.29 884.736 2711.95 771.254 2716.02 764.826 2895.35 878.308ZM2711.1 779.718 2697.92 757.872 2723.3 760.434Z" transform="matrix(1.0024 0 0 1 2038.21 1089.23)"/><text font-family="SimSun,SimSun_MSFontService,sans-serif" font-weight="400" font-size="92" transform="matrix(0.466663 0.298809 -0.299525 0.465547 4744.83 1918)">年龄是</text><text font-family="Times New Roman,Times New Roman_MSFontService,sans-serif" font-weight="400" font-size="128" transform="matrix(0.554517 0 0 0.553192 4618.43 1842)">“<tspan font-size="128" x="56.0005" y="0">24</tspan><tspan font-size="128" x="184" y="0">”</tspan></text><path d="M3.80319-0.000760638 3.82814 124.726-3.77825 124.728-3.80319 0.000760638ZM11.4337 120.921 0.0287485 143.743-11.3854 120.926Z" transform="matrix(1.0024 0 0 -1 5065.87 1945.49)"/><text font-family="SimSun,SimSun_MSFontService,sans-serif" font-weight="400" font-size="92" transform="matrix(0.554517 0 0 0.553192 4944.16 1901)">出生<tspan font-family="Times New Roman,Times New Roman_MSFontService,sans-serif" font-size="128" x="-72.4052" y="-218.731">“</tspan><tspan font-family="Times New Roman,Times New Roman_MSFontService,sans-serif" font-size="128" x="-16.4056" y="-218.731">2001</tspan><tspan font-family="Times New Roman,Times New Roman_MSFontService,sans-serif" font-size="128" x="240.98" y="-218.731">-</tspan><tspan font-family="Times New Roman,Times New Roman_MSFontService,sans-serif" font-size="128" x="283.949" y="-218.731">2</tspan><tspan font-family="Times New Roman,Times New Roman_MSFontService,sans-serif" font-size="128" x="348.116" y="-218.731">-</tspan><tspan font-family="Times New Roman,Times New Roman_MSFontService,sans-serif" font-size="128" x="391.085" y="-218.731">2</tspan><tspan font-family="Times New Roman,Times New Roman_MSFontService,sans-serif" font-size="128" x="455.084" y="-218.731">”</tspan></text></g></g></g></g><g clip-path="url(#clip13)"><g clip-path="url(#clip14)"><g clip-path="url(#clip15)"><g clip-path="url(#clip16)"><path d="M3059.81 1092.85C3059.81 1040.14 3142.49 997.401 3244.46 997.401 3346.44 997.401 3429.12 1040.14 3429.12 1092.85 3429.12 1145.56 3346.44 1188.3 3244.46 1188.3 3142.49 1188.3 3059.81 1145.56 3059.81 1092.85Z" stroke="#000000" stroke-width="3.90608" stroke-miterlimit="8" fill="#E2F0D9" fill-rule="evenodd" transform="matrix(1 0 0 1.00083 1805.8 1208.77)"/><text font-family="Times New Roman,Times New Roman_MSFontService,sans-serif" font-weight="400" font-size="128" transform="matrix(0.568158 0 0 0.568627 4971.03 2329)">Alice</text><path d="M3376.52 1156.97 3537.54 1268.57 3533.09 1274.99 3372.06 1163.39ZM3538.78 1259.92 3551.37 1282.91 3525.42 1279.18Z" transform="matrix(1 0 0 1.00083 1805.8 1208.77)"/><text font-family="SimSun,SimSun_MSFontService,sans-serif" font-weight="400" font-size="92" transform="matrix(0.466937 0.323954 -0.323686 0.467323 5219.05 2368)">名字是</text><text font-family="Times New Roman,Times New Roman_MSFontService,sans-serif" font-weight="400" font-size="128" transform="matrix(0.568158 0 0 0.568627 5264.36 2568)">“<tspan font-size="128" x="56.0001" y="0">Alice</tspan><tspan font-size="128" x="334" y="0">”</tspan></text><path d="M3109.4 1161.63 2920.17 1269.81 2916.3 1263.03 3105.52 1154.84ZM2927.44 1274.65 2901.28 1276.11 2915.81 1254.3Z" transform="matrix(1 0 0 1.00083 1805.8 1208.77)"/><text font-family="SimSun,SimSun_MSFontService,sans-serif" font-weight="400" font-size="92" transform="matrix(0.495048 -0.279032 0.278802 0.495458 4778.59 2513)">年龄是</text><text font-family="Times New Roman,Times New Roman_MSFontService,sans-serif" font-weight="400" font-size="128" transform="matrix(0.568158 0 0 0.568627 4573.12 2546)">“<tspan font-size="128" x="56.0001" y="0">24</tspan><tspan font-size="128" x="184" y="0">”</tspan></text><path d="M3.90608-4.74035e-06 3.90627 149.427-3.9059 149.427-3.90608 4.74035e-06ZM11.7184 145.521 0.000205044 168.958-11.7181 145.521Z" transform="matrix(-1 0 0 1.00083 5049.98 2397.76)"/><text font-family="SimSun,SimSun_MSFontService,sans-serif" font-weight="400" font-size="92" transform="matrix(0.568158 0 0 0.568627 5064.16 2494)">出生<tspan font-family="Times New Roman,Times New Roman_MSFontService,sans-serif" font-size="128" x="-311.886" y="251.483">“</tspan><tspan font-family="Times New Roman,Times New Roman_MSFontService,sans-serif" font-size="128" x="-255.886" y="251.483">2001</tspan><tspan font-family="Times New Roman,Times New Roman_MSFontService,sans-serif" font-size="128" x="1.49967" y="251.483">-</tspan><tspan font-family="Times New Roman,Times New Roman_MSFontService,sans-serif" font-size="128" x="44.4685" y="251.483">2</tspan><tspan font-family="Times New Roman,Times New Roman_MSFontService,sans-serif" font-size="128" x="108.636" y="251.483">-</tspan><tspan font-family="Times New Roman,Times New Roman_MSFontService,sans-serif" font-size="128" x="151.605" y="251.483">2</tspan><tspan font-family="Times New Roman,Times New Roman_MSFontService,sans-serif" font-size="128" x="215.604" y="251.483">”</tspan></text></g></g></g></g></g></svg>