<svg width="4052" height="1860" xmlns="http://www.w3.org/2000/svg" xmlns:xlink="http://www.w3.org/1999/xlink" overflow="hidden"><defs><clipPath id="clip0"><rect x="287" y="226" width="4052" height="1860"/></clipPath></defs><g clip-path="url(#clip0)" transform="translate(-287 -226)"><rect x="468.5" y="606.5" width="1525" height="179" stroke="#000000" stroke-width="6.875" stroke-miterlimit="8" fill="#FFFFFF"/><path d="M627.5 606.5 627.5 785.917" stroke="#000000" stroke-width="6.875" stroke-miterlimit="8" fill="none" fill-rule="evenodd"/><path d="M1276.5 606.5 1276.5 785.917" stroke="#000000" stroke-width="6.875" stroke-miterlimit="8" fill="none" fill-rule="evenodd"/><path d="M628 804C628 815.046 627.254 824 626.333 824L469.667 824C468.746 824 468 815.046 468 804" stroke="#4472C4" stroke-width="10.3125" stroke-miterlimit="8" fill="none" fill-rule="evenodd"/><path d="M1.14583-6.985e-06 1.14605 36.2848-1.14561 36.2848-1.14583 6.985e-06ZM13.7502 31.7014 0.000360892 59.2015-13.7498 31.7016Z" fill="#4472C4" transform="matrix(-1 0 0 1 548 824)"/><path d="M640 593C640 582.507 640.709 574 641.583 574L1256.42 574C1257.29 574 1258 582.507 1258 593" stroke="#4472C4" stroke-width="10.3125" stroke-miterlimit="8" fill="none" fill-rule="evenodd"/><path d="M1.14583-6.985e-06 1.14605 36.2848-1.14561 36.2848-1.14583 6.985e-06ZM13.7502 31.7014 0.000360892 59.2015-13.7498 31.7016Z" fill="#4472C4" transform="matrix(1 -1.22465e-16 -1.22465e-16 -1 949 574.201)"/><path d="M1300 593C1300 581.954 1300.75 573 1301.67 573L1977.33 573C1978.25 573 1979 581.954 1979 593" stroke="#4472C4" stroke-width="10.3125" stroke-miterlimit="8" fill="none" fill-rule="evenodd"/><path d="M1.14583-1.397e-05 1.14628 36.2848-1.14539 36.2849-1.14583 1.397e-05ZM13.7504 31.7013 0.000721785 59.2015-13.7496 31.7017Z" fill="#4472C4" transform="matrix(1 -1.22465e-16 -1.22465e-16 -1 1639 573.201)"/><text font-family="SimSun,SimSun_MSFontService,sans-serif" font-weight="400" font-size="83" transform="matrix(1 0 0 1 340.734 983)">是否在使用<tspan font-size="83" x="1007.7" y="-487">第一个属性的</tspan><tspan font-family="Times New Roman,Times New Roman_MSFontService,sans-serif" font-size="83" x="1502.7" y="-487">ID</tspan><tspan font-size="83" x="404.329" y="-491">第一个</tspan>联系</text><rect x="471" y="608" width="152" height="174" fill="#BFBFBF"/><rect x="630" y="608" width="642" height="174" fill="#C5E0B4"/><rect x="1279" y="608" width="711" height="173" fill="#C5E0B4"/><text font-family="SimSun,SimSun_MSFontService,sans-serif" font-weight="700" font-size="83" transform="matrix(1 0 0 1 407.537 336)">节点（<tspan font-family="Times New Roman,Times New Roman_MSFontService,sans-serif" font-size="83" x="249.219" y="0">9</tspan>字节）</text><rect x="1274" y="1565" width="739" height="174" fill="#BDD7EE"/><rect x="1948" y="1566" width="662" height="173" fill="#BDD7EE"/><rect x="468.5" y="1563.5" width="3613" height="179" stroke="#000000" stroke-width="6.875" stroke-miterlimit="8" fill="none"/><path d="M628.5 1563.5 628.5 1742.92" stroke="#000000" stroke-width="6.875" stroke-miterlimit="8" fill="none" fill-rule="evenodd"/><path d="M1945.5 1565.5 1945.5 1744.92" stroke="#000000" stroke-width="6.875" stroke-miterlimit="8" fill="none" fill-rule="evenodd"/><path d="M628 1761C628 1772.05 627.254 1781 626.333 1781L469.667 1781C468.746 1781 468 1772.05 468 1761" stroke="#4472C4" stroke-width="10.3125" stroke-miterlimit="8" fill="none" fill-rule="evenodd"/><path d="M1.14583-6.985e-06 1.14605 36.2848-1.14561 36.2848-1.14583 6.985e-06ZM13.7502 31.7014 0.000360892 59.2015-13.7498 31.7016Z" fill="#4472C4" transform="matrix(-1 0 0 1 548 1781)"/><path d="M642 1550C642 1539.51 642.709 1531 643.583 1531L1259.42 1531C1260.29 1531 1261 1539.51 1261 1550" stroke="#4472C4" stroke-width="10.3125" stroke-miterlimit="8" fill="none" fill-rule="evenodd"/><path d="M1.14583-6.985e-06 1.14605 36.2848-1.14561 36.2848-1.14583 6.985e-06ZM13.7502 31.7014 0.000360892 59.2015-13.7498 31.7016Z" fill="#4472C4" transform="matrix(1 -1.22465e-16 -1.22465e-16 -1 952 1531.2)"/><path d="M1289 1551.05C1289 1539.98 1289.75 1531 1290.67 1531L1932.33 1531C1933.25 1531 1934 1539.98 1934 1551.05" stroke="#4472C4" stroke-width="10.3125" stroke-miterlimit="8" fill="none" fill-rule="evenodd"/><path d="M1.14583-6.985e-06 1.14605 36.2848-1.14561 36.2848-1.14583 6.985e-06ZM13.7502 31.7014 0.000360892 59.2015-13.7498 31.7016Z" fill="#4472C4" transform="matrix(1 -1.22465e-16 -1.22465e-16 -1 1612 1531.2)"/><text font-family="SimSun,SimSun_MSFontService,sans-serif" font-weight="400" font-size="83" transform="matrix(1 0 0 1 340.734 1941)">是否在使用<tspan font-size="83" x="1067.91" y="-490">结束节点</tspan><tspan font-family="Times New Roman,Times New Roman_MSFontService,sans-serif" font-size="83" x="1397.91" y="-490">ID</tspan><tspan font-size="83" x="408.445" y="-491">起始节点</tspan><tspan font-family="Times New Roman,Times New Roman_MSFontService,sans-serif" font-size="83" x="738.445" y="-491">ID</tspan></text><rect x="471" y="1565" width="152" height="174" fill="#BFBFBF"/><rect x="630" y="1565" width="642" height="174" fill="#BDD7EE"/><text font-family="SimSun,SimSun_MSFontService,sans-serif" font-weight="700" font-size="83" transform="matrix(1 0 0 1 439.27 1294)">联系（<tspan font-family="Times New Roman,Times New Roman_MSFontService,sans-serif" font-size="83" x="249.219" y="0">3</tspan><tspan font-family="Times New Roman,Times New Roman_MSFontService,sans-serif" font-size="83" x="290.469" y="0">3</tspan>字节）</text><path d="M1276.5 1565.5 1276.5 1744.92" stroke="#000000" stroke-width="6.875" stroke-miterlimit="8" fill="none" fill-rule="evenodd"/><path d="M2610.5 1559.5 2610.5 1738.92" stroke="#000000" stroke-width="6.875" stroke-miterlimit="8" fill="none" fill-rule="evenodd"/><path d="M1956 1551C1956 1540.51 1956.71 1532 1957.58 1532L2599.42 1532C2600.29 1532 2601 1540.51 2601 1551" stroke="#4472C4" stroke-width="10.3125" stroke-miterlimit="8" fill="none" fill-rule="evenodd"/><path d="M1.14583-6.985e-06 1.14605 36.2848-1.14561 36.2848-1.14583 6.985e-06ZM13.7502 31.7014 0.000360892 59.2015-13.7498 31.7016Z" fill="#4472C4" transform="matrix(1 -1.22465e-16 -1.22465e-16 -1 2278 1532.2)"/><text font-family="SimSun,SimSun_MSFontService,sans-serif" font-weight="400" font-size="83" transform="matrix(1 0 0 1 2077.88 1356)">起始<tspan font-size="83" x="165" y="0">节点</tspan><tspan font-size="83" x="330" y="0">的</tspan><tspan font-size="83" x="41.25" y="99">前驱联系</tspan></text><path d="M3920.5 1561.5 3920.5 1740.92" stroke="#000000" stroke-width="6.875" stroke-miterlimit="8" fill="none" fill-rule="evenodd"/><text font-family="Times New Roman,Times New Roman_MSFontService,sans-serif" font-weight="400" font-size="83" transform="matrix(1 0 0 1 3187.79 1691)">……<tspan font-family="SimSun,SimSun_MSFontService,sans-serif" font-size="83" x="523.327" y="236">是否位于联系链</tspan><tspan font-family="SimSun,SimSun_MSFontService,sans-serif" font-size="83" x="688.327" y="331">最前端</tspan></text><path d="M4080 1764C4080 1775.05 4079.25 1784 4078.33 1784L3921.67 1784C3920.75 1784 3920 1775.05 3920 1764" stroke="#4472C4" stroke-width="10.3125" stroke-miterlimit="8" fill="none" fill-rule="evenodd"/><path d="M1.14583-6.985e-06 1.14605 36.2848-1.14561 36.2848-1.14583 6.985e-06ZM13.7502 31.7014 0.000360892 59.2015-13.7498 31.7016Z" fill="#4472C4" transform="matrix(-1 0 0 1 4000 1784)"/></g></svg>