<svg width="2816" height="1260" xmlns="http://www.w3.org/2000/svg" xmlns:xlink="http://www.w3.org/1999/xlink" overflow="hidden"><defs><clipPath id="clip0"><rect x="270" y="338" width="2816" height="1260"/></clipPath></defs><g clip-path="url(#clip0)" transform="translate(-270 -338)"><rect x="271.5" y="430.5" width="1657" height="1033" stroke="#000000" stroke-width="3.4375" stroke-linejoin="round" stroke-miterlimit="10" stroke-dasharray="13.75 10.3125" fill="#F2F2F2"/><path d="M1354.5 704.5 1443.25 1100.72" stroke="#000000" stroke-width="6.875" stroke-miterlimit="8" fill="#FFFFFF" fill-rule="evenodd"/><path d="M1382.5 636.5 1691.46 731.757" stroke="#000000" stroke-width="6.875" stroke-miterlimit="8" fill="#FFFFFF" fill-rule="evenodd"/><path d="M655.5 584C655.5 531.257 698.257 488.5 751 488.5 803.743 488.5 846.5 531.257 846.5 584 846.5 636.743 803.743 679.5 751 679.5 698.257 679.5 655.5 636.743 655.5 584Z" stroke="#000000" stroke-width="6.875" stroke-miterlimit="8" fill="#FFFFFF" fill-rule="evenodd"/><path d="M775.5 672.5 845.532 806.372" stroke="#000000" stroke-width="6.875" stroke-miterlimit="8" fill="#FFFFFF" fill-rule="evenodd"/><path d="M829.5 633.5 1375.68 1128.23" stroke="#000000" stroke-width="6.875" stroke-miterlimit="8" fill="#FFFFFF" fill-rule="evenodd"/><path d="M775.5 899.5C775.5 847.033 818.257 804.5 871 804.5 923.743 804.5 966.5 847.033 966.5 899.5 966.5 951.967 923.743 994.5 871 994.5 818.257 994.5 775.5 951.967 775.5 899.5Z" stroke="#000000" stroke-width="6.875" stroke-miterlimit="8" fill="#FFFFFF" fill-rule="evenodd"/><path d="M1690.5 768C1690.5 715.257 1733.03 672.5 1785.5 672.5 1837.97 672.5 1880.5 715.257 1880.5 768 1880.5 820.743 1837.97 863.5 1785.5 863.5 1733.03 863.5 1690.5 820.743 1690.5 768Z" stroke="#000000" stroke-width="6.875" stroke-miterlimit="8" fill="#FFFFFF" fill-rule="evenodd"/><path d="M0 0 730.775 133.556" stroke="#000000" stroke-width="6.875" stroke-miterlimit="8" fill="#FFFFFF" fill-rule="evenodd" transform="matrix(1 0 0 -1 959.5 901.056)"/><path d="M0 0 259.64 106.451" stroke="#000000" stroke-width="6.875" stroke-miterlimit="8" fill="#FFFFFF" fill-rule="evenodd" transform="matrix(-1 0 0 1 1348.14 1195.5)"/><path d="M486.5 987.5 925.846 1234.88" stroke="#000000" stroke-width="6.875" stroke-miterlimit="8" fill="#FFFFFF" fill-rule="evenodd"/><path d="M0 0 217.351 489.919" stroke="#000000" stroke-width="6.875" stroke-miterlimit="8" fill="#FFFFFF" fill-rule="evenodd" transform="matrix(-1 0 0 1 1248.85 726.5)"/><path d="M323.5 920C323.5 867.257 366.257 824.5 419 824.5 471.743 824.5 514.5 867.257 514.5 920 514.5 972.743 471.743 1015.5 419 1015.5 366.257 1015.5 323.5 972.743 323.5 920Z" stroke="#000000" stroke-width="6.875" stroke-miterlimit="8" fill="#FFFFFF" fill-rule="evenodd"/><path d="M1347.5 1196C1347.5 1143.26 1390.26 1100.5 1443 1100.5 1495.74 1100.5 1538.5 1143.26 1538.5 1196 1538.5 1248.74 1495.74 1291.5 1443 1291.5 1390.26 1291.5 1347.5 1248.74 1347.5 1196Z" stroke="#000000" stroke-width="6.875" stroke-miterlimit="8" fill="#FFFFFF" fill-rule="evenodd"/><path d="M897.5 1302C897.5 1249.26 940.257 1206.5 993 1206.5 1045.74 1206.5 1088.5 1249.26 1088.5 1302 1088.5 1354.74 1045.74 1397.5 993 1397.5 940.257 1397.5 897.5 1354.74 897.5 1302Z" stroke="#000000" stroke-width="6.875" stroke-miterlimit="8" fill="#FFFFFF" fill-rule="evenodd"/><path d="M1191.5 637C1191.5 584.257 1234.26 541.5 1287 541.5 1339.74 541.5 1382.5 584.257 1382.5 637 1382.5 689.743 1339.74 732.5 1287 732.5 1234.26 732.5 1191.5 689.743 1191.5 637Z" stroke="#000000" stroke-width="6.875" stroke-miterlimit="8" fill="#FFFFFF" fill-rule="evenodd"/><path d="M1984.06 1348.19 2217.81 1348.19 2217.81 1368.81 1984.06 1368.81ZM1994.38 1389.44 1932.5 1358.5 1994.38 1327.56ZM2207.5 1327.56 2269.38 1358.5 2207.5 1389.44Z" fill="#7F7F7F"/><path d="M2272.5 1165.5C2272.5 1118 2454.05 1079.5 2678 1079.5 2901.95 1079.5 3083.5 1118 3083.5 1165.5L3083.5 1509.5C3083.5 1557 2901.95 1595.5 2678 1595.5 2454.05 1595.5 2272.5 1557 2272.5 1509.5Z" fill="#BDD7EE" fill-rule="evenodd"/><path d="M3083.5 1165.5C3083.5 1213 2901.95 1251.5 2678 1251.5 2454.05 1251.5 2272.5 1213 2272.5 1165.5" stroke="#000000" stroke-width="4.58333" stroke-miterlimit="8" fill="none" fill-rule="evenodd"/><path d="M2272.5 1165.5C2272.5 1118 2454.05 1079.5 2678 1079.5 2901.95 1079.5 3083.5 1118 3083.5 1165.5L3083.5 1509.5C3083.5 1557 2901.95 1595.5 2678 1595.5 2454.05 1595.5 2272.5 1557 2272.5 1509.5Z" stroke="#000000" stroke-width="4.58333" stroke-miterlimit="8" fill="none" fill-rule="evenodd"/><text font-family="SimSun,SimSun_MSFontService,sans-serif" font-weight="400" font-size="128" transform="matrix(1 0 0 1 2549.33 1435)">磁盘</text><rect x="1171.5" y="524.5" width="720" height="357" stroke="#C00000" stroke-width="6.875" stroke-miterlimit="8" stroke-dasharray="6.875 6.875" fill="none"/><path d="M1943.08 693.273 2404.38 694.036 2404.34 714.661 1943.05 713.898ZM1953.32 734.54 1891.5 703.5 1953.43 672.665ZM2394.1 673.394 2455.92 704.434 2394 735.269Z" fill="#C00000"/><path d="M2455.5 567.991C2455.5 557.779 2463.78 549.5 2473.99 549.5L2902.01 549.5C2912.22 549.5 2920.5 557.779 2920.5 567.991L2920.5 840.009C2920.5 850.221 2912.22 858.5 2902.01 858.5L2473.99 858.5C2463.78 858.5 2455.5 850.221 2455.5 840.009Z" stroke="#41719C" stroke-width="4.58333" stroke-miterlimit="8" fill="#D6DCE5" fill-rule="evenodd"/><text font-family="SimSun,SimSun_MSFontService,sans-serif" font-weight="400" font-size="128" transform="matrix(1 0 0 1 2557.63 509)">内存</text><path d="M2632.5 646.5 2734.23 670.684" stroke="#000000" stroke-width="6.875" stroke-miterlimit="8" fill="#FFFFFF" fill-rule="evenodd"/><path d="M2734.5 677C2734.5 662.917 2744.35 651.5 2756.5 651.5 2768.65 651.5 2778.5 662.917 2778.5 677 2778.5 691.083 2768.65 702.5 2756.5 702.5 2744.35 702.5 2734.5 691.083 2734.5 677Z" stroke="#000000" stroke-width="6.875" stroke-miterlimit="8" fill="#FFFFFF" fill-rule="evenodd"/><path d="M2588.5 646.5C2588.5 633.245 2598.35 622.5 2610.5 622.5 2622.65 622.5 2632.5 633.245 2632.5 646.5 2632.5 659.755 2622.65 670.5 2610.5 670.5 2598.35 670.5 2588.5 659.755 2588.5 646.5Z" stroke="#000000" stroke-width="6.875" stroke-miterlimit="8" fill="#FFFFFF" fill-rule="evenodd"/><path d="M0 0 163.493 35.519" stroke="#000000" stroke-width="6.875" stroke-miterlimit="8" fill="#FFFFFF" fill-rule="evenodd" transform="matrix(1 0 0 -1 2577.5 731.019)"/></g></svg>