<svg width="739" height="302" xmlns="http://www.w3.org/2000/svg" xmlns:xlink="http://www.w3.org/1999/xlink" overflow="hidden"><defs><clipPath id="clip0"><rect x="253" y="92" width="739" height="302"/></clipPath></defs><g clip-path="url(#clip0)" transform="translate(-253 -92)"><path d="M260 302.5C260 253.071 307.01 213 365 213 422.99 213 470 253.071 470 302.5 470 351.929 422.99 392 365 392 307.01 392 260 351.929 260 302.5Z" stroke="#000000" stroke-width="2" stroke-miterlimit="8" fill="#E2F0D9" fill-rule="evenodd"/><text font-family="Times New Roman,Times New Roman_MSFontService,sans-serif" font-weight="400" font-size="21" transform="translate(300.097 259)">CID:</text><text font-family="SimSun,SimSun_MSFontService,sans-serif" font-weight="400" font-size="21" transform="translate(348.097 259)">沪</text><text font-family="Times New Roman,Times New Roman_MSFontService,sans-serif" font-weight="400" font-size="21" transform="translate(369.43 259)">AD…</text><text font-family="SimSun,SimSun_MSFontService,sans-serif" font-weight="400" font-size="21" transform="translate(300.097 284)">费用</text><text font-family="Times New Roman,Times New Roman_MSFontService,sans-serif" font-weight="400" font-size="21" transform="translate(342.764 284)">:</text><text font-family="Times New Roman,Times New Roman_MSFontService,sans-serif" font-weight="400" font-size="21" transform="translate(354.097 284)">1</text><text font-family="Times New Roman,Times New Roman_MSFontService,sans-serif" font-weight="400" font-size="21" transform="translate(364.764 284)">0</text><text font-family="SimSun,SimSun_MSFontService,sans-serif" font-weight="400" font-size="21" transform="translate(300.097 310)">入口地</text><text font-family="Times New Roman,Times New Roman_MSFontService,sans-serif" font-weight="400" font-size="21" transform="translate(364.097 310)">:</text><text font-family="SimSun,SimSun_MSFontService,sans-serif" font-style="oblique" font-weight="700" font-size="21" transform="translate(300.177 337)">上海市松江区</text><text font-family="SimSun,SimSun_MSFontService,sans-serif" font-style="oblique" font-weight="700" font-size="21" transform="translate(332.43 361)">新桥镇</text><rect x="311" y="200" width="107" height="35" stroke="#000000" stroke-width="2" stroke-miterlimit="8" fill="#FFFFFF"/><text font-family="SimSun,SimSun_MSFontService,sans-serif" font-weight="400" font-size="21" transform="translate(322.087 226)">高速收费</text><rect x="254.5" y="96.5001" width="221" height="68" stroke="#000000" stroke-linejoin="round" stroke-miterlimit="10" stroke-dasharray="4 3" fill="#F2F2F2"/><text font-family="SimSun,SimSun_MSFontService,sans-serif" font-weight="400" font-size="24" transform="translate(316.754 124)">多值属性</text><text font-family="SimSun,SimSun_MSFontService,sans-serif" font-weight="400" font-size="24" transform="translate(268.754 153)">直接归属到实体中</text><rect x="678.5" y="96.5001" width="221" height="68" stroke="#000000" stroke-linejoin="round" stroke-miterlimit="10" stroke-dasharray="4 3" fill="#F2F2F2"/><text font-family="SimSun,SimSun_MSFontService,sans-serif" font-weight="400" font-size="24" transform="translate(740.657 124)">多值属性</text><text font-family="SimSun,SimSun_MSFontService,sans-serif" font-weight="400" font-size="24" transform="translate(692.657 153)">建立成单独的节点</text><path d="M851 297C851 262.206 882.116 234 920.5 234 958.884 234 990 262.206 990 297 990 331.794 958.884 360 920.5 360 882.116 360 851 331.794 851 297Z" stroke="#000000" stroke-width="2" stroke-miterlimit="8" fill="#E2F0D9" fill-rule="evenodd"/><rect x="889" y="217" width="63" height="36" stroke="#000000" stroke-width="2" stroke-miterlimit="8" fill="#FFFFFF"/><text font-family="SimSun,SimSun_MSFontService,sans-serif" font-weight="400" font-size="21" transform="translate(899.079 243)">地点</text><path d="M3.55691e-06-2 108.065-1.99981 108.065 2.00019-3.55691e-06 2ZM106.065-5.99981 118.065 0.000209974 106.065 6.00019Z" transform="matrix(1 0 0 -1 733 297)"/><text font-family="SimSun,SimSun_MSFontService,sans-serif" font-weight="400" font-size="24" transform="translate(763.857 283)">归属</text><path d="M593 297C593 262.206 624.34 234 663 234 701.66 234 733 262.206 733 297 733 331.794 701.66 360 663 360 624.34 360 593 331.794 593 297Z" stroke="#000000" stroke-width="2" stroke-miterlimit="8" fill="#E2F0D9" fill-rule="evenodd"/><rect x="611" y="220" width="107" height="35" stroke="#000000" stroke-width="2" stroke-miterlimit="8" fill="#FFFFFF"/><text font-family="SimSun,SimSun_MSFontService,sans-serif" font-weight="400" font-size="21" transform="translate(622.151 246)">高速收费</text><text font-family="Times New Roman,Times New Roman_MSFontService,sans-serif" font-weight="400" font-size="21" transform="translate(607.42 294)">CID:</text><text font-family="SimSun,SimSun_MSFontService,sans-serif" font-weight="400" font-size="21" transform="translate(655.42 294)">沪</text><text font-family="Times New Roman,Times New Roman_MSFontService,sans-serif" font-weight="400" font-size="21" transform="translate(676.753 294)">AD…</text><text font-family="SimSun,SimSun_MSFontService,sans-serif" font-weight="400" font-size="21" transform="translate(607.42 319)">费用</text><text font-family="Times New Roman,Times New Roman_MSFontService,sans-serif" font-weight="400" font-size="21" transform="translate(650.086 319)">:</text><text font-family="Times New Roman,Times New Roman_MSFontService,sans-serif" font-weight="400" font-size="21" transform="translate(661.42 319)">10</text><text font-family="SimSun,SimSun_MSFontService,sans-serif" font-weight="400" font-size="21" transform="translate(865.882 279)">城市</text><text font-family="SimSun,SimSun_MSFontService,sans-serif" font-weight="400" font-size="21" transform="translate(913.882 279)">上海</text><text font-family="SimSun,SimSun_MSFontService,sans-serif" font-weight="400" font-size="21" transform="translate(865.882 304)">区县</text><text font-family="SimSun,SimSun_MSFontService,sans-serif" font-weight="400" font-size="21" transform="translate(913.882 304)">松江区</text><text font-family="SimSun,SimSun_MSFontService,sans-serif" font-weight="400" font-size="21" transform="translate(865.882 330)">城镇</text><text font-family="SimSun,SimSun_MSFontService,sans-serif" font-weight="400" font-size="21" transform="translate(913.882 330)">新桥镇</text></g></svg>